<svg width="20" height="20" viewBox="0 0 20 20" fill="none" xmlns="http://www.w3.org/2000/svg">
<rect width="20" height="20" rx="10" fill="#E4E7EC"/>
<path d="M17.2744 13.5635H2.20281C2.0908 13.5635 2 13.4727 2 13.3607V7.11946C2 7.00747 2.0908 6.91667 2.20281 6.91667H16.1431L17.4772 8.23467V13.3607C17.4772 13.4727 17.3864 13.5635 17.2744 13.5635Z" fill="#404653"/>
<path d="M17.7959 13.0835H2.72429C2.61226 13.0835 2.52148 12.9927 2.52148 12.8807V6.63948C2.52148 6.52749 2.61226 6.43669 2.72429 6.43669H16.5422C16.5617 6.43669 16.5805 6.44445 16.5943 6.45824L17.9771 7.84097C17.9909 7.85478 17.9987 7.87349 17.9987 7.89301V12.8807C17.9987 12.9927 17.9079 13.0835 17.7959 13.0835Z" fill="white"/>
<path d="M17.7959 13.0835H2.72429C2.61226 13.0835 2.52148 12.9927 2.52148 12.8807V6.63948C2.52148 6.52749 2.61226 6.43669 2.72429 6.43669H16.5422C16.5617 6.43669 16.5805 6.44445 16.5943 6.45824L17.9771 7.84097C17.9909 7.85478 17.9987 7.87349 17.9987 7.89301V12.8807C17.9987 12.9927 17.9079 13.0835 17.7959 13.0835Z" stroke="#404653" stroke-width="0.0777746" stroke-miterlimit="10"/>
<path d="M4.51815 11.2959H4.26172V7.46243H4.51815V11.2959Z" fill="#404653"/>
<path d="M4.90291 11.2959H4.64648V7.46243H4.90291V11.2959Z" fill="#404653"/>
<path d="M9.36776 11.2959H9.11133V7.46243H9.36776V11.2959Z" fill="#404653"/>
<path d="M10.1588 11.2959H9.90234V7.46243H10.1588V11.2959Z" fill="#404653"/>
<path d="M12.2233 11.2959H11.9668V7.46243H12.2233V11.2959Z" fill="#404653"/>
<path d="M12.6178 11.2959H12.3613V7.46243H12.6178V11.2959Z" fill="#404653"/>
<path d="M13.0494 11.2959H12.793V7.46243H13.0494V11.2959Z" fill="#404653"/>
<path d="M15.4283 11.2959H15.1719V7.46243H15.4283V11.2959Z" fill="#404653"/>
<path d="M7.75838 11.2959H7.50195V7.46243H7.75838V11.2959Z" fill="#404653"/>
<path d="M7.31517 11.2959H6.7207V7.46243H7.31517V11.2959Z" fill="#404653"/>
<path d="M8.95183 11.2959H8.35742V7.46243H8.95183V11.2959Z" fill="#404653"/>
<path d="M10.9577 11.2959H10.3633V7.46243H10.9577V11.2959Z" fill="#404653"/>
<path d="M11.7742 11.2959H11.1797V7.46243H11.7742V11.2959Z" fill="#404653"/>
<path d="M14.2214 11.2959H13.627V7.46243H14.2214V11.2959Z" fill="#404653"/>
<path d="M15.0144 11.2959H14.4199V7.46243H15.0144V11.2959Z" fill="#404653"/>
<path d="M16.2605 11.2959H15.666V7.46243H16.2605V11.2959Z" fill="#404653"/>
<path d="M6.46544 11.2959H6.20898V7.46243H6.46544V11.2959Z" fill="#404653"/>
<path d="M5.67263 11.2959H5.08984V7.46243H5.67263V11.2959Z" fill="#404653"/>
<path d="M5.84462 12.2087C5.84832 12.1485 5.8454 12.2613 5.84648 11.7145C5.81633 11.7446 5.73345 11.8268 5.69557 11.8268C5.67012 11.8268 5.64844 11.8079 5.64844 11.7806C5.64844 11.7435 5.69584 11.7212 5.78799 11.6372C5.81858 11.6095 5.83791 11.5863 5.87855 11.5863C5.92098 11.5863 5.94178 11.6061 5.94178 11.6448C5.94178 11.65 5.93913 12.1577 5.94178 12.1992C5.94505 12.2492 5.94667 12.3228 5.89646 12.3228C5.86157 12.3228 5.84099 12.2622 5.84462 12.2087Z" fill="#404653"/>
<path d="M6.63104 12.2186H6.85926C6.88595 12.2186 6.96021 12.2029 6.96021 12.2657C6.96021 12.3319 6.87662 12.3129 6.84133 12.3129H6.63672C6.5729 12.3129 6.53391 12.3201 6.53391 12.2412C6.53391 11.9419 6.8621 11.9465 6.8621 11.7857C6.8621 11.7301 6.82249 11.6811 6.73193 11.6811C6.64897 11.6811 6.59426 11.7282 6.56598 11.7282C6.53672 11.7282 6.52539 11.7 6.52539 11.6811C6.52539 11.5763 6.95642 11.4967 6.95642 11.7933C6.95642 12.0008 6.63104 12.0247 6.63104 12.2186Z" fill="#404653"/>
<path d="M7.41412 11.9559C7.39581 11.9515 7.35684 11.959 7.33678 11.9389C7.31328 11.9178 7.32112 11.8839 7.34338 11.8616L7.5037 11.6937C7.26158 11.6947 7.19625 11.7115 7.19625 11.6456C7.19625 11.5799 7.2632 11.5965 7.54048 11.5985C7.5782 11.5985 7.63479 11.59 7.63388 11.6598C7.63388 11.7303 7.53372 11.7806 7.46974 11.872C7.72379 11.8936 7.76548 12.3922 7.28208 12.3133C7.15826 12.2923 7.18457 12.202 7.23773 12.202C7.26772 12.202 7.31036 12.2304 7.38204 12.2304C7.49521 12.2304 7.63147 11.9857 7.41412 11.9559Z" fill="#404653"/>
<path d="M8.1547 12.1586H7.96042C7.934 12.1586 7.90287 12.1623 7.884 12.1397C7.84503 12.0877 7.90058 12.0078 7.96701 11.8625L8.03305 11.7229L8.04811 11.6833C8.05647 11.6688 8.07572 11.5899 8.12545 11.5899C8.15092 11.5899 8.17263 11.6087 8.17263 11.6362C8.17263 11.6711 8.13807 11.7321 8.11698 11.7672C8.11468 11.7722 7.98978 12.0405 7.97551 12.0643H8.1547C8.1547 12.0052 8.1328 11.9096 8.20186 11.9096C8.26968 11.9096 8.24902 12.0076 8.24902 12.0643C8.28791 12.0643 8.34429 12.0547 8.34429 12.1105C8.34429 12.167 8.28098 12.1586 8.24902 12.1586C8.24902 12.2151 8.27347 12.3218 8.20186 12.3218C8.16695 12.3218 8.14997 12.2953 8.14997 12.2435C8.14997 12.2174 8.1547 12.1693 8.1547 12.1586Z" fill="#404653"/>
<path d="M8.70434 11.6934L8.69582 11.8292C9.03721 11.8292 9.02834 12.1101 8.92218 12.2282C8.86212 12.2932 8.73073 12.3281 8.64963 12.3281C8.56305 12.3281 8.56778 12.2544 8.60718 12.2357C8.63784 12.2218 8.689 12.2375 8.76658 12.2131C8.94535 12.1569 8.93908 11.9298 8.72224 11.9236C8.65948 11.9236 8.59679 11.947 8.59679 11.8632C8.59679 11.8335 8.60437 11.8043 8.60437 11.7821C8.60623 11.7 8.61002 11.6482 8.61662 11.6284C8.62873 11.5902 8.64947 11.5972 8.91652 11.5972C8.96084 11.5972 8.98256 11.6133 8.98256 11.6454C8.98256 11.7108 8.9182 11.6944 8.70434 11.6934Z" fill="#404653"/>
<path d="M9.37498 11.9777C9.29621 12.0467 9.31101 12.2323 9.47119 12.2323C9.558 12.2323 9.61643 12.1805 9.61643 12.0862C9.61643 11.9363 9.44532 11.9188 9.37498 11.9777ZM9.57968 11.6665C9.5435 11.7178 9.58631 11.6428 9.41463 11.8589C9.7783 11.7895 9.81778 12.3257 9.47311 12.3257C9.21025 12.3257 9.10168 12.0096 9.49104 11.6203C9.51081 11.5996 9.52779 11.5892 9.54288 11.5892C9.58206 11.5892 9.60232 11.6309 9.57968 11.6665Z" fill="#404653"/>
<path d="M10.036 12.2623C10.036 11.9166 10.2217 11.8499 10.2869 11.6937H10.0351C9.99037 11.6937 9.92188 11.7089 9.92188 11.6465C9.92188 11.5802 10.0134 11.5993 10.0511 11.5993H10.2822C10.3313 11.5993 10.3944 11.5893 10.3944 11.6587C10.3944 11.7638 10.2427 11.9155 10.2114 11.9643C10.0809 12.1671 10.18 12.3218 10.0851 12.3218C10.0596 12.3218 10.036 12.3066 10.036 12.2623Z" fill="#404653"/>
<path d="M11.1395 11.8264C11.1696 11.8481 11.1913 11.8585 11.2036 11.8585C11.2436 11.8585 11.3139 11.8075 11.3139 11.7529C11.3139 11.7105 11.2687 11.6802 11.2074 11.6802C11.0879 11.6802 11.0585 11.7682 11.1395 11.8264ZM11.2583 11.9971C11.2099 11.9642 11.2045 11.9552 11.1621 11.9858C10.9935 12.1075 11.0618 12.2329 11.2064 12.2329C11.3488 12.2329 11.4064 12.1024 11.2583 11.9971ZM11.1036 11.9141C10.9543 11.8473 10.9499 11.5869 11.2083 11.5869C11.3075 11.5869 11.4073 11.6382 11.4073 11.7463C11.4082 11.8491 11.3413 11.8877 11.3054 11.9169C11.3375 11.9349 11.3677 11.9632 11.396 12.0009C11.4993 12.1343 11.4114 12.3271 11.2054 12.3271C10.9782 12.3271 10.8557 12.0826 11.1036 11.9141Z" fill="#404653"/>
<path d="M11.9307 11.9587C12.0704 11.942 12.0641 11.7074 11.8863 11.6805C11.7374 11.658 11.6599 11.9921 11.9307 11.9587ZM11.7769 12.2454C11.8036 12.2072 11.8324 12.2131 11.942 12.053C11.8891 12.053 11.8129 12.0622 11.7477 12.02C11.6274 11.9432 11.6161 11.7616 11.7156 11.6578C11.8697 11.4939 12.2241 11.6192 12.0948 11.9625C12.048 12.0862 11.8799 12.3218 11.8137 12.3218C11.7699 12.3218 11.7559 12.2725 11.7769 12.2454Z" fill="#404653"/>
<path d="M14.6826 11.9587C14.8224 11.942 14.816 11.7074 14.6383 11.6805C14.4894 11.658 14.4118 11.9921 14.6826 11.9587ZM14.5289 12.2454C14.5556 12.2072 14.5844 12.2131 14.6939 12.053C14.641 12.053 14.5649 12.0622 14.4996 12.02C14.3794 11.9432 14.3681 11.7616 14.4676 11.6578C14.6217 11.4939 14.976 11.6192 14.8467 11.9625C14.8 12.0862 14.6319 12.3218 14.5657 12.3218C14.5218 12.3218 14.5078 12.2725 14.5289 12.2454Z" fill="#404653"/>
<path d="M12.5556 12.2087C12.5593 12.1457 12.5563 12.2637 12.5574 11.7145C12.5276 11.7444 12.4444 11.8268 12.4065 11.8268C12.3811 11.8268 12.3594 11.8079 12.3594 11.7806C12.3594 11.7435 12.407 11.721 12.499 11.6372C12.5296 11.6094 12.5489 11.5863 12.5895 11.5863C12.6319 11.5863 12.6527 11.6061 12.6527 11.6448C12.6527 12.3323 12.6546 12.2221 12.6546 12.2341C12.6546 12.2935 12.6385 12.3228 12.6074 12.3228C12.5541 12.3228 12.5519 12.2622 12.5556 12.2087Z" fill="#404653"/>
<path d="M13.2942 12.0116C13.215 12.0663 13.1329 12.1201 13.1329 12.2182H13.3612C13.384 12.2182 13.4621 12.2019 13.4621 12.2653C13.4621 12.3314 13.3785 12.3124 13.3433 12.3124C13.3351 12.3125 13.1102 12.3134 13.1037 12.3134C13.0537 12.3134 13.0358 12.2945 13.0358 12.2407C13.0358 12.0163 13.217 11.9655 13.3159 11.8786C13.4019 11.8024 13.372 11.6806 13.2339 11.6806C13.1509 11.6806 13.0961 11.7277 13.0679 11.7277C13.0386 11.7277 13.0273 11.6995 13.0273 11.6806C13.0273 11.5741 13.4583 11.4979 13.4583 11.7928C13.4583 11.8258 13.3782 11.9537 13.2942 12.0116Z" fill="#404653"/>
<path d="M14.0632 12.0888C14.0632 11.9979 13.9857 11.9614 13.8916 11.954C13.857 11.9527 13.8246 11.9428 13.8246 11.9078C13.8246 11.8673 13.8478 11.8656 14.0057 11.6937H13.7906C13.7475 11.6937 13.6982 11.6993 13.6982 11.6456C13.6982 11.5823 13.7803 11.5984 13.8217 11.5984H14.0424C14.0802 11.5984 14.1367 11.59 14.1358 11.6598C14.1358 11.7305 14.0362 11.7797 13.9717 11.872C14.225 11.8935 14.2678 12.3922 13.784 12.3133C13.6597 12.2921 13.6869 12.202 13.7397 12.202C13.7724 12.202 13.8081 12.2303 13.884 12.2303C13.9972 12.2303 14.0632 12.1681 14.0632 12.0888Z" fill="#404653"/>
<path d="M16.5742 6.43645V7.65952C16.5742 7.77151 16.665 7.8623 16.777 7.8623H18.0002L16.5742 6.43645Z" fill="#A4E4EA"/>
<path d="M16.5742 6.43645V7.65952C16.5742 7.77151 16.665 7.8623 16.777 7.8623H18.0002L16.5742 6.43645Z" stroke="#404653" stroke-width="0.0777746" stroke-linecap="round" stroke-linejoin="round"/>
</svg>
