<svg width="18" height="18" viewBox="0 0 18 18" fill="none" xmlns="http://www.w3.org/2000/svg">
<path fill-rule="evenodd" clip-rule="evenodd" d="M9 18C10.2346 18 11.3951 17.7639 12.4815 17.2917C13.5679 16.8194 14.5247 16.1698 15.3519 15.3426C16.179 14.5154 16.8272 13.5602 17.2963 12.4769C17.7654 11.3935 18 10.2346 18 9C18 7.76543 17.7654 6.60648 17.2963 5.52315C16.8272 4.43982 16.1775 3.48302 15.3472 2.65278C14.517 1.82253 13.5586 1.17284 12.4722 0.703704C11.3858 0.234568 10.2253 0 8.99074 0C7.76852 0 6.6142 0.234568 5.52778 0.703704C4.44136 1.17284 3.48302 1.82253 2.65278 2.65278C1.82253 3.48302 1.17284 4.43982 0.703704 5.52315C0.234568 6.60648 0 7.76543 0 9C0 10.2346 0.236111 11.3935 0.708333 12.4769C1.18056 13.5602 1.83025 14.5154 2.65741 15.3426C3.48457 16.1698 4.44136 16.8194 5.52778 17.2917C6.6142 17.7639 7.77161 18 9 18ZM8.93517 5.8708C8.58949 5.8708 8.29937 5.75197 8.0648 5.51432C7.83024 5.27666 7.71295 4.98808 7.71295 4.64858C7.71295 4.3029 7.83024 4.01123 8.0648 3.77358C8.29937 3.53592 8.58949 3.41709 8.93517 3.41709C9.26851 3.41709 9.554 3.53592 9.79166 3.77358C10.0293 4.01123 10.1481 4.3029 10.1481 4.64858C10.1481 4.98808 10.0293 5.27666 9.79166 5.51432C9.554 5.75197 9.26851 5.8708 8.93517 5.8708ZM7.39817 13.9718H11.0834C11.2809 13.9718 11.4475 13.9069 11.5834 13.7773C11.7192 13.6477 11.7871 13.4841 11.7871 13.2866C11.7871 13.1014 11.7192 12.9409 11.5834 12.8051C11.4475 12.6693 11.2809 12.6014 11.0834 12.6014H10.0278V8.18472C10.0278 7.92546 9.96452 7.71558 9.83798 7.55509C9.71144 7.3946 9.52471 7.31435 9.27779 7.31435H7.55557C7.35804 7.31435 7.19137 7.38071 7.05557 7.51342C6.91977 7.64614 6.85187 7.80509 6.85187 7.99028C6.85187 8.19398 6.91977 8.3591 7.05557 8.48565C7.19137 8.61219 7.35804 8.67546 7.55557 8.67546H8.49076V12.6014H7.39817C7.20681 12.6014 7.04168 12.6693 6.90279 12.8051C6.76391 12.9409 6.69446 13.1014 6.69446 13.2866C6.69446 13.4841 6.76391 13.6477 6.90279 13.7773C7.04168 13.9069 7.20681 13.9718 7.39817 13.9718Z" fill="#6F7076"/>
</svg>
