<svg width="16" height="16" viewBox="0 0 16 16" fill="none" xmlns="http://www.w3.org/2000/svg">
<path fill-rule="evenodd" clip-rule="evenodd" d="M8 0C3.58172 0 0 3.58172 0 8C0 12.4183 3.58172 16 8 16C12.4183 16 16 12.4183 16 8C16 3.58172 12.4183 0 8 0ZM12.2774 5.98323C12.5719 5.69195 12.5745 5.21708 12.2832 4.92259C11.9919 4.62809 11.5171 4.62549 11.2226 4.91677L6.59375 9.49511L4.77741 7.69859C4.48292 7.4073 4.00805 7.40991 3.71677 7.7044C3.42549 7.9989 3.42809 8.47377 3.72259 8.76505L6.06634 11.0832C6.35855 11.3723 6.82895 11.3723 7.12116 11.0832L12.2774 5.98323Z" fill="#039855"/>
</svg>
