<svg width="24" height="24" viewBox="0 0 24 24" fill="none" xmlns="http://www.w3.org/2000/svg">
<g clip-path="url(#clip0)">
<path d="M13.0684 1C6.95688 1 2.00195 5.95493 2.00195 12.0664C2.00195 17.5891 6.04824 22.1666 11.3396 23V15.266H8.52847V12.0664H11.3396V9.62823C11.3396 6.8525 12.992 5.32186 15.5187 5.32186C16.7295 5.32186 17.9978 5.53768 17.9978 5.53768V8.25918H16.5989C15.2265 8.25918 14.7971 9.11359 14.7971 9.98903V12.0642H17.8639L17.3736 15.2638H14.7971V22.9978C20.0885 22.1688 24.1348 17.5902 24.1348 12.0664C24.1348 5.95493 19.1798 1 13.0684 1Z" fill="white"/>
</g>
<defs>
<clipPath id="clip0">
<rect width="24" height="24" fill="white"/>
</clipPath>
</defs>
</svg>
