<svg width="20" height="20" viewBox="0 0 20 20" fill="none" xmlns="http://www.w3.org/2000/svg">
<path d="M10.9894 14.6616C11.2823 14.3687 11.2823 13.8938 10.9894 13.6009C10.6965 13.308 10.2216 13.308 9.9287 13.6009L10.9894 14.6616ZM9.54097 15.0493L10.0713 15.5796L9.54097 15.0493ZM4.95068 10.459L5.48101 10.9894L4.95068 10.459ZM6.39907 10.0713C6.69196 9.77841 6.69196 9.30353 6.39907 9.01064C6.10618 8.71775 5.6313 8.71775 5.33841 9.01064L6.39907 10.0713ZM4.95068 15.0493L5.48101 14.519H5.48101L4.95068 15.0493ZM13.6009 9.9287C13.308 10.2216 13.308 10.6965 13.6009 10.9894C13.8938 11.2823 14.3687 11.2823 14.6616 10.9894L13.6009 9.9287ZM10.459 4.95068L10.9894 5.48101L10.459 4.95068ZM9.01064 5.33841C8.71775 5.6313 8.71775 6.10618 9.01064 6.39907C9.30353 6.69196 9.77841 6.69196 10.0713 6.39907L9.01064 5.33841ZM15.0493 4.95068L14.519 5.48101V5.48101L15.0493 4.95068ZM7.19759 11.7417C6.9047 12.0346 6.9047 12.5095 7.19759 12.8024C7.49049 13.0953 7.96536 13.0953 8.25825 12.8024L7.19759 11.7417ZM12.8024 8.25824C13.0953 7.96534 13.0953 7.49047 12.8024 7.19758C12.5095 6.90468 12.0346 6.90468 11.7417 7.19758L12.8024 8.25824ZM9.9287 13.6009L9.01064 14.519L10.0713 15.5796L10.9894 14.6616L9.9287 13.6009ZM5.48101 10.9894L6.39907 10.0713L5.33841 9.01064L4.42035 9.9287L5.48101 10.9894ZM5.48101 14.519C4.50633 13.5443 4.50633 11.964 5.48101 10.9894L4.42035 9.9287C2.85988 11.4892 2.85988 14.0192 4.42035 15.5796L5.48101 14.519ZM9.01064 14.519C8.03596 15.4937 6.45569 15.4937 5.48101 14.519L4.42035 15.5796C5.98082 17.1401 8.51083 17.1401 10.0713 15.5796L9.01064 14.519ZM14.6616 10.9894L15.5796 10.0713L14.519 9.01064L13.6009 9.9287L14.6616 10.9894ZM9.9287 4.42035L9.01064 5.33841L10.0713 6.39907L10.9894 5.48101L9.9287 4.42035ZM15.5796 4.42035C14.0192 2.85988 11.4892 2.85988 9.9287 4.42035L10.9894 5.48101C11.964 4.50633 13.5443 4.50633 14.519 5.48101L15.5796 4.42035ZM15.5796 10.0713C17.1401 8.51083 17.1401 5.98082 15.5796 4.42035L14.519 5.48101C15.4937 6.45569 15.4937 8.03596 14.519 9.01064L15.5796 10.0713ZM8.25825 12.8024L12.8024 8.25824L11.7417 7.19758L7.19759 11.7417L8.25825 12.8024Z" fill="#0098A5"/>
</svg>
