<svg width="12" height="11" viewBox="0 0 12 11" fill="none" xmlns="http://www.w3.org/2000/svg">
<path d="M4.29102 10.8289C4.69092 10.8289 5.00195 10.6765 5.21777 10.3528L10.8228 1.77075C10.9751 1.53589 11.0386 1.32007 11.0386 1.11694C11.0386 0.564697 10.626 0.171143 10.0674 0.171143C9.68652 0.171143 9.44531 0.304443 9.21045 0.672607L4.27197 8.47388L1.7583 5.35718C1.54248 5.09692 1.30762 4.97632 0.977539 4.97632C0.412598 4.97632 0 5.38257 0 5.93481C0 6.17603 0.0761719 6.39185 0.285645 6.6394L3.38965 10.3972C3.63721 10.6956 3.92285 10.8289 4.29102 10.8289Z" fill="white"/>
</svg>
