<svg width="343" height="125" viewBox="0 0 343 125" fill="none" xmlns="http://www.w3.org/2000/svg">
<path d="M343 0H0V125H343V0Z" fill="white"/>
<path d="M130.98 112.3V32.7075" stroke="#BAC2CF" stroke-width="1.59" stroke-miterlimit="10"/>
<path d="M154.19 13H107.76C104.767 13 102.34 15.4325 102.34 18.4331V50.23C102.34 53.2307 104.767 55.6632 107.76 55.6632H154.19C157.183 55.6632 159.61 53.2307 159.61 50.23V18.4331C159.61 15.4325 157.183 13 154.19 13Z" fill="white" stroke="#BAC2CF" stroke-width="1.59" stroke-miterlimit="10"/>
<path d="M141.81 21.3701H120.14C118.71 21.3701 117.55 22.5325 117.55 23.9664V45.6889C117.55 47.1228 118.71 48.2852 120.14 48.2852H141.81C143.24 48.2852 144.4 47.1228 144.4 45.6889V23.9664C144.4 22.5325 143.24 21.3701 141.81 21.3701Z" stroke="#BAC2CF" stroke-width="1.59" stroke-miterlimit="10"/>
<path d="M144.41 27.9761H117.55" stroke="#BAC2CF" stroke-width="1.59" stroke-miterlimit="10"/>
<path d="M138.67 23.9162V19.2348" stroke="#BAC2CF" stroke-width="1.59" stroke-miterlimit="10"/>
<path d="M123.29 23.9162V19.2348" stroke="#BAC2CF" stroke-width="1.59" stroke-miterlimit="10"/>
<path d="M139.27 34.101C139.27 33.4533 138.746 32.9282 138.1 32.9282C137.454 32.9282 136.93 33.4533 136.93 34.101C136.93 34.7488 137.454 35.2739 138.1 35.2739C138.746 35.2739 139.27 34.7488 139.27 34.101Z" fill="#BAC2CF"/>
<path d="M132 34.101C132 33.4533 131.476 32.9282 130.83 32.9282C130.184 32.9282 129.66 33.4533 129.66 34.101C129.66 34.7488 130.184 35.2739 130.83 35.2739C131.476 35.2739 132 34.7488 132 34.101Z" fill="#BAC2CF"/>
<path d="M124.73 34.101C124.73 33.4533 124.206 32.9282 123.56 32.9282C122.914 32.9282 122.39 33.4533 122.39 34.101C122.39 34.7488 122.914 35.2739 123.56 35.2739C124.206 35.2739 124.73 34.7488 124.73 34.101Z" fill="#BAC2CF"/>
<path d="M139.27 38.2612C139.27 37.6135 138.746 37.0884 138.1 37.0884C137.454 37.0884 136.93 37.6135 136.93 38.2612C136.93 38.9089 137.454 39.434 138.1 39.434C138.746 39.434 139.27 38.9089 139.27 38.2612Z" fill="#BAC2CF"/>
<path d="M132 38.2612C132 37.6135 131.476 37.0884 130.83 37.0884C130.184 37.0884 129.66 37.6135 129.66 38.2612C129.66 38.9089 130.184 39.434 130.83 39.434C131.476 39.434 132 38.9089 132 38.2612Z" fill="#BAC2CF"/>
<path d="M124.73 38.2612C124.73 37.6135 124.206 37.0884 123.56 37.0884C122.914 37.0884 122.39 37.6135 122.39 38.2612C122.39 38.9089 122.914 39.434 123.56 39.434C124.206 39.434 124.73 38.9089 124.73 38.2612Z" fill="#BAC2CF"/>
<path d="M139.27 42.4214C139.27 41.7736 138.746 41.2485 138.1 41.2485C137.454 41.2485 136.93 41.7736 136.93 42.4214C136.93 43.0691 137.454 43.5942 138.1 43.5942C138.746 43.5942 139.27 43.0691 139.27 42.4214Z" fill="#BAC2CF"/>
<path d="M132 42.4214C132 41.7736 131.476 41.2485 130.83 41.2485C130.184 41.2485 129.66 41.7736 129.66 42.4214C129.66 43.0691 130.184 43.5942 130.83 43.5942C131.476 43.5942 132 43.0691 132 42.4214Z" fill="#BAC2CF"/>
<path d="M124.73 42.4214C124.73 41.7736 124.206 41.2485 123.56 41.2485C122.914 41.2485 122.39 41.7736 122.39 42.4214C122.39 43.0691 122.914 43.5942 123.56 43.5942C124.206 43.5942 124.73 43.0691 124.73 42.4214Z" fill="#BAC2CF"/>
<path d="M207.42 63.7627H144.38C142.027 63.7627 140.12 65.6746 140.12 68.033V107.468C140.12 109.827 142.027 111.739 144.38 111.739H207.42C209.773 111.739 211.68 109.827 211.68 107.468V68.033C211.68 65.6746 209.773 63.7627 207.42 63.7627Z" fill="#EFEFEF"/>
<path d="M207.42 63.7627H144.38C142.027 63.7627 140.12 65.6746 140.12 68.033V107.468C140.12 109.827 142.027 111.739 144.38 111.739H207.42C209.773 111.739 211.68 109.827 211.68 107.468V68.033C211.68 65.6746 209.773 63.7627 207.42 63.7627Z" stroke="#BAC2CF" stroke-width="1.59" stroke-miterlimit="10"/>
<path d="M214.87 63.7627H151.83C149.477 63.7627 147.57 65.6746 147.57 68.033V107.468C147.57 109.827 149.477 111.739 151.83 111.739H214.87C217.223 111.739 219.13 109.827 219.13 107.468V68.033C219.13 65.6746 217.223 63.7627 214.87 63.7627Z" fill="white"/>
<path d="M214.87 63.7627H151.83C149.477 63.7627 147.57 65.6746 147.57 68.033V107.468C147.57 109.827 149.477 111.739 151.83 111.739H214.87C217.223 111.739 219.13 109.827 219.13 107.468V68.033C219.13 65.6746 217.223 63.7627 214.87 63.7627Z" stroke="#BAC2CF" stroke-width="1.59" stroke-miterlimit="10"/>
<path d="M172.99 63.7627H193.7V69.276C193.7 69.473 193.661 69.668 193.586 69.8499C193.51 70.0318 193.399 70.1969 193.26 70.3357C193.121 70.4745 192.955 70.5843 192.773 70.6588C192.591 70.7333 192.397 70.771 192.2 70.7696H174.49C174.294 70.7696 174.101 70.731 173.92 70.6559C173.739 70.5809 173.575 70.4708 173.436 70.3322C173.298 70.1935 173.188 70.0288 173.113 69.8476C173.039 69.6664 173 69.4722 173 69.276V63.7627H172.99Z" fill="white" stroke="#BAC2CF" stroke-width="1.59" stroke-miterlimit="10"/>
<path d="M193.71 111.599H173V106.085C173 105.689 173.157 105.309 173.436 105.029C173.716 104.749 174.095 104.592 174.49 104.592H192.21C192.406 104.592 192.599 104.63 192.78 104.705C192.961 104.78 193.125 104.89 193.264 105.029C193.402 105.168 193.512 105.332 193.587 105.514C193.661 105.695 193.7 105.889 193.7 106.085V111.599H193.71Z" fill="white" stroke="#BAC2CF" stroke-width="1.59" stroke-miterlimit="10"/>
<path d="M194.481 84.5031C194.481 84.5031 195.391 81.1451 192.061 80.4231C191.633 80.3031 191.186 80.2731 190.746 80.3371C190.307 80.4001 189.885 80.5541 189.509 80.7901C189.132 81.0261 188.809 81.3381 188.56 81.7061C188.31 82.0751 188.141 82.4911 188.061 82.9291" fill="white"/>
<path d="M194.481 84.5031C194.481 84.5031 195.391 81.1451 192.061 80.4231C191.633 80.3031 191.186 80.2731 190.746 80.3371C190.307 80.4001 189.885 80.5541 189.509 80.7901C189.132 81.0261 188.809 81.3381 188.56 81.7061C188.31 82.0751 188.141 82.4911 188.061 82.9291" stroke="#BAC2CF" stroke-width="1.59" stroke-miterlimit="10"/>
<path d="M178.8 80.3231C178.8 80.3231 179.71 76.9551 176.39 76.2331C175.963 76.1131 175.515 76.0831 175.075 76.1471C174.636 76.2101 174.214 76.3641 173.838 76.6001C173.461 76.8361 173.138 77.1481 172.889 77.5161C172.639 77.8851 172.47 78.3011 172.39 78.7391" fill="white"/>
<path d="M178.8 80.3231C178.8 80.3231 179.71 76.9551 176.39 76.2331C175.963 76.1131 175.515 76.0831 175.075 76.1471C174.636 76.2101 174.214 76.3641 173.838 76.6001C173.461 76.8361 173.138 77.1481 172.889 77.5161C172.639 77.8851 172.47 78.3011 172.39 78.7391" stroke="#BAC2CF" stroke-width="1.59" stroke-miterlimit="10"/>
<path d="M177.14 98.4971H179.41" stroke="#BAC2CF" stroke-width="1.59" stroke-miterlimit="10"/>
<path d="M171.773 85.6191C171.605 86.2501 171.976 86.8981 172.603 87.0661C173.23 87.2341 173.875 86.8591 174.043 86.2281L175.179 81.9771C175.347 81.3461 174.976 80.6981 174.349 80.5301C173.722 80.3611 173.077 80.7371 172.909 81.3681L171.773 85.6191Z" fill="#BAC2CF"/>
<path d="M185.935 89.4242C185.767 90.0552 186.138 90.7032 186.765 90.8712C187.392 91.0402 188.037 90.6652 188.205 90.0342L189.341 85.7832C189.509 85.1522 189.138 84.5042 188.511 84.3352C187.884 84.1672 187.239 84.5422 187.071 85.1732L185.935 89.4242Z" fill="#BAC2CF"/>
<path d="M75.5898 111.819H267.81" stroke="#BAC2CF" stroke-width="1.59" stroke-miterlimit="10"/>
</svg>
