<svg width="20" height="14" viewBox="0 0 20 14" fill="none" xmlns="http://www.w3.org/2000/svg">
<path d="M15.8839 13.8155C16.1238 14.0576 16.5106 14.0654 16.7427 13.8155C16.9903 13.5578 16.9826 13.1908 16.7427 12.9487L4.08511 0.181552C3.84526 -0.0605173 3.45841 -0.0605173 3.21857 0.181552C2.98646 0.408004 2.98646 0.814055 3.21857 1.04832L15.8839 13.8155ZM16.5648 11.387C18.6925 9.90336 20 7.95119 20 7.10004C20 5.60078 16.0387 0.696925 9.99613 0.696925C8.75048 0.696925 7.58994 0.907759 6.53772 1.25134L8.68859 3.42996C9.09865 3.27379 9.53965 3.18789 10.0039 3.18789C12.1547 3.18789 13.9033 4.92142 13.9033 7.10004C13.9033 7.56856 13.8182 8.01366 13.648 8.42752L16.5648 11.387ZM9.99613 13.5032C11.3114 13.5032 12.5261 13.2689 13.617 12.8863L11.4507 10.6998C11.0097 10.9029 10.5145 11.0122 10.0039 11.0122C7.84526 11.0122 6.09671 9.224 6.09671 7.10004C6.09671 6.56905 6.20503 6.0693 6.40619 5.60858L3.56673 2.7428C1.33075 4.24207 0 6.23328 0 7.10004C0 8.5915 4.03095 13.5032 9.99613 13.5032ZM12.3559 6.95168C12.3559 5.67105 11.3269 4.6325 10.0503 4.6325C9.99613 4.6325 9.94197 4.6325 9.88781 4.64031L12.3404 7.11566C12.3482 7.061 12.3559 7.00634 12.3559 6.95168ZM7.62089 7.04538C7.62089 8.32601 8.66538 9.36456 9.9265 9.36456C9.98839 9.36456 10.0426 9.35675 10.1044 9.35675L7.62863 6.85797C7.62863 6.92044 7.62089 6.98291 7.62089 7.04538Z" fill="#6F7076"/>
</svg>
