<svg width="16" height="16" viewBox="0 0 16 16" fill="none" xmlns="http://www.w3.org/2000/svg">
<path fill-rule="evenodd" clip-rule="evenodd" d="M8 0C3.58172 0 0 3.58172 0 8C0 12.4183 3.58172 16 8 16C12.4183 16 16 12.4183 16 8C16 3.58172 12.4183 0 8 0ZM8.10018 4C8.54183 4 8.89986 4.35803 8.89986 4.79968C8.89986 5.24134 8.54183 5.59937 8.10018 5.59937C7.65852 5.59937 7.30049 5.24134 7.30049 4.79968C7.30049 4.35803 7.65852 4 8.10018 4ZM7.29968 6.66484C6.85803 6.66484 6.5 7.02287 6.5 7.46452C6.5 7.90617 6.85803 8.2642 7.29968 8.2642L7.30078 11.7009C7.30107 12.1423 7.65898 12.5 8.10039 12.5C8.542 12.5 8.9 12.142 8.9 11.7004L8.89905 7.46452C8.89905 7.02287 8.54102 6.66484 8.09937 6.66484H7.29968Z" fill="#667085"/>
</svg>
