<svg width="25" height="24" viewBox="0 0 25 24" fill="none" xmlns="http://www.w3.org/2000/svg">
<path d="M7.6999 18.5C7.86583 18.5 7.9999 18.6342 7.9999 18.8C7.9999 18.9658 7.86584 19.1 7.6999 19.1H6.0999C4.61125 19.1 3.3999 17.8886 3.3999 16.4V14.8C3.3999 14.6342 3.53397 14.5 3.6999 14.5C3.86583 14.5 3.9999 14.6342 3.9999 14.8V16.4C3.9999 17.5585 4.94136 18.5 6.0999 18.5H7.6999ZM21.5999 14.8V16.4C21.5999 17.8886 20.3886 19.1 18.8999 19.1H17.2999C17.134 19.1 16.9999 18.9658 16.9999 18.8C16.9999 18.6342 17.134 18.5 17.2999 18.5H18.8999C20.0584 18.5 20.9999 17.5585 20.9999 16.4V14.8C20.9999 14.6342 21.134 14.5 21.2999 14.5C21.4658 14.5 21.5999 14.6342 21.5999 14.8ZM21.5999 6.79998V8.39998C21.5999 8.56576 21.4658 8.69998 21.2999 8.69998C21.134 8.69998 20.9999 8.56576 20.9999 8.39998V6.79998C20.9999 5.64143 20.0584 4.69998 18.8999 4.69998H17.2999C17.134 4.69998 16.9999 4.56576 16.9999 4.39998C16.9999 4.23419 17.134 4.09998 17.2999 4.09998H18.8999C20.3886 4.09998 21.5999 5.31132 21.5999 6.79998ZM3.9999 6.79998V8.39998C3.9999 8.56576 3.86583 8.69998 3.6999 8.69998C3.53397 8.69998 3.3999 8.56576 3.3999 8.39998V6.79998C3.3999 5.31132 4.61124 4.09998 6.0999 4.09998H7.6999C7.86583 4.09998 7.9999 4.23419 7.9999 4.39998C7.9999 4.56576 7.86583 4.69998 7.6999 4.69998H6.0999C4.94136 4.69998 3.9999 5.64143 3.9999 6.79998Z" stroke="white"/>
</svg>
