<svg width="343" height="125" viewBox="0 0 343 125" fill="none" xmlns="http://www.w3.org/2000/svg">
<path d="M343 0H0V125H343V0Z" fill="white"/>
<path d="M208.21 31H125.19C122.092 31 119.58 33.5117 119.58 36.61V88.4198C119.58 91.5188 122.092 94.0298 125.19 94.0298H208.21C211.308 94.0298 213.82 91.5188 213.82 88.4198V36.61C213.82 33.5117 211.308 31 208.21 31Z" fill="#EFEFEF"/>
<path d="M208.21 31H125.19C122.092 31 119.58 33.5117 119.58 36.61V88.4198C119.58 91.5188 122.092 94.0298 125.19 94.0298H208.21C211.308 94.0298 213.82 91.5188 213.82 88.4198V36.61C213.82 33.5117 211.308 31 208.21 31Z" stroke="#BAC2CF" stroke-width="1.59" stroke-miterlimit="10"/>
<path d="M218.01 31H134.99C131.892 31 129.38 33.5117 129.38 36.61V88.4198C129.38 91.5188 131.892 94.0298 134.99 94.0298H218.01C221.108 94.0298 223.62 91.5188 223.62 88.4198V36.61C223.62 33.5117 221.108 31 218.01 31Z" fill="white"/>
<path d="M218.01 31H134.99C131.892 31 129.38 33.5117 129.38 36.61V88.4198C129.38 91.5188 131.892 94.0298 134.99 94.0298H218.01C221.108 94.0298 223.62 91.5188 223.62 88.4198V36.61C223.62 33.5117 221.108 31 218.01 31Z" stroke="#BAC2CF" stroke-width="1.59" stroke-miterlimit="10"/>
<path d="M162.87 31.0498H190.1V38.2898C190.1 38.8202 189.889 39.3289 189.514 39.704C189.139 40.0791 188.63 40.2898 188.1 40.2898H164.83C164.3 40.2898 163.791 40.0791 163.416 39.704C163.041 39.3289 162.83 38.8202 162.83 38.2898V31.0498H162.87Z" fill="white" stroke="#BAC2CF" stroke-width="1.59" stroke-miterlimit="10"/>
<path d="M190.13 93.8298H162.9V86.5898C162.9 86.0598 163.111 85.5508 163.486 85.1758C163.861 84.8008 164.37 84.5898 164.9 84.5898H188.17C188.7 84.5898 189.209 84.8008 189.584 85.1758C189.959 85.5508 190.17 86.0598 190.17 86.5898V93.8298H190.13Z" fill="white" stroke="#BAC2CF" stroke-width="1.59" stroke-miterlimit="10"/>
<path d="M165.67 57.0499C165.466 57.1675 165.297 57.3366 165.18 57.5402C165.062 57.7438 165 57.9748 165 58.2099V66.8098C165 67.0448 165.062 67.2758 165.18 67.4798C165.297 67.6828 165.466 67.8528 165.67 67.9698L175.83 73.8398C176.036 73.9508 176.266 74.0088 176.5 74.0088C176.734 74.0088 176.964 73.9508 177.17 73.8398L187.34 67.9698C187.542 67.8508 187.71 67.6818 187.828 67.4778C187.945 67.2748 188.008 67.0448 188.01 66.8098V58.2099C188.008 57.9752 187.945 57.745 187.828 57.5417C187.71 57.3384 187.542 57.169 187.34 57.0499L177.17 51.1799C176.965 51.067 176.734 51.0078 176.5 51.0078C176.266 51.0078 176.035 51.067 175.83 51.1799L165.67 57.0499ZM167.34 60.3399L171.1 62.5098L167.34 64.6798V60.3399ZM184.66 58.2099L176.5 62.9198L168.35 58.2099L176.5 53.4999L184.66 58.2099ZM185.66 64.6798L181.9 62.5098L185.66 60.3399V64.6798ZM168.35 66.8098L173.45 63.8098L175.83 65.1898C176.034 65.3078 176.265 65.3698 176.5 65.3698C176.735 65.3698 176.966 65.3078 177.17 65.1898L179.56 63.8098L184.66 66.8098L176.5 71.5098L168.35 66.8098Z" fill="#BAC2CF"/>
<path d="M104.72 94.1398H238.48" stroke="#BAC2CF" stroke-width="1.59" stroke-miterlimit="10"/>
</svg>
