<svg width="80" height="37" viewBox="0 0 80 37" fill="none" xmlns="http://www.w3.org/2000/svg">
<path d="M75.6355 36.0806L1.50134 36.0806C0.950425 36.0806 0.503784 35.6339 0.503784 35.083L0.503784 4.38116C0.503784 3.83024 0.950425 3.3836 1.50134 3.3836L70.071 3.3836L76.633 9.86708V35.083C76.633 35.6339 76.1864 36.0806 75.6355 36.0806Z" fill="#404653"/>
<path d="M78.2058 33.7222L4.07178 33.7222C3.52073 33.7222 3.07422 33.2755 3.07422 32.7246L3.07422 2.02276C3.07422 1.47184 3.52073 1.0252 4.07178 1.0252L72.0394 1.0252C72.1354 1.0252 72.2275 1.06338 72.2954 1.13121L79.0973 7.93311C79.1652 8.00107 79.2033 8.09311 79.2033 8.18915V32.7246C79.2033 33.2755 78.7567 33.7222 78.2058 33.7222Z" fill="white"/>
<path d="M78.2058 33.7222L4.07178 33.7222C3.52073 33.7222 3.07422 33.2755 3.07422 32.7246L3.07422 2.02276C3.07422 1.47184 3.52073 1.0252 4.07178 1.0252L72.0394 1.0252C72.1354 1.0252 72.2275 1.06338 72.2954 1.13121L79.0973 7.93311C79.1652 8.00107 79.2033 8.09312 79.2033 8.18915V32.7246C79.2033 33.2755 78.7567 33.7222 78.2058 33.7222Z" stroke="#404653" stroke-width="0.364228" stroke-miterlimit="10"/>
<path d="M12.8902 24.9282H11.6289L11.6289 6.07061H12.8902L12.8902 24.9282Z" fill="#404653"/>
<path d="M14.7808 24.9282H13.5195L13.5195 6.07061H14.7808L14.7808 24.9282Z" fill="#404653"/>
<path d="M36.7379 24.9282H35.4766V6.07061H36.7379V24.9282Z" fill="#404653"/>
<path d="M40.6384 24.929H39.377V6.07135H40.6384V24.929Z" fill="#404653"/>
<path d="M50.7851 24.929H49.5237V6.07135H50.7851V24.929Z" fill="#404653"/>
<path d="M52.734 24.9272H51.4727V6.06964H52.734V24.9272Z" fill="#404653"/>
<path d="M54.8568 24.9283H53.5955V6.07074H54.8568V24.9283Z" fill="#404653"/>
<path d="M66.5504 24.9287H65.2891V6.0711H66.5504V24.9287Z" fill="#404653"/>
<path d="M28.8277 24.9287H27.5664V6.0711H28.8277V24.9287Z" fill="#404653"/>
<path d="M26.6467 24.9287H23.7227V6.0711H26.6467V24.9287Z" fill="#404653"/>
<path d="M34.7031 24.9282H31.7793V6.07061H34.7031V24.9282Z" fill="#404653"/>
<path d="M44.5647 24.9282H41.6406V6.07061H44.5647V24.9282Z" fill="#404653"/>
<path d="M48.5783 24.9272H45.6543V6.06964H48.5783V24.9272Z" fill="#404653"/>
<path d="M60.6194 24.9287H57.6953V6.0711H60.6194V24.9287Z" fill="#404653"/>
<path d="M64.5178 24.9268H61.5938V6.06915H64.5178V24.9268Z" fill="#404653"/>
<path d="M70.6506 24.9287H67.7266V6.0711H70.6506V24.9287Z" fill="#404653"/>
<path d="M22.4626 24.9282H21.2012V6.07061H22.4626V24.9282Z" fill="#404653"/>
<path d="M18.5639 24.9287H15.6973L15.6973 6.0711H18.5639L18.5639 24.9287Z" fill="#404653"/>
<path d="M19.4142 29.4187C19.4324 29.1227 19.418 29.6777 19.4234 26.988C19.2751 27.1361 18.8674 27.5401 18.6811 27.5401C18.5559 27.5401 18.4492 27.4471 18.4492 27.3128C18.4492 27.1306 18.6824 27.021 19.1357 26.6074C19.2861 26.4712 19.3812 26.3572 19.5811 26.3572C19.7898 26.3572 19.8921 26.4545 19.8921 26.6448C19.8921 26.6705 19.8791 29.1682 19.8921 29.3724C19.9082 29.6183 19.9162 29.98 19.6692 29.98C19.4976 29.98 19.3964 29.682 19.4142 29.4187Z" fill="#404653"/>
<path d="M23.2872 29.4648H24.4098C24.5411 29.4648 24.9063 29.3871 24.9063 29.6965C24.9063 30.022 24.4952 29.9285 24.3216 29.9285H23.3152C23.0013 29.9285 22.8095 29.9638 22.8095 29.5759C22.8095 28.1035 24.4238 28.1259 24.4238 27.3351C24.4238 27.0616 24.2289 26.8203 23.7835 26.8203C23.3754 26.8203 23.1063 27.0523 22.9672 27.0523C22.8233 27.0523 22.7676 26.9133 22.7676 26.8203C22.7676 26.3049 24.8877 25.9135 24.8877 27.3723C24.8877 28.3934 23.2872 28.5107 23.2872 29.4648Z" fill="#404653"/>
<path d="M27.1327 28.1743C27.0427 28.1527 26.851 28.1895 26.7523 28.0908C26.6367 27.9871 26.6753 27.8199 26.7848 27.7105L27.5734 26.8846C26.3824 26.8895 26.0611 26.972 26.0611 26.6481C26.0611 26.3247 26.3904 26.4064 27.7543 26.4161C27.9398 26.4161 28.2182 26.3743 28.2137 26.7178C28.2137 27.0647 27.721 27.3121 27.4063 27.7616C28.6559 27.8676 28.861 30.3204 26.4833 29.9326C25.8742 29.829 26.0036 29.3851 26.2651 29.3851C26.4126 29.3851 26.6224 29.5244 26.975 29.5244C27.5316 29.5244 28.2018 28.3209 27.1327 28.1743Z" fill="#404653"/>
<path d="M30.7759 29.1676H29.8202C29.6903 29.1676 29.5372 29.1859 29.4443 29.0747C29.2527 28.8188 29.5259 28.4255 29.8527 27.7108L30.1775 27.0241L30.2516 26.8294C30.2927 26.7582 30.3874 26.3701 30.632 26.3701C30.7573 26.3701 30.8641 26.4627 30.8641 26.5977C30.8641 26.7696 30.6941 27.0693 30.5903 27.2422C30.579 27.2668 29.9647 28.5864 29.8944 28.7036H30.7759C30.7759 28.4128 30.6681 27.9428 31.0078 27.9428C31.3414 27.9428 31.2398 28.4247 31.2398 28.7036C31.4311 28.7036 31.7084 28.6562 31.7084 28.931C31.7084 29.2086 31.397 29.1676 31.2398 29.1676C31.2398 29.4456 31.3601 29.9702 31.0078 29.9702C30.8361 29.9702 30.7526 29.8401 30.7526 29.585C30.7526 29.4567 30.7759 29.22 30.7759 29.1676Z" fill="#404653"/>
<path d="M33.4862 26.8847L33.4443 27.5527C35.1235 27.5527 35.0799 28.9344 34.5577 29.5154C34.2623 29.835 33.616 30.0068 33.2171 30.0068C32.7912 30.0068 32.8145 29.644 33.0083 29.5523C33.1591 29.4836 33.4108 29.5609 33.7924 29.4409C34.6717 29.1646 34.6408 28.0475 33.5743 28.0168C33.2655 28.0168 32.9572 28.1322 32.9572 27.7198C32.9572 27.5737 32.9945 27.4298 32.9945 27.3207C33.0036 26.9172 33.0223 26.6622 33.0547 26.5649C33.1143 26.3769 33.2163 26.4115 34.5299 26.4115C34.7479 26.4115 34.8547 26.4905 34.8547 26.6483C34.8547 26.97 34.5382 26.8897 33.4862 26.8847Z" fill="#404653"/>
<path d="M36.7836 28.2818C36.3961 28.6213 36.4689 29.5345 37.2568 29.5345C37.6838 29.5345 37.9712 29.2794 37.9712 28.8155C37.9712 28.0781 37.1295 27.9919 36.7836 28.2818ZM37.7905 26.751C37.6125 27.0032 37.823 26.6345 36.9786 27.6974C38.7674 27.3561 38.9616 29.9937 37.2663 29.9937C35.9733 29.9937 35.4393 28.4388 37.3545 26.5237C37.4517 26.4217 37.5352 26.3706 37.6094 26.3706C37.8022 26.3706 37.9018 26.576 37.7905 26.751Z" fill="#404653"/>
<path d="M40.0263 29.6781C40.0263 27.9777 40.9398 27.6496 41.2602 26.8809H40.0216C39.8018 26.8809 39.4648 26.9558 39.4648 26.6488C39.4648 26.3227 39.9151 26.4169 40.1005 26.4169H41.2372C41.4789 26.4169 41.789 26.3674 41.789 26.7091C41.789 27.2257 41.0427 27.972 40.8891 28.2123C40.2471 29.2096 40.7343 29.9707 40.2675 29.9707C40.1421 29.9707 40.0263 29.8962 40.0263 29.6781Z" fill="#404653"/>
<path d="M45.4548 27.5347C45.6031 27.6415 45.7099 27.6925 45.7703 27.6925C45.9671 27.6925 46.3129 27.4416 46.3129 27.1731C46.3129 26.9644 46.0903 26.8157 45.7887 26.8157C45.2014 26.8157 45.0565 27.2486 45.4548 27.5347ZM46.0392 28.3746C45.8014 28.2124 45.7746 28.1684 45.5662 28.3188C44.737 28.9175 45.0728 29.5344 45.7841 29.5344C46.4845 29.5344 46.7678 28.8925 46.0392 28.3746ZM45.2784 27.9662C44.5442 27.6376 44.5225 26.3567 45.7935 26.3567C46.2814 26.3567 46.7721 26.6087 46.7721 27.1405C46.7767 27.6462 46.4475 27.8365 46.2712 27.9802C46.4288 28.0685 46.5773 28.2076 46.7166 28.3932C47.2248 29.0493 46.7925 29.998 45.7793 29.998C44.6614 29.998 44.059 28.7951 45.2784 27.9662Z" fill="#404653"/>
<path d="M49.3492 28.1836C50.0367 28.1015 50.0056 26.9473 49.1311 26.815C48.3986 26.7042 48.0172 28.348 49.3492 28.1836ZM48.5929 29.5938C48.7243 29.4063 48.866 29.4349 49.4049 28.6474C49.1445 28.6474 48.7699 28.6928 48.4491 28.4851C47.8576 28.1075 47.8019 27.2142 48.2914 26.7037C49.0495 25.8973 50.7925 26.5135 50.1564 28.2022C49.9264 28.8111 49.0997 29.9697 48.7739 29.9697C48.5583 29.9697 48.4893 29.7275 48.5929 29.5938Z" fill="#404653"/>
<path d="M62.8842 28.1845C63.5717 28.1025 63.5406 26.9482 62.6662 26.816C61.9337 26.7052 61.5524 28.3489 62.8842 28.1845ZM62.1281 29.5948C62.2594 29.4073 62.4011 29.4359 62.94 28.6483C62.6795 28.6483 62.3051 28.6938 61.9842 28.4861C61.3928 28.1085 61.3371 27.2152 61.8265 26.7047C62.5847 25.8983 64.3276 26.5145 63.6916 28.2032C63.4615 28.8121 62.6347 29.9707 62.3091 29.9707C62.0934 29.9707 62.0245 29.7285 62.1281 29.5948Z" fill="#404653"/>
<path d="M52.4276 29.4187C52.4462 29.1089 52.4313 29.6895 52.4368 26.988C52.29 27.1349 51.8808 27.5401 51.6946 27.5401C51.5693 27.5401 51.4626 27.4471 51.4626 27.3128C51.4626 27.1303 51.697 27.02 52.1492 26.6074C52.2998 26.471 52.3949 26.3572 52.5945 26.3572C52.8032 26.3572 52.9054 26.4545 52.9054 26.6448C52.9054 30.0271 52.9147 29.4848 52.9147 29.5441C52.9147 29.8361 52.8357 29.98 52.6826 29.98C52.4203 29.98 52.4098 29.682 52.4276 29.4187Z" fill="#404653"/>
<path d="M56.0628 28.4502C55.6731 28.7192 55.2694 28.9837 55.2694 29.4663H56.3921C56.5041 29.4663 56.8884 29.3862 56.8884 29.698C56.8884 30.0234 56.4775 29.9299 56.3041 29.9299C56.264 29.9302 55.1574 29.9347 55.1255 29.9347C54.8797 29.9347 54.7915 29.8417 54.7915 29.5773C54.7915 28.4734 55.6831 28.2232 56.1693 27.796C56.5926 27.4213 56.4452 26.8218 55.7659 26.8218C55.3576 26.8218 55.0884 27.0538 54.9492 27.0538C54.8056 27.0538 54.75 26.9148 54.75 26.8218C54.75 26.2979 56.8697 25.9233 56.8697 27.3738C56.8697 27.5362 56.4758 28.1656 56.0628 28.4502Z" fill="#404653"/>
<path d="M59.8409 28.8296C59.8409 28.382 59.4601 28.2025 58.9968 28.1663C58.8267 28.1601 58.6673 28.1111 58.6673 27.939C58.6673 27.7399 58.7815 27.7315 59.5581 26.8858H58.5002C58.2884 26.8858 58.0455 26.9134 58.0455 26.6492C58.0455 26.3378 58.4497 26.4172 58.6533 26.4172H59.7389C59.9245 26.4172 60.2028 26.3756 60.1981 26.719C60.1981 27.067 59.7081 27.3087 59.3909 27.7629C60.6371 27.8688 60.8475 30.3221 58.4678 29.9338C57.8565 29.8297 57.9903 29.3863 58.2497 29.3863C58.4109 29.3863 58.5863 29.5255 58.9596 29.5255C59.5162 29.5255 59.8409 29.2195 59.8409 28.8296Z" fill="#404653"/>
<path d="M72.1895 1.02392V7.0404C72.1895 7.59132 72.6361 8.03796 73.187 8.03796H79.2035L72.1895 1.02392Z" fill="#A4E4EA"/>
<path d="M72.1895 1.02392V7.0404C72.1895 7.59132 72.6361 8.03796 73.187 8.03796H79.2035L72.1895 1.02392Z" stroke="#404653" stroke-width="0.364228" stroke-linecap="round" stroke-linejoin="round"/>
</svg>
