<svg width="20" height="20" viewBox="0 0 20 20" fill="none" xmlns="http://www.w3.org/2000/svg">
<path fill-rule="evenodd" clip-rule="evenodd" d="M1.49904 12.9671C2.23469 12.2314 3.23245 11.8182 4.27282 11.8182H10.8183C11.8586 11.8182 12.8564 12.2314 13.592 12.9671C14.3277 13.7028 14.741 14.7005 14.741 15.7409V17.3772C14.741 17.7362 14.45 18.0272 14.091 18.0272C13.732 18.0272 13.441 17.7362 13.441 17.3772V15.7409C13.441 15.0453 13.1647 14.3782 12.6728 13.8863C12.1809 13.3945 11.5138 13.1182 10.8183 13.1182H4.27282C3.57723 13.1182 2.91013 13.3945 2.41827 13.8863C1.92642 14.3782 1.6501 15.0453 1.6501 15.7409V17.3772C1.6501 17.7362 1.35908 18.0272 1.0001 18.0272C0.641113 18.0272 0.350098 17.7362 0.350098 17.3772V15.7409C0.350098 14.7005 0.763383 13.7028 1.49904 12.9671Z" fill="#475467"/>
<path fill-rule="evenodd" clip-rule="evenodd" d="M7.54558 3.3C6.09709 3.3 4.92286 4.47423 4.92286 5.92272C4.92286 7.37121 6.09709 8.54544 7.54558 8.54544C8.99407 8.54544 10.1683 7.37121 10.1683 5.92272C10.1683 4.47423 8.99407 3.3 7.54558 3.3ZM3.62286 5.92272C3.62286 3.75626 5.37912 2 7.54558 2C9.71204 2 11.4683 3.75626 11.4683 5.92272C11.4683 8.08918 9.71204 9.84544 7.54558 9.84544C5.37912 9.84544 3.62286 8.08918 3.62286 5.92272Z" fill="#475467"/>
<path fill-rule="evenodd" clip-rule="evenodd" d="M15.9162 12.412C16.0059 12.0644 16.3605 11.8554 16.7081 11.9452C17.5496 12.1625 18.2952 12.6531 18.8277 13.34C19.3602 14.0269 19.6494 14.8713 19.6501 15.7404V17.3772C19.6501 17.7362 19.3591 18.0272 19.0001 18.0272C18.6411 18.0272 18.3501 17.7362 18.3501 17.3772V15.7414C18.3496 15.1603 18.1562 14.5957 17.8002 14.1365C17.4442 13.6772 16.9457 13.3492 16.3831 13.2039C16.0355 13.1141 15.8265 12.7596 15.9162 12.412Z" fill="#475467"/>
<path fill-rule="evenodd" clip-rule="evenodd" d="M12.6431 2.59514C12.7322 2.24738 13.0863 2.03764 13.434 2.12668C14.2778 2.34272 15.0257 2.83346 15.5598 3.52151C16.0939 4.20957 16.3838 5.0558 16.3838 5.92681C16.3838 6.79783 16.0939 7.64406 15.5598 8.33212C15.0257 9.02017 14.2778 9.5109 13.434 9.72695C13.0863 9.81599 12.7322 9.60625 12.6431 9.25849C12.5541 8.91072 12.7638 8.55662 13.1116 8.46757C13.6757 8.32313 14.1758 7.99503 14.5328 7.53499C14.8899 7.07496 15.0838 6.50917 15.0838 5.92681C15.0838 5.34446 14.8899 4.77867 14.5328 4.31864C14.1758 3.8586 13.6757 3.5305 13.1116 3.38605C12.7638 3.29701 12.5541 2.94291 12.6431 2.59514Z" fill="#475467"/>
</svg>
