<svg width="343" height="125" viewBox="0 0 343 125" fill="none" xmlns="http://www.w3.org/2000/svg">
<path d="M343 0H0V125H343V0Z" fill="white"/>
<path d="M36 109.07H306.46" stroke="#BAC2CF" stroke-width="1.59" stroke-miterlimit="10"/>
<path d="M298.49 86.9701C298.519 87.0851 298.539 87.2021 298.55 87.3201C298.591 87.6261 298.567 87.9371 298.478 88.2331C298.39 88.5281 298.239 88.8011 298.037 89.0341C297.834 89.2671 297.584 89.4541 297.304 89.5831C297.023 89.7111 296.719 89.7791 296.41 89.7801H266.41C265.943 89.7711 265.492 89.6111 265.123 89.3241C264.755 89.0371 264.49 88.6391 264.367 88.1881C264.244 87.7381 264.271 87.2601 264.442 86.8251C264.614 86.3911 264.922 86.0241 265.32 85.7801C266.309 85.2251 267.417 84.9161 268.55 84.8801C268.71 83.5021 269.371 82.2311 270.407 81.3091C271.443 80.3871 272.783 79.8781 274.17 79.8801C275.052 79.8821 275.921 80.0871 276.71 80.4801C277.344 79.2111 278.319 78.1451 279.525 77.3991C280.732 76.6541 282.122 76.2591 283.54 76.2601C285.38 76.2581 287.159 76.9211 288.55 78.1261C289.941 79.3321 290.85 80.9981 291.11 82.8201C292.04 82.5051 293.036 82.4361 294 82.6201C295.096 82.8181 296.108 83.3371 296.907 84.1121C297.707 84.8861 298.258 85.8811 298.49 86.9701Z" fill="white" stroke="#BAC2CF" stroke-width="1.59" stroke-miterlimit="10"/>
<path d="M103.35 39.27C103.35 39.38 103.35 39.5 103.4 39.62C103.443 39.9256 103.42 40.2369 103.332 40.5327C103.244 40.8285 103.093 41.102 102.89 41.3344C102.687 41.5668 102.437 41.7528 102.155 41.8797C101.874 42.0067 101.569 42.0716 101.26 42.07H71.2599C70.7891 42.0688 70.3316 41.9131 69.9579 41.6268C69.5841 41.3405 69.3147 40.9395 69.1909 40.4853C69.0671 40.031 69.0959 39.5487 69.2727 39.1124C69.4496 38.6761 69.7647 38.3099 70.1698 38.07C71.1519 37.5063 72.258 37.1937 73.3899 37.16C73.5516 35.7828 74.2131 34.513 75.249 33.5913C76.285 32.6696 77.6233 32.1603 79.0099 32.16C79.8916 32.1605 80.7611 32.3659 81.5498 32.76C82.1871 31.492 83.1642 30.426 84.372 29.6808C85.5797 28.9357 86.9708 28.5407 88.3899 28.54C90.2296 28.5404 92.0075 29.2039 93.3978 30.4087C94.7882 31.6135 95.6977 33.279 95.9598 35.1C96.8864 34.7855 97.8787 34.7166 98.8399 34.8999C99.9399 35.0992 100.956 35.6211 101.759 36.3992C102.562 37.1773 103.116 38.1766 103.35 39.27Z" fill="white" stroke="#BAC2CF" stroke-width="1.59" stroke-miterlimit="10"/>
<path d="M149.66 63.34L133.37 63.18L144.36 51.6L145.52 50.54L149.66 63.34Z" fill="#EFEFEF" stroke="#BAC2CF" stroke-width="1.59" stroke-linecap="square" stroke-linejoin="bevel"/>
<path d="M177.65 50.5498V109.07H247.2V55.2398" fill="#EFEFEF"/>
<path d="M177.65 50.5498V109.07H247.2V55.2398" stroke="#BAC2CF" stroke-width="1.59" stroke-miterlimit="10"/>
<path d="M145.52 50.5498V109.07H215.07V50.5498" fill="white"/>
<path d="M145.52 50.5498V109.07H215.07V50.5498" stroke="#BAC2CF" stroke-width="1.59" stroke-miterlimit="10"/>
<path d="M226.39 62.4003H256.46L210.68 16.2403H180.61L226.39 62.4003Z" fill="#EFEFEF" stroke="#BAC2CF" stroke-width="1.59" stroke-miterlimit="10" stroke-linecap="round"/>
<path d="M132.76 63.43L179.27 16" stroke="#BAC2CF" stroke-width="1.59" stroke-miterlimit="10"/>
<path d="M166.62 109.07H194.28V69.7498H166.62V109.07Z" stroke="#BAC2CF" stroke-width="1.59" stroke-miterlimit="10"/>
<path d="M166.73 60.9202C166.73 59.1237 167.084 57.3448 167.771 55.685C168.459 54.0253 169.467 52.5172 170.737 51.2469C172.007 49.9766 173.515 48.969 175.175 48.2815C176.835 47.594 178.614 47.2402 180.41 47.2402C182.207 47.2388 183.987 47.5917 185.648 48.2786C187.309 48.9655 188.818 49.973 190.09 51.2434C191.361 52.5138 192.37 54.0223 193.058 55.6827C193.746 57.3431 194.1 59.1228 194.1 60.9202H166.73Z" stroke="#BAC2CF" stroke-width="1.59" stroke-miterlimit="10"/>
<path d="M225.92 92.6602H238.78V79.8002H225.92V92.6602Z" fill="white" stroke="#BAC2CF" stroke-width="1.59" stroke-miterlimit="10"/>
<path d="M173.86 93.7002C174.893 93.7002 175.73 92.8632 175.73 91.8302C175.73 90.7972 174.893 89.9602 173.86 89.9602C172.827 89.9602 171.99 90.7972 171.99 91.8302C171.99 92.8632 172.827 93.7002 173.86 93.7002Z" fill="#BAC2CF"/>
<path d="M145.57 69.75H93.12C91.3858 69.75 89.98 71.1558 89.98 72.8902V105.89C89.98 107.624 91.3858 109.03 93.12 109.03H145.57C147.304 109.03 148.71 107.624 148.71 105.89V72.8902C148.71 71.1558 147.304 69.75 145.57 69.75Z" fill="#EFEFEF"/>
<path d="M145.57 69.75H93.12C91.3858 69.75 89.98 71.1558 89.98 72.8902V105.89C89.98 107.624 91.3858 109.03 93.12 109.03H145.57C147.304 109.03 148.71 107.624 148.71 105.89V72.8902C148.71 71.1558 147.304 69.75 145.57 69.75Z" stroke="#BAC2CF" stroke-width="1.59" stroke-miterlimit="10"/>
<path d="M151.68 69.75H99.2301C97.4959 69.75 96.0901 71.1558 96.0901 72.8902V105.89C96.0901 107.624 97.4959 109.03 99.2301 109.03H151.68C153.414 109.03 154.82 107.624 154.82 105.89V72.8902C154.82 71.1558 153.414 69.75 151.68 69.75Z" fill="white"/>
<path d="M151.68 69.75H99.2301C97.4959 69.75 96.0901 71.1558 96.0901 72.8902V105.89C96.0901 107.624 97.4959 109.03 99.2301 109.03H151.68C153.414 109.03 154.82 107.624 154.82 105.89V72.8902C154.82 71.1558 153.414 69.75 151.68 69.75Z" stroke="#BAC2CF" stroke-width="1.59" stroke-miterlimit="10"/>
<path d="M116.96 69.75H133.96V74.3802C133.96 74.6722 133.844 74.9512 133.638 75.1582C133.432 75.3642 133.152 75.4802 132.86 75.4802H118.06C117.768 75.4802 117.488 75.3642 117.282 75.1582C117.076 74.9512 116.96 74.6722 116.96 74.3802V69.75Z" fill="white" stroke="#BAC2CF" stroke-width="1.59" stroke-miterlimit="10"/>
<path d="M133.96 108.91H116.96V104.28C116.96 103.988 117.076 103.708 117.282 103.502C117.488 103.296 117.768 103.18 118.06 103.18H132.85C133.142 103.18 133.422 103.296 133.628 103.502C133.834 103.708 133.95 103.988 133.95 104.28V108.91H133.96Z" fill="white" stroke="#BAC2CF" stroke-width="1.59" stroke-miterlimit="10"/>
<path d="M119.73 85.6802C119.62 85.7442 119.529 85.8362 119.466 85.9472C119.403 86.0572 119.37 86.1822 119.37 86.3102V90.9402C119.372 91.0652 119.406 91.1882 119.469 91.2972C119.532 91.4062 119.622 91.4962 119.73 91.5602L125.21 94.7302C125.321 94.7892 125.444 94.8202 125.57 94.8202C125.696 94.8202 125.819 94.7892 125.93 94.7302L131.41 91.5602C131.518 91.4962 131.608 91.4062 131.671 91.2972C131.734 91.1882 131.768 91.0652 131.77 90.9402V86.3102C131.77 86.1822 131.737 86.0572 131.674 85.9472C131.611 85.8362 131.52 85.7442 131.41 85.6802L125.93 82.5202C125.821 82.4562 125.697 82.4222 125.57 82.4222C125.443 82.4222 125.319 82.4562 125.21 82.5202L119.73 85.6802ZM120.63 87.4502L122.63 88.6202L120.63 89.7902V87.4502ZM129.96 86.3102L125.57 88.8402L121.18 86.3102L125.57 83.7702L129.96 86.3102ZM130.51 89.7902L128.51 88.6202L130.51 87.4502V89.7902ZM121.18 90.9402L123.92 89.3502L125.21 90.0902C125.318 90.1562 125.443 90.1912 125.57 90.1902C125.697 90.1912 125.822 90.1562 125.93 90.0902L127.22 89.3502L129.96 90.9402L125.57 93.4802L121.18 90.9402Z" fill="#BAC2CF"/>
</svg>
