<svg width="16" height="14" viewBox="0 0 16 14" fill="none" xmlns="http://www.w3.org/2000/svg">
<path d="M4.66667 12.6667C4.66667 12.2987 4.36867 12 4 12H2.66667C1.93133 12 1.33333 11.402 1.33333 10.6667V9.33333C1.33333 8.96533 1.03533 8.66667 0.666667 8.66667C0.298 8.66667 0 8.96533 0 9.33333V10.6667C0 12.1373 1.196 13.3333 2.66667 13.3333H4C4.36867 13.3333 4.66667 13.0347 4.66667 12.6667ZM16 10.6667V9.33333C16 8.96533 15.702 8.66667 15.3333 8.66667C14.9647 8.66667 14.6667 8.96533 14.6667 9.33333V10.6667C14.6667 11.402 14.0687 12 13.3333 12H12C11.6313 12 11.3333 12.2987 11.3333 12.6667C11.3333 13.0347 11.6313 13.3333 12 13.3333H13.3333C14.804 13.3333 16 12.1373 16 10.6667ZM16 4V2.66667C16 1.196 14.804 0 13.3333 0H12C11.6313 0 11.3333 0.298667 11.3333 0.666667C11.3333 1.03467 11.6313 1.33333 12 1.33333H13.3333C14.0687 1.33333 14.6667 1.93133 14.6667 2.66667V4C14.6667 4.368 14.9647 4.66667 15.3333 4.66667C15.702 4.66667 16 4.368 16 4ZM1.33333 4V2.66667C1.33333 1.93133 1.93133 1.33333 2.66667 1.33333H4C4.36867 1.33333 4.66667 1.03467 4.66667 0.666667C4.66667 0.298667 4.36867 0 4 0H2.66667C1.196 0 0 1.196 0 2.66667V4C0 4.368 0.298 4.66667 0.666667 4.66667C1.03533 4.66667 1.33333 4.368 1.33333 4ZM9.33333 10.6667C9.14933 10.6667 9 10.5173 9 10.3333V3C9 2.816 9.14933 2.66667 9.33333 2.66667C9.51733 2.66667 9.66667 2.816 9.66667 3V10.3333C9.66667 10.5173 9.51733 10.6667 9.33333 10.6667Z" fill="#0098A5"/>
<path d="M9 10.3333C9 10.5173 9.14933 10.6667 9.33333 10.6667C9.51733 10.6667 9.66667 10.5173 9.66667 10.3333V3C9.66667 2.816 9.51733 2.66667 9.33333 2.66667C9.14933 2.66667 9 2.816 9 3V10.3333Z" fill="#0098A5"/>
<path d="M7 10.3334C7 10.5174 7.14933 10.6667 7.33333 10.6667C7.51733 10.6667 7.66667 10.5174 7.66667 10.3334V3.00002C7.66667 2.81602 7.51733 2.66669 7.33333 2.66669C7.14933 2.66669 7 2.81602 7 3.00002V10.3334Z" fill="#0098A5"/>
<path d="M5 10.3334C5 10.5174 5.14933 10.6667 5.33333 10.6667C5.51733 10.6667 5.66667 10.5174 5.66667 10.3334V3.00002C5.66667 2.81602 5.51733 2.66669 5.33333 2.66669C5.14933 2.66669 5 2.81602 5 3.00002V10.3334Z" fill="#0098A5"/>
<path d="M3 10.3334C3 10.5174 3.14933 10.6667 3.33333 10.6667C3.51733 10.6667 3.66667 10.5174 3.66667 10.3334V3.00002C3.66667 2.81602 3.51733 2.66669 3.33333 2.66669C3.14933 2.66669 3 2.81602 3 3.00002V10.3334Z" fill="#0098A5"/>
<path d="M11 10.3334C11 10.5174 11.1493 10.6667 11.3333 10.6667C11.5173 10.6667 11.6667 10.5174 11.6667 10.3334V3.00002C11.6667 2.81602 11.5173 2.66669 11.3333 2.66669C11.1493 2.66669 11 2.81602 11 3.00002V10.3334Z" fill="#0098A5"/>
<path d="M13 10.3334C13 10.5174 13.1493 10.6667 13.3333 10.6667C13.5173 10.6667 13.6667 10.5174 13.6667 10.3334V3.00002C13.6667 2.81602 13.5173 2.66669 13.3333 2.66669C13.1493 2.66669 13 2.81602 13 3.00002V10.3334Z" fill="#0098A5"/>
</svg>
