<svg width="48" height="48" viewBox="0 0 48 48" fill="none" xmlns="http://www.w3.org/2000/svg">
<path fill-rule="evenodd" clip-rule="evenodd" d="M23.9998 4.7998C13.3959 4.7998 4.7998 13.3959 4.7998 23.9998C4.7998 34.6037 13.3959 43.1998 23.9998 43.1998C34.6037 43.1998 43.1998 34.6037 43.1998 23.9998C43.1998 13.3959 34.6037 4.7998 23.9998 4.7998ZM34.0548 18.9463C34.6438 18.3638 34.649 17.414 34.0665 16.8251C33.4839 16.2361 32.5342 16.2309 31.9452 16.8134L20.625 28.0101L16.0548 23.4898C15.4658 22.9072 14.5161 22.9124 13.9335 23.5014C13.351 24.0904 13.3562 25.0401 13.9452 25.6227L19.5702 31.1863C20.1546 31.7644 21.0954 31.7644 21.6798 31.1863L34.0548 18.9463Z" fill="#039855"/>
</svg>
