<svg width="16" height="16" viewBox="0 0 16 16" fill="none" xmlns="http://www.w3.org/2000/svg">
<path d="M10.5596 11.5192L11.8396 12.7992L14.3996 10.2392M14.3996 6.39922H1.59961M14.3996 7.67922V5.24722C14.3996 4.53035 14.3996 4.17192 14.2601 3.89811C14.1374 3.65726 13.9416 3.46145 13.7007 3.33873C13.4269 3.19922 13.0685 3.19922 12.3516 3.19922H3.64761C2.93074 3.19922 2.57231 3.19922 2.2985 3.33873C2.05765 3.46145 1.86184 3.65726 1.73912 3.89811C1.59961 4.17192 1.59961 4.53035 1.59961 5.24722V10.1112C1.59961 10.8281 1.59961 11.1865 1.73912 11.4603C1.86184 11.7012 2.05765 11.897 2.2985 12.0197C2.57231 12.1592 2.93074 12.1592 3.64761 12.1592H7.99961" stroke="#1570EF" stroke-width="1.5" stroke-linecap="round" stroke-linejoin="round"/>
</svg>
