<svg width="10" height="15" viewBox="0 0 10 15" fill="none" xmlns="http://www.w3.org/2000/svg">
<path d="M0.53833 7.49585C0.53833 7.96899 0.712646 8.35913 1.11108 8.74927L6.92163 14.427C7.20386 14.7175 7.54419 14.8503 7.95093 14.8503C8.78101 14.8503 9.46167 14.178 9.46167 13.3562C9.46167 12.9412 9.28735 12.5593 8.96362 12.2522L4.03296 7.48755L8.96362 2.7395C9.28735 2.42407 9.46167 2.04224 9.46167 1.6355C9.46167 0.822021 8.78101 0.149658 7.95093 0.149658C7.54419 0.149658 7.20386 0.282471 6.92163 0.564697L1.11108 6.24243C0.712646 6.63257 0.546631 7.0144 0.53833 7.49585Z" fill="#616161"/>
</svg>
