<svg width="250" height="117" viewBox="0 0 250 117" fill="none" xmlns="http://www.w3.org/2000/svg">
<path d="M177.719 6.29315H96.291C93.9904 6.29315 92.1254 8.15169 92.1254 10.4443V111.849C92.1254 114.141 93.9904 116 96.291 116H177.719C180.02 116 181.885 114.141 181.885 111.849V10.4443C181.885 8.15169 180.02 6.29315 177.719 6.29315Z" fill="#EFEFEF" stroke="#C7D0DE" stroke-width="1.03" stroke-miterlimit="10"/>
<path d="M199.314 116H113.72C112.615 116 111.555 115.563 110.774 114.784C109.993 114.006 109.554 112.95 109.554 111.849V7.02374L195.864 21.9679C196.83 22.1359 197.704 22.6374 198.335 23.3845C198.966 24.1316 199.312 25.0763 199.314 26.0527V116Z" fill="white"/>
<path d="M124.45 60.0092C121.799 60.0092 119.256 58.9595 117.381 57.0912C115.506 55.2228 114.453 52.6887 114.453 50.0464V40.0836H134.448V50.0464C134.448 52.6887 133.394 55.2228 131.519 57.0912C129.644 58.9595 127.102 60.0092 124.45 60.0092Z" fill="#EFEFEF"/>
<path d="M134.448 40.1168H154.442V50.0796C154.442 52.7219 153.389 55.256 151.514 57.1244C149.639 58.9927 147.096 60.0424 144.445 60.0424C141.793 60.0424 139.251 58.9927 137.376 57.1244C135.501 55.256 134.448 52.7219 134.448 50.0796V40.1168Z" fill="#EFEFEF"/>
<path d="M154.409 40.1168H174.404V50.0796C174.404 52.7219 173.35 55.256 171.475 57.1244C169.601 58.9927 167.058 60.0424 164.406 60.0424C161.755 60.0424 159.212 58.9927 157.337 57.1244C155.462 55.256 154.409 52.7219 154.409 50.0796V40.1168Z" fill="#EFEFEF"/>
<path d="M174.387 40.1168H194.382V50.0796C194.382 52.7219 193.328 55.256 191.453 57.1244C189.578 58.9927 187.036 60.0424 184.384 60.0424C181.733 60.0424 179.19 58.9927 177.315 57.1244C175.44 55.256 174.387 52.7219 174.387 50.0796V40.1168Z" fill="#EFEFEF"/>
<path d="M194.348 40.1168H214.343V50.0796C214.343 52.7219 213.29 55.256 211.415 57.1244C209.54 58.9927 206.997 60.0424 204.346 60.0424C201.694 60.0424 199.151 58.9927 197.276 57.1244C195.401 55.256 194.348 52.7219 194.348 50.0796V40.1168Z" fill="#EFEFEF"/>
<path d="M199.314 116H113.72C112.615 116 111.555 115.563 110.774 114.784C109.993 114.006 109.554 112.95 109.554 111.849V7.02374L195.864 21.9679C196.83 22.1359 197.704 22.6374 198.335 23.3845C198.966 24.1316 199.312 25.0763 199.314 26.0527V116Z" stroke="#C7D0DE" stroke-width="1.03" stroke-miterlimit="10"/>
<path d="M134.448 33.3255H114.469L109.554 6.29315H124.517L134.448 33.3255Z" fill="#EFEFEF" stroke="#C7D0DE" stroke-width="1.03" stroke-miterlimit="10"/>
<path d="M154.409 33.3255H134.447L124.517 6.29315H139.463L154.409 33.3255Z" fill="#EFEFEF" stroke="#C7D0DE" stroke-width="1.03" stroke-miterlimit="10"/>
<path d="M174.387 33.3255H154.409L139.463 6.29315H154.409L174.387 33.3255Z" fill="#EFEFEF" stroke="#C7D0DE" stroke-width="1.03" stroke-miterlimit="10"/>
<path d="M194.348 33.3255H174.387L154.409 6.29315H169.355L194.348 33.3255Z" fill="#EFEFEF" stroke="#C7D0DE" stroke-width="1.03" stroke-miterlimit="10"/>
<path d="M214.193 33.3255H194.348L169.355 6.29315H184.351L214.343 33.2425L214.193 33.3255Z" fill="#EFEFEF" stroke="#C7D0DE" stroke-width="1.03" stroke-miterlimit="10"/>
<path d="M114.469 33.3255H134.464V43.2883C134.464 45.9306 133.411 48.4647 131.536 50.333C129.661 52.2014 127.118 53.2511 124.467 53.2511C121.815 53.2511 119.273 52.2014 117.398 50.333C115.523 48.4647 114.469 45.9306 114.469 43.2883V33.3255Z" fill="#EFEFEF" stroke="#C7D0DE" stroke-width="1.03" stroke-miterlimit="10"/>
<path d="M134.448 33.3255H154.442V43.2883C154.442 45.9306 153.389 48.4647 151.514 50.333C149.639 52.2014 147.096 53.2511 144.445 53.2511C141.793 53.2511 139.251 52.2014 137.376 50.333C135.501 48.4647 134.448 45.9306 134.448 43.2883V33.3255Z" fill="#EFEFEF" stroke="#C7D0DE" stroke-width="1.03" stroke-miterlimit="10"/>
<path d="M154.409 33.3255H174.403V43.2883C174.403 45.9306 173.35 48.4647 171.475 50.333C169.6 52.2014 167.058 53.2511 164.406 53.2511C161.755 53.2511 159.212 52.2014 157.337 50.333C155.462 48.4647 154.409 45.9306 154.409 43.2883V33.3255Z" fill="#EFEFEF" stroke="#C7D0DE" stroke-width="1.03" stroke-miterlimit="10"/>
<path d="M174.387 33.3255H194.382V43.2883C194.382 45.9306 193.328 48.4647 191.453 50.333C189.579 52.2014 187.036 53.2511 184.384 53.2511C181.733 53.2511 179.19 52.2014 177.315 50.333C175.44 48.4647 174.387 45.9306 174.387 43.2883V33.3255Z" fill="#EFEFEF" stroke="#C7D0DE" stroke-width="1.03" stroke-miterlimit="10"/>
<path d="M194.348 33.3255H214.343V43.2883C214.343 45.9306 213.29 48.4647 211.415 50.333C209.54 52.2014 206.997 53.2511 204.346 53.2511C201.694 53.2511 199.151 52.2014 197.276 50.333C195.401 48.4647 194.348 45.9306 194.348 43.2883V33.3255Z" fill="#EFEFEF" stroke="#C7D0DE" stroke-width="1.03" stroke-miterlimit="10"/>
<path d="M185.617 76.182L168.339 93.401" stroke="#C7D0DE" stroke-width="1.03" stroke-miterlimit="10"/>
<path d="M181.518 70.0384L171.071 80.4495" stroke="#C7D0DE" stroke-width="1.03" stroke-miterlimit="10"/>
<path d="M154.292 47.7383V115.685" stroke="#C7D0DE" stroke-width="1.03" stroke-miterlimit="10"/>
<path d="M121.084 68.5605H142.329C143.433 68.5605 144.493 68.9979 145.274 69.7764C146.055 70.5549 146.494 71.6108 146.494 72.7117V115.668H116.919V72.7283C116.917 72.1818 117.023 71.6402 117.231 71.1346C117.439 70.6291 117.746 70.1695 118.133 69.7823C118.52 69.395 118.98 69.0878 119.486 68.8781C119.993 68.6685 120.536 68.5605 121.084 68.5605Z" fill="#C7D0DE"/>
<path d="M126.033 96.7387C127.616 96.7387 128.899 95.46 128.899 93.8827C128.899 92.3053 127.616 91.0267 126.033 91.0267C124.45 91.0267 123.167 92.3053 123.167 93.8827C123.167 95.46 124.45 96.7387 126.033 96.7387Z" fill="white"/>
<path d="M199.197 104.244H154.775V115.701H199.197V104.244Z" fill="#EFEFEF" stroke="#C7D0DE" stroke-width="1.03" stroke-miterlimit="10"/>
<path d="M0 116H250" stroke="#C7D0DE" stroke-width="1.03" stroke-miterlimit="10"/>
<path d="M57.9846 115.983L36.5403 91.807C35.169 90.2881 33.9781 88.6166 32.9912 86.8256C30.785 82.7566 29.664 78.1913 29.7355 73.5668C29.807 68.9423 31.0687 64.4136 33.3997 60.4142C35.7307 56.4149 39.053 53.0789 43.0484 50.7257C47.0438 48.3725 51.5785 47.0808 56.2184 46.9745C60.844 46.8548 65.4233 47.917 69.5204 50.0599C73.6175 52.2028 77.096 55.3552 79.6248 59.2168C82.1536 63.0784 83.6484 67.5208 83.967 72.121C84.2856 76.7212 83.4174 81.326 81.445 85.4973C80.5348 87.3238 79.4166 89.0399 78.1125 90.6115L57.9846 115.983Z" fill="#EFEFEF" stroke="#C7D0DE" stroke-width="1.03" stroke-miterlimit="10"/>
<path d="M56.8848 86.8422C63.17 86.8422 68.2651 81.7647 68.2651 75.5013C68.2651 69.2378 63.17 64.1603 56.8848 64.1603C50.5996 64.1603 45.5045 69.2378 45.5045 75.5013C45.5045 81.7647 50.5996 86.8422 56.8848 86.8422Z" fill="white" stroke="#C7D0DE" stroke-width="1.03" stroke-miterlimit="10"/>
</svg>
