<svg width="81" height="48" viewBox="0 0 81 48" fill="none" xmlns="http://www.w3.org/2000/svg">
<g clip-path="url(#clip0_17796_126465)">
<path d="M77.4853 1.22046H2.37971C1.37555 1.22046 0.561523 2.03362 0.561523 3.03671V18.8381C0.561523 19.8412 1.37555 20.6544 2.37971 20.6544H77.4853C78.4894 20.6544 79.3035 19.8412 79.3035 18.8381V3.03671C79.3035 2.03362 78.4894 1.22046 77.4853 1.22046Z" fill="#C7D0DE" stroke="#C7D0DE" stroke-miterlimit="10"/>
<path d="M78.6127 0.363281H3.50715C2.50299 0.363281 1.68896 1.17645 1.68896 2.17954V17.981C1.68896 18.984 2.50299 19.7972 3.50715 19.7972H78.6127C79.6169 19.7972 80.4309 18.984 80.4309 17.981V2.17954C80.4309 1.17645 79.6169 0.363281 78.6127 0.363281Z" fill="white" stroke="#C7D0DE" stroke-miterlimit="10"/>
<path d="M28.4744 7.22876H60.249" stroke="#C7D0DE" stroke-miterlimit="10"/>
<path d="M33.209 12.198H60.249" stroke="#C7D0DE" stroke-miterlimit="10"/>
<path d="M12.6272 15.5979C15.6758 15.5979 18.1472 13.1291 18.1472 10.0837C18.1472 7.03835 15.6758 4.56958 12.6272 4.56958C9.57857 4.56958 7.10718 7.03835 7.10718 10.0837C7.10718 13.1291 9.57857 15.5979 12.6272 15.5979Z" stroke="#C7D0DE" stroke-miterlimit="10"/>
<path d="M9.95801 10.5489L12.5762 12.0891L15.9362 8.07153" stroke="#C7D0DE" stroke-miterlimit="10"/>
<path d="M77.4853 28.2029H2.37971C1.37555 28.2029 0.561523 29.016 0.561523 30.0191V45.8206C0.561523 46.8236 1.37555 47.6368 2.37971 47.6368H77.4853C78.4894 47.6368 79.3035 46.8236 79.3035 45.8206V30.0191C79.3035 29.016 78.4894 28.2029 77.4853 28.2029Z" fill="#C7D0DE" stroke="#C7D0DE" stroke-miterlimit="10"/>
<path d="M78.6127 27.3455H3.50715C2.50299 27.3455 1.68896 28.1586 1.68896 29.1617V44.9631C1.68896 45.9662 2.50299 46.7794 3.50715 46.7794H78.6127C79.6169 46.7794 80.4309 45.9662 80.4309 44.9631V29.1617C80.4309 28.1586 79.6169 27.3455 78.6127 27.3455Z" fill="white" stroke="#C7D0DE" stroke-miterlimit="10"/>
<path d="M28.4744 34.2109H60.249" stroke="#C7D0DE" stroke-miterlimit="10"/>
<path d="M33.209 39.1802H60.249" stroke="#C7D0DE" stroke-miterlimit="10"/>
<path d="M12.6272 42.573C15.6758 42.573 18.1472 40.1042 18.1472 37.0588C18.1472 34.0134 15.6758 31.5447 12.6272 31.5447C9.57857 31.5447 7.10718 34.0134 7.10718 37.0588C7.10718 40.1042 9.57857 42.573 12.6272 42.573Z" stroke="#C7D0DE" stroke-miterlimit="10"/>
<path d="M9.95801 37.531L12.5762 39.0712L15.9362 35.0464" stroke="#C7D0DE" stroke-miterlimit="10"/>
</g>
<defs>
<clipPath id="clip0_17796_126465">
<rect width="80.6038" height="48" fill="white" transform="translate(0.197998)"/>
</clipPath>
</defs>
</svg>
