<svg width="20" height="20" viewBox="0 0 20 20" fill="none" xmlns="http://www.w3.org/2000/svg">
<path d="M10.3665 18.5417C14.9689 18.5417 18.6999 14.8107 18.6999 10.2083C18.6999 5.60596 14.9689 1.875 10.3665 1.875C5.76416 1.875 2.0332 5.60596 2.0332 10.2083C2.0332 14.8107 5.76416 18.5417 10.3665 18.5417Z" stroke="#475467" stroke-width="1.5" stroke-linecap="round" stroke-linejoin="round"/>
<path d="M5.5083 16.1001C6.03984 15.293 6.7636 14.6305 7.61452 14.1723C8.46544 13.7142 9.41684 13.4746 10.3833 13.4751C11.3395 13.4746 12.2813 13.7092 13.1256 14.1582C13.9699 14.6072 14.6908 15.2569 15.2249 16.0501" stroke="#475467" stroke-width="1.5" stroke-linecap="round" stroke-linejoin="round"/>
<path d="M10.3667 11.2584C12.0282 11.2584 13.375 9.91149 13.375 8.25003C13.375 6.58858 12.0282 5.2417 10.3667 5.2417C8.70526 5.2417 7.3584 6.58858 7.3584 8.25003C7.3584 9.91149 8.70526 11.2584 10.3667 11.2584Z" stroke="#475467" stroke-width="1.5" stroke-linecap="round" stroke-linejoin="round"/>
</svg>
