<svg width="111" height="32" viewBox="0 0 111 32" fill="none" xmlns="http://www.w3.org/2000/svg">
<path d="M9.24219 10.9985C10.1439 10.9985 10.8953 10.2471 10.8953 9.34545C10.8953 8.44378 10.1439 7.69238 9.24219 7.69238C8.34052 7.69238 7.58911 8.44378 7.58911 9.34545C7.58911 10.2847 8.34052 10.9985 9.24219 10.9985Z" fill="#E30613"/>
<path d="M5.25975 10.9985C6.16143 10.9985 6.91282 10.2471 6.91282 9.34545C6.91282 8.44378 6.16143 7.69238 5.25975 7.69238C4.35808 7.69238 3.60669 8.44378 3.60669 9.34545C3.60669 10.2847 4.35808 10.9985 5.25975 10.9985Z" fill="#E30613"/>
<path d="M67.0244 20.917H63.9061V12.4262H58.0452C55.0021 12.4262 52.5225 15.3191 52.5225 18.3622C52.5225 21.4054 55.0021 23.885 58.0452 23.885H60.9005C60.9005 24.1855 60.8254 24.7491 60.2618 25.1623C59.7358 25.5756 58.2706 26.1392 55.4905 25.5005L54.8518 28.3182C55.9413 28.5812 56.8806 28.6563 57.7071 28.6563C59.7734 28.6563 61.0884 28.0176 61.8773 27.379C62.9668 26.5149 63.6055 25.1999 63.6055 23.8098H70.2554V12.3511H67.0244V20.917ZM60.6751 20.917H58.6088C57.0684 20.917 55.791 19.7523 55.791 18.212C55.791 16.6716 57.0308 15.3942 58.6088 15.3942H60.6751V20.917Z" fill="#E30613"/>
<path d="M68.6399 25.275C67.7382 25.275 66.9868 26.0264 66.9868 26.9281C66.9868 27.8298 67.7382 28.5812 68.6399 28.5812C69.5415 28.5812 70.293 27.8298 70.293 26.9281C70.293 26.0264 69.5415 25.275 68.6399 25.275Z" fill="#E30613"/>
<path d="M47.15 19.0009C47.15 20.0904 46.3235 20.9169 45.2339 20.9169C44.1444 20.9169 43.5057 20.0904 43.5057 19.0009V14.3047H40.2372V18.9257C40.2372 20.0152 39.3355 20.9169 38.246 20.9169H37.1189V14.3047H33.8503V20.9169H29.7928C29.7928 20.9169 29.8679 20.8042 30.0182 20.6164C31.4083 18.55 30.8072 15.4693 29.1165 13.7411C27.8767 12.4637 25.9982 11.8626 24.27 12.1632C21.7904 12.5764 20.6633 14.0417 18.7473 16.7091V7.69238H15.4787V20.8794H12.3604V12.3886H5.14704C2.14147 12.3886 0 14.7931 0 18.2119C0 21.6683 2.40445 24.1855 5.33489 24.1855C6.95039 24.1855 8.1902 23.5844 9.01673 22.4573L9.09186 22.3446L9.65541 23.8474H38.5841C39.899 23.8474 41.0637 23.3214 41.9278 22.4573C42.7919 23.3214 43.9566 23.8474 45.2715 23.8474C47.8638 23.8474 50.4185 21.7435 50.4185 19.1511V12.3886H47.15V19.0009ZM9.09186 18.2495C9.09186 20.1655 7.92721 21.2926 6.16143 21.2926C4.39565 21.2926 3.26856 20.2031 3.26856 18.2495C3.26856 16.2959 4.39565 15.3942 6.16143 15.3942H9.09186V18.2495ZM27.501 18.2119C27.4259 18.5876 27.2756 18.9633 27.0502 19.339C26.4115 20.3909 25.1717 20.9169 23.9319 20.9169H18.5219C18.5219 20.9169 19.8368 19.3014 20.5882 18.4373C21.7904 17.0472 23.0302 15.3942 24.7209 15.0936C26.5993 14.7931 27.8016 16.5588 27.501 18.2119Z" fill="#E30613"/>
<path d="M109.191 8.40622L95.0652 0.253596C94.5017 -0.0845319 93.7879 -0.0845319 93.2243 0.253596L79.0981 8.40622C78.5346 8.74435 78.1589 9.34546 78.1589 10.0217V21.9689C78.1589 22.6451 78.497 23.2463 79.0981 23.5844L93.2243 31.737C93.5249 31.8873 93.8254 32 94.1636 32C94.5017 32 94.8023 31.9249 95.1028 31.737L109.229 23.5844C109.793 23.2463 110.168 22.6451 110.168 21.9689V10.0217C110.131 9.34546 109.755 8.74435 109.191 8.40622ZM106.862 19.0009L101.64 15.9953L106.862 12.9897V19.0009ZM94.126 3.48459L105.434 10.0217L94.126 16.5589L82.8175 10.0217L94.126 3.48459ZM81.4274 12.9522L86.6496 15.9577L81.4274 18.9633V12.9522ZM94.126 28.4685L82.8175 21.9313L89.8806 17.8362L93.1868 19.7523C93.4873 19.9026 93.7879 20.0153 94.126 20.0153C94.4641 20.0153 94.7647 19.9401 95.0652 19.7523L98.3714 17.8362L105.434 21.9313L94.126 28.4685Z" fill="#E30613"/>
</svg>
