<svg width="20" height="20" viewBox="0 0 20 20" fill="none" xmlns="http://www.w3.org/2000/svg">
<path d="M15.6252 18.3586H3.9585V7.45857C3.95968 7.21924 4.01246 6.98296 4.11312 6.76582C4.21378 6.54869 4.36001 6.35579 4.54189 6.20023L9.79183 1.69189L15.0502 6.20023C15.2306 6.35657 15.3752 6.54982 15.4744 6.76692C15.5736 6.98401 15.625 7.21989 15.6252 7.45857V18.3586Z" stroke="#475467" stroke-width="1.5" stroke-linecap="round" stroke-linejoin="round"/>
<path d="M9.79183 6.68327C10.2521 6.68327 10.6252 6.31017 10.6252 5.84994C10.6252 5.3897 10.2521 5.0166 9.79183 5.0166C9.33159 5.0166 8.9585 5.3897 8.9585 5.84994C8.9585 6.31017 9.33159 6.68327 9.79183 6.68327Z" fill="#475467"/>
<path d="M11.4583 10.0166H8.95833C8.73732 10.0166 8.52542 10.1044 8.36914 10.2607C8.21286 10.417 8.125 10.6289 8.125 10.8499V11.6833C8.125 11.9043 8.21286 12.1163 8.36914 12.2725C8.52542 12.4288 8.73732 12.5166 8.95833 12.5166H10.625C10.846 12.5166 11.058 12.6044 11.2143 12.7607C11.3706 12.917 11.4583 13.1289 11.4583 13.3499V14.1833C11.4583 14.4043 11.3706 14.6163 11.2143 14.7725C11.058 14.9288 10.846 15.0166 10.625 15.0166H8.125" stroke="#475467" stroke-width="1.5" stroke-linecap="round" stroke-linejoin="round"/>
<path d="M9.7915 15.0166V15.8499" stroke="#475467" stroke-width="1.5" stroke-linecap="round" stroke-linejoin="round"/>
<path d="M9.7915 9.18359V10.0169" stroke="#475467" stroke-width="1.5" stroke-linecap="round" stroke-linejoin="round"/>
</svg>
