<svg width="20" height="20" viewBox="0 0 20 20" fill="none" xmlns="http://www.w3.org/2000/svg">
<path d="M12.4432 13.75V13C12.2866 13 12.1339 13.0491 12.0065 13.1403L12.4432 13.75ZM7.55675 17.25H6.80675C6.80675 17.5311 6.96396 17.7886 7.214 17.9171C7.46405 18.0456 7.76494 18.0234 7.99348 17.8597L7.55675 17.25ZM7.55675 13.75H8.30675C8.30675 13.3358 7.97097 13 7.55675 13V13.75ZM5.76611 5.74854C5.3519 5.74854 5.01611 6.08433 5.01611 6.49854C5.01611 6.91276 5.3519 7.24854 5.76611 7.24854V5.74854ZM14.2269 7.24854C14.6411 7.24854 14.9769 6.91276 14.9769 6.49854C14.9769 6.08433 14.6411 5.74854 14.2269 5.74854V7.24854ZM5.76611 9.12126C5.3519 9.12126 5.01611 9.45705 5.01611 9.87126C5.01611 10.2855 5.3519 10.6213 5.76611 10.6213V9.12126ZM10.0001 10.6213C10.4143 10.6213 10.7501 10.2855 10.7501 9.87126C10.7501 9.45705 10.4143 9.12126 10.0001 9.12126V10.6213ZM15.8 13H12.4432V14.5H15.8V13ZM12.0065 13.1403L7.12003 16.6403L7.99348 17.8597L12.88 14.3597L12.0065 13.1403ZM8.30675 17.25V13.75H6.80675V17.25H8.30675ZM7.55675 13H4.2V14.5H7.55675V13ZM4.2 13C4.01433 13 3.83627 12.9262 3.705 12.795L2.64434 13.8556C3.05693 14.2682 3.61654 14.5 4.2 14.5V13ZM3.705 12.795C3.57375 12.6637 3.5 12.4857 3.5 12.3H2C2 12.8834 2.23174 13.443 2.64434 13.8556L3.705 12.795ZM3.5 12.3V4.2H2V12.3H3.5ZM3.5 4.2C3.5 4.01432 3.57375 3.83628 3.705 3.70502L2.64434 2.64436C2.23174 3.05697 2 3.61656 2 4.2H3.5ZM3.705 3.70502C3.83627 3.57376 4.01433 3.5 4.2 3.5V2C3.61654 2 3.05693 2.23177 2.64434 2.64436L3.705 3.70502ZM4.2 3.5H15.8V2H4.2V3.5ZM15.8 3.5C15.9856 3.5 16.1637 3.57374 16.295 3.70502L17.3556 2.64436C16.943 2.23179 16.3835 2 15.8 2V3.5ZM16.295 3.70502C16.4262 3.83632 16.5 4.01438 16.5 4.2H18C18 3.6165 17.7682 3.05692 17.3556 2.64436L16.295 3.70502ZM16.5 4.2V12.3H18V4.2H16.5ZM16.5 12.3C16.5 12.4856 16.4262 12.6637 16.295 12.795L17.3556 13.8556C17.7682 13.4431 18 12.8835 18 12.3H16.5ZM16.295 12.795C16.1637 12.9263 15.9856 13 15.8 13V14.5C16.3835 14.5 16.943 14.2682 17.3556 13.8556L16.295 12.795ZM5.76611 7.24854H14.2269V5.74854H5.76611V7.24854ZM5.76611 10.6213H10.0001V9.12126H5.76611V10.6213Z" fill="#667085"/>
</svg>
