<svg width="32" height="32" viewBox="0 0 32 32" fill="none" xmlns="http://www.w3.org/2000/svg">
<rect width="32" height="32" rx="16" fill="#F3FAFB"/>
<path d="M12.7655 13.692C12.8355 13.216 12.9661 12.7983 13.1575 12.439C13.3535 12.0797 13.5985 11.781 13.8925 11.543C14.1865 11.3003 14.5225 11.1183 14.9005 10.997C15.2831 10.871 15.6961 10.808 16.1395 10.808C16.5875 10.808 16.9935 10.8733 17.3575 11.004C17.7261 11.13 18.0411 11.3073 18.3025 11.536C18.5685 11.7647 18.7715 12.0377 18.9115 12.355C19.0561 12.6723 19.1285 13.02 19.1285 13.398C19.1285 13.72 19.0888 14.0047 19.0095 14.252C18.9348 14.4947 18.8251 14.7093 18.6805 14.896C18.5405 15.0827 18.3678 15.239 18.1625 15.365C17.9571 15.491 17.7261 15.596 17.4695 15.68C18.0948 15.862 18.5638 16.1537 18.8765 16.555C19.1891 16.9517 19.3455 17.451 19.3455 18.053C19.3455 18.5383 19.2545 18.97 19.0725 19.348C18.8905 19.726 18.6431 20.0457 18.3305 20.307C18.0225 20.5683 17.6608 20.769 17.2455 20.909C16.8348 21.0443 16.3985 21.112 15.9365 21.112C15.4185 21.112 14.9705 21.0513 14.5925 20.93C14.2145 20.804 13.8878 20.6267 13.6125 20.398C13.3418 20.1647 13.1155 19.8847 12.9335 19.558C12.7515 19.2313 12.5975 18.865 12.4715 18.459L13.1225 18.186C13.2951 18.1113 13.4585 18.0903 13.6125 18.123C13.7711 18.1557 13.8855 18.242 13.9555 18.382C14.0301 18.5313 14.1141 18.6923 14.2075 18.865C14.3008 19.033 14.4198 19.1893 14.5645 19.334C14.7138 19.474 14.8958 19.593 15.1105 19.691C15.3298 19.7843 15.5981 19.831 15.9155 19.831C16.2375 19.831 16.5175 19.7797 16.7555 19.677C16.9981 19.5697 17.1988 19.4343 17.3575 19.271C17.5208 19.103 17.6421 18.9163 17.7215 18.711C17.8008 18.5057 17.8405 18.3027 17.8405 18.102C17.8405 17.85 17.8101 17.619 17.7495 17.409C17.6888 17.1943 17.5698 17.0123 17.3925 16.863C17.2198 16.7137 16.9725 16.597 16.6505 16.513C16.3331 16.4243 15.9155 16.38 15.3975 16.38V15.295C15.8221 15.2903 16.1791 15.2483 16.4685 15.169C16.7625 15.085 16.9958 14.973 17.1685 14.833C17.3458 14.6883 17.4718 14.5157 17.5465 14.315C17.6258 14.1143 17.6655 13.895 17.6655 13.657C17.6655 13.4003 17.6258 13.174 17.5465 12.978C17.4671 12.782 17.3551 12.6187 17.2105 12.488C17.0705 12.3527 16.9025 12.2523 16.7065 12.187C16.5105 12.1217 16.2935 12.089 16.0555 12.089C15.8268 12.089 15.6145 12.1217 15.4185 12.187C15.2271 12.2523 15.0545 12.3433 14.9005 12.46C14.7511 12.5767 14.6251 12.7167 14.5225 12.88C14.4198 13.0387 14.3451 13.2137 14.2985 13.405C14.2331 13.5963 14.1445 13.7247 14.0325 13.79C13.9251 13.8553 13.7665 13.8693 13.5565 13.832L12.7655 13.692Z" fill="#667085"/>
</svg>
