<svg width="18" height="18" viewBox="0 0 18 18" fill="none" xmlns="http://www.w3.org/2000/svg">
<path d="M15.3301 2.60254H3.33008C2.93225 2.60254 2.5507 2.76057 2.26939 3.04188C1.98809 3.32318 1.83008 3.70471 1.83008 4.10254V5.60254H16.8301V4.10254C16.8301 3.70471 16.672 3.32318 16.3907 3.04188C16.1094 2.76057 15.7279 2.60254 15.3301 2.60254Z" stroke="#475467" stroke-width="1.5" stroke-linecap="round" stroke-linejoin="round"/>
<path d="M1.83008 5.64746V14.8125C1.83008 15.2103 1.98809 15.5918 2.26939 15.8731C2.5507 16.1544 2.93225 16.3125 3.33008 16.3125H15.3301C15.7279 16.3125 16.1094 16.1544 16.3907 15.8731C16.672 15.5918 16.8301 15.2103 16.8301 14.8125V5.64746H1.83008Z" stroke="#475467" stroke-width="1.5" stroke-linecap="round" stroke-linejoin="round"/>
<path d="M5.01758 3.3825V1.3125" stroke="#475467" stroke-width="1.5" stroke-linecap="round" stroke-linejoin="round"/>
<path d="M13.6426 3.3825V1.3125" stroke="#475467" stroke-width="1.5" stroke-linecap="round" stroke-linejoin="round"/>
<path d="M9.03027 8.34753H9.6228" stroke="#475467" stroke-width="1.5" stroke-linecap="round" stroke-linejoin="round"/>
<path d="M9.03027 10.5975H9.6228" stroke="#475467" stroke-width="1.5" stroke-linecap="round" stroke-linejoin="round"/>
<path d="M5.01758 8.34753H5.61006" stroke="#475467" stroke-width="1.5" stroke-linecap="round" stroke-linejoin="round"/>
<path d="M13.043 8.34753H13.643" stroke="#475467" stroke-width="1.5" stroke-linecap="round" stroke-linejoin="round"/>
<path d="M5.01758 10.5975H5.61006" stroke="#475467" stroke-width="1.5" stroke-linecap="round" stroke-linejoin="round"/>
<path d="M13.043 10.5975H13.643" stroke="#475467" stroke-width="1.5" stroke-linecap="round" stroke-linejoin="round"/>
<path d="M5.01758 12.8774H5.61006" stroke="#475467" stroke-width="1.5" stroke-linecap="round" stroke-linejoin="round"/>
<path d="M8.96973 12.8774H9.56221" stroke="#475467" stroke-width="1.5" stroke-linecap="round" stroke-linejoin="round"/>
</svg>
