<svg width="28" height="28" viewBox="0 0 28 28" fill="none" xmlns="http://www.w3.org/2000/svg">
<path d="M25.5789 24.2819L2.90741 1.69861L1.7052 2.89614L7.16204 8.34025L5.96836 13.3937C5.93827 13.5203 5.93778 13.6521 5.96693 13.7789C5.99608 13.9057 6.05409 14.0242 6.13648 14.1251C6.21887 14.226 6.32344 14.3068 6.44213 14.3611C6.56081 14.4154 6.69043 14.4418 6.82099 14.4383H10.9392L9.37888 24.5027C9.35072 24.6893 9.38571 24.8799 9.47835 25.0444C9.57098 25.209 9.71598 25.3381 9.89046 25.4115C9.99884 25.4553 10.1146 25.4784 10.2315 25.4794C10.3617 25.4791 10.4901 25.4491 10.6069 25.3917C10.7237 25.3343 10.8257 25.251 10.9051 25.1482L16.6007 17.7337L24.3767 25.4794L25.5789 24.2819Z" fill="white"/>
<path d="M19.2098 14.3279L21.9893 10.7098C22.0789 10.5892 22.1348 10.447 22.1513 10.2978C22.1677 10.1486 22.1442 9.99772 22.0831 9.86052C22.019 9.70964 21.9125 9.58045 21.7763 9.48852C21.6402 9.3966 21.4802 9.34587 21.3158 9.34244H17.2658L18.7579 2.73477C18.7861 2.60943 18.7854 2.47934 18.7559 2.35429C18.7264 2.22925 18.6687 2.1125 18.5873 2.01285C18.5053 1.91205 18.4012 1.83131 18.2829 1.77683C18.1647 1.72236 18.0355 1.6956 17.9052 1.69861H9.37893C9.183 1.69339 8.99125 1.75557 8.83596 1.87468C8.68066 1.99379 8.57131 2.16256 8.5263 2.35258L8.27051 3.45669L19.2098 14.3279Z" fill="white"/>
</svg>
