<svg width="28" height="28" viewBox="0 0 28 28" fill="none" xmlns="http://www.w3.org/2000/svg">
<g clip-path="url(#clip0)">
<path d="M7.29171 22.75C5.42388 22.75 3.76255 21.5542 3.15938 19.7739L3.11855 19.6397C2.97621 19.1684 2.91671 18.7717 2.91671 18.375V10.4207L0.086379 19.8684C-0.277621 21.2579 0.551879 22.6987 1.94371 23.0825L19.9839 27.9137C20.209 27.972 20.4342 28 20.6559 28C21.8179 28 22.8795 27.2289 23.177 26.0925L24.2282 22.75H7.29171Z" fill="white"/>
<path d="M10.5001 10.5C11.7869 10.5 12.8334 9.45354 12.8334 8.16671C12.8334 6.87987 11.7869 5.83337 10.5001 5.83337C9.21325 5.83337 8.16675 6.87987 8.16675 8.16671C8.16675 9.45354 9.21325 10.5 10.5001 10.5Z" fill="white"/>
<path d="M25.0833 2.33337H7.58329C5.97563 2.33337 4.66663 3.64237 4.66663 5.25004V18.0834C4.66663 19.691 5.97563 21 7.58329 21H25.0833C26.691 21 28 19.691 28 18.0834V5.25004C28 3.64237 26.691 2.33337 25.0833 2.33337ZM7.58329 4.66671H25.0833C25.4053 4.66671 25.6666 4.92804 25.6666 5.25004V13.5322L21.9811 9.23187C21.5903 8.77337 21.0245 8.52837 20.4166 8.51437C19.8123 8.51787 19.2453 8.78621 18.858 9.25054L14.525 14.4515L13.1133 13.0434C12.3153 12.2454 11.0168 12.2454 10.22 13.0434L6.99996 16.2622V5.25004C6.99996 4.92804 7.26129 4.66671 7.58329 4.66671Z" fill="white"/>
</g>
<defs>
<clipPath id="clip0">
<rect width="28" height="28" fill="white"/>
</clipPath>
</defs>
</svg>
