<svg width="56" height="56" viewBox="0 0 56 56" fill="none" xmlns="http://www.w3.org/2000/svg">
<path fill-rule="evenodd" clip-rule="evenodd" d="M0.718273 42.9602L23.4173 4.58009C23.8951 3.79247 24.5678 3.14129 25.3705 2.68935C26.1732 2.23742 27.0788 2 28 2C28.9212 2 29.8268 2.23742 30.6295 2.68935C31.4323 3.14129 32.1049 3.79247 32.5827 4.58009L55.2817 42.9602C55.7497 43.7707 55.9974 44.6896 56 45.6254C56.0026 46.5613 55.7601 47.4816 55.2967 48.2947C54.8332 49.1078 54.1649 49.7853 53.3583 50.2599C52.5517 50.7346 51.6349 50.9897 50.699 51H5.30096C4.36513 50.9897 3.44829 50.7346 2.64168 50.2599C1.83507 49.7853 1.16679 49.1078 0.703336 48.2947C0.23988 47.4816 -0.00259947 46.5613 2.10164e-05 45.6254C0.0026415 44.6896 0.250271 43.7707 0.718273 42.9602ZM25.2448 16.1909C25.3617 15.5453 25.7016 14.9613 26.2052 14.5407C26.7087 14.1201 27.344 13.8897 28 13.8897C28.6561 13.8897 29.2914 14.1201 29.7949 14.5407C30.2985 14.9613 30.6383 15.5453 30.7552 16.1909L30.8 16.6949V30.6949L30.7552 31.1989C30.6383 31.8445 30.2985 32.4285 29.7949 32.8491C29.2914 33.2696 28.6561 33.5 28 33.5C27.344 33.5 26.7087 33.2696 26.2052 32.8491C25.7016 32.4285 25.3617 31.8445 25.2448 31.1989L25.2 30.6949V16.6949L25.2448 16.1909ZM25.2448 39.9961C25.3617 39.3506 25.7016 38.7665 26.2052 38.346C26.7087 37.9254 27.344 37.695 28 37.695C28.6561 37.695 29.2914 37.9254 29.7949 38.346C30.2985 38.7665 30.6384 39.3506 30.7552 39.9961L30.8 40.5001L30.7552 41.0041C30.6384 41.6497 30.2985 42.2338 29.7949 42.6543C29.2914 43.0749 28.6561 43.3053 28 43.3053C27.344 43.3053 26.7087 43.0749 26.2052 42.6543C25.7016 42.2338 25.3617 41.6497 25.2448 41.0041L25.2 40.5001L25.2448 39.9961Z" fill="#F79009"/>
</svg>
