<svg width="21" height="12" viewBox="0 0 21 12" fill="none" xmlns="http://www.w3.org/2000/svg">
<path d="M10.125 11.9766C10.6641 11.9766 11.1094 11.7656 11.5312 11.332L19.7461 2.92969C20.0742 2.60156 20.2266 2.21484 20.2266 1.73438C20.2266 0.773438 19.4648 0 18.5156 0C18.0469 0 17.6016 0.1875 17.25 0.550781L10.125 7.89844L2.98828 0.550781C2.63672 0.199219 2.20312 0 1.72266 0C0.773438 0 0 0.773438 0 1.73438C0 2.20312 0.175781 2.58984 0.492188 2.92969L8.70703 11.3438C9.14062 11.7773 9.58594 11.9766 10.125 11.9766Z" fill="#5A5A5A"/>
</svg>
