<svg width="20" height="20" viewBox="0 0 20 20" fill="none" xmlns="http://www.w3.org/2000/svg">
<path d="M5.13361 18.3332H15.0669C15.8825 18.3332 16.6646 18.0092 17.2413 17.4325C17.818 16.8559 18.1419 16.0737 18.1419 15.2582V1.6665H4.80859V14.0165" stroke="#667085" stroke-width="1.5" stroke-linecap="round" stroke-linejoin="round"/>
<path d="M14.8169 18.3333C14.2777 18.3333 13.7605 18.119 13.3792 17.7377C12.9978 17.3564 12.7836 16.8392 12.7836 16.2999C12.7836 15.7607 12.9978 15.2435 13.3792 14.8622C13.7605 14.4808 14.2777 14.2666 14.8169 14.2666H4.34193C3.80266 14.2666 3.28547 14.4808 2.90414 14.8622C2.52282 15.2435 2.30859 15.7607 2.30859 16.2999C2.30859 16.8392 2.52282 17.3564 2.90414 17.7377C3.28547 18.119 3.80266 18.3333 4.34193 18.3333H14.8169Z" stroke="#667085" stroke-width="1.5" stroke-linecap="round" stroke-linejoin="round"/>
<path d="M8.14193 6.65837C8.60216 6.65837 8.97526 6.28527 8.97526 5.82503C8.97526 5.3648 8.60216 4.9917 8.14193 4.9917C7.68169 4.9917 7.30859 5.3648 7.30859 5.82503C7.30859 6.28527 7.68169 6.65837 8.14193 6.65837Z" fill="#667085"/>
<path d="M8.14193 10.8249C8.60216 10.8249 8.97526 10.4518 8.97526 9.99154C8.97526 9.5313 8.60216 9.1582 8.14193 9.1582C7.68169 9.1582 7.30859 9.5313 7.30859 9.99154C7.30859 10.4518 7.68169 10.8249 8.14193 10.8249Z" fill="#667085"/>
<path d="M11.4751 5.8252H14.8084" stroke="#667085" stroke-width="1.5" stroke-linecap="round" stroke-linejoin="round"/>
<path d="M11.4751 9.9917H14.8084" stroke="#667085" stroke-width="1.5" stroke-linecap="round" stroke-linejoin="round"/>
</svg>
