<svg width="25" height="24" viewBox="0 0 25 24" fill="none" xmlns="http://www.w3.org/2000/svg">
<path d="M18.7084 4.70702C18.3179 4.31653 17.6848 4.31649 17.2943 4.70694L12.7071 9.29306C12.3166 9.68351 11.6835 9.68347 11.293 9.29298L6.70711 4.70711C6.31658 4.31658 5.68342 4.31658 5.29289 4.70711L4.70711 5.29289C4.31658 5.68342 4.31658 6.31658 4.70711 6.70711L9.29289 11.2929C9.68342 11.6834 9.68342 12.3166 9.29289 12.7071L4.70711 17.2929C4.31658 17.6834 4.31658 18.3166 4.70711 18.7071L5.29289 19.2929C5.68342 19.6834 6.31658 19.6834 6.70711 19.2929L11.293 14.707C11.6835 14.3165 12.3166 14.3165 12.7071 14.7069L17.2943 19.2931C17.6848 19.6835 18.3179 19.6835 18.7084 19.293L19.2943 18.7071C19.6848 18.3166 19.6848 17.6834 19.2943 17.2929L14.7085 12.7071C14.318 12.3166 14.318 11.6834 14.7085 11.2929L19.2943 6.70711C19.6848 6.31658 19.6848 5.68342 19.2943 5.29289L18.7084 4.70702Z" fill="#667085"/>
</svg>
