<svg width="160" height="83" viewBox="0 0 160 83" fill="none" xmlns="http://www.w3.org/2000/svg">
<rect x="0.5" y="0.5" width="159" height="35.9231" rx="7.5" fill="url(#paint0_linear_9572_43795)" stroke="#CBD5E0"/>
<rect x="35.5" y="11" width="77" height="5" rx="2.5" fill="url(#paint1_linear_9572_43795)"/>
<path d="M30 18.4612C30.0035 20.6121 29.3774 22.717 28.1989 24.5162C27.952 24.8957 27.6813 25.2592 27.3886 25.6046C26.7022 26.4177 25.9027 27.1281 25.0145 27.7141C24.7729 27.8742 24.5246 28.0241 24.2696 28.1638C22.942 28.8981 21.4768 29.3493 19.9662 29.4892C19.6229 29.5227 19.2738 29.5386 18.9217 29.5386C17.9565 29.5396 16.9954 29.4139 16.063 29.1648C15.5344 29.0259 15.0174 28.8464 14.5165 28.6279C14.2605 28.5173 14.0103 28.397 13.7659 28.2672C13.1779 27.9584 12.6194 27.5966 12.0972 27.1862C11.8543 26.9971 11.6201 26.7978 11.3946 26.5882C7.67907 23.1451 6.77249 17.6201 9.19289 13.1701C11.6133 8.72009 16.7439 6.47904 21.6531 7.72747C26.5624 8.97589 29.9993 13.3957 30 18.4614V18.4612Z" fill="#E8EDF3" stroke="#CBD5E0"/>
<path d="M14.2411 19.7979L16.7335 23.2023C16.7631 23.2432 16.8015 23.2768 16.846 23.3006C16.8905 23.3244 16.9398 23.3377 16.9902 23.3396C17.0407 23.3415 17.091 23.3317 17.1371 23.311C17.1832 23.2902 17.2238 23.2591 17.2559 23.22L23.5954 15.6675C23.6504 15.5992 23.6769 15.5123 23.6695 15.4249C23.6621 15.3375 23.6213 15.2563 23.5555 15.1982C23.4871 15.1427 23.3996 15.1162 23.3119 15.1245C23.2241 15.1328 23.1431 15.1751 23.0863 15.2425L17.0168 22.4719L14.7546 19.4039C14.7024 19.3398 14.6284 19.2971 14.5468 19.284C14.4651 19.271 14.3815 19.2884 14.3119 19.3331C14.2767 19.3589 14.2469 19.3915 14.2243 19.4288C14.2016 19.4662 14.1866 19.5076 14.18 19.5508C14.1735 19.594 14.1754 19.6381 14.1859 19.6805C14.1964 19.7229 14.2151 19.7628 14.2411 19.7979Z" fill="white" stroke="#CBD5E0"/>
<rect x="35.5" y="21" width="53" height="5" rx="2.5" fill="url(#paint2_linear_9572_43795)"/>
<rect x="0.5" y="46.4231" width="159" height="35.9231" rx="7.5" fill="url(#paint3_linear_9572_43795)" stroke="#CBD5E0"/>
<rect x="35.5" y="56.9231" width="77" height="5" rx="2.5" fill="url(#paint4_linear_9572_43795)"/>
<path d="M30 64.3843C30.0035 66.5352 29.3774 68.6401 28.1989 70.4393C27.952 70.8188 27.6813 71.1823 27.3886 71.5277C26.7022 72.3408 25.9027 73.0512 25.0145 73.6372C24.7729 73.7973 24.5246 73.9472 24.2696 74.0869C22.942 74.8211 21.4768 75.2724 19.9662 75.4122C19.6229 75.4458 19.2738 75.4617 18.9217 75.4617C17.9565 75.4627 16.9954 75.337 16.063 75.0879C15.5344 74.949 15.0174 74.7695 14.5165 74.551C14.2605 74.4404 14.0103 74.3201 13.7659 74.1903C13.1779 73.8815 12.6194 73.5197 12.0972 73.1093C11.8543 72.9202 11.6201 72.7209 11.3946 72.5113C7.67907 69.0682 6.77249 63.5432 9.19289 59.0932C11.6133 54.6432 16.7439 52.4021 21.6531 53.6506C26.5624 54.899 29.9993 59.3188 30 64.3845V64.3843Z" fill="#E8EDF3" stroke="#CBD5E0"/>
<path d="M14.2411 65.721L16.7335 69.1254C16.7631 69.1663 16.8015 69.1999 16.846 69.2237C16.8905 69.2475 16.9398 69.2608 16.9902 69.2627C17.0407 69.2646 17.091 69.2548 17.1371 69.2341C17.1832 69.2133 17.2238 69.1822 17.2559 69.1431L23.5954 61.5906C23.6504 61.5223 23.6769 61.4354 23.6695 61.348C23.6621 61.2606 23.6213 61.1794 23.5555 61.1213C23.4871 61.0658 23.3996 61.0393 23.3119 61.0476C23.2241 61.0558 23.1431 61.0982 23.0863 61.1656L17.0168 68.395L14.7546 65.327C14.7024 65.2629 14.6284 65.2202 14.5468 65.2071C14.4651 65.1941 14.3815 65.2115 14.3119 65.2562C14.2767 65.282 14.2469 65.3145 14.2243 65.3519C14.2016 65.3893 14.1866 65.4307 14.18 65.4739C14.1735 65.5171 14.1754 65.5611 14.1859 65.6036C14.1964 65.646 14.2151 65.6859 14.2411 65.721Z" fill="white" stroke="#CBD5E0"/>
<rect x="35.5" y="66.9231" width="53" height="5" rx="2.5" fill="url(#paint5_linear_9572_43795)"/>
<defs>
<linearGradient id="paint0_linear_9572_43795" x1="-0.205541" y1="1.60538e-05" x2="218.5" y2="51" gradientUnits="userSpaceOnUse">
<stop stop-color="#E2E8F0"/>
<stop offset="1" stop-color="#E2E8F0" stop-opacity="0"/>
</linearGradient>
<linearGradient id="paint1_linear_9572_43795" x1="39.9" y1="11" x2="120.757" y2="22.4611" gradientUnits="userSpaceOnUse">
<stop stop-color="#CBD5E0"/>
<stop offset="1" stop-color="#E2E8F0" stop-opacity="0.28"/>
</linearGradient>
<linearGradient id="paint2_linear_9572_43795" x1="38.5286" y1="21" x2="94.7663" y2="26.4868" gradientUnits="userSpaceOnUse">
<stop stop-color="#CBD5E0"/>
<stop offset="1" stop-color="#E2E8F0" stop-opacity="0.28"/>
</linearGradient>
<linearGradient id="paint3_linear_9572_43795" x1="-0.205541" y1="45.9231" x2="218.5" y2="96.9231" gradientUnits="userSpaceOnUse">
<stop stop-color="#E2E8F0"/>
<stop offset="1" stop-color="#E2E8F0" stop-opacity="0"/>
</linearGradient>
<linearGradient id="paint4_linear_9572_43795" x1="39.9" y1="56.9231" x2="120.757" y2="68.3842" gradientUnits="userSpaceOnUse">
<stop stop-color="#CBD5E0"/>
<stop offset="1" stop-color="#E2E8F0" stop-opacity="0.28"/>
</linearGradient>
<linearGradient id="paint5_linear_9572_43795" x1="38.5286" y1="66.9231" x2="94.7663" y2="72.4099" gradientUnits="userSpaceOnUse">
<stop stop-color="#CBD5E0"/>
<stop offset="1" stop-color="#E2E8F0" stop-opacity="0.28"/>
</linearGradient>
</defs>
</svg>
