<svg width="32" height="68" viewBox="0 0 32 68" fill="none" xmlns="http://www.w3.org/2000/svg">
<rect width="32" height="32" rx="16" fill="#F3FAFB"/>
<path d="M18.8275 19.579C18.9908 19.579 19.1191 19.628 19.2125 19.726C19.3058 19.8193 19.3525 19.9407 19.3525 20.09V21H12.5345V20.489C12.5345 20.3863 12.5555 20.279 12.5975 20.167C12.6395 20.055 12.7071 19.9523 12.8005 19.859L15.9365 16.716C16.2025 16.45 16.4381 16.1957 16.6435 15.953C16.8535 15.7103 17.0308 15.4677 17.1755 15.225C17.3248 14.9823 17.4368 14.7373 17.5115 14.49C17.5908 14.238 17.6305 13.9743 17.6305 13.699C17.6305 13.433 17.5885 13.1997 17.5045 12.999C17.4251 12.7937 17.3131 12.6257 17.1685 12.495C17.0285 12.3597 16.8581 12.2593 16.6575 12.194C16.4615 12.124 16.2445 12.089 16.0065 12.089C15.7778 12.089 15.5655 12.1217 15.3695 12.187C15.1781 12.2523 15.0055 12.3433 14.8515 12.46C14.7021 12.5767 14.5761 12.7167 14.4735 12.88C14.3755 13.0387 14.3031 13.2137 14.2565 13.405C14.1865 13.5963 14.0955 13.7247 13.9835 13.79C13.8761 13.8553 13.7175 13.8693 13.5075 13.832L12.7165 13.692C12.7865 13.216 12.9171 12.7983 13.1085 12.439C13.3045 12.0797 13.5495 11.781 13.8435 11.543C14.1375 11.3003 14.4735 11.1183 14.8515 10.997C15.2341 10.871 15.6471 10.808 16.0905 10.808C16.5385 10.808 16.9491 10.8757 17.3225 11.011C17.7005 11.1417 18.0248 11.3307 18.2955 11.578C18.5708 11.8207 18.7855 12.117 18.9395 12.467C19.0935 12.817 19.1705 13.2113 19.1705 13.65C19.1705 14.0233 19.1145 14.3687 19.0025 14.686C18.8951 15.0033 18.7481 15.3067 18.5615 15.596C18.3748 15.8853 18.1555 16.1677 17.9035 16.443C17.6561 16.7137 17.3948 16.989 17.1195 17.269L14.6835 19.761C14.8841 19.705 15.0848 19.6607 15.2855 19.628C15.4908 19.5953 15.6845 19.579 15.8665 19.579H18.8275Z" fill="#667085"/>
<line x1="16.5" y1="32" x2="16.5" y2="68" stroke="#F3FAFB"/>
</svg>
