<svg width="57" height="56" viewBox="0 0 57 56" fill="none" xmlns="http://www.w3.org/2000/svg">
<path fill-rule="evenodd" clip-rule="evenodd" d="M1.21827 42.9602L23.9173 4.58009C24.3951 3.79247 25.0678 3.14129 25.8705 2.68935C26.6732 2.23742 27.5788 2 28.5 2C29.4212 2 30.3268 2.23742 31.1295 2.68935C31.9323 3.14129 32.6049 3.79247 33.0827 4.58009L55.7817 42.9602C56.2497 43.7707 56.4974 44.6896 56.5 45.6254C56.5026 46.5613 56.2601 47.4816 55.7967 48.2947C55.3332 49.1078 54.6649 49.7853 53.8583 50.2599C53.0517 50.7346 52.1349 50.9897 51.199 51H5.80096C4.86513 50.9897 3.94829 50.7346 3.14168 50.2599C2.33507 49.7853 1.66679 49.1078 1.20334 48.2947C0.73988 47.4816 0.497401 46.5613 0.500021 45.6254C0.502642 44.6896 0.750271 43.7707 1.21827 42.9602ZM25.7448 16.1909C25.8617 15.5453 26.2016 14.9613 26.7052 14.5407C27.2087 14.1201 27.844 13.8897 28.5 13.8897C29.1561 13.8897 29.7914 14.1201 30.2949 14.5407C30.7985 14.9613 31.1383 15.5453 31.2552 16.1909L31.3 16.6949V30.6949L31.2552 31.1989C31.1383 31.8445 30.7985 32.4285 30.2949 32.8491C29.7914 33.2696 29.1561 33.5 28.5 33.5C27.844 33.5 27.2087 33.2696 26.7052 32.8491C26.2016 32.4285 25.8617 31.8445 25.7448 31.1989L25.7 30.6949V16.6949L25.7448 16.1909ZM25.7448 39.9961C25.8617 39.3506 26.2016 38.7665 26.7052 38.346C27.2087 37.9254 27.844 37.695 28.5 37.695C29.1561 37.695 29.7914 37.9254 30.2949 38.346C30.7985 38.7665 31.1384 39.3506 31.2552 39.9961L31.3 40.5001L31.2552 41.0041C31.1384 41.6497 30.7985 42.2338 30.2949 42.6543C29.7914 43.0749 29.1561 43.3053 28.5 43.3053C27.844 43.3053 27.2087 43.0749 26.7052 42.6543C26.2016 42.2338 25.8617 41.6497 25.7448 41.0041L25.7 40.5001L25.7448 39.9961Z" fill="#F79009"/>
</svg>
