<svg width="24" height="24" viewBox="0 0 24 24" fill="none" xmlns="http://www.w3.org/2000/svg">
<path fill-rule="evenodd" clip-rule="evenodd" d="M12.0004 2.3999C6.69846 2.3999 2.40039 6.69797 2.40039 11.9999C2.40039 17.3018 6.69846 21.5999 12.0004 21.5999C17.3023 21.5999 21.6004 17.3018 21.6004 11.9999C21.6004 6.69797 17.3023 2.3999 12.0004 2.3999ZM17.0278 9.47313C17.3223 9.18185 17.3249 8.70698 17.0336 8.41249C16.7423 8.11799 16.2675 8.11539 15.973 8.40667L10.3129 14.005L8.0278 11.7449C7.73331 11.4536 7.25844 11.4562 6.96716 11.7507C6.67588 12.0452 6.67848 12.52 6.97298 12.8113L9.78548 15.5931C10.0777 15.8822 10.5481 15.8822 10.8403 15.5931L17.0278 9.47313Z" fill="white"/>
</svg>
