<svg width="375" height="374" viewBox="0 0 375 374" fill="none" xmlns="http://www.w3.org/2000/svg">
<g clip-path="url(#clip0_14516_54264)">
<path d="M275.66 50.5593H276.152C276.302 48.7299 277.132 47.0245 278.476 45.7817C279.82 44.5389 281.58 43.8497 283.406 43.851C284.196 43.8463 284.981 43.9768 285.728 44.2369C286.887 42.3326 288.583 40.8182 290.601 39.8867C292.619 38.9551 294.867 38.6487 297.059 39.0063C299.251 39.364 301.287 40.3696 302.908 41.895C304.529 43.4203 305.662 45.3964 306.161 47.5713C306.8 47.3779 307.463 47.2812 308.13 47.2843C309.268 47.2879 310.389 47.5703 311.395 48.107C312.4 48.6437 313.26 49.4186 313.901 50.3647C314.542 51.3108 314.944 52.3996 315.072 53.5368C315.2 54.674 315.05 55.8255 314.636 56.8916H267.776C268.18 55.0934 269.181 53.487 270.613 52.3362C272.046 51.1855 273.826 50.5588 275.66 50.5593Z" fill="white" stroke="#485466" stroke-miterlimit="10"/>
<path d="M61.3878 84.8822H61.8799C61.9698 83.7752 62.3094 82.7034 62.873 81.748C63.4365 80.7927 64.2092 79.9789 65.1322 79.3686C66.0553 78.7582 67.1046 78.3673 68.2005 78.2254C69.2963 78.0836 70.4099 78.1946 71.4567 78.5499C72.6133 76.6446 74.3086 75.129 76.3261 74.1966C78.3435 73.2642 80.5916 72.9573 82.7834 73.3152C84.9751 73.673 87.0111 74.6793 88.6313 76.2056C90.2515 77.7319 91.3825 79.7089 91.8799 81.8843C92.519 81.6952 93.1823 81.6019 93.8484 81.6072C94.9886 81.6053 96.1119 81.8843 97.12 82.4197C98.1282 82.9552 98.9905 83.7308 99.6314 84.6788C100.272 85.6267 100.673 86.7181 100.797 87.8574C100.921 88.9968 100.766 90.1494 100.344 91.2145H53.5039C53.9082 89.4163 54.9089 87.8099 56.3417 86.6592C57.7744 85.5084 59.5539 84.8818 61.3878 84.8822Z" fill="white" stroke="#485466" stroke-miterlimit="10"/>
<path d="M97.874 328.991H125.65" stroke="#1D2126" stroke-miterlimit="10"/>
<path d="M85.8464 332.494H113.612" stroke="#1D2126" stroke-miterlimit="10"/>
<path d="M198.287 323.035H221.122C221.122 323.035 225.945 320.383 203.691 315.674H198.159L198.287 323.035Z" fill="#20252D"/>
<path d="M160.905 150.629V145.167H108.1V150.629H97.0471V307.6H171.959V150.629H160.905Z" fill="#F4FCFC" stroke="#BDC5C6" stroke-miterlimit="10"/>
<path d="M157.451 169.863H148.553C147.433 169.863 146.526 170.776 146.526 171.901V180.846C146.526 181.972 147.433 182.884 148.553 182.884H157.451C158.571 182.884 159.478 181.972 159.478 180.846V171.901C159.478 170.776 158.571 169.863 157.451 169.863Z" fill="#F4FCFC" stroke="#BDC5C6" stroke-miterlimit="10"/>
<path d="M118.868 169.863H109.97C108.851 169.863 107.943 170.776 107.943 171.901V180.846C107.943 181.972 108.851 182.884 109.97 182.884H118.868C119.988 182.884 120.896 181.972 120.896 180.846V171.901C120.896 170.776 119.988 169.863 118.868 169.863Z" fill="#F4FCFC" stroke="#BDC5C6" stroke-miterlimit="10"/>
<path d="M138.159 169.863H129.262C128.142 169.863 127.234 170.776 127.234 171.901V180.846C127.234 181.972 128.142 182.884 129.262 182.884H138.159C139.279 182.884 140.187 181.972 140.187 180.846V171.901C140.187 170.776 139.279 169.863 138.159 169.863Z" fill="#F4FCFC" stroke="#BDC5C6" stroke-miterlimit="10"/>
<path d="M157.451 196.855H148.553C147.433 196.855 146.526 197.767 146.526 198.893V207.837C146.526 208.963 147.433 209.875 148.553 209.875H157.451C158.571 209.875 159.478 208.963 159.478 207.837V198.893C159.478 197.767 158.571 196.855 157.451 196.855Z" fill="#F4FCFC" stroke="#BDC5C6" stroke-miterlimit="10"/>
<path d="M118.868 196.855H109.97C108.851 196.855 107.943 197.767 107.943 198.893V207.837C107.943 208.963 108.851 209.875 109.97 209.875H118.868C119.988 209.875 120.896 208.963 120.896 207.837V198.893C120.896 197.767 119.988 196.855 118.868 196.855Z" fill="#F4FCFC" stroke="#BDC5C6" stroke-miterlimit="10"/>
<path d="M157.451 223.846H148.553C147.433 223.846 146.526 224.758 146.526 225.884V234.828C146.526 235.954 147.433 236.867 148.553 236.867H157.451C158.571 236.867 159.478 235.954 159.478 234.828V225.884C159.478 224.758 158.571 223.846 157.451 223.846Z" fill="#F4FCFC" stroke="#BDC5C6" stroke-miterlimit="10"/>
<path d="M118.868 223.846H109.97C108.851 223.846 107.943 224.758 107.943 225.884V234.828C107.943 235.954 108.851 236.867 109.97 236.867H118.868C119.988 236.867 120.896 235.954 120.896 234.828V225.884C120.896 224.758 119.988 223.846 118.868 223.846Z" fill="#F4FCFC" stroke="#BDC5C6" stroke-miterlimit="10"/>
<path d="M200.02 190.592V186.634H176.919V190.592H127.008V307.6H201.919V190.592H200.02Z" fill="#F4FCFC" stroke="#BDC5C6" stroke-miterlimit="10"/>
<path d="M192.579 246.177V252.054L182.687 261.998V256.131L192.579 246.177Z" fill="#F4FCFC" stroke="#BDC5C6" stroke-miterlimit="10"/>
<path d="M192.579 256.932V262.809L187.352 268.063H182.687V266.876L192.579 256.932Z" fill="#F4FCFC" stroke="#BDC5C6" stroke-miterlimit="10"/>
<path d="M192.589 246.009H182.687V268.063H192.589V246.009Z" fill="#F4FCFC" stroke="#BDC5C6" stroke-miterlimit="10"/>
<path d="M192.579 253.776H182.687" stroke="#BDC5C6" stroke-miterlimit="10"/>
<path d="M183.287 243.288H191.929C192.008 243.288 192.086 243.304 192.159 243.334C192.232 243.364 192.298 243.409 192.354 243.465C192.409 243.521 192.454 243.587 192.484 243.661C192.514 243.734 192.53 243.812 192.53 243.892V246.009H182.687V243.892C182.687 243.812 182.703 243.734 182.733 243.661C182.763 243.587 182.807 243.521 182.863 243.465C182.919 243.409 182.985 243.364 183.058 243.334C183.131 243.304 183.209 243.288 183.287 243.288Z" fill="#F4FCFC" stroke="#BDC5C6" stroke-miterlimit="10"/>
<path d="M169.409 246.177V252.054L159.518 261.998V256.131L169.409 246.177Z" fill="#F4FCFC" stroke="#BDC5C6" stroke-miterlimit="10"/>
<path d="M169.409 256.932V262.809L164.183 268.063H159.518V266.876L169.409 256.932Z" fill="#F4FCFC" stroke="#BDC5C6" stroke-miterlimit="10"/>
<path d="M169.419 246.009H159.518V268.063H169.419V246.009Z" fill="#F4FCFC" stroke="#BDC5C6" stroke-miterlimit="10"/>
<path d="M169.409 253.776H159.518" stroke="#BDC5C6" stroke-miterlimit="10"/>
<path d="M160.118 243.288H168.809C168.888 243.288 168.966 243.304 169.039 243.334C169.112 243.364 169.178 243.409 169.233 243.465C169.289 243.521 169.333 243.587 169.364 243.661C169.394 243.734 169.409 243.812 169.409 243.892V246.009H159.518V243.892C159.518 243.812 159.533 243.734 159.563 243.661C159.593 243.587 159.638 243.521 159.693 243.465C159.749 243.409 159.815 243.364 159.888 243.334C159.961 243.304 160.039 243.288 160.118 243.288Z" fill="#F4FCFC" stroke="#BDC5C6" stroke-miterlimit="10"/>
<path d="M146.25 246.177V252.054L136.348 261.998V256.131L146.25 246.177Z" fill="#F4FCFC" stroke="#BDC5C6" stroke-miterlimit="10"/>
<path d="M146.25 256.932V262.809L141.024 268.063H136.348V266.876L146.25 256.932Z" fill="#F4FCFC" stroke="#BDC5C6" stroke-miterlimit="10"/>
<path d="M146.25 246.009H136.348V268.063H146.25V246.009Z" fill="#F4FCFC" stroke="#BDC5C6" stroke-miterlimit="10"/>
<path d="M146.25 253.776H136.348" stroke="#BDC5C6" stroke-miterlimit="10"/>
<path d="M136.949 243.288H145.669C145.748 243.288 145.826 243.304 145.899 243.334C145.972 243.364 146.038 243.409 146.094 243.465C146.15 243.521 146.194 243.587 146.224 243.661C146.254 243.734 146.27 243.812 146.27 243.892V246.009H136.348V243.892C136.348 243.812 136.364 243.734 136.394 243.661C136.424 243.587 136.468 243.521 136.524 243.465C136.58 243.409 136.646 243.364 136.719 243.334C136.792 243.304 136.87 243.288 136.949 243.288Z" fill="#F4FCFC" stroke="#BDC5C6" stroke-miterlimit="10"/>
<path d="M247.766 261.513H164.459V307.61H247.766V261.513Z" fill="#F4FCFC" stroke="#BDC5C6" stroke-miterlimit="10"/>
<path d="M373.681 187.356V186.129H363.78V187.356H328.051V307.61H382.284V187.356H373.681Z" fill="#F4FCFC" stroke="#BDC5C6" stroke-miterlimit="10"/>
<path d="M174.99 153.093H94.0059V159.128H174.99V153.093Z" fill="#F4FCFC" stroke="#BDC5C6" stroke-miterlimit="10"/>
<path d="M383.465 191.64H326.87V196.597H383.465V191.64Z" fill="#F4FCFC" stroke="#BDC5C6" stroke-miterlimit="10"/>
<path d="M382.018 193.293H328.317V194.935H382.018V193.293Z" fill="#C1C1C1"/>
<path d="M192.579 208.114V213.981L182.687 223.935V218.058L192.579 208.114Z" fill="#F4FCFC" stroke="#BDC5C6" stroke-miterlimit="10"/>
<path d="M192.579 218.859V224.736L187.352 229.99H182.687V228.803L192.579 218.859Z" fill="#F4FCFC" stroke="#BDC5C6" stroke-miterlimit="10"/>
<path d="M192.589 207.936H182.687V229.99H192.589V207.936Z" fill="#F4FCFC" stroke="#BDC5C6" stroke-miterlimit="10"/>
<path d="M192.579 215.703H182.687" stroke="#BDC5C6" stroke-miterlimit="10"/>
<path d="M183.287 205.215H191.929C192.088 205.215 192.241 205.279 192.354 205.392C192.466 205.505 192.53 205.659 192.53 205.819V207.936H182.687V205.799C182.692 205.642 182.758 205.494 182.87 205.385C182.982 205.276 183.132 205.215 183.287 205.215Z" fill="#F4FCFC" stroke="#BDC5C6" stroke-miterlimit="10"/>
<path d="M169.419 207.936H159.518V229.99H169.419V207.936Z" fill="#F4FCFC" stroke="#BDC5C6" stroke-miterlimit="10"/>
<path d="M169.409 215.703H159.518" stroke="#BDC5C6" stroke-miterlimit="10"/>
<path d="M160.118 205.215H168.809C168.968 205.215 169.121 205.279 169.233 205.392C169.346 205.505 169.409 205.659 169.409 205.819V207.936H159.518V205.799C159.523 205.642 159.588 205.494 159.7 205.385C159.812 205.276 159.962 205.215 160.118 205.215Z" fill="#F4FCFC" stroke="#BDC5C6" stroke-miterlimit="10"/>
<path d="M146.25 208.114V213.981L136.348 223.935V218.058L146.25 208.114Z" fill="#F4FCFC" stroke="#BDC5C6" stroke-miterlimit="10"/>
<path d="M146.25 218.859V224.736L141.024 229.99H136.348V228.803L146.25 218.859Z" fill="#F4FCFC" stroke="#BDC5C6" stroke-miterlimit="10"/>
<path d="M146.25 207.936H136.348V229.99H146.25V207.936Z" fill="#F4FCFC" stroke="#BDC5C6" stroke-miterlimit="10"/>
<path d="M146.25 215.703H136.348" stroke="#BDC5C6" stroke-miterlimit="10"/>
<path d="M136.949 205.215H145.669C145.828 205.215 145.981 205.279 146.094 205.392C146.206 205.505 146.27 205.659 146.27 205.819V207.936H136.348V205.799C136.353 205.642 136.419 205.494 136.531 205.385C136.643 205.276 136.793 205.215 136.949 205.215Z" fill="#F4FCFC" stroke="#BDC5C6" stroke-miterlimit="10"/>
<path d="M188.041 284.566H174.35V307.61H188.041V284.566Z" fill="#F4FCFC" stroke="#BDC5C6" stroke-miterlimit="10"/>
<path d="M185.965 286.654H176.437V292.601H185.965V286.654Z" fill="#F4FCFC" stroke="#BDC5C6" stroke-miterlimit="10"/>
<path d="M208.868 278.501H195.945C195.059 278.501 194.341 279.223 194.341 280.114V291.779C194.341 292.67 195.059 293.392 195.945 293.392H208.868C209.754 293.392 210.472 292.67 210.472 291.779V280.114C210.472 279.223 209.754 278.501 208.868 278.501Z" fill="#F4FCFC" stroke="#BDC5C6" stroke-miterlimit="10"/>
<path d="M221.132 278.501H213.632C212.746 278.501 212.028 279.223 212.028 280.114V291.779C212.028 292.67 212.746 293.392 213.632 293.392H221.132C222.018 293.392 222.736 292.67 222.736 291.779V280.114C222.736 279.223 222.018 278.501 221.132 278.501Z" fill="#F4FCFC" stroke="#BDC5C6" stroke-miterlimit="10"/>
<path d="M164.459 261.513H229.793L222.451 275.038H157.116L164.459 261.513Z" fill="#F4FCFC" stroke="#BDC5C6" stroke-miterlimit="10"/>
<path d="M342.648 215.446H336.23C335.187 215.446 334.341 216.296 334.341 217.345V223.796C334.341 224.846 335.187 225.696 336.23 225.696H342.648C343.691 225.696 344.537 224.846 344.537 223.796V217.345C344.537 216.296 343.691 215.446 342.648 215.446Z" fill="#F4FCFC" stroke="#BDC5C6" stroke-miterlimit="10"/>
<path d="M358.386 215.446H351.968C350.925 215.446 350.079 216.296 350.079 217.345V223.796C350.079 224.846 350.925 225.696 351.968 225.696H358.386C359.429 225.696 360.275 224.846 360.275 223.796V217.345C360.275 216.296 359.429 215.446 358.386 215.446Z" fill="#F4FCFC" stroke="#BDC5C6" stroke-miterlimit="10"/>
<path d="M374.094 215.446H367.677C366.633 215.446 365.787 216.296 365.787 217.345V223.796C365.787 224.846 366.633 225.696 367.677 225.696H374.094C375.138 225.696 375.984 224.846 375.984 223.796V217.345C375.984 216.296 375.138 215.446 374.094 215.446Z" fill="#F4FCFC" stroke="#BDC5C6" stroke-miterlimit="10"/>
<path d="M342.648 263.7H336.23C335.187 263.7 334.341 264.55 334.341 265.599V272.05C334.341 273.099 335.187 273.95 336.23 273.95H342.648C343.691 273.95 344.537 273.099 344.537 272.05V265.599C344.537 264.55 343.691 263.7 342.648 263.7Z" fill="#F4FCFC" stroke="#BDC5C6" stroke-miterlimit="10"/>
<path d="M358.386 263.7H351.968C350.925 263.7 350.079 264.55 350.079 265.599V272.05C350.079 273.099 350.925 273.95 351.968 273.95H358.386C359.429 273.95 360.275 273.099 360.275 272.05V265.599C360.275 264.55 359.429 263.7 358.386 263.7Z" fill="#F4FCFC" stroke="#BDC5C6" stroke-miterlimit="10"/>
<path d="M374.094 263.7H367.677C366.633 263.7 365.787 264.55 365.787 265.599V272.05C365.787 273.099 366.633 273.95 367.677 273.95H374.094C375.138 273.95 375.984 273.099 375.984 272.05V265.599C375.984 264.55 375.138 263.7 374.094 263.7Z" fill="#F4FCFC" stroke="#BDC5C6" stroke-miterlimit="10"/>
<path d="M378.75 232.117H363.031V255.863H378.75V232.117Z" fill="#F4FCFC" stroke="#BDC5C6" stroke-miterlimit="10"/>
<path d="M363.041 232.147H347.323V255.893H363.041V232.147Z" fill="#F4FCFC" stroke="#BDC5C6" stroke-miterlimit="10"/>
<path d="M347.303 232.127H331.585V255.873H347.303V232.127Z" fill="#F4FCFC" stroke="#BDC5C6" stroke-miterlimit="10"/>
<path d="M378.74 232.869H331.585V236.501H378.74V232.869Z" fill="#F4FCFC" stroke="#BDC5C6" stroke-miterlimit="10"/>
<path d="M378.74 232.127H331.585V235.758H378.74V232.127Z" fill="#F4FCFC" stroke="#BDC5C6" stroke-miterlimit="10"/>
<path d="M275.905 151.618V146.157H223.1V151.618H212.047V307.61H286.959V151.618H275.905Z" fill="#F4FCFC" stroke="#BDC5C6" stroke-miterlimit="10"/>
<path d="M272.461 170.853H263.563C262.443 170.853 261.535 171.765 261.535 172.891V181.835C261.535 182.961 262.443 183.873 263.563 183.873H272.461C273.58 183.873 274.488 182.961 274.488 181.835V172.891C274.488 171.765 273.58 170.853 272.461 170.853Z" fill="#F4FCFC" stroke="#BDC5C6" stroke-miterlimit="10"/>
<path d="M233.868 170.853H224.97C223.851 170.853 222.943 171.765 222.943 172.891V181.835C222.943 182.961 223.851 183.873 224.97 183.873H233.868C234.988 183.873 235.896 182.961 235.896 181.835V172.891C235.896 171.765 234.988 170.853 233.868 170.853Z" fill="#F4FCFC" stroke="#BDC5C6" stroke-miterlimit="10"/>
<path d="M253.159 170.853H244.262C243.142 170.853 242.234 171.765 242.234 172.891V181.835C242.234 182.961 243.142 183.873 244.262 183.873H253.159C254.279 183.873 255.187 182.961 255.187 181.835V172.891C255.187 171.765 254.279 170.853 253.159 170.853Z" fill="#F4FCFC" stroke="#BDC5C6" stroke-miterlimit="10"/>
<path d="M272.461 197.844H263.563C262.443 197.844 261.535 198.757 261.535 199.882V208.827C261.535 209.952 262.443 210.865 263.563 210.865H272.461C273.58 210.865 274.488 209.952 274.488 208.827V199.882C274.488 198.757 273.58 197.844 272.461 197.844Z" fill="#F4FCFC" stroke="#BDC5C6" stroke-miterlimit="10"/>
<path d="M233.868 197.844H224.97C223.851 197.844 222.943 198.757 222.943 199.882V208.827C222.943 209.952 223.851 210.865 224.97 210.865H233.868C234.988 210.865 235.896 209.952 235.896 208.827V199.882C235.896 198.757 234.988 197.844 233.868 197.844Z" fill="#F4FCFC" stroke="#BDC5C6" stroke-miterlimit="10"/>
<path d="M272.461 224.835H263.563C262.443 224.835 261.535 225.748 261.535 226.874V235.818C261.535 236.944 262.443 237.856 263.563 237.856H272.461C273.58 237.856 274.488 236.944 274.488 235.818V226.874C274.488 225.748 273.58 224.835 272.461 224.835Z" fill="#F4FCFC" stroke="#BDC5C6" stroke-miterlimit="10"/>
<path d="M233.868 224.835H224.97C223.851 224.835 222.943 225.748 222.943 226.874V235.818C222.943 236.944 223.851 237.856 224.97 237.856H233.868C234.988 237.856 235.896 236.944 235.896 235.818V226.874C235.896 225.748 234.988 224.835 233.868 224.835Z" fill="#F4FCFC" stroke="#BDC5C6" stroke-miterlimit="10"/>
<path d="M315.02 191.581V187.623H291.929V191.581H242.008V307.61H316.919V191.581H315.02Z" fill="#F4FCFC" stroke="#BDC5C6" stroke-miterlimit="10"/>
<path d="M307.579 247.167V253.044L297.687 262.987V257.12L307.579 247.167Z" fill="#F4FCFC" stroke="#BDC5C6" stroke-miterlimit="10"/>
<path d="M307.579 257.921V263.799L302.352 269.052H297.687V267.865L307.579 257.921Z" fill="#F4FCFC" stroke="#BDC5C6" stroke-miterlimit="10"/>
<path d="M307.589 246.998H297.687V269.052H307.589V246.998Z" fill="#F4FCFC" stroke="#BDC5C6" stroke-miterlimit="10"/>
<path d="M307.579 254.765H297.687" stroke="#BDC5C6" stroke-miterlimit="10"/>
<path d="M298.287 244.277H306.978C307.138 244.277 307.29 244.341 307.403 244.454C307.515 244.567 307.579 244.721 307.579 244.881V246.998H297.687V244.881C297.687 244.721 297.75 244.567 297.863 244.454C297.975 244.341 298.128 244.277 298.287 244.277Z" fill="#F4FCFC" stroke="#BDC5C6" stroke-miterlimit="10"/>
<path d="M284.419 247.167V253.044L274.518 262.987V257.12L284.419 247.167Z" fill="#F4FCFC" stroke="#BDC5C6" stroke-miterlimit="10"/>
<path d="M284.419 257.921V263.799L279.193 269.052H274.518V267.865L284.419 257.921Z" fill="#F4FCFC" stroke="#BDC5C6" stroke-miterlimit="10"/>
<path d="M284.419 246.998H274.518V269.052H284.419V246.998Z" fill="#F4FCFC" stroke="#BDC5C6" stroke-miterlimit="10"/>
<path d="M284.419 254.765H274.518" stroke="#BDC5C6" stroke-miterlimit="10"/>
<path d="M275.118 244.277H283.809C283.968 244.277 284.121 244.341 284.233 244.454C284.346 244.567 284.409 244.721 284.409 244.881V246.998H274.518V244.881C274.518 244.721 274.581 244.567 274.693 244.454C274.806 244.341 274.959 244.277 275.118 244.277Z" fill="#F4FCFC" stroke="#BDC5C6" stroke-miterlimit="10"/>
<path d="M261.25 247.167V253.044L251.358 262.987V257.12L261.25 247.167Z" fill="#F4FCFC" stroke="#BDC5C6" stroke-miterlimit="10"/>
<path d="M261.25 257.921V263.799L256.024 269.052H251.358V267.865L261.25 257.921Z" fill="#F4FCFC" stroke="#BDC5C6" stroke-miterlimit="10"/>
<path d="M261.25 246.998H251.348V269.052H261.25V246.998Z" fill="#F4FCFC" stroke="#BDC5C6" stroke-miterlimit="10"/>
<path d="M261.25 254.765H251.348" stroke="#BDC5C6" stroke-miterlimit="10"/>
<path d="M251.968 244.277H260.659C260.819 244.277 260.971 244.341 261.084 244.454C261.197 244.567 261.26 244.721 261.26 244.881V246.998H251.348V244.881C251.348 244.8 251.365 244.72 251.396 244.645C251.427 244.571 251.473 244.503 251.531 244.447C251.589 244.391 251.658 244.347 251.733 244.317C251.808 244.288 251.888 244.275 251.968 244.277Z" fill="#F4FCFC" stroke="#BDC5C6" stroke-miterlimit="10"/>
<path d="M362.776 262.502H279.469V307.61H362.776V262.502Z" fill="#F4FCFC" stroke="#BDC5C6" stroke-miterlimit="10"/>
<path d="M289.99 154.082H209.006V160.117H289.99V154.082Z" fill="#F4FCFC" stroke="#BDC5C6" stroke-miterlimit="10"/>
<path d="M307.579 209.104V214.971L297.687 224.924V219.047L307.579 209.104Z" fill="#F4FCFC" stroke="#BDC5C6" stroke-miterlimit="10"/>
<path d="M307.579 219.849V225.726L302.352 230.98H297.687V229.792L307.579 219.849Z" fill="#F4FCFC" stroke="#BDC5C6" stroke-miterlimit="10"/>
<path d="M307.589 208.925H297.687V230.98H307.589V208.925Z" fill="#F4FCFC" stroke="#BDC5C6" stroke-miterlimit="10"/>
<path d="M307.579 216.692H297.687" stroke="#BDC5C6" stroke-miterlimit="10"/>
<path d="M298.287 206.205H306.978C307.057 206.205 307.135 206.22 307.208 206.251C307.281 206.281 307.347 206.325 307.403 206.381C307.459 206.437 307.503 206.504 307.533 206.577C307.563 206.65 307.579 206.729 307.579 206.808V208.925H297.687V206.788C297.692 206.632 297.758 206.483 297.87 206.374C297.982 206.265 298.132 206.205 298.287 206.205Z" fill="#F4FCFC" stroke="#BDC5C6" stroke-miterlimit="10"/>
<path d="M284.419 208.925H274.518V230.98H284.419V208.925Z" fill="#F4FCFC" stroke="#BDC5C6" stroke-miterlimit="10"/>
<path d="M284.419 216.692H274.518" stroke="#BDC5C6" stroke-miterlimit="10"/>
<path d="M275.118 206.205H283.809C283.888 206.205 283.966 206.22 284.039 206.251C284.112 206.281 284.178 206.325 284.233 206.381C284.289 206.437 284.333 206.504 284.364 206.577C284.394 206.65 284.409 206.729 284.409 206.808V208.925H274.518V206.788C274.523 206.632 274.588 206.483 274.7 206.374C274.812 206.265 274.962 206.205 275.118 206.205Z" fill="#F4FCFC" stroke="#BDC5C6" stroke-miterlimit="10"/>
<path d="M261.25 209.104V214.971L251.358 224.924V219.047L261.25 209.104Z" fill="#F4FCFC" stroke="#BDC5C6" stroke-miterlimit="10"/>
<path d="M261.25 219.849V225.726L256.024 230.98H251.358V229.792L261.25 219.849Z" fill="#F4FCFC" stroke="#BDC5C6" stroke-miterlimit="10"/>
<path d="M261.25 208.925H251.348V230.98H261.25V208.925Z" fill="#F4FCFC" stroke="#BDC5C6" stroke-miterlimit="10"/>
<path d="M261.25 216.692H251.348" stroke="#BDC5C6" stroke-miterlimit="10"/>
<path d="M251.968 206.205H260.659C260.738 206.205 260.816 206.22 260.889 206.25C260.962 206.281 261.028 206.325 261.084 206.381C261.14 206.437 261.184 206.504 261.214 206.577C261.244 206.65 261.26 206.729 261.26 206.808V208.925H251.348V206.788C251.351 206.709 251.369 206.631 251.402 206.559C251.434 206.487 251.48 206.421 251.538 206.367C251.596 206.313 251.663 206.271 251.737 206.243C251.811 206.215 251.89 206.202 251.968 206.205Z" fill="#F4FCFC" stroke="#BDC5C6" stroke-miterlimit="10"/>
<path d="M303.051 285.556H289.36V307.61H303.051V285.556Z" fill="#F4FCFC" stroke="#BDC5C6" stroke-miterlimit="10"/>
<path d="M300.965 287.644H291.437V293.59H300.965V287.644Z" fill="#F4FCFC" stroke="#BDC5C6" stroke-miterlimit="10"/>
<path d="M323.868 279.491H310.945C310.059 279.491 309.341 280.213 309.341 281.103V292.769C309.341 293.659 310.059 294.381 310.945 294.381H323.868C324.754 294.381 325.472 293.659 325.472 292.769V281.103C325.472 280.213 324.754 279.491 323.868 279.491Z" fill="#F4FCFC" stroke="#BDC5C6" stroke-miterlimit="10"/>
<path d="M336.132 279.491H328.632C327.746 279.491 327.028 280.213 327.028 281.103V292.769C327.028 293.659 327.746 294.381 328.632 294.381H336.132C337.018 294.381 337.736 293.659 337.736 292.769V281.103C337.736 280.213 337.018 279.491 336.132 279.491Z" fill="#F4FCFC" stroke="#BDC5C6" stroke-miterlimit="10"/>
<path d="M279.468 262.502H344.803L337.461 276.028H272.126L279.468 262.502Z" fill="#F4FCFC" stroke="#BDC5C6" stroke-miterlimit="10"/>
<path d="M21.8602 190.592V186.634H-1.24019V190.592H-51.1516V307.6H23.7598V190.592H21.8602Z" fill="#F4FCFC" stroke="#BDC5C6" stroke-miterlimit="10"/>
<path d="M14.4192 246.177V252.054L4.51758 261.998V256.131L14.4192 246.177Z" fill="#F4FCFC" stroke="#BDC5C6" stroke-miterlimit="10"/>
<path d="M14.4192 256.932V262.809L9.19277 268.063H4.51758V266.876L14.4192 256.932Z" fill="#F4FCFC" stroke="#BDC5C6" stroke-miterlimit="10"/>
<path d="M14.4292 246.009H4.52759V268.063H14.4292V246.009Z" fill="#F4FCFC" stroke="#BDC5C6" stroke-miterlimit="10"/>
<path d="M14.4193 253.776H4.52759" stroke="#BDC5C6" stroke-miterlimit="10"/>
<path d="M5.12798 243.288H13.7796C13.8584 243.288 13.9365 243.304 14.0093 243.334C14.0822 243.364 14.1483 243.409 14.2041 243.465C14.2599 243.521 14.3041 243.587 14.3343 243.661C14.3644 243.734 14.38 243.812 14.38 243.892V246.009H4.52759V243.892C4.52759 243.812 4.54312 243.734 4.57329 243.661C4.60346 243.587 4.64769 243.521 4.70344 243.465C4.75919 243.409 4.82538 243.364 4.89822 243.334C4.97106 243.304 5.04914 243.288 5.12798 243.288Z" fill="#F4FCFC" stroke="#BDC5C6" stroke-miterlimit="10"/>
<path d="M69.6064 261.513H-13.7007V307.61H69.6064V261.513Z" fill="#F4FCFC" stroke="#BDC5C6" stroke-miterlimit="10"/>
<path d="M99.7146 281.766H81.8406V307.6H99.7146V281.766Z" fill="#F4FCFC" stroke="#BDC5C6" stroke-miterlimit="10"/>
<path d="M86.3189 187.356V186.129H76.4173V187.356H40.689V307.6H94.9213V187.356H86.3189Z" fill="#F4FCFC" stroke="#BDC5C6" stroke-miterlimit="10"/>
<path d="M96.0925 191.64H39.498V196.597H96.0925V191.64Z" fill="#F4FCFC" stroke="#BDC5C6" stroke-miterlimit="10"/>
<path d="M94.6554 193.293H40.9546V194.935H94.6554V193.293Z" fill="#BDC5C6"/>
<path d="M14.4192 208.114V213.981L4.51758 223.935V218.058L14.4192 208.114Z" fill="#F4FCFC" stroke="#BDC5C6" stroke-miterlimit="10"/>
<path d="M14.4192 218.859V224.736L9.19277 229.99H4.51758V228.803L14.4192 218.859Z" fill="#F4FCFC" stroke="#BDC5C6" stroke-miterlimit="10"/>
<path d="M14.4292 207.936H4.52759V229.99H14.4292V207.936Z" fill="#F4FCFC" stroke="#BDC5C6" stroke-miterlimit="10"/>
<path d="M14.4193 215.703H4.52759" stroke="#BDC5C6" stroke-miterlimit="10"/>
<path d="M5.12798 205.215H13.7796C13.9388 205.215 14.0915 205.279 14.2041 205.392C14.3167 205.505 14.38 205.659 14.38 205.819V207.936H4.52759V205.799C4.5327 205.642 4.5982 205.494 4.71025 205.385C4.8223 205.276 4.9721 205.215 5.12798 205.215Z" fill="#F4FCFC" stroke="#BDC5C6" stroke-miterlimit="10"/>
<path d="M9.88187 284.566H-3.80908V307.61H9.88187V284.566Z" fill="#F4FCFC" stroke="#BDC5C6" stroke-miterlimit="10"/>
<path d="M7.80515 286.654H-1.72241V292.601H7.80515V286.654Z" fill="#F4FCFC" stroke="#BDC5C6" stroke-miterlimit="10"/>
<path d="M30.7087 278.501H17.7855C16.8994 278.501 16.1812 279.223 16.1812 280.114V291.779C16.1812 292.67 16.8994 293.392 17.7855 293.392H30.7087C31.5948 293.392 32.313 292.67 32.313 291.779V280.114C32.313 279.223 31.5948 278.501 30.7087 278.501Z" fill="#F4FCFC" stroke="#BDC5C6" stroke-miterlimit="10"/>
<path d="M42.9725 278.501H35.4725C34.5864 278.501 33.8682 279.223 33.8682 280.114V291.779C33.8682 292.67 34.5864 293.392 35.4725 293.392H42.9725C43.8585 293.392 44.5768 292.67 44.5768 291.779V280.114C44.5768 279.223 43.8585 278.501 42.9725 278.501Z" fill="#F4FCFC" stroke="#BDC5C6" stroke-miterlimit="10"/>
<path d="M-13.7007 261.513H51.634L44.2914 275.038H-21.0432L-13.7007 261.513Z" fill="#F4FCFC" stroke="#BDC5C6" stroke-miterlimit="10"/>
<path d="M55.2854 215.446H48.868C47.8243 215.446 46.9783 216.296 46.9783 217.345V223.796C46.9783 224.846 47.8243 225.696 48.868 225.696H55.2854C56.329 225.696 57.1751 224.846 57.1751 223.796V217.345C57.1751 216.296 56.329 215.446 55.2854 215.446Z" fill="#F4FCFC" stroke="#BDC5C6" stroke-miterlimit="10"/>
<path d="M71.0139 215.446H64.5965C63.5529 215.446 62.7068 216.296 62.7068 217.345V223.796C62.7068 224.846 63.5529 225.696 64.5965 225.696H71.0139C72.0575 225.696 72.9036 224.846 72.9036 223.796V217.345C72.9036 216.296 72.0575 215.446 71.0139 215.446Z" fill="#F4FCFC" stroke="#BDC5C6" stroke-miterlimit="10"/>
<path d="M86.7324 215.446H80.3151C79.2714 215.446 78.4253 216.296 78.4253 217.345V223.796C78.4253 224.846 79.2714 225.696 80.3151 225.696H86.7324C87.7761 225.696 88.6221 224.846 88.6221 223.796V217.345C88.6221 216.296 87.7761 215.446 86.7324 215.446Z" fill="#F4FCFC" stroke="#BDC5C6" stroke-miterlimit="10"/>
<path d="M55.2854 263.7H48.868C47.8243 263.7 46.9783 264.55 46.9783 265.599V272.05C46.9783 273.099 47.8243 273.95 48.868 273.95H55.2854C56.329 273.95 57.1751 273.099 57.1751 272.05V265.599C57.1751 264.55 56.329 263.7 55.2854 263.7Z" fill="#F4FCFC" stroke="#BDC5C6" stroke-miterlimit="10"/>
<path d="M71.0139 263.7H64.5965C63.5529 263.7 62.7068 264.55 62.7068 265.599V272.05C62.7068 273.099 63.5529 273.95 64.5965 273.95H71.0139C72.0575 273.95 72.9036 273.099 72.9036 272.05V265.599C72.9036 264.55 72.0575 263.7 71.0139 263.7Z" fill="#F4FCFC" stroke="#BDC5C6" stroke-miterlimit="10"/>
<path d="M86.7324 263.7H80.3151C79.2714 263.7 78.4253 264.55 78.4253 265.599V272.05C78.4253 273.099 79.2714 273.95 80.3151 273.95H86.7324C87.7761 273.95 88.6221 273.099 88.6221 272.05V265.599C88.6221 264.55 87.7761 263.7 86.7324 263.7Z" fill="#F4FCFC" stroke="#BDC5C6" stroke-miterlimit="10"/>
<path d="M91.3877 232.117H75.6692V255.863H91.3877V232.117Z" fill="#F4FCFC" stroke="#BDC5C6" stroke-miterlimit="10"/>
<path d="M75.6692 232.147H59.9507V255.893H75.6692V232.147Z" fill="#F4FCFC" stroke="#BDC5C6" stroke-miterlimit="10"/>
<path d="M59.9409 232.127H44.2224V255.873H59.9409V232.127Z" fill="#F4FCFC" stroke="#BDC5C6" stroke-miterlimit="10"/>
<path d="M91.3779 232.869H44.2224V236.501H91.3779V232.869Z" fill="#F4FCFC" stroke="#BDC5C6" stroke-miterlimit="10"/>
<path d="M91.3779 232.127H44.2224V235.758H91.3779V232.127Z" fill="#F4FCFC" stroke="#BDC5C6" stroke-miterlimit="10"/>
<path d="M0.157471 307.61H377.047" stroke="#1D2126" stroke-miterlimit="10"/>
<path d="M169.616 94.3905C169.114 94.5983 164.065 96.8047 163.898 100.495C163.898 101.356 164.055 102.801 167.293 106.194C170.088 109.113 173.307 111.589 176.841 113.536C176.69 107.263 176.539 100.997 176.388 94.7368L169.616 94.3905Z" fill="#20252D"/>
<path d="M207.185 207.847L187.608 275.385L156.998 318.998L154.833 318.721C154.355 318.657 153.896 318.494 153.485 318.243C153.073 317.992 152.717 317.658 152.44 317.262C152.163 316.867 151.97 316.417 151.873 315.943C151.777 315.469 151.779 314.98 151.88 314.506L175.699 270.052L186.624 201.554L207.185 207.847Z" fill="white" stroke="#1D2126" stroke-miterlimit="10"/>
<path d="M184.478 214.763L184.655 209.786L190.787 208.708L192.254 257.071" fill="#20252D"/>
<path d="M209.232 206.294L204.99 321.62H198.937L188.504 211.646L209.232 206.294Z" fill="white" stroke="#1D2126" stroke-miterlimit="10"/>
<path d="M205.778 206.294L201.526 321.62H199.419L188.986 211.646L205.778 206.294Z" fill="white"/>
<path d="M151.959 323.075H174.793C174.793 323.075 179.606 320.423 157.362 315.713H151.821L151.959 323.075Z" fill="#20252D"/>
<path d="M189.488 128.931L191.457 140.201C191.656 141.351 191.54 142.534 191.123 143.623C190.705 144.712 190 145.667 189.085 146.384L181.024 137.984L178.455 123.064L189.488 128.931Z" fill="white"/>
<path d="M178.415 125.053C178.415 125.053 182.805 136.233 193.819 134.828C204.833 133.423 193.396 124.182 193.396 124.182L187.992 120.096L183.287 121.975L178.415 125.053Z" fill="#20252D"/>
<path d="M189.488 128.931L191.457 140.201C191.656 141.351 191.54 142.534 191.123 143.623C190.705 144.712 190 145.667 189.085 146.384L181.024 137.984L178.455 123.064L189.488 128.931Z" stroke="#1D2126" stroke-miterlimit="10"/>
<path d="M175.098 95.4195L177.313 120.966C177.746 125.992 180.61 128.367 185.059 130.702C187.36 131.916 189.903 132.592 192.5 132.681C202.264 133.037 204.567 132.681 204.567 132.681V116.118L212.195 108.094C212.195 108.094 213.799 106.481 212.195 105.413C210.591 104.344 199.016 94.9841 199.016 94.9841" fill="white"/>
<path d="M175.098 95.4195L177.313 120.966C177.746 125.992 180.61 128.367 185.059 130.702C187.36 131.916 189.903 132.592 192.5 132.681C202.264 133.037 204.567 132.681 204.567 132.681V116.118L212.195 108.094C212.195 108.094 213.799 106.481 212.195 105.413C210.591 104.344 199.016 94.9841 199.016 94.9841" stroke="#1D2126" stroke-miterlimit="10"/>
<path d="M176.693 115.218C176.693 115.218 174.587 110.518 171.634 110.696C168.681 110.874 162.539 116.949 172.451 121.491L177.579 124.093L176.693 115.218Z" fill="white" stroke="#1D2126" stroke-miterlimit="10"/>
<path d="M170.413 114.495C170.413 114.495 175.472 113.209 175.797 118.938L170.413 114.495Z" fill="white"/>
<path d="M170.413 114.495C170.413 114.495 175.472 113.209 175.797 118.938" stroke="#1D2126" stroke-miterlimit="10"/>
<path d="M172.667 118.127C172.667 118.127 173.14 115.633 174.429 115.386L172.667 118.127Z" fill="white"/>
<path d="M172.667 118.127C172.667 118.127 173.14 115.633 174.429 115.386" stroke="#1D2126" stroke-miterlimit="10"/>
<path d="M199.469 120.937C199.377 121.348 199.202 121.735 198.954 122.075C198.707 122.415 198.392 122.7 198.03 122.912C197.667 123.124 197.265 123.258 196.849 123.306C196.433 123.354 196.011 123.316 195.61 123.192C195.04 123.005 194.536 122.657 194.156 122.191C193.776 121.725 193.536 121.159 193.465 120.561L199.469 120.937Z" fill="white"/>
<path d="M199.469 120.937C199.377 121.348 199.202 121.735 198.954 122.075C198.707 122.415 198.392 122.7 198.03 122.912C197.667 123.124 197.265 123.258 196.849 123.306C196.433 123.354 196.011 123.316 195.61 123.192C195.04 123.005 194.536 122.657 194.156 122.191C193.776 121.725 193.536 121.159 193.465 120.561L199.469 120.937Z" stroke="#1D2126" stroke-miterlimit="10"/>
<path d="M195.463 90.6604V94.8456H164.656V90.6604C164.652 86.8815 166.119 83.2512 168.744 80.546C171.369 77.8409 174.943 76.2756 178.701 76.1852H181.102C184.915 76.193 188.569 77.7219 191.262 80.4359C193.954 83.15 195.465 86.8274 195.463 90.6604Z" fill="#E30613"/>
<path d="M199.459 90.6604V94.8456H168.652V90.6604C168.648 86.8815 170.115 83.2512 172.74 80.546C175.365 77.8409 178.939 76.2757 182.697 76.1852H185.039C186.932 76.1813 188.808 76.5529 190.557 77.2787C192.307 78.0045 193.898 79.0703 195.237 80.415C196.577 81.7596 197.639 83.3568 198.363 85.1149C199.088 86.873 199.46 88.7575 199.459 90.6604V90.6604Z" stroke="#1D2126" stroke-width="1.05" stroke-miterlimit="10"/>
<path d="M194.006 94.8456H224.744" stroke="#1D2126" stroke-width="1.05" stroke-miterlimit="10"/>
<path d="M194.075 107.757H193.898C193.677 107.757 193.459 107.714 193.255 107.628C193.051 107.543 192.866 107.419 192.711 107.261C192.555 107.104 192.432 106.917 192.349 106.712C192.265 106.507 192.223 106.287 192.224 106.066V104.384C192.224 103.937 192.4 103.508 192.714 103.191C193.027 102.874 193.453 102.694 193.898 102.692H194.035C194.48 102.694 194.906 102.874 195.219 103.191C195.533 103.508 195.709 103.937 195.709 104.384V106.066C195.71 106.287 195.668 106.507 195.584 106.712C195.501 106.917 195.378 107.104 195.222 107.261C195.067 107.419 194.882 107.543 194.678 107.628C194.474 107.714 194.256 107.757 194.035 107.757" fill="#20252D"/>
<path d="M187.244 101.821C188.068 100.408 189.306 99.2856 190.787 98.6054C192.368 97.8926 194.136 97.7122 195.827 98.0909" fill="white"/>
<path d="M187.244 101.821C188.068 100.408 189.306 99.2856 190.787 98.6054C192.368 97.8926 194.136 97.7122 195.827 98.0909" stroke="#1D2126" stroke-miterlimit="10"/>
<path d="M216.585 210.212L213.799 210.331L181.998 211.646L178.986 144.455L178.888 142.199L187.096 144.059L198.218 150.51C200.021 152.221 201.324 154.393 201.988 156.793L216.585 210.212Z" fill="white" stroke="#1D2126" stroke-width="1.05" stroke-miterlimit="10"/>
<path d="M213.799 210.331L181.998 211.646L178.986 144.455L184.754 145.771L195.866 152.262C197.664 153.972 198.961 156.145 199.616 158.544L213.799 210.331Z" fill="white"/>
<path d="M216.585 210.212L213.799 210.331L181.998 211.646L178.986 144.455L178.888 142.199L187.096 144.059L198.218 150.51C200.021 152.221 201.324 154.393 201.988 156.793L216.585 210.212Z" stroke="#1D2126" stroke-width="1.05" stroke-miterlimit="10"/>
<path d="M178.012 136.688L196.014 140.062L199.35 150.392L177.657 143.743L178.012 136.688Z" fill="white" stroke="#1D2126" stroke-width="1.05" stroke-miterlimit="10"/>
<path d="M209.518 210.499L188.504 211.646L189.321 215.644L209.518 210.499Z" fill="#20252D"/>
<path d="M184.97 145.979L179.459 146.384L178.976 144.148L184.97 145.979Z" fill="#20252D"/>
<path d="M243.573 168.844H183.878C181.328 168.844 179.262 170.922 179.262 173.485V210.548C179.262 213.111 181.328 215.189 183.878 215.189H243.573C246.122 215.189 248.189 213.111 248.189 210.548V173.485C248.189 170.922 246.122 168.844 243.573 168.844Z" fill="#E30613" stroke="#1D2126" stroke-miterlimit="10"/>
<path d="M250.738 168.844H191.043C188.494 168.844 186.427 170.922 186.427 173.485V210.548C186.427 213.111 188.494 215.189 191.043 215.189H250.738C253.288 215.189 255.354 213.111 255.354 210.548V173.485C255.354 170.922 253.288 168.844 250.738 168.844Z" fill="#E30613" stroke="#1D2126" stroke-miterlimit="10"/>
<path d="M230.866 168.844H210.925V173.989C210.925 174.42 211.095 174.832 211.398 175.137C211.701 175.441 212.111 175.612 212.539 175.612H229.272C229.7 175.612 230.11 175.441 230.413 175.137C230.716 174.832 230.886 174.42 230.886 173.989L230.866 168.844Z" fill="white" stroke="#1D2126" stroke-miterlimit="10"/>
<path d="M210.915 215.04H230.866V209.895C230.868 209.682 230.827 209.47 230.746 209.273C230.665 209.075 230.547 208.896 230.396 208.745C230.246 208.594 230.068 208.474 229.871 208.393C229.675 208.312 229.464 208.271 229.252 208.272H212.52C212.307 208.271 212.096 208.312 211.899 208.393C211.702 208.474 211.523 208.593 211.372 208.744C211.221 208.895 211.101 209.074 211.02 209.272C210.938 209.469 210.896 209.681 210.896 209.895L210.915 215.04Z" fill="white" stroke="#1D2126" stroke-miterlimit="10"/>
<path d="M215.492 189.553C214.832 189.56 214.189 189.764 213.644 190.139C213.099 190.513 212.676 191.041 212.429 191.657C212.181 192.272 212.121 192.947 212.254 193.597C212.388 194.247 212.71 194.843 213.179 195.309C213.649 195.776 214.245 196.092 214.893 196.219C215.541 196.345 216.212 196.276 216.821 196.021C217.43 195.765 217.951 195.334 218.317 194.781C218.683 194.229 218.878 193.58 218.878 192.917C218.895 192.467 218.819 192.019 218.654 191.6C218.489 191.182 218.24 190.802 217.921 190.486C217.603 190.169 217.223 189.923 216.804 189.763C216.386 189.602 215.939 189.53 215.492 189.553ZM215.492 194.747C215.128 194.773 214.764 194.688 214.448 194.503C214.132 194.318 213.879 194.042 213.722 193.711C213.564 193.38 213.509 193.008 213.564 192.645C213.619 192.282 213.782 191.944 214.031 191.675C214.279 191.406 214.603 191.218 214.959 191.137C215.316 191.055 215.688 191.083 216.028 191.217C216.368 191.351 216.661 191.585 216.867 191.888C217.073 192.191 217.184 192.549 217.185 192.917C217.209 193.152 217.183 193.39 217.108 193.614C217.033 193.838 216.911 194.044 216.751 194.217C216.591 194.391 216.396 194.528 216.179 194.619C215.961 194.71 215.727 194.754 215.492 194.747Z" fill="white"/>
<path d="M222.638 192.214C221.84 192.096 221.151 191.997 221.151 191.462C221.151 191.185 221.338 190.849 222.244 190.849C222.538 190.812 222.836 190.876 223.09 191.031C223.343 191.185 223.538 191.421 223.642 191.7L225.177 191.353C224.986 190.769 224.598 190.271 224.081 189.942C223.564 189.614 222.949 189.476 222.342 189.553C220.679 189.553 219.567 190.344 219.567 191.532C219.567 193.154 221.004 193.362 222.155 193.51C222.972 193.629 223.681 193.728 223.681 194.312C223.681 194.619 223.455 194.995 222.352 194.995C221.516 194.995 220.964 194.688 220.787 194.124L219.262 194.44C219.596 195.648 220.65 196.281 222.313 196.281C224.153 196.281 225.266 195.509 225.266 194.302C225.266 192.64 223.789 192.432 222.608 192.254" fill="white"/>
<path d="M228.484 194.826C227.982 194.826 227.677 194.47 227.677 193.837V191.126H230.315V189.691H227.726V187.712H226.053V193.926C226.017 194.244 226.051 194.566 226.154 194.869C226.257 195.172 226.426 195.449 226.649 195.678C226.871 195.907 227.141 196.084 227.44 196.195C227.739 196.306 228.059 196.349 228.376 196.32C228.91 196.379 229.446 196.241 229.886 195.931C230.326 195.622 230.64 195.163 230.768 194.638L229.419 194.213C229.365 194.405 229.248 194.574 229.088 194.692C228.927 194.81 228.732 194.871 228.533 194.866" fill="white"/>
<path d="M235.994 190.542L235.935 190.463C235.695 190.153 235.383 189.907 235.026 189.749C234.668 189.59 234.277 189.522 233.888 189.553C233.47 189.564 233.06 189.662 232.681 189.84C232.303 190.018 231.965 190.272 231.688 190.586C231.411 190.9 231.201 191.269 231.072 191.668C230.942 192.067 230.896 192.489 230.935 192.907C230.935 194.886 232.146 196.281 233.809 196.281C234.21 196.303 234.61 196.225 234.973 196.052C235.336 195.879 235.65 195.618 235.886 195.291L235.945 195.212L236.27 196.063H237.589V189.691H236.27L235.994 190.542ZM234.301 194.757C233.934 194.793 233.565 194.716 233.242 194.538C232.918 194.359 232.657 194.086 232.49 193.755C232.324 193.424 232.261 193.051 232.309 192.683C232.358 192.316 232.516 191.971 232.762 191.695C233.009 191.42 233.332 191.225 233.691 191.137C234.049 191.05 234.426 191.073 234.771 191.204C235.116 191.335 235.413 191.567 235.625 191.871C235.836 192.175 235.951 192.536 235.955 192.907C235.98 193.14 235.955 193.376 235.884 193.599C235.812 193.822 235.694 194.028 235.538 194.202C235.382 194.377 235.192 194.516 234.978 194.612C234.765 194.708 234.535 194.757 234.301 194.757Z" fill="white"/>
<path d="M208.563 189.553C208.177 189.53 207.792 189.601 207.439 189.759C207.086 189.918 206.776 190.159 206.535 190.463L206.447 190.592V187.752H204.724V196.103H206.053L206.398 195.212L206.457 195.301C206.69 195.628 207.002 195.89 207.364 196.063C207.725 196.236 208.124 196.314 208.524 196.291C210.216 196.291 211.398 194.905 211.398 192.927C211.398 190.948 210.216 189.563 208.524 189.563L208.563 189.553ZM208.081 194.767C207.323 194.767 206.407 194.45 206.407 192.927C206.442 192.609 206.566 192.307 206.767 192.059C206.967 191.81 207.234 191.625 207.537 191.525C207.839 191.426 208.164 191.416 208.472 191.497C208.779 191.579 209.057 191.747 209.272 191.984C209.487 192.22 209.629 192.513 209.682 192.829C209.735 193.144 209.696 193.468 209.57 193.762C209.445 194.056 209.237 194.307 208.973 194.485C208.709 194.663 208.399 194.761 208.081 194.767Z" fill="white"/>
<path d="M205.394 193.777L205.226 193.995L197.972 203.098L198.022 203.147L197.716 203.533L195.325 201.624L175.915 186.09L170.797 182.003L169.163 177.63L183.799 156.16C184.558 155.196 185.587 154.483 186.752 154.112C187.368 153.906 188.013 153.802 188.661 153.805C189.825 153.809 190.964 154.141 191.948 154.765C192.933 155.389 193.723 156.279 194.228 157.332C194.733 158.386 194.933 159.562 194.805 160.724C194.677 161.887 194.226 162.99 193.504 163.907L183.661 176.354L205.394 193.777Z" fill="white" stroke="#1D2126" stroke-miterlimit="10"/>
<path d="M201.575 193.778L201.408 193.995L195.325 201.624L175.915 186.09L170.797 182.003L169.193 180.025C168.593 178.689 168.15 176.522 168.986 175.325L183.75 156.18C184.509 155.216 185.537 154.503 186.703 154.132C187.415 154.363 188.081 154.718 188.671 155.18C189.307 155.69 189.837 156.32 190.231 157.035C190.625 157.75 190.874 158.536 190.966 159.349C191.057 160.161 190.988 160.983 190.764 161.769C190.539 162.554 190.162 163.288 189.656 163.927L179.813 176.374L201.575 193.778Z" fill="white"/>
<path d="M230.315 335.561C230.314 336.729 230.003 337.876 229.414 338.883C228.825 339.891 227.98 340.722 226.965 341.291C225.951 341.861 224.803 342.148 223.641 342.123C222.479 342.098 221.345 341.763 220.355 341.151C219.365 340.539 218.556 339.672 218.01 338.641C217.464 337.61 217.202 336.451 217.25 335.283C217.298 334.116 217.655 332.983 218.283 332C218.912 331.018 219.79 330.222 220.827 329.694C221.229 329.499 221.647 329.34 222.077 329.219C222.632 329.067 223.204 328.991 223.78 328.991C224.358 328.991 224.934 329.068 225.492 329.219C225.918 329.342 226.333 329.501 226.732 329.694C227.81 330.244 228.716 331.083 229.348 332.119C229.98 333.155 230.315 334.346 230.315 335.561Z" fill="white" stroke="#1D2126" stroke-width="1.05" stroke-miterlimit="10"/>
<path d="M226.772 335.551C226.773 336.159 226.596 336.753 226.261 337.259C225.927 337.765 225.45 338.16 224.893 338.393C224.335 338.626 223.72 338.688 223.128 338.57C222.535 338.452 221.99 338.16 221.563 337.73C221.136 337.3 220.845 336.753 220.727 336.157C220.61 335.561 220.671 334.944 220.903 334.383C221.135 333.822 221.528 333.343 222.031 333.007C222.535 332.67 223.126 332.492 223.73 332.494C224.537 332.494 225.31 332.816 225.881 333.389C226.451 333.963 226.772 334.74 226.772 335.551Z" fill="#20252D"/>
<path d="M153.14 335.561C153.139 336.73 152.829 337.878 152.24 338.886C151.652 339.894 150.806 340.726 149.791 341.296C148.776 341.866 147.628 342.153 146.465 342.128C145.302 342.103 144.168 341.767 143.177 341.154C142.187 340.541 141.378 339.674 140.832 338.641C140.287 337.609 140.025 336.449 140.075 335.281C140.124 334.113 140.482 332.98 141.113 331.998C141.743 331.015 142.623 330.22 143.661 329.694C144.06 329.499 144.475 329.34 144.902 329.219C145.457 329.069 146.029 328.992 146.604 328.991C147.179 328.99 147.752 329.067 148.307 329.219C148.737 329.338 149.156 329.497 149.557 329.694C150.634 330.246 151.538 331.085 152.17 332.121C152.802 333.156 153.138 334.346 153.14 335.561Z" fill="white" stroke="#1D2126" stroke-width="1.05" stroke-miterlimit="10"/>
<path d="M149.656 335.551C149.658 336.158 149.48 336.752 149.146 337.258C148.812 337.764 148.336 338.158 147.779 338.392C147.221 338.626 146.608 338.688 146.015 338.571C145.423 338.453 144.878 338.162 144.45 337.733C144.023 337.305 143.731 336.758 143.613 336.163C143.494 335.568 143.554 334.951 143.785 334.39C144.015 333.829 144.406 333.349 144.908 333.012C145.41 332.674 146 332.494 146.604 332.494C147.412 332.494 148.186 332.816 148.758 333.389C149.33 333.962 149.653 334.739 149.656 335.551Z" fill="#20252D"/>
<path d="M243.297 321.729C243.265 322.24 243.138 322.74 242.923 323.203C242.138 324.871 240.914 326.292 239.384 327.312C237.854 328.332 236.076 328.913 234.242 328.991H137.864C136.019 328.925 134.229 328.349 132.687 327.329C131.146 326.308 129.913 324.881 129.124 323.203C128.911 322.738 128.781 322.239 128.74 321.729C128.717 321.422 128.765 321.113 128.881 320.828C128.997 320.543 129.178 320.289 129.409 320.087C129.827 319.727 130.347 319.509 130.896 319.463H131.053C132.431 319.463 133.858 320.601 135.305 321.868C136.006 322.565 136.902 323.031 137.874 323.203H234.173C235.143 323.027 236.038 322.561 236.742 321.868C238.415 320.403 240.679 318.414 242.648 320.087C242.875 320.291 243.052 320.546 243.165 320.831C243.278 321.116 243.323 321.423 243.297 321.729Z" fill="#E30613" stroke="#1D2126" stroke-width="1.05" stroke-miterlimit="10"/>
<path d="M243.297 321.729C243.265 322.24 243.138 322.74 242.923 323.203C242.138 324.871 240.914 326.292 239.384 327.312C237.854 328.332 236.076 328.913 234.242 328.991H137.864C136.019 328.925 134.229 328.349 132.687 327.329C131.146 326.308 129.913 324.881 129.124 323.203C128.911 322.738 128.781 322.239 128.74 321.729C128.717 321.422 128.765 321.113 128.881 320.828C128.997 320.543 129.178 320.289 129.409 320.087C129.827 319.727 130.347 319.509 130.896 319.463H131.053C132.431 319.463 133.858 320.601 135.305 321.868C136.006 322.565 136.902 323.031 137.874 323.203H234.173C235.143 323.027 236.038 322.561 236.742 321.868C238.415 320.403 240.679 318.414 242.648 320.087C242.875 320.291 243.052 320.546 243.165 320.831C243.278 321.116 243.323 321.423 243.297 321.729V321.729Z" stroke="#1D2126" stroke-width="1.05" stroke-miterlimit="10"/>
<path d="M219.911 209.846C222.785 211.973 225.66 214.11 227.569 215.475L229.469 213.289L214.911 201.624L215.473 200.466L219.715 201.455L221.201 199.031L217.047 197.053C216.586 196.834 216.081 196.72 215.571 196.72C215.06 196.72 214.556 196.834 214.095 197.053L211.142 198.487C209.232 196.993 207.333 195.519 205.413 193.995L198.179 203.118L208.534 211.409L214.656 216.356L214.724 216.406L219.075 219.898L220.768 217.801L214.803 212.854L223.967 219.938L225.62 217.86L217.864 211.735L226.545 218.711L228.396 216.485L219.911 209.846Z" fill="white" stroke="#1D2126" stroke-miterlimit="10"/>
<path d="M205.394 193.777L205.226 193.995L197.973 203.098L198.022 203.147L197.717 203.533L195.325 201.624L175.915 186.09L170.797 182.003C169.586 181.033 168.807 179.619 168.632 178.072C168.456 176.525 168.899 174.971 169.862 173.752L183.799 156.16C184.558 155.196 185.587 154.483 186.752 154.112C187.368 153.906 188.013 153.802 188.661 153.805C189.825 153.809 190.964 154.141 191.949 154.765C192.933 155.389 193.723 156.279 194.228 157.332C194.733 158.386 194.933 159.562 194.805 160.724C194.677 161.887 194.226 162.99 193.504 163.907L183.661 176.354L205.394 193.777Z" stroke="#1D2126" stroke-miterlimit="10"/>
<path d="M189.114 168.844H193.711H191.526L186.28 178.481L183.593 176.334L189.114 168.844Z" fill="#20252D"/>
</g>
<defs>
<clipPath id="clip0_14516_54264">
<rect width="375" height="374" rx="8" fill="white"/>
</clipPath>
</defs>
</svg>
