<svg width="34" height="24" viewBox="0 0 34 24" fill="none" xmlns="http://www.w3.org/2000/svg">
<rect x="0.5" y="0.5" width="33" height="23" rx="3.5" fill="white" stroke="#F2F4F7"/>
<mask id="mask0_19644_230209" style="mask-type:alpha" maskUnits="userSpaceOnUse" x="9" y="5" width="16" height="15">
<path d="M24.127 16.9832C24.25 16.9832 24.3434 17.0759 24.3434 17.1996L24.3421 19.0385C24.3421 19.1615 24.25 19.2549 24.1257 19.2549H9.87486C9.75119 19.2549 9.65845 19.1621 9.65845 19.0385V17.199C9.65845 17.0753 9.75119 16.9826 9.87486 16.9826H11.3903V10.8928C11.3903 10.7691 11.4831 10.6764 11.6067 10.6764H13.445C13.5687 10.6764 13.6614 10.7691 13.6614 10.8928V16.9832H15.8564V10.8928C15.8564 10.7691 15.9492 10.6764 16.0728 10.6764H17.9129C18.036 10.6764 18.1293 10.7691 18.1293 10.8928V16.9832H20.3392V10.8928C20.3392 10.7691 20.4313 10.6764 20.5556 10.6764H22.3951C22.5181 10.6764 22.6115 10.7691 22.6115 10.8928V16.9832H24.1263H24.127ZM17.1858 5.03368L24.2036 7.50693C24.2809 7.53785 24.3421 7.61514 24.3582 7.70788V9.60981C24.3582 9.73348 24.2655 9.82622 24.1418 9.82622H9.89031C9.76727 9.82622 9.67391 9.73348 9.67391 9.60981V7.70912C9.67391 7.61637 9.72028 7.53847 9.81303 7.50817L16.8309 5.03492C16.9448 4.98836 17.0725 4.98836 17.1864 5.03492L17.1858 5.03368Z" fill="white"/>
</mask>
<g mask="url(#mask0_19644_230209)">
<path d="M24.127 16.9832C24.25 16.9832 24.3434 17.0759 24.3434 17.1996L24.3421 19.0385C24.3421 19.1615 24.25 19.2549 24.1257 19.2549H9.87486C9.75119 19.2549 9.65845 19.1621 9.65845 19.0385V17.199C9.65845 17.0753 9.75119 16.9826 9.87486 16.9826H11.3903V10.8928C11.3903 10.7691 11.4831 10.6764 11.6067 10.6764H13.445C13.5687 10.6764 13.6614 10.7691 13.6614 10.8928V16.9832H15.8564V10.8928C15.8564 10.7691 15.9492 10.6764 16.0728 10.6764H17.9129C18.036 10.6764 18.1293 10.7691 18.1293 10.8928V16.9832H20.3392V10.8928C20.3392 10.7691 20.4313 10.6764 20.5556 10.6764H22.3951C22.5181 10.6764 22.6115 10.7691 22.6115 10.8928V16.9832H24.1263H24.127ZM17.1858 5.03368L24.2036 7.50693C24.2809 7.53785 24.3421 7.61514 24.3582 7.70788V9.60981C24.3582 9.73348 24.2655 9.82622 24.1418 9.82622H9.89031C9.76727 9.82622 9.67391 9.73348 9.67391 9.60981V7.70912C9.67391 7.61637 9.72028 7.53847 9.81303 7.50817L16.8309 5.03492C16.9448 4.98836 17.0725 4.98836 17.1864 5.03492L17.1858 5.03368Z" fill="#667085"/>
</g>
</svg>
