<svg width="36" height="60" viewBox="0 0 36 60" fill="none" xmlns="http://www.w3.org/2000/svg">
<rect width="36" height="36" rx="18" fill="#0098A5"/>
<path d="M13.9999 24.8C13.9999 24.3584 13.6423 24 13.1999 24H11.5999C10.7175 24 9.9999 23.2824 9.9999 22.4V20.8C9.9999 20.3584 9.6423 20 9.1999 20C8.7575 20 8.3999 20.3584 8.3999 20.8V22.4C8.3999 24.1648 9.8351 25.6 11.5999 25.6H13.1999C13.6423 25.6 13.9999 25.2416 13.9999 24.8ZM27.5999 22.4V20.8C27.5999 20.3584 27.2423 20 26.7999 20C26.3575 20 25.9999 20.3584 25.9999 20.8V22.4C25.9999 23.2824 25.2823 24 24.3999 24H22.7999C22.3575 24 21.9999 24.3584 21.9999 24.8C21.9999 25.2416 22.3575 25.6 22.7999 25.6H24.3999C26.1647 25.6 27.5999 24.1648 27.5999 22.4ZM27.5999 14.4V12.8C27.5999 11.0352 26.1647 9.59998 24.3999 9.59998H22.7999C22.3575 9.59998 21.9999 9.95838 21.9999 10.4C21.9999 10.8416 22.3575 11.2 22.7999 11.2H24.3999C25.2823 11.2 25.9999 11.9176 25.9999 12.8V14.4C25.9999 14.8416 26.3575 15.2 26.7999 15.2C27.2423 15.2 27.5999 14.8416 27.5999 14.4ZM9.9999 14.4V12.8C9.9999 11.9176 10.7175 11.2 11.5999 11.2H13.1999C13.6423 11.2 13.9999 10.8416 13.9999 10.4C13.9999 9.95838 13.6423 9.59998 13.1999 9.59998H11.5999C9.8351 9.59998 8.3999 11.0352 8.3999 12.8V14.4C8.3999 14.8416 8.7575 15.2 9.1999 15.2C9.6423 15.2 9.9999 14.8416 9.9999 14.4ZM19.5999 22.4C19.3791 22.4 19.1999 22.2208 19.1999 22V13.2C19.1999 12.9792 19.3791 12.8 19.5999 12.8C19.8207 12.8 19.9999 12.9792 19.9999 13.2V22C19.9999 22.2208 19.8207 22.4 19.5999 22.4Z" fill="white"/>
<path d="M19.1999 22C19.1999 22.2208 19.3791 22.4 19.5999 22.4C19.8207 22.4 19.9999 22.2208 19.9999 22V13.2C19.9999 12.9792 19.8207 12.8 19.5999 12.8C19.3791 12.8 19.1999 12.9792 19.1999 13.2V22Z" fill="white"/>
<path d="M16.7999 22C16.7999 22.2208 16.9791 22.4 17.1999 22.4C17.4207 22.4 17.5999 22.2208 17.5999 22V13.2C17.5999 12.9792 17.4207 12.8 17.1999 12.8C16.9791 12.8 16.7999 12.9792 16.7999 13.2V22Z" fill="white"/>
<path d="M14.3999 22C14.3999 22.2208 14.5791 22.4 14.7999 22.4C15.0207 22.4 15.1999 22.2208 15.1999 22V13.2C15.1999 12.9792 15.0207 12.8 14.7999 12.8C14.5791 12.8 14.3999 12.9792 14.3999 13.2V22Z" fill="white"/>
<path d="M11.9999 22C11.9999 22.2208 12.1791 22.4 12.3999 22.4C12.6207 22.4 12.7999 22.2208 12.7999 22V13.2C12.7999 12.9792 12.6207 12.8 12.3999 12.8C12.1791 12.8 11.9999 12.9792 11.9999 13.2V22Z" fill="white"/>
<path d="M21.5999 22C21.5999 22.2208 21.7791 22.4 21.9999 22.4C22.2207 22.4 22.3999 22.2208 22.3999 22V13.2C22.3999 12.9792 22.2207 12.8 21.9999 12.8C21.7791 12.8 21.5999 12.9792 21.5999 13.2V22Z" fill="white"/>
<path d="M23.9999 22C23.9999 22.2208 24.1791 22.4 24.3999 22.4C24.6207 22.4 24.7999 22.2208 24.7999 22V13.2C24.7999 12.9792 24.6207 12.8 24.3999 12.8C24.1791 12.8 23.9999 12.9792 23.9999 13.2V22Z" fill="white"/>
<path d="M9.27082 47.045C9.21582 47.135 9.15832 47.2025 9.09832 47.2475C9.03832 47.2875 8.96332 47.3075 8.87332 47.3075C8.77832 47.3075 8.67082 47.2675 8.55082 47.1875C8.43582 47.1075 8.29082 47.02 8.11582 46.925C7.94582 46.825 7.74332 46.735 7.50832 46.655C7.27332 46.57 6.99332 46.5275 6.66832 46.5275C6.36832 46.5275 6.10332 46.565 5.87332 46.64C5.64832 46.715 5.45832 46.82 5.30332 46.955C5.14832 47.09 5.03082 47.25 4.95082 47.435C4.87582 47.615 4.83832 47.8125 4.83832 48.0275C4.83832 48.3025 4.91082 48.5325 5.05582 48.7175C5.20082 48.8975 5.39082 49.0525 5.62582 49.1825C5.86582 49.3125 6.13832 49.4275 6.44332 49.5275C6.74832 49.6225 7.05832 49.725 7.37332 49.835C7.69332 49.945 8.00582 50.07 8.31082 50.21C8.61582 50.35 8.88582 50.5275 9.12082 50.7425C9.36082 50.9575 9.55332 51.22 9.69832 51.53C9.84332 51.84 9.91582 52.2175 9.91582 52.6625C9.91582 53.1425 9.83332 53.5925 9.66832 54.0125C9.50332 54.4325 9.26332 54.8 8.94832 55.115C8.63832 55.425 8.25332 55.67 7.79332 55.85C7.33832 56.03 6.81832 56.12 6.23332 56.12C5.88832 56.12 5.55082 56.085 5.22082 56.015C4.89582 55.95 4.58332 55.8575 4.28332 55.7375C3.98832 55.6125 3.71082 55.4625 3.45082 55.2875C3.19082 55.1125 2.95832 54.9175 2.75332 54.7025L3.26332 53.8625C3.30832 53.7925 3.36582 53.7375 3.43582 53.6975C3.50582 53.6575 3.58332 53.6375 3.66832 53.6375C3.78332 53.6375 3.91082 53.6925 4.05082 53.8025C4.19082 53.9075 4.35832 54.025 4.55332 54.155C4.75332 54.28 4.99332 54.3975 5.27332 54.5075C5.55332 54.6125 5.88832 54.665 6.27832 54.665C6.91332 54.665 7.40332 54.51 7.74832 54.2C8.09832 53.89 8.27332 53.4625 8.27332 52.9175C8.27332 52.6125 8.20082 52.365 8.05582 52.175C7.91082 51.98 7.71832 51.8175 7.47832 51.6875C7.24332 51.5575 6.97332 51.4475 6.66832 51.3575C6.36332 51.2675 6.05332 51.1725 5.73832 51.0725C5.42332 50.9675 5.11332 50.8475 4.80832 50.7125C4.50332 50.5725 4.23082 50.3925 3.99082 50.1725C3.75582 49.9475 3.56582 49.6725 3.42082 49.3475C3.27582 49.0175 3.20332 48.6075 3.20332 48.1175C3.20332 47.7275 3.27832 47.35 3.42832 46.985C3.58332 46.62 3.80582 46.2975 4.09582 46.0175C4.39082 45.7325 4.75332 45.505 5.18332 45.335C5.61332 45.165 6.10332 45.08 6.65332 45.08C7.27332 45.08 7.84082 45.1775 8.35582 45.3725C8.87582 45.5675 9.32332 45.845 9.69832 46.205L9.27082 47.045ZM16.89 49.85C16.84 49.915 16.7925 49.965 16.7475 50C16.7025 50.035 16.6375 50.0525 16.5525 50.0525C16.4675 50.0525 16.3775 50.0225 16.2825 49.9625C16.1925 49.9025 16.0825 49.8375 15.9525 49.7675C15.8275 49.6925 15.675 49.625 15.495 49.565C15.315 49.505 15.09 49.475 14.82 49.475C14.47 49.475 14.1625 49.5375 13.8975 49.6625C13.6375 49.7875 13.4175 49.9675 13.2375 50.2025C13.0625 50.4325 12.93 50.715 12.84 51.05C12.755 51.38 12.7125 51.7525 12.7125 52.1675C12.7125 52.5975 12.76 52.98 12.855 53.315C12.95 53.65 13.085 53.9325 13.26 54.1625C13.44 54.3925 13.655 54.5675 13.905 54.6875C14.16 54.8075 14.445 54.8675 14.76 54.8675C15.07 54.8675 15.3225 54.83 15.5175 54.755C15.7125 54.68 15.875 54.5975 16.005 54.5075C16.135 54.4175 16.245 54.335 16.335 54.26C16.43 54.185 16.53 54.1475 16.635 54.1475C16.765 54.1475 16.865 54.1975 16.935 54.2975L17.3925 54.89C17.2075 55.115 17.0025 55.305 16.7775 55.46C16.5525 55.615 16.315 55.7425 16.065 55.8425C15.815 55.9375 15.555 56.005 15.285 56.045C15.015 56.09 14.7425 56.1125 14.4675 56.1125C13.9925 56.1125 13.5475 56.025 13.1325 55.85C12.7225 55.67 12.3625 55.4125 12.0525 55.0775C11.7475 54.7375 11.505 54.325 11.325 53.84C11.15 53.35 11.0625 52.7925 11.0625 52.1675C11.0625 51.6025 11.1425 51.08 11.3025 50.6C11.4625 50.115 11.695 49.6975 12 49.3475C12.31 48.9975 12.6925 48.725 13.1475 48.53C13.6025 48.33 14.1275 48.23 14.7225 48.23C15.2775 48.23 15.765 48.32 16.185 48.5C16.61 48.68 16.9875 48.935 17.3175 49.265L16.89 49.85ZM22.777 52.655C22.202 52.675 21.717 52.7225 21.322 52.7975C20.927 52.8675 20.607 52.96 20.362 53.075C20.117 53.185 19.9395 53.3175 19.8295 53.4725C19.7245 53.6275 19.672 53.7975 19.672 53.9825C19.672 54.1625 19.6995 54.3175 19.7545 54.4475C19.8145 54.5725 19.8945 54.6775 19.9945 54.7625C20.0995 54.8425 20.2195 54.9025 20.3545 54.9425C20.4945 54.9775 20.647 54.995 20.812 54.995C21.232 54.995 21.592 54.9175 21.892 54.7625C22.197 54.6025 22.492 54.3725 22.777 54.0725V52.655ZM18.502 49.415C19.367 48.61 20.397 48.2075 21.592 48.2075C22.032 48.2075 22.422 48.28 22.762 48.425C23.107 48.565 23.3945 48.765 23.6245 49.025C23.8595 49.285 24.037 49.595 24.157 49.955C24.282 50.31 24.3445 50.705 24.3445 51.14V56H23.6245C23.4695 56 23.352 55.9775 23.272 55.9325C23.192 55.8825 23.1245 55.785 23.0695 55.64L22.912 55.0175C22.717 55.1925 22.5245 55.35 22.3345 55.49C22.1445 55.625 21.947 55.74 21.742 55.835C21.542 55.93 21.3245 56 21.0895 56.045C20.8595 56.095 20.6045 56.12 20.3245 56.12C20.0145 56.12 19.7245 56.0775 19.4545 55.9925C19.1895 55.9075 18.9595 55.78 18.7645 55.61C18.5695 55.435 18.4145 55.22 18.2995 54.965C18.1895 54.71 18.1345 54.41 18.1345 54.065C18.1345 53.77 18.212 53.4825 18.367 53.2025C18.527 52.9225 18.787 52.6725 19.147 52.4525C19.512 52.2275 19.9895 52.0425 20.5795 51.8975C21.1745 51.7525 21.907 51.67 22.777 51.65V51.14C22.777 50.59 22.6595 50.18 22.4245 49.91C22.1895 49.64 21.8445 49.505 21.3895 49.505C21.0795 49.505 20.8195 49.545 20.6095 49.625C20.3995 49.7 20.217 49.7825 20.062 49.8725C19.907 49.9625 19.7695 50.0475 19.6495 50.1275C19.5295 50.2025 19.402 50.24 19.267 50.24C19.157 50.24 19.062 50.2125 18.982 50.1575C18.907 50.0975 18.8445 50.025 18.7945 49.94L18.502 49.415ZM27.741 49.3625C27.906 49.1925 28.076 49.04 28.251 48.905C28.431 48.765 28.621 48.645 28.821 48.545C29.021 48.445 29.2335 48.3675 29.4585 48.3125C29.6835 48.2575 29.9285 48.23 30.1935 48.23C30.6135 48.23 30.981 48.3 31.296 48.44C31.616 48.58 31.8835 48.7775 32.0985 49.0325C32.3185 49.2875 32.4835 49.595 32.5935 49.955C32.7035 50.31 32.7585 50.7025 32.7585 51.1325V56H31.1535V51.1325C31.1535 50.6175 31.0335 50.2175 30.7935 49.9325C30.5585 49.6475 30.1985 49.505 29.7135 49.505C29.3535 49.505 29.0185 49.5875 28.7085 49.7525C28.4035 49.9175 28.116 50.1425 27.846 50.4275V56H26.2335V48.35H27.2085C27.4285 48.35 27.5685 48.4525 27.6285 48.6575L27.741 49.3625Z" fill="#0098A5"/>
</svg>
