<svg width="318" height="125" viewBox="0 0 318 125" fill="none" xmlns="http://www.w3.org/2000/svg">
<g clip-path="url(#clip0_1_496)">
<path d="M317.593 0H0V125H317.593V0Z" fill="white"/>
<path d="M118.39 115.769V36.3784" stroke="#BAC2CF" stroke-width="1.59" stroke-miterlimit="10"/>
<path d="M194.83 67.3589H131.79C129.437 67.3589 127.53 69.2661 127.53 71.6189V110.959C127.53 113.312 129.437 115.219 131.79 115.219H194.83C197.183 115.219 199.09 113.312 199.09 110.959V71.6189C199.09 69.2661 197.183 67.3589 194.83 67.3589Z" fill="#EFEFEF"/>
<path d="M194.83 67.3589H131.79C129.437 67.3589 127.53 69.2661 127.53 71.6189V110.959C127.53 113.312 129.437 115.219 131.79 115.219H194.83C197.183 115.219 199.09 113.312 199.09 110.959V71.6189C199.09 69.2661 197.183 67.3589 194.83 67.3589Z" stroke="#BAC2CF" stroke-width="1.59" stroke-miterlimit="10"/>
<path d="M202.28 67.3589H139.24C136.887 67.3589 134.98 69.2661 134.98 71.6189V110.959C134.98 113.312 136.887 115.219 139.24 115.219H202.28C204.633 115.219 206.54 113.312 206.54 110.959V71.6189C206.54 69.2661 204.633 67.3589 202.28 67.3589Z" fill="white"/>
<path d="M202.28 67.3589H139.24C136.887 67.3589 134.98 69.2661 134.98 71.6189V110.959C134.98 113.312 136.887 115.219 139.24 115.219H202.28C204.633 115.219 206.54 113.312 206.54 110.959V71.6189C206.54 69.2661 204.633 67.3589 202.28 67.3589Z" stroke="#BAC2CF" stroke-width="1.59" stroke-miterlimit="10"/>
<path d="M160.4 67.3589H181.11V72.8589C181.11 73.0554 181.071 73.25 180.996 73.4314C180.92 73.6128 180.81 73.7775 180.67 73.916C180.531 74.0545 180.365 74.1641 180.183 74.2383C180.001 74.3126 179.807 74.3502 179.61 74.3489H161.9C161.704 74.3489 161.511 74.3103 161.33 74.2355C161.149 74.1606 160.985 74.0508 160.846 73.9125C160.708 73.7741 160.598 73.6098 160.523 73.4291C160.449 73.2483 160.41 73.0545 160.41 72.8589V67.3589H160.4Z" fill="white" stroke="#BAC2CF" stroke-width="1.59" stroke-miterlimit="10"/>
<path d="M181.12 115.069H160.41V109.569C160.41 109.174 160.567 108.795 160.846 108.516C161.126 108.236 161.505 108.079 161.9 108.079H179.63C180.025 108.079 180.404 108.236 180.684 108.516C180.963 108.795 181.12 109.174 181.12 109.569V115.069Z" fill="white" stroke="#BAC2CF" stroke-width="1.59" stroke-miterlimit="10"/>
<path d="M161.58 91.1587C161.58 91.8047 162.104 92.3287 162.75 92.3287C163.396 92.3287 163.92 91.8047 163.92 91.1587V86.7887C163.92 86.1427 163.396 85.6187 162.75 85.6187C162.104 85.6187 161.58 86.1427 161.58 86.7887V91.1587Z" fill="#BAC2CF"/>
<path d="M176.16 91.1587C176.16 91.8047 176.684 92.3287 177.33 92.3287C177.976 92.3287 178.5 91.8047 178.5 91.1587V86.7887C178.5 86.1427 177.976 85.6187 177.33 85.6187C176.684 85.6187 176.16 86.1427 176.16 86.7887V91.1587Z" fill="#BAC2CF"/>
<path d="M159.3 83.4687C159.3 83.4687 159.06 80.0187 162.44 79.9587C162.877 79.9287 163.315 79.9887 163.728 80.1367C164.14 80.2837 164.518 80.5157 164.836 80.8157C165.155 81.1167 165.408 81.4797 165.579 81.8837C165.75 82.2867 165.835 82.7207 165.83 83.1587" fill="white"/>
<path d="M159.3 83.4687C159.3 83.4687 159.06 80.0187 162.44 79.9587C162.877 79.9287 163.315 79.9887 163.728 80.1367C164.14 80.2837 164.518 80.5157 164.836 80.8157C165.155 81.1167 165.408 81.4797 165.579 81.8837C165.75 82.2867 165.835 82.7207 165.83 83.1587" stroke="#BAC2CF" stroke-width="1.59" stroke-miterlimit="10"/>
<path d="M181.86 83.4688H172.81" stroke="#BAC2CF" stroke-width="1.59" stroke-miterlimit="10"/>
<path d="M173.25 99.0087H166.8" stroke="#BAC2CF" stroke-width="1.59" stroke-miterlimit="10"/>
<path d="M90.88 55.8686H145.88C146.333 55.8704 146.778 55.748 147.167 55.5146C147.555 55.2812 147.872 54.9458 148.084 54.5449C148.295 54.1439 148.392 53.6927 148.365 53.2403C148.338 52.7878 148.188 52.3515 147.93 51.9786L120.1 11.0987C119.872 10.7604 119.565 10.4833 119.205 10.2917C118.844 10.1002 118.443 10 118.035 10C117.627 10 117.226 10.1002 116.865 10.2917C116.505 10.4833 116.198 10.7604 115.97 11.0987L88.79 51.9786C88.53 52.3543 88.379 52.7944 88.354 53.2504C88.328 53.7064 88.429 54.1606 88.645 54.5629C88.861 54.9652 89.184 55.3 89.579 55.5304C89.973 55.7608 90.423 55.8779 90.88 55.8686Z" fill="white" stroke="#BAC2CF" stroke-width="1.59" stroke-miterlimit="10"/>
<path d="M119.9 28.3875L119.534 45.0025H117.009L116.643 28.3875H119.9ZM118.404 51.7482C117.829 51.7482 117.341 51.5488 116.942 51.1501C116.544 50.7513 116.344 50.2639 116.344 49.6879C116.344 49.112 116.544 48.6246 116.942 48.2258C117.341 47.8271 117.829 47.6277 118.404 47.6277C118.958 47.6277 119.424 47.8271 119.8 48.2258C120.199 48.6246 120.398 49.112 120.398 49.6879C120.398 50.2639 120.199 50.7513 119.8 51.1501C119.424 51.5488 118.958 51.7482 118.404 51.7482Z" fill="#BAC2CF"/>
<path d="M63 115.299H255.22" stroke="#BAC2CF" stroke-width="1.59" stroke-miterlimit="10"/>
</g>
<defs>
<clipPath id="clip0_1_496">
<rect width="317.593" height="125" fill="white"/>
</clipPath>
</defs>
</svg>
