<svg width="20" height="20" viewBox="0 0 20 20" fill="none" xmlns="http://www.w3.org/2000/svg">
<path d="M18.1252 18.3503H1.4585V1.68359H11.4585V8.35026H18.1252V18.3503Z" stroke="#475467" stroke-width="1.5" stroke-linecap="round" stroke-linejoin="round"/>
<path d="M11.4585 5.0166V18.3499" stroke="#475467" stroke-width="1.5" stroke-linecap="round" stroke-linejoin="round"/>
<path d="M5.62516 5.01693C5.62516 4.55669 5.25207 4.18359 4.79183 4.18359C4.33159 4.18359 3.9585 4.55669 3.9585 5.01693C3.9585 5.47716 4.33159 5.85026 4.79183 5.85026C5.25207 5.85026 5.62516 5.47716 5.62516 5.01693Z" fill="#475467"/>
<path d="M8.95817 5.01693C8.95817 4.55669 8.58507 4.18359 8.12484 4.18359C7.6646 4.18359 7.2915 4.55669 7.2915 5.01693C7.2915 5.47716 7.6646 5.85026 8.12484 5.85026C8.58507 5.85026 8.95817 5.47716 8.95817 5.01693Z" fill="#475467"/>
<path d="M5.62516 8.34994C5.62516 7.8897 5.25207 7.5166 4.79183 7.5166C4.33159 7.5166 3.9585 7.8897 3.9585 8.34994C3.9585 8.81017 4.33159 9.18327 4.79183 9.18327C5.25207 9.18327 5.62516 8.81017 5.62516 8.34994Z" fill="#475467"/>
<path d="M8.95817 8.34994C8.95817 7.8897 8.58507 7.5166 8.12484 7.5166C7.6646 7.5166 7.2915 7.8897 7.2915 8.34994C7.2915 8.81017 7.6646 9.18327 8.12484 9.18327C8.58507 9.18327 8.95817 8.81017 8.95817 8.34994Z" fill="#475467"/>
<path d="M5.62516 11.6834C5.62516 11.2232 5.25207 10.8501 4.79183 10.8501C4.33159 10.8501 3.9585 11.2232 3.9585 11.6834C3.9585 12.1437 4.33159 12.5168 4.79183 12.5168C5.25207 12.5168 5.62516 12.1437 5.62516 11.6834Z" fill="#475467"/>
<path d="M8.95817 11.6834C8.95817 11.2232 8.58507 10.8501 8.12484 10.8501C7.6646 10.8501 7.2915 11.2232 7.2915 11.6834C7.2915 12.1437 7.6646 12.5168 8.12484 12.5168C8.58507 12.5168 8.95817 12.1437 8.95817 11.6834Z" fill="#475467"/>
<path d="M5.62516 15.0169C5.62516 14.5567 5.25207 14.1836 4.79183 14.1836C4.33159 14.1836 3.9585 14.5567 3.9585 15.0169C3.9585 15.4772 4.33159 15.8503 4.79183 15.8503C5.25207 15.8503 5.62516 15.4772 5.62516 15.0169Z" fill="#475467"/>
<path d="M8.95817 15.0169C8.95817 14.5567 8.58507 14.1836 8.12484 14.1836C7.6646 14.1836 7.2915 14.5567 7.2915 15.0169C7.2915 15.4772 7.6646 15.8503 8.12484 15.8503C8.58507 15.8503 8.95817 15.4772 8.95817 15.0169Z" fill="#475467"/>
<path d="M15.6252 11.6834C15.6252 11.2232 15.2521 10.8501 14.7918 10.8501C14.3316 10.8501 13.9585 11.2232 13.9585 11.6834C13.9585 12.1437 14.3316 12.5168 14.7918 12.5168C15.2521 12.5168 15.6252 12.1437 15.6252 11.6834Z" fill="#475467"/>
<path d="M15.6252 15.0169C15.6252 14.5567 15.2521 14.1836 14.7918 14.1836C14.3316 14.1836 13.9585 14.5567 13.9585 15.0169C13.9585 15.4772 14.3316 15.8503 14.7918 15.8503C15.2521 15.8503 15.6252 15.4772 15.6252 15.0169Z" fill="#475467"/>
</svg>
