<svg width="343" height="125" viewBox="0 0 343 125" fill="none" xmlns="http://www.w3.org/2000/svg">
<g clip-path="url(#clip0_1_564)">
<rect width="343" height="125" fill="white"/>
<path d="M361 76.1602H-6V93.1602H361V76.1602Z" fill="white" stroke="#BAC2CF" stroke-width="1.59" stroke-miterlimit="10"/>
<path d="M21.96 89.8802C24.6828 89.8802 26.89 87.6732 26.89 84.9502C26.89 82.2272 24.6828 80.0202 21.96 80.0202C19.2373 80.0202 17.03 82.2272 17.03 84.9502C17.03 87.6732 19.2373 89.8802 21.96 89.8802Z" fill="white" stroke="#BAC2CF" stroke-width="1.59" stroke-miterlimit="10"/>
<path d="M69.5701 89.8802C72.2928 89.8802 74.5001 87.6732 74.5001 84.9502C74.5001 82.2272 72.2928 80.0202 69.5701 80.0202C66.8473 80.0202 64.6401 82.2272 64.6401 84.9502C64.6401 87.6732 66.8473 89.8802 69.5701 89.8802Z" fill="white" stroke="#BAC2CF" stroke-width="1.59" stroke-miterlimit="10"/>
<path d="M117.18 89.8802C119.903 89.8802 122.11 87.6732 122.11 84.9502C122.11 82.2272 119.903 80.0202 117.18 80.0202C114.457 80.0202 112.25 82.2272 112.25 84.9502C112.25 87.6732 114.457 89.8802 117.18 89.8802Z" fill="white" stroke="#BAC2CF" stroke-width="1.59" stroke-miterlimit="10"/>
<path d="M164.79 89.8802C167.513 89.8802 169.72 87.6732 169.72 84.9502C169.72 82.2272 167.513 80.0202 164.79 80.0202C162.067 80.0202 159.86 82.2272 159.86 84.9502C159.86 87.6732 162.067 89.8802 164.79 89.8802Z" fill="white" stroke="#BAC2CF" stroke-width="1.59" stroke-miterlimit="10"/>
<path d="M212.4 89.8802C215.123 89.8802 217.33 87.6732 217.33 84.9502C217.33 82.2272 215.123 80.0202 212.4 80.0202C209.677 80.0202 207.47 82.2272 207.47 84.9502C207.47 87.6732 209.677 89.8802 212.4 89.8802Z" fill="white" stroke="#BAC2CF" stroke-width="1.59" stroke-miterlimit="10"/>
<path d="M260.01 89.8802C262.733 89.8802 264.94 87.6732 264.94 84.9502C264.94 82.2272 262.733 80.0202 260.01 80.0202C257.287 80.0202 255.08 82.2272 255.08 84.9502C255.08 87.6732 257.287 89.8802 260.01 89.8802Z" fill="white" stroke="#BAC2CF" stroke-width="1.59" stroke-miterlimit="10"/>
<path d="M307.62 89.8802C310.343 89.8802 312.55 87.6732 312.55 84.9502C312.55 82.2272 310.343 80.0202 307.62 80.0202C304.897 80.0202 302.69 82.2272 302.69 84.9502C302.69 87.6732 304.897 89.8802 307.62 89.8802Z" fill="white" stroke="#BAC2CF" stroke-width="1.59" stroke-miterlimit="10"/>
<path d="M324.73 32H267.47C265.029 32 263.05 33.979 263.05 36.42V71.7902C263.05 74.2312 265.029 76.2102 267.47 76.2102H324.73C327.171 76.2102 329.15 74.2312 329.15 71.7902V36.42C329.15 33.979 327.171 32 324.73 32Z" fill="#EFEFEF"/>
<path d="M324.73 32H267.47C265.029 32 263.05 33.979 263.05 36.42V71.7902C263.05 74.2312 265.029 76.2102 267.47 76.2102H324.73C327.171 76.2102 329.15 74.2312 329.15 71.7902V36.42C329.15 33.979 327.171 32 324.73 32Z" stroke="#BAC2CF" stroke-width="1.59" stroke-miterlimit="10"/>
<path d="M331.61 32H274.35C271.909 32 269.93 33.979 269.93 36.42V71.7902C269.93 74.2312 271.909 76.2102 274.35 76.2102H331.61C334.051 76.2102 336.03 74.2312 336.03 71.7902V36.42C336.03 33.979 334.051 32 331.61 32Z" fill="white"/>
<path d="M331.61 32H274.35C271.909 32 269.93 33.979 269.93 36.42V71.7902C269.93 74.2312 271.909 76.2102 274.35 76.2102H331.61C334.051 76.2102 336.03 74.2312 336.03 71.7902V36.42C336.03 33.979 334.051 32 331.61 32Z" stroke="#BAC2CF" stroke-width="1.59" stroke-miterlimit="10"/>
<path d="M293.41 32H312.54V36.91C312.54 37.3211 312.377 37.7154 312.086 38.0061C311.795 38.2967 311.401 38.4601 310.99 38.4601H294.99C294.579 38.4601 294.185 38.2967 293.894 38.0061C293.603 37.7154 293.44 37.3211 293.44 36.91V32H293.41Z" fill="white" stroke="#BAC2CF" stroke-width="1.59" stroke-miterlimit="10"/>
<path d="M312.54 76.0702H293.41V71.1602C293.41 70.7492 293.573 70.3542 293.864 70.0642C294.155 69.7732 294.549 69.6102 294.96 69.6102H310.96C311.371 69.6102 311.765 69.7732 312.056 70.0642C312.347 70.3542 312.51 70.7492 312.51 71.1602V76.0702H312.54Z" fill="white" stroke="#BAC2CF" stroke-width="1.59" stroke-miterlimit="10"/>
<path d="M296.4 50.7998C296.279 50.8722 296.178 50.9746 296.108 51.0973C296.038 51.2199 296.001 51.3586 296 51.4998V56.7198C296 56.8613 296.037 57.0003 296.107 57.1231C296.177 57.2462 296.278 57.3482 296.4 57.4202L302.57 60.9802C302.695 61.0512 302.836 61.0892 302.98 61.0902C303.121 61.0892 303.259 61.0512 303.38 60.9802L309.55 57.4202C309.672 57.3482 309.773 57.2462 309.843 57.1231C309.914 57.0003 309.95 56.8613 309.95 56.7198V51.4998C309.949 51.3586 309.912 51.2199 309.842 51.0973C309.772 50.9746 309.671 50.8722 309.55 50.7998L303.38 47.2398C303.256 47.1706 303.117 47.1343 302.975 47.1343C302.833 47.1343 302.694 47.1706 302.57 47.2398L296.4 50.7998ZM297.4 52.7998L299.68 54.1198L297.4 55.4398V52.7998ZM307.9 51.5098L302.96 54.3698L298.01 51.5098L302.96 48.6598L307.9 51.5098ZM308.51 55.4398L306.29 54.1598L308.57 52.8398L308.51 55.4398ZM298.01 56.7298L301.1 54.9398L302.55 55.7798C302.675 55.851 302.816 55.8889 302.96 55.8898C303.101 55.889 303.239 55.851 303.36 55.7798L304.81 54.9398L307.9 56.7298L302.96 59.5802L298.01 56.7298Z" fill="#BAC2CF"/>
<path d="M239.57 32H182.31C179.869 32 177.89 33.979 177.89 36.42V71.7902C177.89 74.2312 179.869 76.2102 182.31 76.2102H239.57C242.011 76.2102 243.99 74.2312 243.99 71.7902V36.42C243.99 33.979 242.011 32 239.57 32Z" fill="#EFEFEF"/>
<path d="M239.57 32H182.31C179.869 32 177.89 33.979 177.89 36.42V71.7902C177.89 74.2312 179.869 76.2102 182.31 76.2102H239.57C242.011 76.2102 243.99 74.2312 243.99 71.7902V36.42C243.99 33.979 242.011 32 239.57 32Z" stroke="#BAC2CF" stroke-width="1.59" stroke-miterlimit="10"/>
<path d="M246.44 32H189.18C186.739 32 184.76 33.979 184.76 36.42V71.7902C184.76 74.2312 186.739 76.2102 189.18 76.2102H246.44C248.881 76.2102 250.86 74.2312 250.86 71.7902V36.42C250.86 33.979 248.881 32 246.44 32Z" fill="white"/>
<path d="M246.44 32H189.18C186.739 32 184.76 33.979 184.76 36.42V71.7902C184.76 74.2312 186.739 76.2102 189.18 76.2102H246.44C248.881 76.2102 250.86 74.2312 250.86 71.7902V36.42C250.86 33.979 248.881 32 246.44 32Z" stroke="#BAC2CF" stroke-width="1.59" stroke-miterlimit="10"/>
<path d="M208.2 32H227.33V36.91C227.33 37.3211 227.167 37.7154 226.876 38.0061C226.585 38.2967 226.191 38.4601 225.78 38.4601H209.78C209.574 38.464 209.369 38.4269 209.178 38.3508C208.986 38.2747 208.812 38.1611 208.665 38.0168C208.517 37.8725 208.401 37.7003 208.321 37.5102C208.241 37.3202 208.2 37.1161 208.2 36.91V32Z" fill="white" stroke="#BAC2CF" stroke-width="1.59" stroke-miterlimit="10"/>
<path d="M227.33 76.0702H208.2V71.1602C208.2 70.7492 208.363 70.3542 208.654 70.0642C208.945 69.7732 209.339 69.6102 209.75 69.6102H225.75C226.161 69.6102 226.555 69.7732 226.846 70.0642C227.137 70.3542 227.3 70.7492 227.3 71.1602V76.0702H227.33Z" fill="white" stroke="#BAC2CF" stroke-width="1.59" stroke-miterlimit="10"/>
<path d="M211.29 50.8002C211.168 50.8721 211.066 50.9742 210.994 51.0967C210.922 51.2193 210.883 51.3582 210.88 51.5002V56.7202C210.882 56.8624 210.921 57.0018 210.992 57.1245C211.064 57.2472 211.167 57.3492 211.29 57.4202L217.46 60.9802C217.581 61.0512 217.719 61.0892 217.86 61.0902C218.004 61.0882 218.145 61.0502 218.27 60.9802L224.43 57.4202C224.553 57.3492 224.656 57.2472 224.728 57.1245C224.8 57.0018 224.838 56.8624 224.84 56.7202V51.5002C224.837 51.3582 224.798 51.2193 224.726 51.0967C224.655 50.9742 224.553 50.8721 224.43 50.8002L218.27 47.2402C218.144 47.1711 218.003 47.1348 217.86 47.1348C217.717 47.1348 217.576 47.1711 217.45 47.2402L211.29 50.8002ZM212.29 52.8002L214.57 54.1202L212.29 55.4402V52.8002ZM222.79 51.5102L217.84 54.3702L212.9 51.5102L217.84 48.6602L222.79 51.5102ZM223.4 55.4402L221.09 54.1602L223.37 52.8402L223.4 55.4402ZM212.9 56.7302L215.99 54.9402L217.44 55.7802C217.561 55.8514 217.699 55.8894 217.84 55.8902C217.984 55.888 218.125 55.8502 218.25 55.7802L219.69 54.9402L222.79 56.7302L217.84 59.5802L212.9 56.7302Z" fill="#BAC2CF"/>
<path d="M154.4 32H97.1402C94.6991 32 92.7202 33.979 92.7202 36.42V71.7902C92.7202 74.2312 94.6991 76.2102 97.1402 76.2102H154.4C156.841 76.2102 158.82 74.2312 158.82 71.7902V36.42C158.82 33.979 156.841 32 154.4 32Z" fill="#EFEFEF"/>
<path d="M154.4 32H97.1402C94.6991 32 92.7202 33.979 92.7202 36.42V71.7902C92.7202 74.2312 94.6991 76.2102 97.1402 76.2102H154.4C156.841 76.2102 158.82 74.2312 158.82 71.7902V36.42C158.82 33.979 156.841 32 154.4 32Z" stroke="#BAC2CF" stroke-width="1.59" stroke-miterlimit="10"/>
<path d="M161.28 32H104.02C101.579 32 99.6001 33.979 99.6001 36.42V71.7902C99.6001 74.2312 101.579 76.2102 104.02 76.2102H161.28C163.721 76.2102 165.7 74.2312 165.7 71.7902V36.42C165.7 33.979 163.721 32 161.28 32Z" fill="white"/>
<path d="M161.28 32H104.02C101.579 32 99.6001 33.979 99.6001 36.42V71.7902C99.6001 74.2312 101.579 76.2102 104.02 76.2102H161.28C163.721 76.2102 165.7 74.2312 165.7 71.7902V36.42C165.7 33.979 163.721 32 161.28 32Z" stroke="#BAC2CF" stroke-width="1.59" stroke-miterlimit="10"/>
<path d="M123.08 32H142.2V36.91C142.2 37.3211 142.037 37.7154 141.746 38.0061C141.455 38.2967 141.061 38.4601 140.65 38.4601H124.65C124.239 38.4601 123.845 38.2967 123.554 38.0061C123.263 37.7154 123.1 37.3211 123.1 36.91V32H123.08Z" fill="white" stroke="#BAC2CF" stroke-width="1.59" stroke-miterlimit="10"/>
<path d="M142.22 76.0702H123.09V71.1602C123.09 70.7492 123.253 70.3542 123.544 70.0642C123.835 69.7732 124.229 69.6102 124.64 69.6102H140.64C141.051 69.6102 141.445 69.7732 141.736 70.0642C142.027 70.3542 142.19 70.7492 142.19 71.1602V76.0702H142.22Z" fill="white" stroke="#BAC2CF" stroke-width="1.59" stroke-miterlimit="10"/>
<path d="M126.07 50.7998C125.949 50.8722 125.848 50.9746 125.778 51.0973C125.708 51.2199 125.671 51.3586 125.67 51.4998V56.7198C125.67 56.8625 125.708 57.0026 125.78 57.1257C125.852 57.2492 125.956 57.3502 126.08 57.4202L132.24 60.9802C132.366 61.0502 132.506 61.0872 132.65 61.0902C132.791 61.0892 132.929 61.0512 133.05 60.9802L139.22 57.4202C139.342 57.3482 139.443 57.2462 139.513 57.1231C139.584 57.0003 139.62 56.8613 139.62 56.7198V51.4998C139.619 51.3586 139.582 51.2199 139.512 51.0973C139.442 50.9746 139.341 50.8722 139.22 50.7998L133.05 47.2398C132.926 47.1706 132.787 47.1343 132.645 47.1343C132.503 47.1343 132.364 47.1706 132.24 47.2398L126.07 50.7998ZM127.07 52.7998L129.35 54.1198L127.07 55.4398V52.7998ZM137.57 51.5098L132.63 54.3698L127.68 51.5098L132.63 48.6598L137.57 51.5098ZM138.18 55.4398L135.9 54.1198L138.18 52.7998V55.4398ZM127.68 56.7298L130.77 54.9398L132.22 55.7798C132.346 55.8498 132.486 55.8876 132.63 55.8898C132.771 55.889 132.909 55.851 133.03 55.7798L134.48 54.9398L137.57 56.7298L132.63 59.5802L127.68 56.7298Z" fill="#BAC2CF"/>
<path d="M69.24 32H11.98C9.53896 32 7.56006 33.979 7.56006 36.42V71.7902C7.56006 74.2312 9.53896 76.2102 11.98 76.2102H69.24C71.6811 76.2102 73.66 74.2312 73.66 71.7902V36.42C73.66 33.979 71.6811 32 69.24 32Z" fill="#EFEFEF"/>
<path d="M69.24 32H11.98C9.53896 32 7.56006 33.979 7.56006 36.42V71.7902C7.56006 74.2312 9.53896 76.2102 11.98 76.2102H69.24C71.6811 76.2102 73.66 74.2312 73.66 71.7902V36.42C73.66 33.979 71.6811 32 69.24 32Z" stroke="#BAC2CF" stroke-width="1.59" stroke-miterlimit="10"/>
<path d="M76.1099 32H18.8499C16.4088 32 14.4299 33.979 14.4299 36.42V71.7902C14.4299 74.2312 16.4088 76.2102 18.8499 76.2102H76.1099C78.551 76.2102 80.5299 74.2312 80.5299 71.7902V36.42C80.5299 33.979 78.551 32 76.1099 32Z" fill="white"/>
<path d="M76.1099 32H18.8499C16.4088 32 14.4299 33.979 14.4299 36.42V71.7902C14.4299 74.2312 16.4088 76.2102 18.8499 76.2102H76.1099C78.551 76.2102 80.5299 74.2312 80.5299 71.7902V36.42C80.5299 33.979 78.551 32 76.1099 32Z" stroke="#BAC2CF" stroke-width="1.59" stroke-miterlimit="10"/>
<path d="M37.9202 32H57.0502V36.91C57.0502 37.3211 56.8869 37.7154 56.5962 38.0061C56.3055 38.2967 55.9112 38.4601 55.5002 38.4601H39.5002C39.0891 38.4601 38.6948 38.2967 38.4041 38.0061C38.1135 37.7154 37.9502 37.3211 37.9502 36.91V32H37.9202Z" fill="white" stroke="#BAC2CF" stroke-width="1.59" stroke-miterlimit="10"/>
<path d="M57.0502 76.0702H37.9202V71.1602C37.9202 70.7492 38.0835 70.3542 38.3742 70.0642C38.6649 69.7732 39.0591 69.6102 39.4702 69.6102H55.4702C55.8813 69.6102 56.2755 69.7732 56.5662 70.0642C56.8569 70.3542 57.0202 70.7492 57.0202 71.1602V76.0702H57.0502Z" fill="white" stroke="#BAC2CF" stroke-width="1.59" stroke-miterlimit="10"/>
<path d="M40.9101 50.7998C40.7875 50.8717 40.6855 50.9738 40.6137 51.0963C40.5419 51.2189 40.5028 51.3578 40.5 51.4998V56.7198C40.5018 56.862 40.5406 57.0014 40.6124 57.1241C40.6843 57.2472 40.7869 57.3492 40.9101 57.4202L47.0801 60.9802C47.2014 61.0512 47.3394 61.0892 47.4801 61.0902C47.6237 61.0872 47.7646 61.0502 47.8901 60.9802L54.0501 57.4202C54.1732 57.3492 54.2758 57.2472 54.3477 57.1241C54.4196 57.0014 54.4583 56.862 54.4601 56.7198V51.4998C54.4573 51.3578 54.4182 51.2189 54.3464 51.0963C54.2746 50.9738 54.1726 50.8717 54.0501 50.7998L47.8901 47.2398C47.7663 47.1706 47.6269 47.1343 47.4851 47.1343C47.3433 47.1343 47.2038 47.1706 47.0801 47.2398L40.9101 50.7998ZM41.9101 52.7998L44.1901 54.1198L41.9101 55.4398V52.7998ZM52.4101 51.5098L47.4601 54.3698L42.5201 51.5098L47.4601 48.6598L52.4101 51.5098ZM53.0201 55.4398L50.7401 54.1198L53.0201 52.7998V55.4398ZM42.5201 56.7298L45.6101 54.9398L47.06 55.7798C47.1814 55.851 47.3194 55.889 47.4601 55.8898C47.6037 55.8876 47.7446 55.8498 47.87 55.7798L49.3201 54.9398L52.4101 56.7298L47.4601 59.5802L42.5201 56.7298Z" fill="#BAC2CF"/>
</g>
<defs>
<clipPath id="clip0_1_564">
<rect width="343" height="125" fill="white"/>
</clipPath>
</defs>
</svg>
