<svg width="20" height="20" viewBox="0 0 20 20" fill="none" xmlns="http://www.w3.org/2000/svg">
<g clip-path="url(#clip0_17755_5502)">
<path d="M10.075 18.3166C14.6774 18.3166 18.4084 14.5856 18.4084 9.98324C18.4084 5.38086 14.6774 1.6499 10.075 1.6499C5.47266 1.6499 1.7417 5.38086 1.7417 9.98324C1.7417 14.5856 5.47266 18.3166 10.075 18.3166Z" stroke="#667085" stroke-width="1.5" stroke-linecap="round" stroke-linejoin="round"/>
<path d="M10.075 18.3166C11.7732 18.3166 13.15 14.5856 13.15 9.98324C13.15 5.38086 11.7732 1.6499 10.075 1.6499C8.37668 1.6499 7 5.38086 7 9.98324C7 14.5856 8.37668 18.3166 10.075 18.3166Z" stroke="#667085" stroke-width="1.5" stroke-linecap="round" stroke-linejoin="round"/>
<path d="M2.5752 7.3418H17.5752" stroke="#667085" stroke-width="1.5" stroke-linecap="round" stroke-linejoin="round"/>
<path d="M2.5752 12.6167H17.5752" stroke="#667085" stroke-width="1.5" stroke-linecap="round" stroke-linejoin="round"/>
</g>
<defs>
<clipPath id="clip0_17755_5502">
<rect width="20" height="20" fill="white"/>
</clipPath>
</defs>
</svg>
