<svg width="42" height="42" viewBox="0 0 42 42" fill="none" xmlns="http://www.w3.org/2000/svg">
<path d="M37.9051 18.2699L36.1901 25.5849C34.7201 31.9024 31.8151 34.4574 26.3551 33.9324C25.4801 33.8624 24.5351 33.7049 23.5201 33.4599L20.5801 32.7599C13.2826 31.0274 11.0251 27.4224 12.7401 20.1074L14.4551 12.7749C14.8051 11.2874 15.2251 9.99239 15.7501 8.92489C17.7976 4.68989 21.2801 3.55239 27.1251 4.93489L30.0476 5.61739C37.3801 7.33239 39.6201 10.9549 37.9051 18.2699Z" fill="white" stroke="#475467" stroke-width="1.5" stroke-linecap="round" stroke-linejoin="round"/>
<path d="M26.3549 33.9323C25.2699 34.6673 23.9049 35.2798 22.2424 35.8223L19.4774 36.7323C12.5299 38.9723 8.87236 37.0998 6.61486 30.1523L4.37486 23.2398C2.13486 16.2923 3.98986 12.6173 10.9374 10.3773L13.7024 9.4673C14.4199 9.2398 15.1024 9.0473 15.7499 8.9248C15.2249 9.9923 14.8049 11.2873 14.4549 12.7748L12.7399 20.1073C11.0249 27.4223 13.2824 31.0273 20.5799 32.7598L23.5199 33.4598C24.5349 33.7048 25.4799 33.8623 26.3549 33.9323Z" fill="white" stroke="#475467" stroke-width="1.5" stroke-linecap="round" stroke-linejoin="round"/>
<path d="M22.1201 14.9277L30.6076 17.0802" stroke="#475467" stroke-width="1.5" stroke-linecap="round" stroke-linejoin="round"/>
<path d="M20.405 21.7002L25.48 22.9952" stroke="#475467" stroke-width="1.5" stroke-linecap="round" stroke-linejoin="round"/>
</svg>
