<svg width="20" height="20" viewBox="0 0 20 20" fill="none" xmlns="http://www.w3.org/2000/svg">
<path fill-rule="evenodd" clip-rule="evenodd" d="M2.20522 14.7029L8.69066 3.73717C8.82716 3.51214 9.01936 3.32608 9.2487 3.19696C9.47805 3.06783 9.7368 3 10 3C10.2632 3 10.522 3.06783 10.7513 3.19696C10.9806 3.32608 11.1728 3.51214 11.3093 3.73717L17.7948 14.7029C17.9285 14.9345 17.9992 15.197 18 15.4644C18.0007 15.7318 17.9315 15.9947 17.799 16.227C17.6666 16.4594 17.4757 16.6529 17.2452 16.7886C17.0148 16.9242 16.7528 16.9971 16.4854 17H3.51456C3.24718 16.9971 2.98523 16.9242 2.75477 16.7886C2.52431 16.6529 2.33337 16.4594 2.20095 16.227C2.06854 15.9947 1.99926 15.7318 2.00001 15.4644C2.00075 15.197 2.07151 14.9345 2.20522 14.7029ZM9.21281 7.05453C9.24621 6.87008 9.34332 6.70322 9.48719 6.58305C9.63106 6.46289 9.81256 6.39707 10 6.39707C10.1875 6.39707 10.369 6.46289 10.5128 6.58305C10.6567 6.70322 10.7538 6.87008 10.7872 7.05453L10.8 7.19853V11.1985L10.7872 11.3425C10.7538 11.527 10.6567 11.6939 10.5128 11.814C10.369 11.9342 10.1875 12 10 12C9.81256 12 9.63106 11.9342 9.48719 11.814C9.34332 11.6939 9.24621 11.527 9.21281 11.3425L9.20001 11.1985V7.19853L9.21281 7.05453ZM9.21281 13.856C9.24621 13.6716 9.34332 13.5047 9.48719 13.3846C9.63106 13.2644 9.81256 13.1986 10 13.1986C10.1875 13.1986 10.369 13.2644 10.5128 13.3846C10.6567 13.5047 10.7538 13.6716 10.7872 13.856L10.8 14L10.7872 14.144C10.7538 14.3285 10.6567 14.4954 10.5128 14.6155C10.369 14.7357 10.1875 14.8015 10 14.8015C9.81256 14.8015 9.63106 14.7357 9.48719 14.6155C9.34332 14.4954 9.24621 14.3285 9.21281 14.144L9.20001 14L9.21281 13.856Z" fill="#B42318"/>
</svg>
