<svg width="120" height="24" viewBox="0 0 120 24" fill="none" xmlns="http://www.w3.org/2000/svg">
<path d="M9.00005 6.07494L7.35005 4.42494C7.35005 4.42494 7.1325 4.2842 6.97505 4.27494C6.79013 4.26406 6.52505 4.42494 6.52505 4.42494C6.52505 4.42494 5.51941 5.43058 4.87505 6.07494C4.65005 6.29994 4.65005 6.67494 4.87505 6.89994C5.10005 7.12494 5.47505 7.12494 5.70005 6.89994L6.37505 6.22494V9.07494C6.37505 9.37494 6.60005 9.67494 6.97505 9.67494C7.35005 9.67494 7.57505 9.44994 7.57505 9.07494V6.22494L8.25005 6.89994C8.47505 7.12494 8.85005 7.12494 9.07505 6.89994C9.22505 6.67494 9.22505 6.29994 9.00005 6.07494Z" fill="#98A2B3"/>
<path d="M20.55 4.87539L17.7 4.27539C17.7 4.27539 17.7 4.27539 17.625 4.27539H17.55H12C11.7 4.27539 11.4 4.50039 11.4 4.87539V11.5504L9.3 11.1004H9.225H9.15H6.375H3.6C3.225 11.0254 3 11.2504 3 11.6254V19.2004C3 19.5004 3.225 19.8004 3.6 19.8004H9.225H12C12.3 19.8004 12.6 19.5754 12.6 19.2004V13.0504H17.625H20.4C20.7 13.0504 21 12.8254 21 12.4504V5.47539C21 5.17539 20.85 4.95039 20.55 4.87539ZM4.125 12.1504H5.775V13.8754C5.775 14.1754 6 14.4754 6.375 14.4754C6.675 14.4754 6.975 14.2504 6.975 13.8754V12.1504H8.7V18.6004H4.2V12.1504H4.125ZM11.4 18.6004H9.75V12.3004L11.4 12.6754V18.6004ZM12.6 5.40039H14.25V7.12539C14.25 7.42539 14.475 7.72539 14.85 7.72539C15.225 7.72539 15.45 7.50039 15.45 7.12539V5.40039H17.175V11.8504H12.675V5.40039H12.6ZM19.875 11.8504H18.225V5.55039L19.875 5.92539V11.8504Z" fill="#667085"/>
<path d="M19.125 17.1744C18.9073 16.937 18.525 16.9494 18.3 17.1744L17.625 17.8494V14.9994C17.625 14.6994 17.4 14.3994 17.025 14.3994C16.65 14.3994 16.5 14.6244 16.5 14.9994V17.8494L15.825 17.1744C15.6 16.9494 15.225 16.9494 15 17.1744C14.775 17.3994 14.775 17.7744 15 17.9994L16.65 19.6494C16.725 19.7244 16.875 19.7994 17.025 19.7994C17.175 19.7994 17.325 19.7244 17.4 19.6494L19.05 17.9994C19.35 17.6994 19.3437 17.4128 19.125 17.1744Z" fill="#98A2B3"/>
<path d="M48.05 3L44.375 2.25C44.375 2.25 44.375 2.25 44.3 2.25H44.225H40.625H37.1C36.725 2.25 36.5 2.475 36.5 2.85V11.7C36.5 12 36.725 12.3 37.1 12.3H44.375H47.975C48.275 12.3 48.575 12.075 48.575 11.7V3.525C48.5 3.225 48.275 3 48.05 3ZM43.775 11.1H37.625V3.375H40.1V5.475C40.1 5.775 40.325 6.075 40.7 6.075C41 6.075 41.3 5.85 41.3 5.475V3.375H43.775V11.1ZM47.375 11.1H44.9V3.525L47.375 4.05V11.1Z" fill="#667085"/>
<path fill-rule="evenodd" clip-rule="evenodd" d="M53.075 9.37539C53.075 9.07539 52.85 8.77539 52.475 8.77539C52.1 8.77539 51.875 9.00039 51.875 9.37539V13.0504C51.875 13.7254 51.725 14.3254 51.5 14.9254C51.275 15.5254 50.9 16.0504 50.45 16.5004C50 16.9504 49.475 17.3254 48.875 17.5504C48.275 17.9254 47.6 18.0004 47 18.0004H40.7L43.25 16.0504C43.475 15.8254 43.55 15.5254 43.325 15.2254C43.1 15.0004 42.8 14.9254 42.5 15.1504L38.6 18.0754C38.45 18.1504 38.375 18.3754 38.375 18.5254C38.375 18.6754 38.45 18.9004 38.6 18.9754L42.5 21.9004C42.725 22.1254 43.1 22.0504 43.325 21.8254C43.55 21.6004 43.475 21.2254 43.25 21.0004L40.7 19.0504H47C47.825 19.0504 48.575 18.9004 49.325 18.6004C50.075 18.3004 50.75 17.8504 51.275 17.2504C51.875 16.6504 52.25 16.0504 52.625 15.3004C52.925 14.5504 53.075 13.8004 53.075 12.9754V9.37539Z" fill="#98A2B3"/>
<path fill-rule="evenodd" clip-rule="evenodd" d="M68.425 5.1C68.425 4.725 68.65 4.5 68.95 4.5H84.85C85.15 4.5 85.45 4.725 85.45 5.1V17.25C85.45 17.55 85.225 17.85 84.85 17.85H82C81.7 17.85 81.4 17.625 81.4 17.25C81.4 16.875 81.625 16.65 82 16.65H84.25V5.625H69.55V7.8C69.55 8.1 69.325 8.4 68.95 8.4C68.65 8.4 68.35 8.175 68.35 7.8V5.1H68.425Z" fill="#98A2B3"/>
<path d="M82.15 7.34961H67.15C66.85 7.34961 66.55 7.57461 66.55 7.94961V19.0496C66.55 19.3496 66.775 19.6496 67.15 19.6496H82.15C82.45 19.6496 82.75 19.4246 82.75 19.0496V7.87461C82.675 7.57461 82.45 7.34961 82.15 7.34961ZM81.55 10.1996C81.475 10.1246 81.325 10.0496 81.175 10.0496H80.95C80.65 10.0496 80.425 9.89961 80.2 9.74961C79.975 9.59961 79.9 9.29961 79.9 8.99961V8.77461C79.9 8.62461 79.825 8.54961 79.825 8.47461H81.625V10.1996H81.55ZM67.675 8.39961H69.475C69.4 8.47461 69.4 8.62461 69.4 8.69961V8.99961C69.4 9.29961 69.25 9.52461 69.1 9.74961C68.95 9.97461 68.65 10.0496 68.35 10.0496H68.05C67.9 10.0496 67.75 10.1246 67.675 10.1996V8.39961ZM67.675 16.6496C67.75 16.7246 67.9 16.7996 68.05 16.7996H68.275C68.575 16.7996 68.8 16.9496 69.025 17.0996C69.25 17.2496 69.325 17.5496 69.325 17.8496V18.0746C69.325 18.2246 69.4 18.2996 69.4 18.3746H67.675V16.6496ZM70.375 18.4496C70.45 18.3746 70.45 18.2246 70.45 18.1496V17.9246C70.45 17.3246 70.225 16.7996 69.775 16.3496C69.325 15.8996 68.8 15.6746 68.2 15.6746H68.05C67.9 15.6746 67.75 15.7496 67.675 15.8246V11.0246C67.75 11.0996 67.9 11.1746 68.05 11.1746H68.275C68.875 11.1746 69.4 10.9496 69.85 10.4996C70.3 10.0496 70.525 9.52461 70.525 8.92461V8.69961C70.525 8.54961 70.525 8.47461 70.45 8.39961H74.2C74.125 8.47461 74.125 8.62461 74.125 8.69961V10.0496H73.75C73.375 10.0496 73 10.1996 72.7 10.4996C72.4 10.7996 72.25 11.1746 72.25 11.5496V12.4496C72.25 12.8246 72.4 13.1996 72.7 13.4996C73 13.7996 73.375 13.9496 73.75 13.9496H75.625C75.7 13.9496 75.85 14.0246 75.925 14.0246C76 14.0996 76 14.1746 76 14.3246V15.2246C76 15.2996 75.925 15.4496 75.925 15.5246C75.85 15.5996 75.775 15.5996 75.625 15.5996H74.725H72.85C72.55 15.5996 72.25 15.8246 72.25 16.1996C72.25 16.4996 72.475 16.7996 72.85 16.7996H74.2V18.1496C74.2 18.2996 74.2 18.3746 74.275 18.4496H70.375ZM75.175 18.1496V16.7996H75.55C75.925 16.7996 76.3 16.6496 76.6 16.3496C76.9 16.0496 77.05 15.6746 77.05 15.2996V14.3996C77.05 14.0246 76.9 13.6496 76.6 13.3496C76.3 13.0496 75.925 12.8996 75.55 12.8996H73.675C73.6 12.8996 73.45 12.8246 73.375 12.8246C73.3 12.7496 73.3 12.6746 73.3 12.5246V11.6246C73.3 11.5496 73.375 11.3996 73.375 11.3246C73.45 11.2496 73.525 11.2496 73.675 11.2496H76.525C76.825 11.2496 77.125 11.0246 77.125 10.6496C77.125 10.3496 76.9 10.0496 76.525 10.0496H75.175V8.69961C75.175 8.54961 75.1 8.47461 75.1 8.39961H78.85C78.775 8.47461 78.775 8.62461 78.775 8.69961V8.99961C78.775 9.59961 79 10.1246 79.45 10.5746C79.9 11.0246 80.425 11.2496 81.025 11.2496H81.25C81.4 11.2496 81.55 11.1746 81.625 11.0996V15.8996C81.55 15.8246 81.4 15.7496 81.25 15.7496H81.025C80.425 15.7496 79.9 15.9746 79.45 16.4246C79 16.8746 78.775 17.3996 78.775 17.9996V18.2246C78.775 18.3746 78.85 18.4496 78.85 18.5246H75.1C75.175 18.3746 75.175 18.2246 75.175 18.1496ZM79.75 18.4496C79.825 18.3746 79.825 18.2246 79.825 18.1496V17.9246C79.825 17.6246 79.975 17.3996 80.125 17.1746C80.275 16.9496 80.575 16.8746 80.875 16.8746H81.1C81.25 16.8746 81.4 16.7996 81.475 16.7246V18.5246H79.75V18.4496Z" fill="#667085"/>
<g clip-path="url(#clip0_18843_199075)">
<path d="M115.57 7.04006L110.52 2.17006C110.465 2.11545 110.399 2.07231 110.327 2.04314C110.255 2.01396 110.178 1.99932 110.1 2.00006H102.84C102.225 1.9956 101.632 2.23257 101.19 2.66006C100.972 2.8676 100.798 3.11735 100.679 3.39413C100.561 3.67091 100.5 3.96893 100.5 4.27006V17.6701C100.5 17.9712 100.561 18.2692 100.679 18.546C100.798 18.8228 100.972 19.0725 101.19 19.2801C101.632 19.7076 102.225 19.9445 102.84 19.9401H103.91C104.069 19.9401 104.222 19.8768 104.334 19.7643C104.447 19.6518 104.51 19.4992 104.51 19.3401C104.51 19.1809 104.447 19.0283 104.334 18.9158C104.222 18.8033 104.069 18.7401 103.91 18.7401H102.84C102.536 18.7392 102.244 18.6251 102.02 18.4201C101.917 18.3245 101.835 18.2084 101.78 18.0792C101.725 17.9499 101.698 17.8105 101.7 17.6701V4.27006C101.701 4.13011 101.73 3.99179 101.785 3.86306C101.84 3.73433 101.92 3.61776 102.02 3.52006C102.244 3.31507 102.536 3.20097 102.84 3.20006H109.51V7.47006C109.51 7.62919 109.573 7.7818 109.686 7.89433C109.798 8.00685 109.951 8.07006 110.11 8.07006H114.56V10.9701C114.56 11.0489 114.576 11.1269 114.606 11.1997C114.636 11.2725 114.68 11.3386 114.736 11.3943C114.791 11.45 114.858 11.4942 114.93 11.5244C115.003 11.5545 115.081 11.5701 115.16 11.5701C115.239 11.5701 115.317 11.5545 115.39 11.5244C115.462 11.4942 115.529 11.45 115.584 11.3943C115.64 11.3386 115.684 11.2725 115.714 11.1997C115.744 11.1269 115.76 11.0489 115.76 10.9701V7.47006C115.76 7.3891 115.743 7.30901 115.711 7.23495C115.678 7.16089 115.63 7.0945 115.57 7.04006ZM110.7 6.87006V4.01006L113.7 6.87006H110.7Z" fill="#667085"/>
<path d="M107.27 8.07006C107.429 8.07006 107.582 8.00685 107.694 7.89433C107.807 7.7818 107.87 7.62919 107.87 7.47006C107.87 7.31093 107.807 7.15832 107.694 7.0458C107.582 6.93328 107.429 6.87006 107.27 6.87006H103.91C103.751 6.87006 103.598 6.93328 103.486 7.0458C103.373 7.15832 103.31 7.31093 103.31 7.47006C103.31 7.62919 103.373 7.7818 103.486 7.89433C103.598 8.00685 103.751 8.07006 103.91 8.07006H107.27Z" fill="#667085"/>
<path d="M111.77 14.2401C111.5 14.0335 111.216 13.8463 110.92 13.6801C110.689 13.5423 110.428 13.4602 110.16 13.4401C110.084 13.429 110.006 13.429 109.93 13.4401H109.81C109.747 13.4671 109.686 13.5006 109.63 13.5401L109.24 13.7801L108.89 14.0001C108.828 14.0012 108.767 13.9893 108.71 13.9652C108.653 13.9411 108.602 13.9053 108.56 13.8601C108.402 13.6592 108.307 13.4153 108.29 13.1601C108.276 13.0447 108.227 12.9363 108.15 12.8489C108.074 12.7616 107.973 12.6992 107.86 12.6701C107.748 12.6388 107.63 12.6412 107.52 12.6767C107.41 12.7123 107.312 12.7795 107.24 12.8701L106.4 13.8701L106.34 13.9301L106.21 13.8501C106.096 13.7551 105.989 13.6514 105.89 13.5401L105.99 13.4201C106.369 12.9848 106.594 12.4364 106.63 11.8601C106.637 11.6252 106.595 11.3914 106.505 11.1742C106.416 10.957 106.281 10.7613 106.11 10.6001C105.833 10.406 105.497 10.3141 105.16 10.3401C104.957 10.3487 104.757 10.3986 104.574 10.4867C104.39 10.5749 104.227 10.6995 104.093 10.8529C103.959 11.0064 103.858 11.1854 103.795 11.3792C103.733 11.573 103.711 11.7774 103.73 11.9801C103.77 12.4843 103.932 12.9713 104.2 13.4001L104.3 13.5501C104.08 13.7601 103.82 13.9901 103.53 14.2301C103.426 14.336 103.366 14.4765 103.359 14.6245C103.353 14.7725 103.402 14.9177 103.496 15.0319C103.591 15.1462 103.724 15.2214 103.87 15.2432C104.017 15.2651 104.166 15.2319 104.29 15.1501C104.56 14.9301 104.8 14.7201 105.02 14.5101C105.286 14.8278 105.631 15.0693 106.02 15.2101C106.259 15.2733 106.512 15.2557 106.74 15.1601C106.955 15.0623 107.143 14.9149 107.29 14.7301L107.48 14.5001C107.524 14.5891 107.577 14.673 107.64 14.7501C107.8 14.9264 107.997 15.066 108.216 15.1592C108.435 15.2524 108.672 15.2971 108.91 15.2901C109.027 15.2867 109.142 15.263 109.25 15.2201L109.47 15.1101L109.89 14.8501L110.22 14.6401L110.35 14.7101C110.597 14.8467 110.834 15.0004 111.06 15.1701C111.122 15.2171 111.193 15.2513 111.269 15.2707C111.344 15.2901 111.423 15.2944 111.5 15.2832C111.577 15.272 111.651 15.2457 111.718 15.2057C111.785 15.1657 111.844 15.1128 111.89 15.0501C111.976 14.925 112.012 14.7718 111.99 14.6214C111.967 14.4711 111.889 14.3348 111.77 14.2401ZM105.14 12.6001C105.027 12.4032 104.956 12.1854 104.93 11.9601C104.922 11.8995 104.926 11.8379 104.943 11.7793C104.961 11.7207 104.99 11.6664 105.03 11.6201C105.07 11.5996 105.116 11.5926 105.16 11.6001C105.26 11.6001 105.39 11.8001 105.39 12.0201C105.355 12.2308 105.269 12.4298 105.14 12.6001Z" fill="#667085"/>
<path d="M115.15 12.7198C115.072 12.7185 114.994 12.7328 114.921 12.7618C114.848 12.7909 114.782 12.8341 114.726 12.889C114.671 12.944 114.626 13.0095 114.596 13.0817C114.566 13.1539 114.55 13.2315 114.55 13.3098V15.7598C114.554 16.1582 114.476 16.5531 114.32 16.9198C114.178 17.2981 113.959 17.6427 113.676 17.9319C113.394 18.2211 113.055 18.4485 112.68 18.5998C112.314 18.7588 111.919 18.8405 111.52 18.8398H108.07L109.22 17.9598C109.346 17.8629 109.428 17.72 109.449 17.5625C109.469 17.4051 109.427 17.2459 109.33 17.1198C109.283 17.0564 109.223 17.0032 109.155 16.9632C109.087 16.9232 109.012 16.8973 108.933 16.887C108.855 16.8768 108.775 16.8824 108.699 16.9034C108.623 16.9245 108.552 16.9607 108.49 17.0098L105.92 18.9598C105.849 19.017 105.792 19.0893 105.752 19.1715C105.713 19.2537 105.693 19.3437 105.693 19.4348C105.693 19.5259 105.713 19.6159 105.752 19.6981C105.792 19.7803 105.849 19.8526 105.92 19.9098L108.49 21.9098C108.595 21.9865 108.72 22.0284 108.85 22.0298C108.943 22.0298 109.035 22.0081 109.118 21.9665C109.202 21.9248 109.274 21.8643 109.33 21.7898C109.427 21.6637 109.469 21.5045 109.449 21.3471C109.428 21.1896 109.346 21.0468 109.22 20.9498L108.07 20.0798H111.52C112.077 20.0804 112.628 19.9681 113.14 19.7498C113.656 19.5417 114.122 19.2284 114.51 18.8298C114.907 18.4406 115.22 17.9744 115.43 17.4598C115.644 16.9468 115.753 16.3958 115.75 15.8398V13.3098C115.75 13.2315 115.734 13.1539 115.704 13.0817C115.674 13.0095 115.63 12.944 115.574 12.889C115.518 12.8341 115.452 12.7909 115.379 12.7618C115.306 12.7328 115.228 12.7185 115.15 12.7198Z" fill="#98A2B3"/>
</g>
<defs>
<clipPath id="clip0_18843_199075">
<rect width="15.26" height="20.0302" fill="white" transform="translate(100.5 2)"/>
</clipPath>
</defs>
</svg>
