<svg width="40" height="40" viewBox="0 0 40 40" fill="none" xmlns="http://www.w3.org/2000/svg">
<g clip-path="url(#clip0_16931_82968)">
<rect width="40" height="40" rx="8" fill="white"/>
<path fill-rule="evenodd" clip-rule="evenodd" d="M26.75 12.5H27.5V13.25V20.0002V20.3108L27.2804 20.5305L20.9264 26.8858L20.9263 26.886C20.7312 27.081 20.4996 27.2357 20.2447 27.3412C19.9898 27.4467 19.7166 27.5009 19.4408 27.5008C19.1649 27.5007 18.8918 27.4463 18.637 27.3406C18.3822 27.2349 18.1507 27.0801 17.9558 26.8849L17.9337 26.8628L13.1149 22.0441C12.9198 21.849 12.765 21.6175 12.6594 21.3626C12.5539 21.1078 12.4995 20.8347 12.4995 20.5588C12.4995 20.2829 12.5539 20.0098 12.6594 19.755C12.765 19.5001 12.9198 19.2686 13.1148 19.0736L13.1149 19.0735L19.4695 12.7196L19.6891 12.5H19.9998H26.75ZM26 19.6896V14H20.3104L14.1754 20.1343L14.1753 20.1344C14.1196 20.1901 14.0754 20.2563 14.0452 20.3291C14.015 20.4019 13.9995 20.48 13.9995 20.5588C13.9995 20.6376 14.015 20.7157 14.0452 20.7885C14.0754 20.8613 14.1196 20.9275 14.1753 20.9832L14.1755 20.9833L18.9943 25.8022L19.0167 25.8245L19.017 25.8248C19.0727 25.8806 19.1389 25.9249 19.2117 25.955C19.2845 25.9852 19.3625 26.0008 19.4413 26.0008C19.5201 26.0009 19.5982 25.9854 19.671 25.9552C19.7438 25.9251 19.8099 25.8809 19.8656 25.8253L19.8657 25.8252L19.8658 25.8251L26 19.6896ZM21.3498 17.3001C21.3498 18.0457 21.9543 18.6502 22.6999 18.6502C23.4455 18.6502 24.0499 18.0457 24.0499 17.3001C24.0499 16.5545 23.4455 15.9501 22.6999 15.9501C21.9543 15.9501 21.3498 16.5545 21.3498 17.3001Z" fill="#98A2B3"/>
<rect x="0.5" y="0.5" width="39" height="39" rx="7.5" stroke="#E4E7EC"/>
</g>
<defs>
<clipPath id="clip0_16931_82968">
<rect width="40" height="40" rx="8" fill="white"/>
</clipPath>
</defs>
</svg>
