<svg width="20" height="20" viewBox="0 0 20 20" fill="none" xmlns="http://www.w3.org/2000/svg">
<path d="M18 10.3333C17.9996 10.4946 17.9488 10.6517 17.8547 10.7827C16.9323 12.0671 13.9902 15.6673 10.0007 15.6673C5.97695 15.6673 3.05492 12.062 2.1434 10.7798C2.05049 10.6493 2.00038 10.4932 2 10.333C1.99962 10.1729 2.04898 10.0165 2.14127 9.88561C3.04585 8.60207 5.94522 5 10.0007 5C14.0209 5 16.9403 8.59674 17.8568 9.88322C17.9503 10.0146 18.0004 10.172 18 10.3333ZM5.71522 8.00828C4.70517 8.80511 3.9338 9.71243 3.46761 10.3299C3.93781 10.948 4.71581 11.8579 5.73012 12.657C6.94445 13.6138 8.39635 14.3339 10.0007 14.3339C11.5865 14.3339 13.0349 13.6164 14.254 12.6583C15.2703 11.8595 16.0541 10.9499 16.5299 10.3302C16.0577 9.71085 15.2802 8.80353 14.268 8.00697C13.0543 7.05183 11.6038 6.33333 10.0007 6.33333C8.37845 6.33333 6.92417 7.05452 5.71522 8.00828ZM10.0017 13.5338C11.7691 13.5338 13.2019 12.101 13.2019 10.3336C13.2019 8.56622 11.7691 7.13345 10.0017 7.13345C8.23431 7.13345 6.80154 8.56622 6.80154 10.3336C6.80154 12.101 8.23431 13.5338 10.0017 13.5338ZM11.8686 10.3336C11.8686 11.3647 11.0328 12.2005 10.0017 12.2005C8.97069 12.2005 8.13487 11.3647 8.13487 10.3336C8.13487 9.3026 8.97069 8.46678 10.0017 8.46678C11.0328 8.46678 11.8686 9.3026 11.8686 10.3336Z" fill="#667085"/>
<path d="M18 10.3333C17.9996 10.4946 17.9488 10.6517 17.8547 10.7827C16.9323 12.0671 13.9902 15.6673 10.0007 15.6673C5.97695 15.6673 3.05492 12.062 2.1434 10.7798C2.05049 10.6493 2.00038 10.4932 2 10.333C1.99962 10.1729 2.04898 10.0165 2.14127 9.88561C3.04585 8.60207 5.94522 5 10.0007 5C14.0209 5 16.9403 8.59674 17.8568 9.88322C17.9503 10.0146 18.0004 10.172 18 10.3333ZM5.71522 8.00828C4.70517 8.80511 3.9338 9.71243 3.46761 10.3299C3.93781 10.948 4.71581 11.8579 5.73012 12.657C6.94445 13.6138 8.39635 14.3339 10.0007 14.3339C11.5865 14.3339 13.0349 13.6164 14.254 12.6583C15.2703 11.8595 16.0541 10.9499 16.5299 10.3302C16.0577 9.71085 15.2802 8.80353 14.268 8.00697C13.0543 7.05183 11.6038 6.33333 10.0007 6.33333C8.37845 6.33333 6.92417 7.05452 5.71522 8.00828ZM10.0017 13.5338C11.7691 13.5338 13.2019 12.101 13.2019 10.3336C13.2019 8.56622 11.7691 7.13345 10.0017 7.13345C8.23431 7.13345 6.80154 8.56622 6.80154 10.3336C6.80154 12.101 8.23431 13.5338 10.0017 13.5338ZM11.8686 10.3336C11.8686 11.3647 11.0328 12.2005 10.0017 12.2005C8.97069 12.2005 8.13487 11.3647 8.13487 10.3336C8.13487 9.3026 8.97069 8.46678 10.0017 8.46678C11.0328 8.46678 11.8686 9.3026 11.8686 10.3336Z" stroke="#667085"/>
</svg>
