<svg width="53" height="60" viewBox="0 0 53 60" fill="none" xmlns="http://www.w3.org/2000/svg">
<rect x="8.5" width="36" height="36" rx="18" fill="#D0D5DD"/>
<path d="M22.4999 24.8C22.4999 24.3584 22.1423 24 21.6999 24H20.0999C19.2175 24 18.4999 23.2824 18.4999 22.4V20.8C18.4999 20.3584 18.1423 20 17.6999 20C17.2575 20 16.8999 20.3584 16.8999 20.8V22.4C16.8999 24.1648 18.3351 25.6 20.0999 25.6H21.6999C22.1423 25.6 22.4999 25.2416 22.4999 24.8ZM36.0999 22.4V20.8C36.0999 20.3584 35.7423 20 35.2999 20C34.8575 20 34.4999 20.3584 34.4999 20.8V22.4C34.4999 23.2824 33.7823 24 32.8999 24H31.2999C30.8575 24 30.4999 24.3584 30.4999 24.8C30.4999 25.2416 30.8575 25.6 31.2999 25.6H32.8999C34.6647 25.6 36.0999 24.1648 36.0999 22.4ZM36.0999 14.4V12.8C36.0999 11.0352 34.6647 9.59998 32.8999 9.59998H31.2999C30.8575 9.59998 30.4999 9.95838 30.4999 10.4C30.4999 10.8416 30.8575 11.2 31.2999 11.2H32.8999C33.7823 11.2 34.4999 11.9176 34.4999 12.8V14.4C34.4999 14.8416 34.8575 15.2 35.2999 15.2C35.7423 15.2 36.0999 14.8416 36.0999 14.4ZM18.4999 14.4V12.8C18.4999 11.9176 19.2175 11.2 20.0999 11.2H21.6999C22.1423 11.2 22.4999 10.8416 22.4999 10.4C22.4999 9.95838 22.1423 9.59998 21.6999 9.59998H20.0999C18.3351 9.59998 16.8999 11.0352 16.8999 12.8V14.4C16.8999 14.8416 17.2575 15.2 17.6999 15.2C18.1423 15.2 18.4999 14.8416 18.4999 14.4ZM28.0999 22.4C27.8791 22.4 27.6999 22.2208 27.6999 22V13.2C27.6999 12.9792 27.8791 12.8 28.0999 12.8C28.3207 12.8 28.4999 12.9792 28.4999 13.2V22C28.4999 22.2208 28.3207 22.4 28.0999 22.4Z" fill="white"/>
<path d="M27.6999 22C27.6999 22.2208 27.8791 22.4 28.0999 22.4C28.3207 22.4 28.4999 22.2208 28.4999 22V13.2C28.4999 12.9792 28.3207 12.8 28.0999 12.8C27.8791 12.8 27.6999 12.9792 27.6999 13.2V22Z" fill="white"/>
<path d="M25.2999 22C25.2999 22.2208 25.4791 22.4 25.6999 22.4C25.9207 22.4 26.0999 22.2208 26.0999 22V13.2C26.0999 12.9792 25.9207 12.8 25.6999 12.8C25.4791 12.8 25.2999 12.9792 25.2999 13.2V22Z" fill="white"/>
<path d="M22.8999 22C22.8999 22.2208 23.0791 22.4 23.2999 22.4C23.5207 22.4 23.6999 22.2208 23.6999 22V13.2C23.6999 12.9792 23.5207 12.8 23.2999 12.8C23.0791 12.8 22.8999 12.9792 22.8999 13.2V22Z" fill="white"/>
<path d="M20.4999 22C20.4999 22.2208 20.6791 22.4 20.8999 22.4C21.1207 22.4 21.2999 22.2208 21.2999 22V13.2C21.2999 12.9792 21.1207 12.8 20.8999 12.8C20.6791 12.8 20.4999 12.9792 20.4999 13.2V22Z" fill="white"/>
<path d="M30.0999 22C30.0999 22.2208 30.2791 22.4 30.4999 22.4C30.7207 22.4 30.8999 22.2208 30.8999 22V13.2C30.8999 12.9792 30.7207 12.8 30.4999 12.8C30.2791 12.8 30.0999 12.9792 30.0999 13.2V22Z" fill="white"/>
<path d="M32.4999 22C32.4999 22.2208 32.6791 22.4 32.8999 22.4C33.1207 22.4 33.2999 22.2208 33.2999 22V13.2C33.2999 12.9792 33.1207 12.8 32.8999 12.8C32.6791 12.8 32.4999 12.9792 32.4999 13.2V22Z" fill="white"/>
<path d="M4.77736 50.375C5.17736 50.375 5.52736 50.3275 5.82736 50.2325C6.12736 50.1325 6.37736 49.995 6.57736 49.82C6.77736 49.645 6.92736 49.4375 7.02736 49.1975C7.12736 48.9525 7.17736 48.6825 7.17736 48.3875C7.17736 47.7975 6.98236 47.3475 6.59236 47.0375C6.20236 46.7275 5.61236 46.5725 4.82236 46.5725H3.39736V50.375H4.77736ZM9.86236 56H8.29486C7.98486 56 7.75986 55.88 7.61986 55.64L5.09986 52.0025C5.01486 51.8775 4.92236 51.7875 4.82236 51.7325C4.72236 51.6775 4.57236 51.65 4.37236 51.65H3.39736V56H1.64236V45.2H4.82236C5.53236 45.2 6.14236 45.2725 6.65236 45.4175C7.16736 45.5625 7.58986 45.77 7.91986 46.04C8.24986 46.305 8.49236 46.625 8.64736 47C8.80736 47.375 8.88736 47.7925 8.88736 48.2525C8.88736 48.6275 8.82986 48.9775 8.71486 49.3025C8.60486 49.6275 8.44236 49.9225 8.22736 50.1875C8.01736 50.4525 7.75736 50.6825 7.44736 50.8775C7.13736 51.0725 6.78486 51.225 6.38986 51.335C6.60486 51.465 6.78986 51.6475 6.94486 51.8825L9.86236 56ZM15.3833 51.3125C15.3833 51.0425 15.3433 50.7925 15.2633 50.5625C15.1883 50.3275 15.0758 50.125 14.9258 49.955C14.7758 49.78 14.5883 49.645 14.3633 49.55C14.1433 49.45 13.8883 49.4 13.5983 49.4C13.0133 49.4 12.5533 49.5675 12.2183 49.9025C11.8833 50.2375 11.6708 50.7075 11.5808 51.3125H15.3833ZM11.5358 52.3025C11.5558 52.7375 11.6233 53.115 11.7383 53.435C11.8533 53.75 12.0058 54.0125 12.1958 54.2225C12.3908 54.4325 12.6208 54.59 12.8858 54.695C13.1558 54.795 13.4558 54.845 13.7858 54.845C14.1008 54.845 14.3733 54.81 14.6033 54.74C14.8333 54.665 15.0333 54.585 15.2033 54.5C15.3733 54.41 15.5183 54.33 15.6383 54.26C15.7583 54.185 15.8683 54.1475 15.9683 54.1475C16.0983 54.1475 16.1983 54.1975 16.2683 54.2975L16.7258 54.89C16.5358 55.115 16.3208 55.305 16.0808 55.46C15.8408 55.615 15.5858 55.7425 15.3158 55.8425C15.0458 55.9375 14.7683 56.005 14.4833 56.045C14.1983 56.09 13.9208 56.1125 13.6508 56.1125C13.1208 56.1125 12.6283 56.025 12.1733 55.85C11.7233 55.67 11.3308 55.4075 10.9958 55.0625C10.6658 54.7175 10.4058 54.29 10.2158 53.78C10.0308 53.27 9.9383 52.6825 9.9383 52.0175C9.9383 51.4875 10.0208 50.9925 10.1858 50.5325C10.3558 50.0725 10.5958 49.6725 10.9058 49.3325C11.2208 48.9925 11.6008 48.725 12.0458 48.53C12.4958 48.33 13.0033 48.23 13.5683 48.23C14.0383 48.23 14.4733 48.3075 14.8733 48.4625C15.2733 48.6125 15.6183 48.835 15.9083 49.13C16.1983 49.425 16.4233 49.7875 16.5833 50.2175C16.7483 50.6425 16.8308 51.1275 16.8308 51.6725C16.8308 51.9225 16.8033 52.09 16.7483 52.175C16.6933 52.26 16.5933 52.3025 16.4483 52.3025H11.5358ZM18.2446 50.8025H22.0471V52.1675H18.2446V50.8025ZM28.4831 49.7375C28.4431 49.8075 28.3981 49.8575 28.3481 49.8875C28.2981 49.9175 28.2356 49.9325 28.1606 49.9325C28.0756 49.9325 27.9831 49.9075 27.8831 49.8575C27.7831 49.8025 27.6656 49.7425 27.5306 49.6775C27.3956 49.6125 27.2356 49.555 27.0506 49.505C26.8706 49.45 26.6581 49.4225 26.4131 49.4225C26.2131 49.4225 26.0306 49.4475 25.8656 49.4975C25.7056 49.5425 25.5681 49.61 25.4531 49.7C25.3431 49.785 25.2581 49.8875 25.1981 50.0075C25.1381 50.1225 25.1081 50.2475 25.1081 50.3825C25.1081 50.5625 25.1631 50.7125 25.2731 50.8325C25.3831 50.9525 25.5281 51.0575 25.7081 51.1475C25.8881 51.2325 26.0931 51.31 26.3231 51.38C26.5531 51.45 26.7881 51.525 27.0281 51.605C27.2681 51.685 27.5031 51.7775 27.7331 51.8825C27.9631 51.9875 28.1681 52.1175 28.3481 52.2725C28.5281 52.4225 28.6731 52.6075 28.7831 52.8275C28.8931 53.0425 28.9481 53.305 28.9481 53.615C28.9481 53.975 28.8831 54.3075 28.7531 54.6125C28.6231 54.9175 28.4331 55.1825 28.1831 55.4075C27.9331 55.6325 27.6206 55.8075 27.2456 55.9325C26.8756 56.0575 26.4506 56.12 25.9706 56.12C25.7056 56.12 25.4481 56.095 25.1981 56.045C24.9531 56 24.7181 55.9375 24.4931 55.8575C24.2731 55.7725 24.0656 55.6725 23.8706 55.5575C23.6806 55.4425 23.5106 55.3175 23.3606 55.1825L23.7356 54.5675C23.7806 54.4925 23.8356 54.435 23.9006 54.395C23.9706 54.35 24.0556 54.3275 24.1556 54.3275C24.2606 54.3275 24.3631 54.3625 24.4631 54.4325C24.5681 54.4975 24.6881 54.57 24.8231 54.65C24.9631 54.73 25.1306 54.805 25.3256 54.875C25.5206 54.94 25.7631 54.9725 26.0531 54.9725C26.2931 54.9725 26.5006 54.945 26.6756 54.89C26.8506 54.83 26.9956 54.75 27.1106 54.65C27.2256 54.55 27.3106 54.4375 27.3656 54.3125C27.4206 54.1825 27.4481 54.045 27.4481 53.9C27.4481 53.705 27.3931 53.545 27.2831 53.42C27.1731 53.295 27.0256 53.1875 26.8406 53.0975C26.6606 53.0075 26.4531 52.9275 26.2181 52.8575C25.9881 52.7875 25.7531 52.7125 25.5131 52.6325C25.2731 52.5525 25.0356 52.46 24.8006 52.355C24.5706 52.25 24.3631 52.1175 24.1781 51.9575C23.9981 51.7925 23.8531 51.595 23.7431 51.365C23.6331 51.13 23.5781 50.845 23.5781 50.51C23.5781 50.205 23.6381 49.915 23.7581 49.64C23.8831 49.365 24.0631 49.1225 24.2981 48.9125C24.5381 48.7025 24.8306 48.5375 25.1756 48.4175C25.5256 48.2925 25.9281 48.23 26.3831 48.23C26.8981 48.23 27.3656 48.3125 27.7856 48.4775C28.2056 48.6425 28.5581 48.8675 28.8431 49.1525L28.4831 49.7375ZM35.871 49.85C35.821 49.915 35.7735 49.965 35.7285 50C35.6835 50.035 35.6185 50.0525 35.5335 50.0525C35.4485 50.0525 35.3585 50.0225 35.2635 49.9625C35.1735 49.9025 35.0635 49.8375 34.9335 49.7675C34.8085 49.6925 34.656 49.625 34.476 49.565C34.296 49.505 34.071 49.475 33.801 49.475C33.451 49.475 33.1435 49.5375 32.8785 49.6625C32.6185 49.7875 32.3985 49.9675 32.2185 50.2025C32.0435 50.4325 31.911 50.715 31.821 51.05C31.736 51.38 31.6935 51.7525 31.6935 52.1675C31.6935 52.5975 31.741 52.98 31.836 53.315C31.931 53.65 32.066 53.9325 32.241 54.1625C32.421 54.3925 32.636 54.5675 32.886 54.6875C33.141 54.8075 33.426 54.8675 33.741 54.8675C34.051 54.8675 34.3035 54.83 34.4985 54.755C34.6935 54.68 34.856 54.5975 34.986 54.5075C35.116 54.4175 35.226 54.335 35.316 54.26C35.411 54.185 35.511 54.1475 35.616 54.1475C35.746 54.1475 35.846 54.1975 35.916 54.2975L36.3735 54.89C36.1885 55.115 35.9835 55.305 35.7585 55.46C35.5335 55.615 35.296 55.7425 35.046 55.8425C34.796 55.9375 34.536 56.005 34.266 56.045C33.996 56.09 33.7235 56.1125 33.4485 56.1125C32.9735 56.1125 32.5285 56.025 32.1135 55.85C31.7035 55.67 31.3435 55.4125 31.0335 55.0775C30.7285 54.7375 30.486 54.325 30.306 53.84C30.131 53.35 30.0435 52.7925 30.0435 52.1675C30.0435 51.6025 30.1235 51.08 30.2835 50.6C30.4435 50.115 30.676 49.6975 30.981 49.3475C31.291 48.9975 31.6735 48.725 32.1285 48.53C32.5835 48.33 33.1085 48.23 33.7035 48.23C34.2585 48.23 34.746 48.32 35.166 48.5C35.591 48.68 35.9685 48.935 36.2985 49.265L35.871 49.85ZM41.758 52.655C41.183 52.675 40.698 52.7225 40.303 52.7975C39.908 52.8675 39.588 52.96 39.343 53.075C39.098 53.185 38.9205 53.3175 38.8105 53.4725C38.7055 53.6275 38.653 53.7975 38.653 53.9825C38.653 54.1625 38.6805 54.3175 38.7355 54.4475C38.7955 54.5725 38.8755 54.6775 38.9755 54.7625C39.0805 54.8425 39.2005 54.9025 39.3355 54.9425C39.4755 54.9775 39.628 54.995 39.793 54.995C40.213 54.995 40.573 54.9175 40.873 54.7625C41.178 54.6025 41.473 54.3725 41.758 54.0725V52.655ZM37.483 49.415C38.348 48.61 39.378 48.2075 40.573 48.2075C41.013 48.2075 41.403 48.28 41.743 48.425C42.088 48.565 42.3755 48.765 42.6055 49.025C42.8405 49.285 43.018 49.595 43.138 49.955C43.263 50.31 43.3255 50.705 43.3255 51.14V56H42.6055C42.4505 56 42.333 55.9775 42.253 55.9325C42.173 55.8825 42.1055 55.785 42.0505 55.64L41.893 55.0175C41.698 55.1925 41.5055 55.35 41.3155 55.49C41.1255 55.625 40.928 55.74 40.723 55.835C40.523 55.93 40.3055 56 40.0705 56.045C39.8405 56.095 39.5855 56.12 39.3055 56.12C38.9955 56.12 38.7055 56.0775 38.4355 55.9925C38.1705 55.9075 37.9405 55.78 37.7455 55.61C37.5505 55.435 37.3955 55.22 37.2805 54.965C37.1705 54.71 37.1155 54.41 37.1155 54.065C37.1155 53.77 37.193 53.4825 37.348 53.2025C37.508 52.9225 37.768 52.6725 38.128 52.4525C38.493 52.2275 38.9705 52.0425 39.5605 51.8975C40.1555 51.7525 40.888 51.67 41.758 51.65V51.14C41.758 50.59 41.6405 50.18 41.4055 49.91C41.1705 49.64 40.8255 49.505 40.3705 49.505C40.0605 49.505 39.8005 49.545 39.5905 49.625C39.3805 49.7 39.198 49.7825 39.043 49.8725C38.888 49.9625 38.7505 50.0475 38.6305 50.1275C38.5105 50.2025 38.383 50.24 38.248 50.24C38.138 50.24 38.043 50.2125 37.963 50.1575C37.888 50.0975 37.8255 50.025 37.7755 49.94L37.483 49.415ZM46.7219 49.3625C46.8869 49.1925 47.0569 49.04 47.2319 48.905C47.4119 48.765 47.6019 48.645 47.8019 48.545C48.0019 48.445 48.2144 48.3675 48.4394 48.3125C48.6644 48.2575 48.9094 48.23 49.1744 48.23C49.5944 48.23 49.9619 48.3 50.2769 48.44C50.5969 48.58 50.8644 48.7775 51.0794 49.0325C51.2994 49.2875 51.4644 49.595 51.5744 49.955C51.6844 50.31 51.7394 50.7025 51.7394 51.1325V56H50.1344V51.1325C50.1344 50.6175 50.0144 50.2175 49.7744 49.9325C49.5394 49.6475 49.1794 49.505 48.6944 49.505C48.3344 49.505 47.9994 49.5875 47.6894 49.7525C47.3844 49.9175 47.0969 50.1425 46.8269 50.4275V56H45.2144V48.35H46.1894C46.4094 48.35 46.5494 48.4525 46.6094 48.6575L46.7219 49.3625Z" fill="#98A2B3"/>
</svg>
