<svg width="110" height="24" viewBox="0 0 110 24" fill="none" xmlns="http://www.w3.org/2000/svg">
<rect x="0.500244" y="0.5" width="33" height="23" rx="3.5" fill="white"/>
<path fill-rule="evenodd" clip-rule="evenodd" d="M10.7505 15.8583H8.6908L7.14625 9.79238C7.07294 9.51335 6.91728 9.26667 6.68831 9.15041C6.11688 8.85824 5.48721 8.62571 4.80029 8.50844V8.2749H8.11837C8.57632 8.2749 8.91977 8.62571 8.97702 9.03314L9.77842 13.4087L11.8372 8.2749H13.8397L10.7505 15.8583ZM14.9845 15.8583H13.0393L14.6411 8.2749H16.5863L14.9845 15.8583ZM19.103 10.3757C19.1602 9.96728 19.5037 9.73375 19.9044 9.73375C20.5341 9.67511 21.22 9.79238 21.7924 10.0835L22.1359 8.45082C21.5634 8.21728 20.9338 8.10001 20.3623 8.10001C18.4743 8.10001 17.1005 9.15041 17.1005 10.6082C17.1005 11.7173 18.0736 12.2996 18.7605 12.6504C19.5037 13.0002 19.7899 13.2338 19.7327 13.5836C19.7327 14.1083 19.1602 14.3418 18.5888 14.3418C17.9019 14.3418 17.215 14.1669 16.5863 13.8747L16.2429 15.5085C16.9298 15.7996 17.6729 15.9169 18.3598 15.9169C20.4768 15.9745 21.7924 14.9251 21.7924 13.35C21.7924 11.3665 19.103 11.2502 19.103 10.3757ZM28.6003 15.8583L27.0557 8.2749H25.3967C25.0532 8.2749 24.7098 8.50844 24.5953 8.85824L21.7352 15.8583H23.7377L24.1374 14.7502H26.5978L26.8268 15.8583H28.6003ZM25.6829 10.3171L26.2543 13.1751H24.6525L25.6829 10.3171Z" fill="#172B85"/>
<rect x="0.500244" y="0.5" width="33" height="23" rx="3.5" stroke="#F2F4F7"/>
<rect x="38.5002" y="0.5" width="33" height="23" rx="3.5" fill="white"/>
<path fill-rule="evenodd" clip-rule="evenodd" d="M55.1792 16.8294C53.9952 17.8275 52.4593 18.43 50.7809 18.43C47.0361 18.43 44.0002 15.4303 44.0002 11.73C44.0002 8.02966 47.0361 5.02997 50.7809 5.02997C52.4593 5.02997 53.9952 5.63247 55.1792 6.63051C56.3633 5.63247 57.8992 5.02997 59.5775 5.02997C63.3224 5.02997 66.3582 8.02966 66.3582 11.73C66.3582 15.4303 63.3224 18.43 59.5775 18.43C57.8992 18.43 56.3633 17.8275 55.1792 16.8294Z" fill="#ED0006"/>
<path fill-rule="evenodd" clip-rule="evenodd" d="M55.1792 16.8294C56.6371 15.6005 57.5616 13.7719 57.5616 11.73C57.5616 9.68801 56.6371 7.85941 55.1792 6.63051C56.3632 5.63247 57.8992 5.02997 59.5775 5.02997C63.3224 5.02997 66.3582 8.02966 66.3582 11.73C66.3582 15.4303 63.3224 18.43 59.5775 18.43C57.8992 18.43 56.3632 17.8275 55.1792 16.8294Z" fill="#F9A000"/>
<path fill-rule="evenodd" clip-rule="evenodd" d="M55.1793 16.8294C56.6372 15.6005 57.5616 13.7719 57.5616 11.73C57.5616 9.68803 56.6372 7.85944 55.1793 6.63054C53.7213 7.85944 52.7969 9.68803 52.7969 11.73C52.7969 13.7719 53.7213 15.6005 55.1793 16.8294Z" fill="#FF5E00"/>
<rect x="38.5002" y="0.5" width="33" height="23" rx="3.5" stroke="#F2F4F7"/>
<rect x="76.5002" y="0.5" width="33" height="23" rx="3.5" fill="white"/>
<path d="M105.898 5.45399L105.074 15.9178C104.995 16.9779 104.112 17.8025 103.052 17.8221H85.9718C81.751 17.8221 81.4565 16.1926 81.6724 13.1104L82.3596 5.45399H105.898Z" fill="white"/>
<path d="M88.9363 5.45399L88.0528 17.8221H83.7731C79.5522 17.8221 79.2578 16.1926 79.4737 13.1104L80.1608 5.45399H88.9363Z" fill="#510C76"/>
<path d="M89.9373 10.4601L89.7803 12.7178C89.7017 13.5423 90.3103 14.2687 91.1349 14.3472C91.1741 14.3472 91.233 14.3472 91.2723 14.3472H91.9594C92.8625 14.3276 93.6085 13.6209 93.6674 12.7178L93.9226 8.83067H91.6649C90.7422 8.85031 89.9962 9.55705 89.9373 10.4601ZM92.2931 12.7178C92.2735 12.8356 92.1754 12.9337 92.0576 12.9337H91.3704C91.2527 12.9337 91.1741 12.8552 91.1741 12.7374V12.7178L91.3312 10.4601C91.3508 10.3423 91.449 10.2442 91.5668 10.2442H92.4698L92.2931 12.7178Z" fill="#510C76"/>
<path d="M102.678 8.83067H100.382L100.126 12.7178C100.126 12.8748 100.126 13.0123 100.166 13.1497H100.067C99.3411 13.1497 98.9877 12.6393 99.0466 11.6969L99.1644 10.0478L99.2036 9.45889C99.2233 9.12515 98.968 8.8503 98.6343 8.81104C98.6147 8.81104 98.6147 8.81104 98.595 8.81104H97.8098L97.7705 9.45889L97.6723 11.0294V11.1276V11.2847L97.6527 11.4613V11.5399V11.638V11.6969L97.6331 12.0896C97.6134 12.4037 97.6331 12.7178 97.692 13.0319C97.5153 13.1301 97.3386 13.1693 97.1423 13.1693C96.5141 13.1693 95.7092 12.973 95.7092 11.8736L95.8269 9.47852C95.8662 9.14478 95.611 8.8503 95.2773 8.83067C95.2576 8.83067 95.238 8.83067 95.238 8.83067H94.4527L94.4134 9.47852L94.0404 15.1129C94.0208 15.4662 93.9619 16.3497 93.9619 16.3497H94.7276C95.0809 16.3497 95.395 16.0552 95.4147 15.7018L95.4932 14.3276C95.7092 14.4454 96.2588 14.5043 96.5926 14.5043C97.1423 14.5043 97.6527 14.2687 98.0061 13.8564C98.3398 14.2687 98.8503 14.5043 99.5177 14.5043C99.9693 14.5043 100.401 14.3669 100.755 14.1116C100.892 14.2491 101.049 14.3472 101.245 14.4061C101.363 14.4454 101.501 14.4454 101.618 14.4454H102.305C103.209 14.4258 103.955 13.719 104.033 12.8159L104.19 10.4797C104.269 9.65521 103.66 8.92883 102.836 8.8503C102.777 8.83067 102.718 8.83067 102.678 8.83067ZM102.639 12.7963C102.639 12.9141 102.521 13.0123 102.404 13.0123H101.717C101.599 13.0123 101.52 12.9337 101.52 12.8159V12.7963L101.677 10.2442H102.58C102.698 10.2442 102.777 10.3227 102.777 10.4405V10.4601L102.639 12.7963Z" fill="#510C76"/>
<path d="M90.7423 7.49571L90.7227 7.80982C90.703 8.1043 90.919 8.37915 91.2135 8.39878C91.2331 8.39878 91.2527 8.39878 91.2527 8.39878H91.508C91.8417 8.39878 92.0969 8.14356 92.1362 7.80982L92.1951 6.90675H91.3509C91.0368 6.90675 90.7619 7.16197 90.7423 7.49571Z" fill="#510C76"/>
<path d="M92.3326 7.49571L92.313 7.80982C92.2934 8.1043 92.5093 8.37915 92.8234 8.39878C92.8431 8.39878 92.8431 8.39878 92.8627 8.39878H93.0983C93.432 8.39878 93.6872 8.14356 93.7265 7.80982L93.7854 6.90675H92.9609C92.6271 6.90675 92.3523 7.16197 92.3326 7.49571Z" fill="#510C76"/>
<path d="M95.0418 8.37915H95.3559C95.6504 8.39878 95.9253 8.18283 95.9449 7.86872V7.84908L95.9645 7.59387C95.9842 7.26013 95.8075 6.90675 95.4934 6.90675H94.5314L94.4725 7.73129C94.4529 8.06504 94.7081 8.35951 95.0418 8.37915Z" fill="#EB6B24"/>
<path d="M95.7682 15.4466L95.7486 15.7607C95.7289 16.0552 95.9449 16.3301 96.2394 16.3497C96.259 16.3497 96.2786 16.3497 96.2982 16.3497H96.5535C96.8872 16.3497 97.1424 16.0945 97.1817 15.7607L97.2406 14.8577H96.416C96.0627 14.8577 95.7878 15.1325 95.7682 15.4466Z" fill="#510C76"/>
<path d="M97.4564 15.4466L97.4368 15.7607C97.4172 16.0552 97.6331 16.3301 97.9276 16.3497C97.9472 16.3497 97.9668 16.3497 97.9668 16.3497H98.2221C98.5558 16.3497 98.811 16.0945 98.8503 15.7607L98.9092 14.8577H98.0846C97.7509 14.8577 97.476 15.1325 97.4564 15.4466Z" fill="#510C76"/>
<path d="M98.4773 8.35951H98.3006C98.2614 8.35951 98.2614 8.33988 98.2614 8.32025L98.3203 7.57423C98.3203 7.51534 98.3203 7.45644 98.3203 7.39755C98.3203 7.31902 98.281 7.27976 98.2025 7.27976C98.1239 7.27976 98.065 7.27976 98.0061 7.27976C97.9865 7.27976 97.9865 7.27976 97.9865 7.29939C98.0061 7.41718 98.0061 7.53497 97.9865 7.63313C97.9669 7.79019 97.9669 7.96687 97.9472 8.12393C97.9472 8.18282 97.9472 8.24172 97.9276 8.30062C97.908 8.35951 97.908 8.33988 97.8687 8.33988H97.5153C97.4761 8.33988 97.4761 8.33988 97.4761 8.30062C97.4957 8.0454 97.5153 7.79019 97.535 7.53497C97.535 7.47608 97.535 7.41718 97.535 7.35828C97.535 7.29939 97.4957 7.26012 97.4565 7.26012H97.4368C97.3779 7.26012 97.2994 7.26012 97.2405 7.26012C97.2209 7.26012 97.2209 7.26012 97.2209 7.27976C97.2012 7.43681 97.2012 7.59387 97.1816 7.75092C97.162 7.90798 97.162 8.1043 97.1423 8.28098C97.1423 8.32025 97.1227 8.33988 97.0834 8.33988H96.7301C96.6908 8.33988 96.6712 8.32025 96.6908 8.28098C96.7104 8.02577 96.7301 7.75092 96.7497 7.49571C96.7693 7.31902 96.7693 7.14233 96.789 6.96565C96.789 6.92638 96.8086 6.92638 96.8479 6.90675C96.946 6.88712 97.0245 6.88712 97.1227 6.86749C97.2798 6.84785 97.4172 6.84785 97.5742 6.86749C97.6528 6.86749 97.7509 6.90675 97.8295 6.92638C97.8491 6.92638 97.8491 6.92638 97.8687 6.92638C98.0258 6.86749 98.2025 6.84785 98.3595 6.84785C98.438 6.84785 98.4969 6.86749 98.5755 6.88712C98.6933 6.92638 98.7914 7.02454 98.8111 7.14233C98.8307 7.24049 98.8307 7.35828 98.8111 7.45644L98.7718 8.1043C98.7718 8.16319 98.7718 8.22209 98.7522 8.28098C98.7325 8.33988 98.7325 8.32025 98.6933 8.32025L98.4773 8.35951Z" fill="#510C76"/>
<path d="M101.167 7.77055H100.774C100.754 7.77055 100.735 7.77055 100.735 7.80981C100.735 7.9276 100.774 7.9865 100.892 7.9865C100.99 7.9865 101.069 7.9865 101.167 7.9865H101.442C101.481 7.9865 101.5 7.9865 101.5 8.04539C101.5 8.12392 101.5 8.20245 101.481 8.30061C101.481 8.32024 101.461 8.33987 101.442 8.33987C101.304 8.3595 101.186 8.37914 101.049 8.37914C100.931 8.37914 100.813 8.37914 100.696 8.37914C100.617 8.37914 100.539 8.33987 100.46 8.30061C100.381 8.24171 100.323 8.16319 100.323 8.06503C100.303 7.9276 100.303 7.79018 100.323 7.65276C100.323 7.53496 100.342 7.41717 100.381 7.29938C100.401 7.18159 100.48 7.0638 100.597 7.0049C100.656 6.96564 100.735 6.94601 100.813 6.92638C100.99 6.90674 101.167 6.90674 101.324 6.92638C101.402 6.94601 101.481 6.96564 101.54 7.02454C101.599 7.08343 101.658 7.18159 101.658 7.27975C101.677 7.4368 101.677 7.59386 101.658 7.75092C101.658 7.77055 101.638 7.79018 101.618 7.79018H101.54L101.167 7.77055ZM100.774 7.4957H101.127C101.226 7.4957 101.226 7.4957 101.206 7.39754C101.206 7.33865 101.147 7.29938 101.088 7.27975C101.049 7.27975 100.99 7.27975 100.951 7.27975C100.872 7.27975 100.813 7.31901 100.794 7.39754C100.774 7.41717 100.774 7.45644 100.774 7.4957Z" fill="#510C76"/>
<path d="M99.7533 7.77056C99.6159 7.77056 99.4981 7.77056 99.3803 7.77056C99.341 7.77056 99.341 7.79019 99.341 7.80982C99.341 7.92761 99.3803 7.96688 99.4981 7.98651C99.5373 7.98651 99.5766 7.98651 99.5962 7.98651H100.048C100.087 7.98651 100.107 7.98651 100.087 8.02577C100.087 8.1043 100.067 8.20246 100.067 8.28099C100.067 8.30062 100.048 8.32025 100.028 8.32025C99.9103 8.33988 99.7729 8.33988 99.6551 8.35951C99.5177 8.35951 99.3803 8.35951 99.2232 8.33988C99.1643 8.33988 99.1054 8.30062 99.0465 8.28099C98.968 8.22209 98.9091 8.14356 98.8895 8.02577C98.8698 7.86872 98.8698 7.73129 98.8895 7.57424C98.8895 7.47608 98.9091 7.37792 98.9287 7.27976C98.9484 7.14234 99.0269 7.02454 99.1447 6.96565C99.2036 6.92638 99.2821 6.90675 99.3606 6.90675C99.5373 6.88712 99.714 6.88712 99.8907 6.90675C99.9692 6.92638 100.048 6.94602 100.107 7.00491C100.185 7.06381 100.224 7.16197 100.224 7.26013C100.224 7.37792 100.224 7.49571 100.224 7.59387C100.224 7.63313 100.224 7.6724 100.224 7.69203C100.224 7.71166 100.205 7.75092 100.166 7.75092L99.7533 7.77056ZM99.7925 7.49571C99.7925 7.45645 99.7925 7.41718 99.7925 7.37792C99.7925 7.31902 99.7337 7.27976 99.6944 7.27976C99.6551 7.27976 99.5962 7.27976 99.557 7.27976C99.4392 7.27976 99.3803 7.37792 99.3803 7.49571H99.7925Z" fill="#510C76"/>
<path d="M103.523 7.26012H103.268C103.228 7.26012 103.209 7.24049 103.228 7.22085C103.228 7.14233 103.248 7.04417 103.248 6.96564C103.248 6.94601 103.268 6.92638 103.287 6.92638C103.483 6.88711 103.699 6.86748 103.896 6.88711C103.994 6.88711 104.072 6.90674 104.171 6.92638C104.308 6.96564 104.406 7.10306 104.406 7.24049C104.406 7.41717 104.387 7.59386 104.367 7.79018L104.347 8.20245C104.347 8.28098 104.328 8.30061 104.249 8.32024C103.994 8.3595 103.739 8.37914 103.483 8.3595C103.425 8.3595 103.346 8.33987 103.287 8.33987C103.189 8.32024 103.11 8.22208 103.091 8.12392C103.071 7.9865 103.071 7.84907 103.13 7.73128C103.169 7.61349 103.287 7.51533 103.425 7.51533C103.503 7.4957 103.562 7.4957 103.641 7.4957C103.739 7.4957 103.837 7.4957 103.935 7.4957C103.955 7.4957 103.955 7.4957 103.955 7.47607V7.45644C103.955 7.35828 103.915 7.29938 103.798 7.29938L103.523 7.26012ZM103.915 7.73128C103.817 7.73128 103.719 7.73128 103.641 7.73128C103.582 7.73128 103.523 7.77055 103.523 7.82944C103.523 7.84907 103.523 7.86871 103.523 7.88834C103.523 7.94723 103.562 7.9865 103.601 7.9865C103.601 7.9865 103.601 7.9865 103.621 7.9865C103.719 7.9865 103.817 7.9865 103.896 7.96687C103.896 7.96687 103.915 7.96687 103.915 7.94723C103.896 7.88834 103.896 7.80981 103.915 7.73128Z" fill="#510C76"/>
<path d="M102.345 7.96687H102.934C102.953 7.96687 102.953 7.9865 102.953 8.00613C102.953 8.10429 102.934 8.20245 102.934 8.30061C102.934 8.33988 102.914 8.33988 102.875 8.33988H101.736C101.677 8.33988 101.677 8.32024 101.677 8.28098C101.677 8.24172 101.677 8.14356 101.697 8.08466C101.697 8.06503 101.717 8.0454 101.717 8.02577L102.266 7.37791L102.364 7.26012H101.834C101.775 7.26012 101.775 7.26012 101.775 7.20123L101.795 6.94601C101.795 6.90675 101.815 6.88712 101.854 6.88712H102.953C102.993 6.88712 103.012 6.90675 102.993 6.94601C102.993 7.02454 102.993 7.08343 102.973 7.16196C102.973 7.18159 102.973 7.20123 102.953 7.22086C102.757 7.45644 102.561 7.71166 102.364 7.94724L102.345 7.96687Z" fill="#510C76"/>
<path d="M99.989 14.9362C99.6356 14.9558 99.3608 15.2307 99.3411 15.5841L99.2822 16.3497H103.209C103.562 16.3301 103.837 16.0552 103.856 15.7018L103.915 14.9362H99.989Z" fill="#EB6B24"/>
<path d="M102.6 18.1166H83.773C81.7902 18.1166 80.5926 17.7828 79.8663 17.0172C79.0025 16.0749 79.0221 14.6025 79.1202 13.0515L79.827 5.06136L106.271 5.08099L105.427 15.4859C105.29 16.9583 104.072 18.0773 102.6 18.1166ZM80.4748 5.74847L79.827 13.1104C79.7092 14.7791 79.7681 15.8785 80.3767 16.546C80.946 17.1546 82.0258 17.4295 83.773 17.4295H102.6C103.719 17.3902 104.642 16.546 104.779 15.427L105.564 5.7681L80.4748 5.74847Z" fill="white" stroke="white" stroke-miterlimit="10"/>
<path d="M85.0099 14.3865H82.7718C82.4381 14.3865 82.1829 14.1313 82.1829 13.7975C82.1829 13.7779 82.1829 13.7583 82.1829 13.7386L82.497 9.41963C82.5362 9.06625 82.8307 8.79141 83.1841 8.77177H85.4025C85.7362 8.77177 85.9915 9.02699 85.9915 9.36073C85.9915 9.38036 85.9915 9.4 85.9915 9.41963L85.6773 13.7386C85.6577 14.092 85.3632 14.3865 85.0099 14.3865ZM83.1448 9.22331C83.027 9.22331 82.9485 9.30184 82.9289 9.41963L82.6148 13.7386C82.6148 13.8564 82.6933 13.935 82.8111 13.935H85.0491C85.1669 13.935 85.2454 13.8564 85.2651 13.7386L85.5792 9.41963C85.5792 9.30184 85.5007 9.22331 85.3829 9.22331H83.1448Z" fill="white"/>
<path d="M85.5791 13.0123L85.5398 13.4442H82.438L82.4773 13.0123H85.5791Z" fill="white"/>
<rect x="76.5002" y="0.5" width="33" height="23" rx="3.5" stroke="#F2F4F7"/>
</svg>
