<svg width="32" height="32" viewBox="0 0 32 32" fill="none" xmlns="http://www.w3.org/2000/svg">
<rect width="32" height="32" rx="16" fill="#FEF0C7"/>
<path d="M15.9998 13V16M15.9998 19H16.0073M14.7173 9.14497L8.36483 19.75C8.23386 19.9768 8.16456 20.2339 8.16382 20.4959C8.16309 20.7578 8.23095 21.0153 8.36065 21.2429C8.49035 21.4704 8.67738 21.66 8.90311 21.7929C9.12885 21.9257 9.38543 21.9971 9.64733 22H22.3523C22.6142 21.9971 22.8708 21.9257 23.0966 21.7929C23.3223 21.66 23.5093 21.4704 23.639 21.2429C23.7687 21.0153 23.8366 20.7578 23.8358 20.4959C23.8351 20.2339 23.7658 19.9768 23.6348 19.75L17.2823 9.14497C17.1486 8.92455 16.9604 8.74231 16.7357 8.61583C16.5111 8.48936 16.2576 8.42291 15.9998 8.42291C15.742 8.42291 15.4886 8.48936 15.2639 8.61583C15.0393 8.74231 14.851 8.92455 14.7173 9.14497Z" stroke="#FDB022" stroke-width="2" stroke-linecap="round" stroke-linejoin="round"/>
</svg>
