<svg width="20" height="20" viewBox="0 0 20 20" fill="none" xmlns="http://www.w3.org/2000/svg">
<path d="M12.4252 2.06644C13.6104 2.77169 14.4774 3.90735 14.8454 5.23645C15.2134 6.56556 15.0539 7.98542 14.4003 9.19977L9.68359 17.9831L4.96692 9.19977C4.31536 7.98499 4.15703 6.56581 4.52485 5.23729C4.89268 3.90878 5.75835 2.77314 6.94192 2.06644V2.06644C7.77087 1.57174 8.71824 1.31055 9.68359 1.31055C10.6489 1.31055 11.5963 1.57174 12.4252 2.06644V2.06644Z" stroke="#475467" stroke-width="1.5" stroke-linecap="round" stroke-linejoin="round"/>
<path d="M9.68323 8.54182C10.8108 8.54182 11.7249 7.62774 11.7249 6.50016C11.7249 5.37258 10.8108 4.4585 9.68323 4.4585C8.55565 4.4585 7.6416 5.37258 7.6416 6.50016C7.6416 7.62774 8.55565 8.54182 9.68323 8.54182Z" stroke="#475467" stroke-width="1.5" stroke-linecap="round" stroke-linejoin="round"/>
</svg>
