<svg width="16" height="22" viewBox="0 0 16 22" fill="none" xmlns="http://www.w3.org/2000/svg">
<path d="M2.19407 22H12.9272C14.3978 22 15.1213 21.2766 15.1213 19.6755V11.3854C15.1213 9.9504 14.5283 9.21509 13.3067 9.0965V6.28571C13.3067 2.05175 10.5078 0 7.56658 0C4.61348 0 1.81456 2.05175 1.81456 6.28571V9.14394C0.687871 9.32183 0 10.0453 0 11.3854V19.6755C0 21.2766 0.72345 22 2.19407 22ZM3.73585 6.06038C3.73585 3.30889 5.49111 1.83827 7.56658 1.83827C9.63019 1.83827 11.3854 3.30889 11.3854 6.06038V9.07278L3.73585 9.0965V6.06038Z" fill="#6F7278"/>
</svg>
