<svg width="199" height="209" viewBox="0 0 199 209" fill="none" xmlns="http://www.w3.org/2000/svg">
<path opacity="0.5" d="M181.505 165.454C178.263 165.453 175.087 166.367 172.344 168.09C168.949 163.106 164.224 159.172 158.704 156.735C153.185 154.297 147.091 153.454 141.116 154.301C135.14 155.148 129.522 157.651 124.899 161.526C120.276 165.401 116.834 170.493 114.962 176.223C113.835 174.846 112.416 173.736 110.806 172.974C109.196 172.213 107.437 171.819 105.655 171.822C105.398 171.822 105.152 171.822 104.895 171.822C103.374 170.49 101.6 169.479 99.6785 168.847C97.7574 168.215 95.7286 167.975 93.713 168.143C91.6973 168.311 89.7362 168.883 87.9464 169.824C86.1567 170.765 84.5749 172.056 83.2955 173.62C80.2996 164.454 74.1284 156.656 65.8911 151.627C57.6538 146.598 47.8906 144.669 38.3567 146.186C28.8228 147.704 20.1434 152.568 13.8788 159.904C7.61415 167.241 4.17513 176.569 4.17994 186.211H198.473C198.703 185.06 198.819 183.888 198.82 182.714C198.811 178.134 196.983 173.743 193.737 170.507C190.49 167.271 186.091 165.454 181.505 165.454Z" fill="url(#paint0_linear_18062_127177)"/>
<g opacity="0.4" filter="url(#filter0_dd_18062_127177)">
<rect x="117.842" y="66.6953" width="70.1939" height="101.211" rx="3.5698" fill="white"/>
<path d="M125.205 101.791C125.205 86.4742 137.622 74.0571 152.939 74.0571C168.256 74.0571 180.673 86.4742 180.673 101.791V135.103C180.673 135.966 179.974 136.665 179.111 136.665H126.766C125.904 136.665 125.205 135.966 125.205 135.103V101.791Z" fill="url(#paint1_linear_18062_127177)"/>
<path d="M151.506 111.379L146.921 106.795C146.802 106.676 146.708 106.535 146.644 106.38C146.579 106.225 146.546 106.058 146.546 105.89C146.546 105.722 146.579 105.556 146.644 105.401C146.708 105.246 146.802 105.105 146.921 104.986L152.939 98.9688H159.332V105.361L153.314 111.38C153.195 111.499 153.054 111.593 152.899 111.657C152.744 111.721 152.578 111.755 152.41 111.754C152.242 111.754 152.076 111.721 151.92 111.657C151.765 111.593 151.624 111.498 151.506 111.379Z" fill="#E4E7EC" stroke="#98A2B3" stroke-width="0.710317" stroke-miterlimit="10" stroke-linecap="square"/>
<path d="M155.495 104.082C154.789 104.082 154.216 103.51 154.216 102.804C154.216 102.098 154.789 101.525 155.495 101.525C156.201 101.525 156.773 102.098 156.773 102.804C156.773 103.51 156.201 104.082 155.495 104.082Z" fill="#D0D5DD" stroke="#98A2B3" stroke-width="0.710317" stroke-miterlimit="10" stroke-linecap="square"/>
<path d="M125.205 101.791C125.205 86.4742 137.622 74.0571 152.939 74.0571C168.256 74.0571 180.673 86.4742 180.673 101.791V135.103C180.673 135.966 179.974 136.665 179.111 136.665H126.766C125.904 136.665 125.205 135.966 125.205 135.103V101.791Z" stroke="url(#paint2_linear_18062_127177)" stroke-width="0.446225"/>
<path d="M126.604 146.397C126.752 146.397 126.882 146.377 126.995 146.338C127.109 146.299 127.205 146.244 127.281 146.175C127.36 146.103 127.419 146.018 127.458 145.92C127.497 145.822 127.517 145.714 127.517 145.596C127.517 145.352 127.441 145.161 127.289 145.023C127.139 144.886 126.911 144.817 126.604 144.817H125.988V146.397H126.604ZM126.604 144.407C126.847 144.407 127.057 144.436 127.236 144.493C127.416 144.549 127.565 144.628 127.683 144.731C127.801 144.835 127.888 144.96 127.945 145.106C128.004 145.253 128.034 145.416 128.034 145.596C128.034 145.775 128.002 145.938 127.94 146.086C127.877 146.234 127.786 146.362 127.664 146.469C127.545 146.576 127.396 146.66 127.217 146.721C127.04 146.78 126.836 146.809 126.604 146.809H125.988V148.244H125.471V144.407H126.604ZM128.975 146.075C129.061 145.89 129.166 145.745 129.291 145.642C129.416 145.536 129.569 145.484 129.749 145.484C129.806 145.484 129.86 145.49 129.912 145.503C129.966 145.515 130.013 145.535 130.054 145.561L130.019 145.918C130.009 145.962 129.982 145.984 129.939 145.984C129.914 145.984 129.877 145.979 129.829 145.968C129.781 145.958 129.727 145.952 129.666 145.952C129.58 145.952 129.503 145.965 129.436 145.99C129.37 146.015 129.31 146.052 129.256 146.102C129.204 146.15 129.157 146.211 129.114 146.284C129.073 146.356 129.036 146.438 129.002 146.531V148.244H128.523V145.532H128.796C128.847 145.532 128.883 145.542 128.903 145.561C128.922 145.581 128.936 145.615 128.943 145.663L128.975 146.075ZM131.507 145.489C131.705 145.489 131.883 145.522 132.042 145.588C132.201 145.654 132.337 145.748 132.449 145.869C132.561 145.991 132.647 146.138 132.706 146.311C132.767 146.482 132.797 146.674 132.797 146.887C132.797 147.101 132.767 147.294 132.706 147.465C132.647 147.636 132.561 147.783 132.449 147.904C132.337 148.025 132.201 148.119 132.042 148.185C131.883 148.249 131.705 148.282 131.507 148.282C131.307 148.282 131.126 148.249 130.966 148.185C130.807 148.119 130.671 148.025 130.559 147.904C130.446 147.783 130.36 147.636 130.299 147.465C130.24 147.294 130.211 147.101 130.211 146.887C130.211 146.674 130.24 146.482 130.299 146.311C130.36 146.138 130.446 145.991 130.559 145.869C130.671 145.748 130.807 145.654 130.966 145.588C131.126 145.522 131.307 145.489 131.507 145.489ZM131.507 147.909C131.774 147.909 131.974 147.82 132.106 147.642C132.238 147.461 132.304 147.211 132.304 146.889C132.304 146.566 132.238 146.315 132.106 146.134C131.974 145.954 131.774 145.864 131.507 145.864C131.371 145.864 131.252 145.887 131.15 145.934C131.05 145.98 130.967 146.047 130.899 146.134C130.833 146.222 130.783 146.33 130.749 146.458C130.717 146.585 130.701 146.729 130.701 146.889C130.701 147.211 130.767 147.461 130.899 147.642C131.033 147.82 131.235 147.909 131.507 147.909ZM135.169 146.177C135.079 146.058 134.983 145.975 134.879 145.928C134.776 145.88 134.66 145.856 134.531 145.856C134.28 145.856 134.086 145.946 133.95 146.126C133.815 146.307 133.747 146.564 133.747 146.897C133.747 147.074 133.762 147.226 133.792 147.353C133.823 147.478 133.867 147.581 133.926 147.663C133.985 147.743 134.057 147.802 134.143 147.84C134.229 147.877 134.326 147.896 134.435 147.896C134.592 147.896 134.729 147.86 134.845 147.789C134.962 147.718 135.07 147.617 135.169 147.486V146.177ZM135.645 144.3V148.244H135.361C135.293 148.244 135.251 148.211 135.233 148.145L135.19 147.816C135.074 147.955 134.942 148.067 134.794 148.153C134.646 148.239 134.474 148.282 134.28 148.282C134.124 148.282 133.983 148.252 133.857 148.193C133.73 148.133 133.622 148.044 133.533 147.928C133.443 147.812 133.375 147.668 133.326 147.494C133.278 147.321 133.254 147.122 133.254 146.897C133.254 146.698 133.281 146.512 133.335 146.341C133.388 146.167 133.465 146.017 133.565 145.891C133.665 145.764 133.787 145.665 133.932 145.594C134.078 145.52 134.242 145.484 134.424 145.484C134.59 145.484 134.732 145.512 134.85 145.569C134.969 145.625 135.076 145.702 135.169 145.802V144.3H135.645ZM138.628 145.532V148.244H138.344C138.276 148.244 138.234 148.211 138.216 148.145L138.178 147.853C138.06 147.984 137.928 148.089 137.782 148.169C137.636 148.248 137.468 148.287 137.279 148.287C137.13 148.287 136.999 148.263 136.885 148.215C136.773 148.165 136.678 148.095 136.601 148.006C136.525 147.917 136.467 147.809 136.427 147.682C136.39 147.555 136.371 147.415 136.371 147.262V145.532H136.848V147.262C136.848 147.467 136.894 147.626 136.987 147.738C137.081 147.851 137.225 147.907 137.418 147.907C137.559 147.907 137.69 147.874 137.811 147.808C137.935 147.74 138.048 147.647 138.151 147.529V145.532H138.628ZM141.271 146.014C141.257 146.034 141.243 146.049 141.228 146.059C141.214 146.07 141.194 146.075 141.169 146.075C141.143 146.075 141.113 146.065 141.081 146.043C141.049 146.02 141.009 145.995 140.961 145.968C140.914 145.942 140.856 145.918 140.787 145.896C140.719 145.873 140.635 145.861 140.535 145.861C140.401 145.861 140.283 145.885 140.182 145.934C140.08 145.98 139.994 146.048 139.924 146.137C139.857 146.226 139.805 146.334 139.769 146.461C139.735 146.588 139.718 146.73 139.718 146.887C139.718 147.051 139.737 147.197 139.775 147.326C139.812 147.453 139.865 147.56 139.933 147.647C140.002 147.733 140.085 147.799 140.182 147.845C140.28 147.89 140.389 147.912 140.511 147.912C140.627 147.912 140.722 147.899 140.797 147.872C140.872 147.843 140.934 147.812 140.982 147.778C141.032 147.744 141.073 147.714 141.105 147.687C141.139 147.659 141.172 147.644 141.204 147.644C141.244 147.644 141.274 147.66 141.295 147.69L141.429 147.864C141.37 147.937 141.303 148 141.228 148.051C141.153 148.103 141.072 148.147 140.985 148.183C140.899 148.216 140.809 148.241 140.714 148.258C140.62 148.274 140.523 148.282 140.425 148.282C140.256 148.282 140.098 148.25 139.951 148.188C139.807 148.125 139.681 148.035 139.574 147.918C139.467 147.798 139.383 147.652 139.322 147.478C139.261 147.305 139.231 147.108 139.231 146.887C139.231 146.685 139.259 146.499 139.314 146.327C139.371 146.156 139.453 146.009 139.56 145.885C139.669 145.76 139.802 145.663 139.959 145.594C140.118 145.524 140.3 145.489 140.505 145.489C140.696 145.489 140.864 145.52 141.009 145.583C141.155 145.644 141.285 145.73 141.397 145.843L141.271 146.014ZM142.773 148.287C142.559 148.287 142.394 148.227 142.278 148.108C142.164 147.988 142.107 147.816 142.107 147.591V145.931H141.78C141.752 145.931 141.727 145.923 141.708 145.907C141.688 145.889 141.678 145.862 141.678 145.826V145.636L142.123 145.58L142.233 144.742C142.238 144.715 142.25 144.694 142.267 144.678C142.287 144.66 142.312 144.651 142.342 144.651H142.583V145.586H143.368V145.931H142.583V147.559C142.583 147.673 142.611 147.758 142.666 147.813C142.722 147.868 142.793 147.896 142.88 147.896C142.93 147.896 142.973 147.89 143.009 147.877C143.046 147.863 143.079 147.848 143.105 147.832C143.132 147.816 143.154 147.801 143.172 147.789C143.192 147.775 143.209 147.768 143.223 147.768C143.248 147.768 143.27 147.783 143.29 147.813L143.429 148.041C143.347 148.117 143.248 148.178 143.132 148.223C143.016 148.266 142.897 148.287 142.773 148.287ZM145.68 145.926C145.739 145.86 145.801 145.8 145.867 145.746C145.933 145.693 146.003 145.647 146.076 145.61C146.151 145.57 146.229 145.541 146.312 145.521C146.395 145.5 146.486 145.489 146.582 145.489C146.73 145.489 146.86 145.514 146.973 145.564C147.087 145.612 147.182 145.682 147.257 145.773C147.333 145.862 147.391 145.97 147.431 146.097C147.47 146.224 147.49 146.364 147.49 146.517V148.244H147.01V146.517C147.01 146.312 146.963 146.153 146.868 146.041C146.776 145.926 146.634 145.869 146.443 145.869C146.302 145.869 146.17 145.903 146.047 145.971C145.925 146.039 145.813 146.131 145.709 146.247V148.244H145.23V145.532H145.516C145.584 145.532 145.626 145.565 145.642 145.631L145.68 145.926ZM149.686 147.023C149.466 147.03 149.279 147.048 149.123 147.077C148.97 147.104 148.844 147.139 148.746 147.184C148.65 147.229 148.579 147.281 148.534 147.342C148.492 147.403 148.47 147.47 148.47 147.545C148.47 147.617 148.482 147.678 148.505 147.73C148.528 147.782 148.559 147.825 148.599 147.859C148.64 147.891 148.687 147.915 148.741 147.931C148.796 147.945 148.855 147.952 148.917 147.952C149.001 147.952 149.078 147.944 149.148 147.928C149.217 147.91 149.282 147.885 149.343 147.853C149.405 147.821 149.464 147.783 149.52 147.738C149.577 147.693 149.632 147.643 149.686 147.586V147.023ZM148.146 145.915C148.296 145.77 148.458 145.662 148.631 145.591C148.804 145.519 148.996 145.484 149.206 145.484C149.358 145.484 149.493 145.509 149.611 145.559C149.728 145.609 149.828 145.678 149.908 145.768C149.988 145.857 150.049 145.965 150.09 146.092C150.131 146.218 150.152 146.358 150.152 146.509V148.244H149.94C149.894 148.244 149.858 148.237 149.833 148.223C149.808 148.207 149.788 148.176 149.774 148.132L149.72 147.875C149.649 147.941 149.579 148 149.512 148.051C149.444 148.101 149.372 148.144 149.297 148.18C149.222 148.214 149.142 148.24 149.056 148.258C148.973 148.277 148.879 148.287 148.775 148.287C148.67 148.287 148.571 148.273 148.478 148.244C148.385 148.214 148.304 148.169 148.235 148.11C148.167 148.051 148.112 147.977 148.071 147.888C148.032 147.797 148.012 147.69 148.012 147.567C148.012 147.46 148.042 147.357 148.101 147.259C148.16 147.159 148.255 147.071 148.387 146.994C148.519 146.917 148.691 146.855 148.904 146.806C149.116 146.756 149.377 146.728 149.686 146.721V146.509C149.686 146.299 149.64 146.14 149.549 146.033C149.458 145.924 149.325 145.869 149.15 145.869C149.032 145.869 148.933 145.885 148.853 145.915C148.774 145.943 148.706 145.976 148.647 146.014C148.59 146.05 148.54 146.083 148.497 146.113C148.456 146.142 148.415 146.156 148.374 146.156C148.342 146.156 148.314 146.148 148.291 146.132C148.268 146.114 148.248 146.092 148.232 146.067L148.146 145.915ZM150.877 148.244V145.532H151.164C151.232 145.532 151.274 145.565 151.29 145.631L151.325 145.909C151.425 145.786 151.537 145.685 151.662 145.607C151.787 145.528 151.931 145.489 152.096 145.489C152.278 145.489 152.425 145.54 152.537 145.642C152.652 145.743 152.734 145.881 152.784 146.054C152.823 145.956 152.873 145.871 152.934 145.8C152.996 145.728 153.066 145.669 153.142 145.623C153.219 145.577 153.3 145.543 153.386 145.521C153.474 145.5 153.562 145.489 153.651 145.489C153.794 145.489 153.921 145.512 154.031 145.559C154.144 145.603 154.238 145.669 154.315 145.757C154.394 145.844 154.453 145.952 154.495 146.081C154.536 146.208 154.556 146.353 154.556 146.517V148.244H154.077V146.517C154.077 146.305 154.03 146.144 153.938 146.035C153.845 145.925 153.711 145.869 153.536 145.869C153.458 145.869 153.383 145.884 153.311 145.912C153.242 145.939 153.18 145.979 153.126 146.033C153.073 146.086 153.03 146.154 152.998 146.236C152.968 146.316 152.952 146.41 152.952 146.517V148.244H152.473V146.517C152.473 146.299 152.429 146.137 152.342 146.03C152.254 145.923 152.127 145.869 151.959 145.869C151.841 145.869 151.732 145.901 151.632 145.966C151.533 146.028 151.441 146.114 151.357 146.223V148.244H150.877ZM157.096 146.592C157.096 146.482 157.08 146.381 157.047 146.29C157.017 146.197 156.972 146.117 156.911 146.051C156.852 145.984 156.78 145.932 156.694 145.896C156.608 145.859 156.511 145.84 156.402 145.84C156.174 145.84 155.993 145.907 155.859 146.041C155.727 146.173 155.645 146.357 155.612 146.592H157.096ZM157.481 147.864C157.422 147.935 157.352 147.998 157.27 148.051C157.188 148.103 157.099 148.146 157.005 148.18C156.912 148.214 156.815 148.239 156.715 148.255C156.616 148.273 156.516 148.282 156.418 148.282C156.231 148.282 156.058 148.25 155.899 148.188C155.742 148.124 155.605 148.031 155.489 147.909C155.375 147.786 155.286 147.635 155.222 147.454C155.157 147.274 155.125 147.067 155.125 146.833C155.125 146.644 155.154 146.467 155.211 146.303C155.27 146.139 155.354 145.997 155.462 145.877C155.571 145.756 155.704 145.661 155.861 145.594C156.018 145.524 156.195 145.489 156.392 145.489C156.554 145.489 156.704 145.517 156.841 145.572C156.981 145.626 157.1 145.704 157.2 145.808C157.302 145.909 157.381 146.036 157.438 146.188C157.495 146.338 157.524 146.509 157.524 146.702C157.524 146.777 157.516 146.827 157.5 146.852C157.484 146.877 157.454 146.889 157.409 146.889H155.596C155.602 147.061 155.625 147.21 155.666 147.337C155.709 147.463 155.768 147.569 155.843 147.655C155.918 147.739 156.007 147.802 156.11 147.845C156.214 147.886 156.33 147.907 156.458 147.907C156.578 147.907 156.681 147.893 156.766 147.867C156.854 147.838 156.929 147.808 156.991 147.776C157.054 147.743 157.105 147.714 157.147 147.687C157.189 147.659 157.226 147.644 157.256 147.644C157.296 147.644 157.326 147.66 157.347 147.69L157.481 147.864Z" fill="#111619"/>
<rect x="124.981" y="152.922" width="35.698" height="2.67735" rx="1.33868" fill="#D0D5DD"/>
<rect x="124.981" y="158.275" width="17.849" height="2.67735" rx="1.33868" fill="#E4E7EC"/>
</g>
<g opacity="0.4" filter="url(#filter1_dd_18062_127177)">
<rect x="9.87354" y="66.6953" width="70.1939" height="101.211" rx="3.5698" fill="white"/>
<path d="M17.2363 101.791C17.2363 86.4742 29.6533 74.0571 44.9706 74.0571C60.2878 74.0571 72.7048 86.4742 72.7048 101.791V135.103C72.7048 135.966 72.0056 136.665 71.143 136.665H18.7981C17.9355 136.665 17.2363 135.966 17.2363 135.103V101.791Z" fill="url(#paint3_linear_18062_127177)"/>
<path d="M43.5374 111.379L38.9525 106.795C38.8338 106.676 38.7395 106.535 38.6753 106.38C38.611 106.225 38.5779 106.058 38.5779 105.89C38.5779 105.722 38.611 105.556 38.6753 105.401C38.7395 105.246 38.8338 105.105 38.9525 104.986L44.9706 98.9688H51.3633V105.361L45.3459 111.38C45.2271 111.499 45.0861 111.593 44.9309 111.657C44.7757 111.721 44.6094 111.755 44.4415 111.754C44.2735 111.754 44.1073 111.721 43.9521 111.657C43.797 111.593 43.6561 111.498 43.5374 111.379Z" fill="#E4E7EC" stroke="#98A2B3" stroke-width="0.710317" stroke-miterlimit="10" stroke-linecap="square"/>
<path d="M47.5264 104.082C46.8203 104.082 46.2479 103.51 46.2479 102.804C46.2479 102.098 46.8203 101.525 47.5264 101.525C48.2325 101.525 48.8049 102.098 48.8049 102.804C48.8049 103.51 48.2325 104.082 47.5264 104.082Z" fill="#D0D5DD" stroke="#98A2B3" stroke-width="0.710317" stroke-miterlimit="10" stroke-linecap="square"/>
<path d="M17.2363 101.791C17.2363 86.4742 29.6533 74.0571 44.9706 74.0571C60.2878 74.0571 72.7048 86.4742 72.7048 101.791V135.103C72.7048 135.966 72.0056 136.665 71.143 136.665H18.7981C17.9355 136.665 17.2363 135.966 17.2363 135.103V101.791Z" stroke="url(#paint4_linear_18062_127177)" stroke-width="0.446225"/>
<path d="M18.6357 146.397C18.7838 146.397 18.9141 146.377 19.0266 146.338C19.1408 146.299 19.2363 146.244 19.313 146.175C19.3916 146.103 19.4505 146.018 19.4897 145.92C19.529 145.822 19.5486 145.714 19.5486 145.596C19.5486 145.352 19.4728 145.161 19.3211 145.023C19.1711 144.886 18.9427 144.817 18.6357 144.817H18.0199V146.397H18.6357ZM18.6357 144.407C18.8784 144.407 19.089 144.436 19.2675 144.493C19.4478 144.549 19.5968 144.628 19.7146 144.731C19.8324 144.835 19.9199 144.96 19.977 145.106C20.0359 145.253 20.0654 145.416 20.0654 145.596C20.0654 145.775 20.0341 145.938 19.9717 146.086C19.9092 146.234 19.8173 146.362 19.6959 146.469C19.5763 146.576 19.4273 146.66 19.2488 146.721C19.0721 146.78 18.8677 146.809 18.6357 146.809H18.0199V148.244H17.5031V144.407H18.6357ZM21.0068 146.075C21.0925 145.89 21.1978 145.745 21.3228 145.642C21.4477 145.536 21.6003 145.484 21.7806 145.484C21.8377 145.484 21.8921 145.49 21.9439 145.503C21.9974 145.515 22.0447 145.535 22.0858 145.561L22.051 145.918C22.0403 145.962 22.0135 145.984 21.9707 145.984C21.9457 145.984 21.9091 145.979 21.8609 145.968C21.8127 145.958 21.7583 145.952 21.6976 145.952C21.6119 145.952 21.5352 145.965 21.4673 145.99C21.4013 146.015 21.3415 146.052 21.2879 146.102C21.2362 146.15 21.1889 146.211 21.1461 146.284C21.105 146.356 21.0675 146.438 21.0336 146.531V148.244H20.5544V145.532H20.8274C20.8792 145.532 20.9149 145.542 20.9345 145.561C20.9542 145.581 20.9676 145.615 20.9747 145.663L21.0068 146.075ZM23.5383 145.489C23.7364 145.489 23.9149 145.522 24.0737 145.588C24.2326 145.654 24.3682 145.748 24.4807 145.869C24.5931 145.991 24.6788 146.138 24.7377 146.311C24.7984 146.482 24.8287 146.674 24.8287 146.887C24.8287 147.101 24.7984 147.294 24.7377 147.465C24.6788 147.636 24.5931 147.783 24.4807 147.904C24.3682 148.025 24.2326 148.119 24.0737 148.185C23.9149 148.249 23.7364 148.282 23.5383 148.282C23.3384 148.282 23.1581 148.249 22.9974 148.185C22.8386 148.119 22.7029 148.025 22.5905 147.904C22.478 147.783 22.3915 147.636 22.3308 147.465C22.2719 147.294 22.2424 147.101 22.2424 146.887C22.2424 146.674 22.2719 146.482 22.3308 146.311C22.3915 146.138 22.478 145.991 22.5905 145.869C22.7029 145.748 22.8386 145.654 22.9974 145.588C23.1581 145.522 23.3384 145.489 23.5383 145.489ZM23.5383 147.909C23.806 147.909 24.0059 147.82 24.138 147.642C24.2701 147.461 24.3361 147.211 24.3361 146.889C24.3361 146.566 24.2701 146.315 24.138 146.134C24.0059 145.954 23.806 145.864 23.5383 145.864C23.4026 145.864 23.2839 145.887 23.1822 145.934C23.0822 145.98 22.9983 146.047 22.9305 146.134C22.8645 146.222 22.8145 146.33 22.7806 146.458C22.7484 146.585 22.7324 146.729 22.7324 146.889C22.7324 147.211 22.7984 147.461 22.9305 147.642C23.0644 147.82 23.267 147.909 23.5383 147.909ZM27.2003 146.177C27.111 146.058 27.0146 145.975 26.9111 145.928C26.8076 145.88 26.6916 145.856 26.563 145.856C26.3114 145.856 26.1177 145.946 25.9821 146.126C25.8464 146.307 25.7786 146.564 25.7786 146.897C25.7786 147.074 25.7937 147.226 25.8241 147.353C25.8544 147.478 25.8991 147.581 25.958 147.663C26.0169 147.743 26.0891 147.802 26.1748 147.84C26.2605 147.877 26.3578 147.896 26.4667 147.896C26.6237 147.896 26.7603 147.86 26.8763 147.789C26.9941 147.718 27.1021 147.617 27.2003 147.486V146.177ZM27.6768 144.3V148.244H27.393C27.3252 148.244 27.2824 148.211 27.2645 148.145L27.2217 147.816C27.1057 147.955 26.9736 148.067 26.8254 148.153C26.6773 148.239 26.5059 148.282 26.3114 148.282C26.1561 148.282 26.0151 148.252 25.8883 148.193C25.7616 148.133 25.6536 148.044 25.5644 147.928C25.4751 147.812 25.4064 147.668 25.3582 147.494C25.31 147.321 25.2859 147.122 25.2859 146.897C25.2859 146.698 25.3127 146.512 25.3663 146.341C25.4198 146.167 25.4966 146.017 25.5965 145.891C25.6965 145.764 25.8187 145.665 25.9633 145.594C26.1097 145.52 26.2739 145.484 26.4559 145.484C26.6219 145.484 26.7638 145.512 26.8816 145.569C27.0012 145.625 27.1074 145.702 27.2003 145.802V144.3H27.6768ZM30.6598 145.532V148.244H30.376C30.3081 148.244 30.2653 148.211 30.2475 148.145L30.21 147.853C30.0922 147.984 29.9601 148.089 29.8137 148.169C29.6674 148.248 29.4996 148.287 29.3104 148.287C29.1622 148.287 29.031 148.263 28.9168 148.215C28.8044 148.165 28.7098 148.095 28.633 148.006C28.5563 147.917 28.4982 147.809 28.459 147.682C28.4215 147.555 28.4028 147.415 28.4028 147.262V145.532H28.8793V147.262C28.8793 147.467 28.9257 147.626 29.0185 147.738C29.1131 147.851 29.2568 147.907 29.4496 147.907C29.5906 147.907 29.7218 147.874 29.8432 147.808C29.9663 147.74 30.0797 147.647 30.1832 147.529V145.532H30.6598ZM33.3029 146.014C33.2887 146.034 33.2744 146.049 33.2601 146.059C33.2458 146.07 33.2262 146.075 33.2012 146.075C33.1744 146.075 33.145 146.065 33.1128 146.043C33.0807 146.02 33.0406 145.995 32.9924 145.968C32.946 145.942 32.8879 145.918 32.8183 145.896C32.7505 145.873 32.6666 145.861 32.5667 145.861C32.4328 145.861 32.315 145.885 32.2133 145.934C32.1115 145.98 32.0258 146.048 31.9562 146.137C31.8884 146.226 31.8366 146.334 31.8009 146.461C31.767 146.588 31.7501 146.73 31.7501 146.887C31.7501 147.051 31.7688 147.197 31.8063 147.326C31.8438 147.453 31.8964 147.56 31.9643 147.647C32.0339 147.733 32.1169 147.799 32.2133 147.845C32.3114 147.89 32.4212 147.912 32.5426 147.912C32.6586 147.912 32.7541 147.899 32.829 147.872C32.904 147.843 32.9656 147.812 33.0138 147.778C33.0638 147.744 33.1048 147.714 33.1369 147.687C33.1709 147.659 33.2039 147.644 33.236 147.644C33.2753 147.644 33.3056 147.66 33.327 147.69L33.4609 147.864C33.402 147.937 33.3351 148 33.2601 148.051C33.1851 148.103 33.1039 148.147 33.0165 148.183C32.9308 148.216 32.8406 148.241 32.746 148.258C32.6514 148.274 32.5551 148.282 32.4569 148.282C32.2873 148.282 32.1294 148.25 31.983 148.188C31.8384 148.125 31.7126 148.035 31.6055 147.918C31.4984 147.798 31.4145 147.652 31.3538 147.478C31.2931 147.305 31.2628 147.108 31.2628 146.887C31.2628 146.685 31.2905 146.499 31.3458 146.327C31.4029 146.156 31.485 146.009 31.5921 145.885C31.701 145.76 31.834 145.663 31.991 145.594C32.1499 145.524 32.3319 145.489 32.5372 145.489C32.7282 145.489 32.896 145.52 33.0406 145.583C33.1869 145.644 33.3163 145.73 33.4288 145.843L33.3029 146.014ZM34.8051 148.287C34.591 148.287 34.4258 148.227 34.3098 148.108C34.1956 147.988 34.1385 147.816 34.1385 147.591V145.931H33.8118C33.7833 145.931 33.7592 145.923 33.7396 145.907C33.7199 145.889 33.7101 145.862 33.7101 145.826V145.636L34.1545 145.58L34.2643 144.742C34.2697 144.715 34.2813 144.694 34.2991 144.678C34.3188 144.66 34.3437 144.651 34.3741 144.651H34.615V145.586H35.3995V145.931H34.615V147.559C34.615 147.673 34.6427 147.758 34.698 147.813C34.7534 147.868 34.8248 147.896 34.9122 147.896C34.9622 147.896 35.005 147.89 35.0407 147.877C35.0782 147.863 35.1104 147.848 35.1371 147.832C35.1639 147.816 35.1862 147.801 35.2041 147.789C35.2237 147.775 35.2407 147.768 35.2549 147.768C35.2799 147.768 35.3022 147.783 35.3219 147.813L35.4611 148.041C35.379 148.117 35.2799 148.178 35.1639 148.223C35.0479 148.266 34.9283 148.287 34.8051 148.287ZM37.7114 145.926C37.7703 145.86 37.8328 145.8 37.8989 145.746C37.9649 145.693 38.0345 145.647 38.1077 145.61C38.1827 145.57 38.2612 145.541 38.3433 145.521C38.4272 145.5 38.5173 145.489 38.6137 145.489C38.7619 145.489 38.8922 145.514 39.0046 145.564C39.1188 145.612 39.2134 145.682 39.2884 145.773C39.3652 145.862 39.4232 145.97 39.4624 146.097C39.5017 146.224 39.5213 146.364 39.5213 146.517V148.244H39.0421V146.517C39.0421 146.312 38.9948 146.153 38.9002 146.041C38.8074 145.926 38.6655 145.869 38.4745 145.869C38.3335 145.869 38.2014 145.903 38.0782 145.971C37.9569 146.039 37.8444 146.131 37.7409 146.247V148.244H37.2616V145.532H37.5481C37.616 145.532 37.6579 145.565 37.674 145.631L37.7114 145.926ZM41.7174 147.023C41.4978 147.03 41.3104 147.048 41.1551 147.077C41.0016 147.104 40.8758 147.139 40.7776 147.184C40.6813 147.229 40.6107 147.281 40.5661 147.342C40.5233 147.403 40.5019 147.47 40.5019 147.545C40.5019 147.617 40.5135 147.678 40.5367 147.73C40.5599 147.782 40.5911 147.825 40.6304 147.859C40.6714 147.891 40.7187 147.915 40.7723 147.931C40.8276 147.945 40.8865 147.952 40.949 147.952C41.0329 147.952 41.1096 147.944 41.1792 147.928C41.2489 147.91 41.314 147.885 41.3747 147.853C41.4372 147.821 41.4961 147.783 41.5514 147.738C41.6085 147.693 41.6638 147.643 41.7174 147.586V147.023ZM40.1779 145.915C40.3278 145.77 40.4894 145.662 40.6625 145.591C40.8356 145.519 41.0275 145.484 41.2381 145.484C41.3899 145.484 41.5246 145.509 41.6424 145.559C41.7602 145.609 41.8593 145.678 41.9396 145.768C42.0199 145.857 42.0806 145.965 42.1217 146.092C42.1627 146.218 42.1832 146.358 42.1832 146.509V148.244H41.9717C41.9253 148.244 41.8896 148.237 41.8646 148.223C41.8397 148.207 41.82 148.176 41.8057 148.132L41.7522 147.875C41.6808 147.941 41.6112 148 41.5434 148.051C41.4755 148.101 41.4041 148.144 41.3292 148.18C41.2542 148.214 41.1739 148.24 41.0882 148.258C41.0043 148.277 40.9106 148.287 40.8071 148.287C40.7018 148.287 40.6027 148.273 40.5099 148.244C40.4171 148.214 40.3359 148.169 40.2663 148.11C40.1984 148.051 40.144 147.977 40.1029 147.888C40.0637 147.797 40.044 147.69 40.044 147.567C40.044 147.46 40.0735 147.357 40.1324 147.259C40.1913 147.159 40.2868 147.071 40.4189 146.994C40.551 146.917 40.7232 146.855 40.9356 146.806C41.148 146.756 41.4086 146.728 41.7174 146.721V146.509C41.7174 146.299 41.6719 146.14 41.5808 146.033C41.4898 145.924 41.3568 145.869 41.1819 145.869C41.0641 145.869 40.9651 145.885 40.8847 145.915C40.8062 145.943 40.7375 145.976 40.6786 146.014C40.6215 146.05 40.5715 146.083 40.5286 146.113C40.4876 146.142 40.4465 146.156 40.4055 146.156C40.3734 146.156 40.3457 146.148 40.3225 146.132C40.2993 146.114 40.2797 146.092 40.2636 146.067L40.1779 145.915ZM42.9092 148.244V145.532H43.1957C43.2635 145.532 43.3054 145.565 43.3215 145.631L43.3563 145.909C43.4563 145.786 43.5687 145.685 43.6936 145.607C43.8186 145.528 43.9632 145.489 44.1274 145.489C44.3094 145.489 44.4567 145.54 44.5691 145.642C44.6834 145.743 44.7655 145.881 44.8155 146.054C44.8547 145.956 44.9047 145.871 44.9654 145.8C45.0279 145.728 45.0975 145.669 45.1742 145.623C45.251 145.577 45.3322 145.543 45.4179 145.521C45.5053 145.5 45.5937 145.489 45.6829 145.489C45.8257 145.489 45.9524 145.512 46.0631 145.559C46.1756 145.603 46.2702 145.669 46.3469 145.757C46.4254 145.844 46.4852 145.952 46.5263 146.081C46.5673 146.208 46.5879 146.353 46.5879 146.517V148.244H46.1086V146.517C46.1086 146.305 46.0622 146.144 45.9694 146.035C45.8766 145.925 45.7427 145.869 45.5678 145.869C45.4893 145.869 45.4143 145.884 45.3429 145.912C45.2733 145.939 45.2117 145.979 45.1582 146.033C45.1046 146.086 45.0618 146.154 45.0296 146.236C44.9993 146.316 44.9841 146.41 44.9841 146.517V148.244H44.5049V146.517C44.5049 146.299 44.4612 146.137 44.3737 146.03C44.2862 145.923 44.1586 145.869 43.9908 145.869C43.873 145.869 43.7642 145.901 43.6642 145.966C43.5642 146.028 43.4723 146.114 43.3884 146.223V148.244H42.9092ZM49.1274 146.592C49.1274 146.482 49.1113 146.381 49.0792 146.29C49.0489 146.197 49.0034 146.117 48.9427 146.051C48.8838 145.984 48.8115 145.932 48.7258 145.896C48.6401 145.859 48.5429 145.84 48.434 145.84C48.2055 145.84 48.0243 145.907 47.8905 146.041C47.7584 146.173 47.6763 146.357 47.6442 146.592H49.1274ZM49.513 147.864C49.4541 147.935 49.3835 147.998 49.3014 148.051C49.2193 148.103 49.131 148.146 49.0364 148.18C48.9436 148.214 48.8472 148.239 48.7472 148.255C48.6473 148.273 48.5482 148.282 48.45 148.282C48.2626 148.282 48.0895 148.25 47.9306 148.188C47.7736 148.124 47.637 148.031 47.521 147.909C47.4068 147.786 47.3175 147.635 47.2533 147.454C47.189 147.274 47.1569 147.067 47.1569 146.833C47.1569 146.644 47.1854 146.467 47.2426 146.303C47.3015 146.139 47.3854 145.997 47.4942 145.877C47.6031 145.756 47.7361 145.661 47.8932 145.594C48.0502 145.524 48.2269 145.489 48.4233 145.489C48.5857 145.489 48.7356 145.517 48.8731 145.572C49.0123 145.626 49.1319 145.704 49.2318 145.808C49.3336 145.909 49.413 146.036 49.4701 146.188C49.5272 146.338 49.5558 146.509 49.5558 146.702C49.5558 146.777 49.5478 146.827 49.5317 146.852C49.5156 146.877 49.4853 146.889 49.4407 146.889H47.6281C47.6335 147.061 47.6567 147.21 47.6977 147.337C47.7405 147.463 47.7994 147.569 47.8744 147.655C47.9494 147.739 48.0386 147.802 48.1421 147.845C48.2457 147.886 48.3617 147.907 48.4902 147.907C48.6098 147.907 48.7124 147.893 48.7981 147.867C48.8856 147.838 48.9605 147.808 49.023 147.776C49.0855 147.743 49.1372 147.714 49.1783 147.687C49.2211 147.659 49.2577 147.644 49.2881 147.644C49.3273 147.644 49.3577 147.66 49.3791 147.69L49.513 147.864Z" fill="#111619"/>
<rect x="17.0132" y="152.922" width="35.698" height="2.67735" rx="1.33868" fill="#D0D5DD"/>
<rect x="17.0132" y="158.275" width="17.849" height="2.67735" rx="1.33868" fill="#E4E7EC"/>
</g>
<g filter="url(#filter2_dd_18062_127177)">
<rect x="46.0996" y="12" width="110.81" height="179" rx="5.68254" fill="white"/>
<path d="M57.82 67.4049C57.82 43.2786 77.3782 23.7204 101.505 23.7204C125.631 23.7204 145.189 43.2786 145.189 67.4049V108.603C145.189 109.976 144.076 111.089 142.703 111.089H60.3061C58.9331 111.089 57.82 109.976 57.82 108.603V67.4049Z" fill="url(#paint5_linear_18062_127177)"/>
<path d="M99.2731 82.8036L92.1412 75.6717C91.9564 75.487 91.8099 75.2677 91.7099 75.0264C91.6099 74.785 91.5584 74.5263 91.5584 74.2651C91.5584 74.0038 91.6099 73.7452 91.7099 73.5038C91.8099 73.2625 91.9564 73.0432 92.1412 72.8585L101.503 63.498H111.447V73.4422L102.086 82.8046C101.902 82.9893 101.682 83.1358 101.441 83.2357C101.199 83.3357 100.941 83.387 100.68 83.3869C100.418 83.3868 100.16 83.3353 99.9183 83.2352C99.677 83.1351 99.4578 82.9885 99.2731 82.8036Z" fill="#D9F4F8" stroke="#0098A5" stroke-width="0.710317" stroke-miterlimit="10" stroke-linecap="square"/>
<path d="M105.479 71.4523C104.381 71.4523 103.49 70.5618 103.49 69.4634C103.49 68.365 104.381 67.4746 105.479 67.4746C106.578 67.4746 107.468 68.365 107.468 69.4634C107.468 70.5618 106.578 71.4523 105.479 71.4523Z" fill="#9FDEE4" stroke="#0098A5" stroke-width="0.710317" stroke-miterlimit="10" stroke-linecap="square"/>
<path d="M57.82 67.4049C57.82 43.2786 77.3782 23.7204 101.505 23.7204C125.631 23.7204 145.189 43.2786 145.189 67.4049V108.603C145.189 109.976 144.076 111.089 142.703 111.089H60.3061C58.9331 111.089 57.82 109.976 57.82 108.603V67.4049Z" stroke="url(#paint6_linear_18062_127177)" stroke-width="0.710317"/>
<path d="M60.0476 126.028C60.2834 126.028 60.4908 125.997 60.6698 125.934C60.8516 125.872 61.0036 125.785 61.1258 125.674C61.2508 125.561 61.3446 125.426 61.4071 125.269C61.4696 125.113 61.5009 124.941 61.5009 124.754C61.5009 124.364 61.3801 124.06 61.1386 123.842C60.8999 123.623 60.5363 123.514 60.0476 123.514H59.0673V126.028H60.0476ZM60.0476 122.861C60.434 122.861 60.7692 122.907 61.0534 122.998C61.3403 123.086 61.5776 123.212 61.7651 123.377C61.9526 123.542 62.0919 123.741 62.1828 123.974C62.2765 124.207 62.3234 124.467 62.3234 124.754C62.3234 125.038 62.2737 125.298 62.1742 125.534C62.0748 125.769 61.9285 125.973 61.7353 126.143C61.5449 126.314 61.3077 126.447 61.0235 126.544C60.7422 126.637 60.4169 126.684 60.0476 126.684H59.0673V128.969H58.2448V122.861H60.0476ZM63.8221 125.517C63.9585 125.221 64.1261 124.991 64.325 124.826C64.5239 124.659 64.7668 124.575 65.0538 124.575C65.1447 124.575 65.2313 124.585 65.3137 124.605C65.399 124.624 65.4743 124.656 65.5396 124.698L65.4842 125.265C65.4672 125.336 65.4246 125.372 65.3564 125.372C65.3166 125.372 65.2583 125.363 65.1816 125.346C65.1049 125.329 65.0182 125.321 64.9216 125.321C64.7853 125.321 64.6631 125.34 64.5551 125.38C64.45 125.42 64.3548 125.48 64.2696 125.559C64.1872 125.636 64.1119 125.733 64.0437 125.849C63.9783 125.963 63.9187 126.093 63.8647 126.241V128.969H63.1018V124.651H63.5365C63.6189 124.651 63.6757 124.667 63.707 124.698C63.7383 124.73 63.7596 124.784 63.7709 124.86L63.8221 125.517ZM67.8517 124.583C68.1671 124.583 68.4512 124.636 68.7041 124.741C68.957 124.846 69.1729 124.995 69.3519 125.188C69.5309 125.382 69.6673 125.616 69.761 125.892C69.8576 126.164 69.9059 126.47 69.9059 126.808C69.9059 127.149 69.8576 127.456 69.761 127.729C69.6673 128.001 69.5309 128.234 69.3519 128.427C69.1729 128.621 68.957 128.77 68.7041 128.875C68.4512 128.977 68.1671 129.028 67.8517 129.028C67.5335 129.028 67.2465 128.977 66.9908 128.875C66.7379 128.77 66.522 128.621 66.343 128.427C66.164 128.234 66.0262 128.001 65.9296 127.729C65.8358 127.456 65.7889 127.149 65.7889 126.808C65.7889 126.47 65.8358 126.164 65.9296 125.892C66.0262 125.616 66.164 125.382 66.343 125.188C66.522 124.995 66.7379 124.846 66.9908 124.741C67.2465 124.636 67.5335 124.583 67.8517 124.583ZM67.8517 128.436C68.2779 128.436 68.5961 128.294 68.8064 128.01C69.0166 127.723 69.1218 127.324 69.1218 126.812C69.1218 126.298 69.0166 125.897 68.8064 125.61C68.5961 125.323 68.2779 125.18 67.8517 125.18C67.6358 125.18 67.4468 125.217 67.2849 125.291C67.1258 125.365 66.9922 125.471 66.8843 125.61C66.7791 125.75 66.6996 125.921 66.6456 126.126C66.5944 126.328 66.5689 126.557 66.5689 126.812C66.5689 127.324 66.674 127.723 66.8843 128.01C67.0973 128.294 67.4198 128.436 67.8517 128.436ZM73.681 125.679C73.5389 125.488 73.3855 125.356 73.2207 125.282C73.0559 125.205 72.8712 125.167 72.6667 125.167C72.266 125.167 71.9578 125.311 71.7418 125.598C71.5259 125.885 71.4179 126.294 71.4179 126.825C71.4179 127.106 71.4421 127.348 71.4904 127.55C71.5387 127.748 71.6097 127.913 71.7035 128.044C71.7972 128.172 71.9123 128.266 72.0487 128.325C72.1851 128.385 72.3399 128.415 72.5132 128.415C72.7633 128.415 72.9806 128.358 73.1653 128.244C73.3528 128.131 73.5247 127.97 73.681 127.763V125.679ZM74.4396 122.691V128.969H73.9878C73.8799 128.969 73.8117 128.916 73.7833 128.811L73.7151 128.287C73.5304 128.508 73.3202 128.687 73.0843 128.824C72.8485 128.96 72.5757 129.028 72.266 129.028C72.0188 129.028 71.7944 128.982 71.5927 128.888C71.3909 128.791 71.219 128.651 71.077 128.466C70.9349 128.281 70.8255 128.051 70.7488 127.775C70.6721 127.5 70.6337 127.183 70.6337 126.825C70.6337 126.507 70.6763 126.211 70.7616 125.939C70.8468 125.663 70.969 125.424 71.1281 125.223C71.2872 125.021 71.4818 124.863 71.712 124.749C71.945 124.633 72.2064 124.575 72.4962 124.575C72.7604 124.575 72.9863 124.62 73.1738 124.711C73.3642 124.799 73.5332 124.923 73.681 125.082V122.691H74.4396ZM79.188 124.651V128.969H78.7362C78.6282 128.969 78.5601 128.916 78.5316 128.811L78.472 128.347C78.2844 128.554 78.0742 128.722 77.8412 128.849C77.6082 128.974 77.3411 129.037 77.04 129.037C76.8041 129.037 76.5953 128.999 76.4135 128.922C76.2345 128.842 76.0839 128.732 75.9617 128.589C75.8395 128.447 75.7472 128.275 75.6847 128.074C75.625 127.872 75.5952 127.649 75.5952 127.405V124.651H76.3538V127.405C76.3538 127.731 76.4277 127.984 76.5754 128.163C76.726 128.342 76.9547 128.432 77.2616 128.432C77.4861 128.432 77.6949 128.379 77.8881 128.274C78.0841 128.166 78.2646 128.018 78.4294 127.831V124.651H79.188ZM83.3955 125.419C83.3727 125.45 83.35 125.474 83.3273 125.491C83.3046 125.508 83.2733 125.517 83.2335 125.517C83.1909 125.517 83.144 125.5 83.0929 125.465C83.0417 125.429 82.9778 125.389 82.9011 125.346C82.8272 125.304 82.7349 125.265 82.6241 125.231C82.5161 125.194 82.3826 125.176 82.2234 125.176C82.0104 125.176 81.8228 125.214 81.6609 125.291C81.4989 125.365 81.3625 125.473 81.2517 125.615C81.1438 125.757 81.0614 125.929 81.0045 126.13C80.9506 126.332 80.9236 126.558 80.9236 126.808C80.9236 127.069 80.9534 127.302 81.0131 127.507C81.0727 127.709 81.1566 127.879 81.2645 128.018C81.3753 128.155 81.5074 128.26 81.6609 128.334C81.8171 128.405 81.9919 128.44 82.1851 128.44C82.3698 128.44 82.5218 128.419 82.6411 128.376C82.7604 128.331 82.8585 128.281 82.9352 128.227C83.0147 128.173 83.0801 128.125 83.1312 128.082C83.1852 128.037 83.2378 128.014 83.2889 128.014C83.3514 128.014 83.3997 128.038 83.4338 128.087L83.6469 128.364C83.5532 128.48 83.4466 128.579 83.3273 128.662C83.2079 128.744 83.0787 128.814 82.9394 128.871C82.8031 128.925 82.6596 128.964 82.509 128.99C82.3584 129.016 82.205 129.028 82.0487 129.028C81.7788 129.028 81.5273 128.979 81.2944 128.879C81.0642 128.78 80.8639 128.636 80.6934 128.449C80.5229 128.258 80.3894 128.025 80.2928 127.75C80.1962 127.474 80.1479 127.16 80.1479 126.808C80.1479 126.487 80.1919 126.19 80.28 125.917C80.3709 125.644 80.5016 125.41 80.6721 125.214C80.8454 125.015 81.0571 124.86 81.3071 124.749C81.56 124.639 81.8498 124.583 82.1766 124.583C82.4806 124.583 82.7477 124.633 82.9778 124.732C83.2108 124.829 83.4168 124.967 83.5958 125.146L83.3955 125.419ZM85.7867 129.037C85.4458 129.037 85.183 128.942 84.9983 128.751C84.8164 128.561 84.7255 128.287 84.7255 127.929V125.286H84.2056C84.1601 125.286 84.1217 125.274 84.0905 125.248C84.0592 125.22 84.0436 125.177 84.0436 125.12V124.818L84.7511 124.728L84.9258 123.394C84.9344 123.352 84.9528 123.317 84.9812 123.292C85.0125 123.263 85.0523 123.249 85.1006 123.249H85.4841V124.737H86.7329V125.286H85.4841V127.878C85.4841 128.06 85.5282 128.195 85.6163 128.283C85.7043 128.371 85.818 128.415 85.9572 128.415C86.0368 128.415 86.105 128.405 86.1618 128.385C86.2214 128.362 86.2726 128.338 86.3152 128.312C86.3578 128.287 86.3933 128.264 86.4218 128.244C86.453 128.221 86.48 128.21 86.5027 128.21C86.5425 128.21 86.578 128.234 86.6093 128.283L86.8309 128.645C86.7002 128.767 86.5425 128.864 86.3578 128.935C86.1731 129.003 85.9828 129.037 85.7867 129.037ZM90.4131 125.278C90.5069 125.173 90.6063 125.078 90.7114 124.992C90.8166 124.907 90.9274 124.835 91.0439 124.775C91.1632 124.713 91.2882 124.666 91.4189 124.634C91.5524 124.6 91.6959 124.583 91.8494 124.583C92.0852 124.583 92.2926 124.623 92.4716 124.703C92.6534 124.779 92.804 124.89 92.9234 125.035C93.0455 125.177 93.1379 125.349 93.2004 125.551C93.2629 125.752 93.2941 125.975 93.2941 126.22V128.969H92.5313V126.22C92.5313 125.893 92.456 125.64 92.3054 125.461C92.1576 125.279 91.9318 125.188 91.6277 125.188C91.4033 125.188 91.193 125.242 90.997 125.35C90.8038 125.458 90.6248 125.605 90.46 125.789V128.969H89.6971V124.651H90.1531C90.2611 124.651 90.3279 124.704 90.3534 124.809L90.4131 125.278ZM96.7899 127.025C96.4404 127.037 96.1421 127.065 95.8949 127.111C95.6506 127.153 95.4502 127.21 95.294 127.281C95.1405 127.352 95.0283 127.436 94.9573 127.532C94.8891 127.629 94.855 127.737 94.855 127.856C94.855 127.97 94.8735 128.068 94.9104 128.15C94.9473 128.233 94.9971 128.301 95.0596 128.355C95.1249 128.406 95.2002 128.445 95.2855 128.47C95.3735 128.493 95.4673 128.504 95.5667 128.504C95.7003 128.504 95.8225 128.491 95.9333 128.466C96.0441 128.437 96.1478 128.398 96.2444 128.347C96.3438 128.295 96.4376 128.234 96.5257 128.163C96.6166 128.092 96.7047 128.011 96.7899 127.92V127.025ZM94.3393 125.261C94.578 125.031 94.8351 124.859 95.1107 124.745C95.3863 124.632 95.6918 124.575 96.027 124.575C96.2685 124.575 96.483 124.615 96.6706 124.694C96.8581 124.774 97.0158 124.884 97.1436 125.026C97.2715 125.169 97.3681 125.34 97.4335 125.542C97.4988 125.744 97.5315 125.966 97.5315 126.207V128.969H97.1948C97.1209 128.969 97.0641 128.957 97.0243 128.935C96.9845 128.909 96.9533 128.861 96.9305 128.79L96.8453 128.381C96.7317 128.486 96.6208 128.579 96.5129 128.662C96.4049 128.741 96.2913 128.81 96.1719 128.866C96.0526 128.92 95.9247 128.962 95.7884 128.99C95.6548 129.021 95.5057 129.037 95.3409 129.037C95.1732 129.037 95.0155 129.014 94.8678 128.969C94.72 128.92 94.5908 128.849 94.48 128.756C94.372 128.662 94.2853 128.544 94.22 128.402C94.1575 128.257 94.1262 128.087 94.1262 127.89C94.1262 127.72 94.1731 127.557 94.2669 127.4C94.3606 127.241 94.5126 127.101 94.7229 126.978C94.9331 126.856 95.2073 126.757 95.5454 126.68C95.8835 126.601 96.2984 126.555 96.7899 126.544V126.207C96.7899 125.872 96.7175 125.619 96.5725 125.448C96.4276 125.275 96.216 125.188 95.9375 125.188C95.75 125.188 95.5923 125.213 95.4645 125.261C95.3394 125.306 95.23 125.359 95.1363 125.419C95.0454 125.475 94.9658 125.528 94.8976 125.576C94.8323 125.622 94.7669 125.644 94.7016 125.644C94.6504 125.644 94.6064 125.632 94.5695 125.606C94.5325 125.578 94.5013 125.544 94.4757 125.504L94.3393 125.261ZM98.6871 128.969V124.651H99.1431C99.251 124.651 99.3178 124.704 99.3434 124.809L99.3988 125.252C99.5579 125.056 99.7369 124.896 99.9358 124.771C100.135 124.646 100.365 124.583 100.626 124.583C100.916 124.583 101.15 124.664 101.329 124.826C101.511 124.988 101.642 125.207 101.722 125.483C101.784 125.326 101.864 125.191 101.96 125.078C102.06 124.964 102.17 124.87 102.293 124.796C102.415 124.722 102.544 124.668 102.68 124.634C102.82 124.6 102.96 124.583 103.102 124.583C103.33 124.583 103.531 124.62 103.708 124.694C103.887 124.765 104.037 124.87 104.159 125.009C104.284 125.149 104.38 125.321 104.445 125.525C104.51 125.727 104.543 125.958 104.543 126.22V128.969H103.78V126.22C103.78 125.882 103.706 125.626 103.558 125.453C103.411 125.277 103.198 125.188 102.919 125.188C102.794 125.188 102.675 125.211 102.561 125.257C102.45 125.299 102.352 125.363 102.267 125.448C102.182 125.534 102.114 125.642 102.062 125.772C102.014 125.9 101.99 126.049 101.99 126.22V128.969H101.227V126.22C101.227 125.873 101.158 125.615 101.018 125.444C100.879 125.274 100.676 125.188 100.409 125.188C100.221 125.188 100.048 125.24 99.8889 125.342C99.7298 125.441 99.5835 125.578 99.4499 125.751V128.969H98.6871ZM108.585 126.339C108.585 126.163 108.56 126.002 108.509 125.858C108.46 125.71 108.388 125.583 108.291 125.478C108.198 125.37 108.083 125.288 107.946 125.231C107.81 125.171 107.655 125.142 107.482 125.142C107.118 125.142 106.83 125.248 106.616 125.461C106.406 125.671 106.276 125.964 106.224 126.339H108.585ZM109.199 128.364C109.105 128.477 108.993 128.577 108.862 128.662C108.732 128.744 108.591 128.812 108.441 128.866C108.293 128.92 108.139 128.96 107.98 128.986C107.821 129.014 107.663 129.028 107.507 129.028C107.209 129.028 106.933 128.979 106.68 128.879C106.43 128.777 106.213 128.629 106.028 128.436C105.846 128.24 105.704 127.998 105.602 127.711C105.5 127.425 105.449 127.095 105.449 126.723C105.449 126.422 105.494 126.14 105.585 125.879C105.679 125.617 105.812 125.392 105.986 125.201C106.159 125.008 106.371 124.857 106.621 124.749C106.871 124.639 107.152 124.583 107.465 124.583C107.723 124.583 107.962 124.627 108.181 124.715C108.402 124.801 108.593 124.926 108.752 125.09C108.914 125.252 109.04 125.454 109.131 125.696C109.222 125.934 109.267 126.207 109.267 126.514C109.267 126.633 109.255 126.713 109.229 126.753C109.203 126.792 109.155 126.812 109.084 126.812H106.199C106.207 127.085 106.244 127.322 106.31 127.524C106.378 127.726 106.472 127.895 106.591 128.031C106.71 128.165 106.852 128.266 107.017 128.334C107.182 128.399 107.367 128.432 107.571 128.432C107.761 128.432 107.925 128.41 108.061 128.368C108.2 128.322 108.32 128.274 108.419 128.223C108.519 128.172 108.601 128.125 108.666 128.082C108.735 128.037 108.793 128.014 108.841 128.014C108.904 128.014 108.952 128.038 108.986 128.087L109.199 128.364Z" fill="#111619"/>
<rect x="57.4648" y="136.23" width="39.7778" height="4.2619" rx="2.13095" fill="#D0D5DD"/>
<rect x="57.4648" y="144.754" width="28.4127" height="4.2619" rx="2.13095" fill="#E4E7EC"/>
<rect x="57.4646" y="157.539" width="31.254" height="22.7302" rx="11.3651" fill="#F2F4F7"/>
<path d="M68.5616 171.304L70.3438 169.43C70.6269 169.134 70.8455 168.897 70.9994 168.719C71.1594 168.534 71.2949 168.331 71.4057 168.109C71.5165 167.887 71.5719 167.66 71.5719 167.426C71.5719 167.038 71.4672 166.764 71.2579 166.604C71.0486 166.438 70.71 166.355 70.2422 166.355C69.8543 166.355 69.408 166.407 68.9032 166.512L68.6631 166.558L68.6077 165.967C69.1864 165.801 69.7897 165.717 70.4176 165.717C71.0517 165.717 71.5226 165.85 71.8304 166.114C72.1444 166.379 72.3014 166.792 72.3014 167.352C72.3014 167.77 72.209 168.14 72.0244 168.46C71.8397 168.78 71.5073 169.171 71.0271 169.633L69.4019 171.286H72.4584V171.904H68.5616V171.304ZM76.4158 170.713H73.4609V170.159L75.1969 165.81H75.9726L74.2089 170.085H76.4158V168.183H77.1269V170.085H77.9025V170.713H77.1269V171.904H76.4158V170.713Z" fill="#111619"/>
</g>
<g filter="url(#filter3_dd_18062_127177)">
<rect x="124.947" y="117.127" width="66.7698" height="22.7302" rx="11.3651" fill="white"/>
<path d="M139.791 131.216C139.999 131.008 139.999 130.671 139.791 130.462C139.583 130.254 139.246 130.254 139.038 130.462L139.791 131.216ZM138.893 131.361L139.269 131.738L138.893 131.361ZM136.284 128.752L136.661 129.129H136.661L136.284 128.752ZM137.183 128.607C137.391 128.399 137.391 128.062 137.183 127.854C136.974 127.646 136.637 127.646 136.429 127.854L137.183 128.607ZM136.284 131.361L136.661 130.984H136.661L136.284 131.361ZM141.124 128.376C140.916 128.584 140.916 128.921 141.124 129.129C141.332 129.337 141.67 129.337 141.878 129.129L141.124 128.376ZM139.414 125.622L139.791 125.999L139.414 125.622ZM138.516 125.767C138.308 125.975 138.308 126.313 138.516 126.521C138.724 126.729 139.061 126.729 139.269 126.521L138.516 125.767ZM142.023 125.622L141.646 125.999V125.999L142.023 125.622ZM137.486 129.406C137.278 129.614 137.278 129.951 137.486 130.159C137.694 130.367 138.031 130.367 138.239 130.159L137.486 129.406ZM140.821 127.577C141.029 127.369 141.029 127.032 140.821 126.824C140.613 126.616 140.276 126.616 140.068 126.824L140.821 127.577ZM139.038 130.462L138.516 130.984L139.269 131.738L139.791 131.216L139.038 130.462ZM136.661 129.129L137.183 128.607L136.429 127.854L135.907 128.376L136.661 129.129ZM136.661 130.984C136.149 130.472 136.149 129.641 136.661 129.129L135.907 128.376C134.979 129.304 134.979 130.809 135.907 131.738L136.661 130.984ZM138.516 130.984C138.004 131.496 137.173 131.496 136.661 130.984L135.907 131.738C136.836 132.666 138.341 132.666 139.269 131.738L138.516 130.984ZM141.878 129.129L142.399 128.607L141.646 127.854L141.124 128.376L141.878 129.129ZM139.038 125.246L138.516 125.767L139.269 126.521L139.791 125.999L139.038 125.246ZM142.399 125.246C141.471 124.317 139.966 124.317 139.038 125.246L139.791 125.999C140.303 125.487 141.134 125.487 141.646 125.999L142.399 125.246ZM142.399 128.607C143.328 127.679 143.328 126.174 142.399 125.246L141.646 125.999C142.158 126.511 142.158 127.342 141.646 127.854L142.399 128.607ZM138.239 130.159L140.821 127.577L140.068 126.824L137.486 129.406L138.239 130.159Z" fill="#0098A5"/>
<path d="M152.668 130.124C152.722 130.124 152.769 130.145 152.809 130.188L153.205 130.618C152.955 130.92 152.648 131.153 152.284 131.317C151.921 131.479 151.486 131.56 150.98 131.56C150.531 131.56 150.125 131.484 149.761 131.33C149.4 131.174 149.092 130.958 148.836 130.682C148.581 130.404 148.383 130.073 148.244 129.689C148.108 129.306 148.04 128.884 148.04 128.424C148.04 127.963 148.112 127.541 148.257 127.158C148.405 126.771 148.611 126.44 148.875 126.165C149.142 125.886 149.46 125.67 149.83 125.517C150.202 125.364 150.611 125.287 151.057 125.287C151.5 125.287 151.891 125.359 152.229 125.504C152.57 125.646 152.865 125.837 153.115 126.075L152.787 126.54C152.765 126.571 152.738 126.598 152.706 126.621C152.675 126.644 152.632 126.655 152.578 126.655C152.522 126.655 152.456 126.629 152.382 126.578C152.311 126.524 152.219 126.466 152.105 126.403C151.995 126.338 151.854 126.28 151.683 126.229C151.516 126.175 151.306 126.148 151.053 126.148C150.76 126.148 150.492 126.199 150.247 126.301C150.003 126.403 149.793 126.553 149.616 126.749C149.44 126.945 149.302 127.183 149.203 127.465C149.106 127.746 149.058 128.066 149.058 128.424C149.058 128.784 149.109 129.107 149.212 129.391C149.314 129.672 149.454 129.911 149.633 130.107C149.812 130.3 150.023 130.448 150.264 130.55C150.506 130.653 150.766 130.704 151.044 130.704C151.215 130.704 151.367 130.695 151.5 130.678C151.637 130.658 151.762 130.628 151.875 130.589C151.989 130.546 152.095 130.493 152.195 130.431C152.297 130.368 152.398 130.292 152.497 130.201C152.554 130.15 152.611 130.124 152.668 130.124ZM155.684 127.077C156.005 127.077 156.295 127.129 156.553 127.235C156.815 127.34 157.036 127.489 157.218 127.682C157.403 127.875 157.545 128.11 157.644 128.385C157.744 128.661 157.793 128.971 157.793 129.314C157.793 129.658 157.744 129.968 157.644 130.243C157.545 130.519 157.403 130.755 157.218 130.951C157.036 131.144 156.815 131.293 156.553 131.398C156.295 131.504 156.005 131.556 155.684 131.556C155.36 131.556 155.067 131.504 154.806 131.398C154.547 131.293 154.326 131.144 154.141 130.951C153.956 130.755 153.814 130.519 153.715 130.243C153.615 129.968 153.566 129.658 153.566 129.314C153.566 128.971 153.615 128.661 153.715 128.385C153.814 128.11 153.956 127.875 154.141 127.682C154.326 127.489 154.547 127.34 154.806 127.235C155.067 127.129 155.36 127.077 155.684 127.077ZM155.684 130.84C156.076 130.84 156.367 130.709 156.558 130.448C156.751 130.184 156.847 129.807 156.847 129.319C156.847 128.83 156.751 128.453 156.558 128.189C156.367 127.922 156.076 127.789 155.684 127.789C155.286 127.789 154.991 127.922 154.797 128.189C154.604 128.453 154.508 128.83 154.508 129.319C154.508 129.807 154.604 130.184 154.797 130.448C154.991 130.709 155.286 130.84 155.684 130.84ZM159.59 130.401C159.718 130.566 159.857 130.682 160.008 130.751C160.161 130.816 160.33 130.849 160.515 130.849C160.873 130.849 161.151 130.718 161.35 130.457C161.552 130.195 161.653 129.806 161.653 129.289C161.653 129.022 161.63 128.794 161.585 128.607C161.539 128.417 161.474 128.262 161.389 128.142C161.303 128.023 161.2 127.936 161.078 127.882C160.955 127.828 160.818 127.801 160.664 127.801C160.431 127.801 160.229 127.853 160.059 127.955C159.891 128.054 159.735 128.198 159.59 128.385V130.401ZM159.543 127.776C159.725 127.563 159.931 127.391 160.161 127.26C160.394 127.129 160.664 127.064 160.971 127.064C161.215 127.064 161.437 127.114 161.636 127.213C161.835 127.31 162.005 127.452 162.147 127.639C162.289 127.827 162.399 128.06 162.476 128.338C162.555 128.614 162.595 128.931 162.595 129.289C162.595 129.61 162.551 129.91 162.463 130.188C162.377 130.464 162.254 130.704 162.092 130.908C161.93 131.11 161.734 131.269 161.504 131.386C161.274 131.499 161.014 131.556 160.724 131.556C160.468 131.556 160.251 131.515 160.072 131.433C159.896 131.35 159.735 131.236 159.59 131.092V132.937H158.674V127.145H159.228C159.353 127.145 159.433 127.203 159.467 127.32L159.543 127.776ZM167.226 127.145L164.83 132.728C164.799 132.793 164.761 132.845 164.715 132.882C164.673 132.919 164.606 132.937 164.515 132.937H163.837L164.639 131.198L162.866 127.145H163.663C163.739 127.145 163.798 127.164 163.837 127.2C163.88 127.235 163.911 127.276 163.931 127.324L164.967 129.792C164.992 129.863 165.015 129.934 165.035 130.005C165.058 130.073 165.079 130.144 165.099 130.218C165.122 130.144 165.144 130.072 165.167 130.001C165.19 129.929 165.215 129.858 165.244 129.787L166.237 127.324C166.257 127.273 166.289 127.23 166.335 127.196C166.383 127.162 166.436 127.145 166.493 127.145H167.226ZM170.67 125.185V131.492H169.754V125.185H170.67ZM172.756 127.145V131.492H171.839V127.145H172.756ZM172.909 125.832C172.909 125.915 172.892 125.993 172.858 126.067C172.827 126.141 172.783 126.206 172.726 126.263C172.669 126.317 172.602 126.361 172.525 126.395C172.452 126.426 172.372 126.442 172.287 126.442C172.204 126.442 172.126 126.426 172.052 126.395C171.981 126.361 171.919 126.317 171.865 126.263C171.811 126.206 171.767 126.141 171.733 126.067C171.701 125.993 171.686 125.915 171.686 125.832C171.686 125.747 171.701 125.668 171.733 125.594C171.767 125.52 171.811 125.456 171.865 125.402C171.919 125.345 171.981 125.301 172.052 125.27C172.126 125.236 172.204 125.219 172.287 125.219C172.372 125.219 172.452 125.236 172.525 125.27C172.602 125.301 172.669 125.345 172.726 125.402C172.783 125.456 172.827 125.52 172.858 125.594C172.892 125.668 172.909 125.747 172.909 125.832ZM174.764 127.72C174.857 127.624 174.954 127.537 175.053 127.46C175.156 127.381 175.264 127.313 175.377 127.256C175.491 127.199 175.612 127.155 175.739 127.124C175.867 127.092 176.007 127.077 176.157 127.077C176.396 127.077 176.605 127.117 176.784 127.196C176.965 127.276 177.118 127.388 177.24 127.533C177.365 127.678 177.458 127.853 177.521 128.057C177.583 128.259 177.615 128.482 177.615 128.726V131.492H176.703V128.726C176.703 128.434 176.634 128.206 176.498 128.044C176.365 127.882 176.16 127.801 175.884 127.801C175.68 127.801 175.489 127.848 175.313 127.942C175.14 128.036 174.977 128.164 174.823 128.326V131.492H173.907V127.145H174.461C174.586 127.145 174.665 127.203 174.7 127.32L174.764 127.72ZM179.601 125.185V128.841H179.797C179.86 128.841 179.911 128.833 179.951 128.816C179.99 128.799 180.032 128.763 180.074 128.709L181.293 127.316C181.336 127.259 181.383 127.216 181.434 127.188C181.485 127.159 181.55 127.145 181.63 127.145H182.461L180.995 128.799C180.91 128.909 180.816 128.998 180.714 129.063C180.77 129.103 180.82 129.148 180.863 129.199C180.905 129.248 180.947 129.303 180.986 129.365L182.55 131.492H181.732C181.658 131.492 181.594 131.481 181.54 131.458C181.489 131.433 181.444 131.387 181.404 131.322L180.147 129.617C180.104 129.552 180.061 129.51 180.019 129.493C179.976 129.473 179.912 129.464 179.827 129.464H179.601V131.492H178.685V125.185H179.601Z" fill="#0098A5"/>
</g>
<defs>
<filter id="filter0_dd_18062_127177" x="108.917" y="59.5557" width="88.0428" height="119.06" filterUnits="userSpaceOnUse" color-interpolation-filters="sRGB">
<feFlood flood-opacity="0" result="BackgroundImageFix"/>
<feColorMatrix in="SourceAlpha" type="matrix" values="0 0 0 0 0 0 0 0 0 0 0 0 0 0 0 0 0 0 127 0" result="hardAlpha"/>
<feOffset dy="1.7849"/>
<feGaussianBlur stdDeviation="4.46225"/>
<feColorMatrix type="matrix" values="0 0 0 0 0.113725 0 0 0 0 0.160784 0 0 0 0 0.223529 0 0 0 0.15 0"/>
<feBlend mode="normal" in2="BackgroundImageFix" result="effect1_dropShadow_18062_127177"/>
<feColorMatrix in="SourceAlpha" type="matrix" values="0 0 0 0 0 0 0 0 0 0 0 0 0 0 0 0 0 0 127 0" result="hardAlpha"/>
<feOffset/>
<feGaussianBlur stdDeviation="0.669338"/>
<feColorMatrix type="matrix" values="0 0 0 0 0.113725 0 0 0 0 0.160784 0 0 0 0 0.223529 0 0 0 0.1 0"/>
<feBlend mode="normal" in2="effect1_dropShadow_18062_127177" result="effect2_dropShadow_18062_127177"/>
<feBlend mode="normal" in="SourceGraphic" in2="effect2_dropShadow_18062_127177" result="shape"/>
</filter>
<filter id="filter1_dd_18062_127177" x="0.949035" y="59.5557" width="88.0428" height="119.06" filterUnits="userSpaceOnUse" color-interpolation-filters="sRGB">
<feFlood flood-opacity="0" result="BackgroundImageFix"/>
<feColorMatrix in="SourceAlpha" type="matrix" values="0 0 0 0 0 0 0 0 0 0 0 0 0 0 0 0 0 0 127 0" result="hardAlpha"/>
<feOffset dy="1.7849"/>
<feGaussianBlur stdDeviation="4.46225"/>
<feColorMatrix type="matrix" values="0 0 0 0 0.113725 0 0 0 0 0.160784 0 0 0 0 0.223529 0 0 0 0.15 0"/>
<feBlend mode="normal" in2="BackgroundImageFix" result="effect1_dropShadow_18062_127177"/>
<feColorMatrix in="SourceAlpha" type="matrix" values="0 0 0 0 0 0 0 0 0 0 0 0 0 0 0 0 0 0 127 0" result="hardAlpha"/>
<feOffset/>
<feGaussianBlur stdDeviation="0.669338"/>
<feColorMatrix type="matrix" values="0 0 0 0 0.113725 0 0 0 0 0.160784 0 0 0 0 0.223529 0 0 0 0.1 0"/>
<feBlend mode="normal" in2="effect1_dropShadow_18062_127177" result="effect2_dropShadow_18062_127177"/>
<feBlend mode="normal" in="SourceGraphic" in2="effect2_dropShadow_18062_127177" result="shape"/>
</filter>
<filter id="filter2_dd_18062_127177" x="31.8933" y="0.634921" width="139.222" height="207.413" filterUnits="userSpaceOnUse" color-interpolation-filters="sRGB">
<feFlood flood-opacity="0" result="BackgroundImageFix"/>
<feColorMatrix in="SourceAlpha" type="matrix" values="0 0 0 0 0 0 0 0 0 0 0 0 0 0 0 0 0 0 127 0" result="hardAlpha"/>
<feOffset dy="2.84127"/>
<feGaussianBlur stdDeviation="7.10317"/>
<feColorMatrix type="matrix" values="0 0 0 0 0.113725 0 0 0 0 0.160784 0 0 0 0 0.223529 0 0 0 0.15 0"/>
<feBlend mode="normal" in2="BackgroundImageFix" result="effect1_dropShadow_18062_127177"/>
<feColorMatrix in="SourceAlpha" type="matrix" values="0 0 0 0 0 0 0 0 0 0 0 0 0 0 0 0 0 0 127 0" result="hardAlpha"/>
<feOffset/>
<feGaussianBlur stdDeviation="1.06548"/>
<feColorMatrix type="matrix" values="0 0 0 0 0.113725 0 0 0 0 0.160784 0 0 0 0 0.223529 0 0 0 0.1 0"/>
<feBlend mode="normal" in2="effect1_dropShadow_18062_127177" result="effect2_dropShadow_18062_127177"/>
<feBlend mode="normal" in="SourceGraphic" in2="effect2_dropShadow_18062_127177" result="shape"/>
</filter>
<filter id="filter3_dd_18062_127177" x="122.106" y="115.706" width="72.4523" height="29.8336" filterUnits="userSpaceOnUse" color-interpolation-filters="sRGB">
<feFlood flood-opacity="0" result="BackgroundImageFix"/>
<feColorMatrix in="SourceAlpha" type="matrix" values="0 0 0 0 0 0 0 0 0 0 0 0 0 0 0 0 0 0 127 0" result="hardAlpha"/>
<feOffset dy="2.84127"/>
<feGaussianBlur stdDeviation="1.42063"/>
<feColorMatrix type="matrix" values="0 0 0 0 0.113725 0 0 0 0 0.160784 0 0 0 0 0.223529 0 0 0 0.05 0"/>
<feBlend mode="normal" in2="BackgroundImageFix" result="effect1_dropShadow_18062_127177"/>
<feColorMatrix in="SourceAlpha" type="matrix" values="0 0 0 0 0 0 0 0 0 0 0 0 0 0 0 0 0 0 127 0" result="hardAlpha"/>
<feMorphology radius="0.710317" operator="dilate" in="SourceAlpha" result="effect2_dropShadow_18062_127177"/>
<feOffset/>
<feGaussianBlur stdDeviation="0.355159"/>
<feColorMatrix type="matrix" values="0 0 0 0 0.894118 0 0 0 0 0.905882 0 0 0 0 0.92549 0 0 0 1 0"/>
<feBlend mode="normal" in2="effect1_dropShadow_18062_127177" result="effect2_dropShadow_18062_127177"/>
<feBlend mode="normal" in="SourceGraphic" in2="effect2_dropShadow_18062_127177" result="shape"/>
</filter>
<linearGradient id="paint0_linear_18062_127177" x1="90.8518" y1="186.12" x2="90.4967" y2="123.257" gradientUnits="userSpaceOnUse">
<stop stop-color="white"/>
<stop offset="1" stop-color="#19D4D8" stop-opacity="0.3"/>
</linearGradient>
<linearGradient id="paint1_linear_18062_127177" x1="152.939" y1="73.834" x2="152.939" y2="136.888" gradientUnits="userSpaceOnUse">
<stop stop-color="#F2F4F7"/>
<stop offset="1" stop-color="#F2F4F7" stop-opacity="0"/>
</linearGradient>
<linearGradient id="paint2_linear_18062_127177" x1="152.939" y1="73.834" x2="152.939" y2="136.888" gradientUnits="userSpaceOnUse">
<stop stop-color="#E4E7EC"/>
<stop offset="1" stop-color="#E4E7EC" stop-opacity="0"/>
</linearGradient>
<linearGradient id="paint3_linear_18062_127177" x1="44.9706" y1="73.834" x2="44.9706" y2="136.888" gradientUnits="userSpaceOnUse">
<stop stop-color="#F2F4F7"/>
<stop offset="1" stop-color="#F2F4F7" stop-opacity="0"/>
</linearGradient>
<linearGradient id="paint4_linear_18062_127177" x1="44.9706" y1="73.834" x2="44.9706" y2="136.888" gradientUnits="userSpaceOnUse">
<stop stop-color="#E4E7EC"/>
<stop offset="1" stop-color="#E4E7EC" stop-opacity="0"/>
</linearGradient>
<linearGradient id="paint5_linear_18062_127177" x1="101.505" y1="23.3652" x2="101.505" y2="111.445" gradientUnits="userSpaceOnUse">
<stop stop-color="#F2F4F7"/>
<stop offset="1" stop-color="#F2F4F7" stop-opacity="0"/>
</linearGradient>
<linearGradient id="paint6_linear_18062_127177" x1="101.505" y1="23.3652" x2="101.505" y2="111.445" gradientUnits="userSpaceOnUse">
<stop stop-color="#E4E7EC"/>
<stop offset="1" stop-color="#E4E7EC" stop-opacity="0"/>
</linearGradient>
</defs>
</svg>
