<svg width="40" height="38" viewBox="0 0 40 38" fill="none" xmlns="http://www.w3.org/2000/svg">
<path d="M10.75 11C10.3358 11 10 11.3358 10 11.75C10 12.1642 10.3358 12.5 10.75 12.5V11ZM29.25 12.5C29.6642 12.5 30 12.1642 30 11.75C30 11.3358 29.6642 11 29.25 11V12.5ZM10.75 18.25C10.3358 18.25 10 18.5858 10 19C10 19.4142 10.3358 19.75 10.75 19.75V18.25ZM29.25 19.75C29.6642 19.75 30 19.4142 30 19C30 18.5858 29.6642 18.25 29.25 18.25V19.75ZM10.75 25.5C10.3358 25.5 10 25.8358 10 26.25C10 26.6642 10.3358 27 10.75 27V25.5ZM29.25 27C29.6642 27 30 26.6642 30 26.25C30 25.8358 29.6642 25.5 29.25 25.5V27ZM10.75 12.5H29.25V11H10.75V12.5ZM10.75 19.75H29.25V18.25H10.75V19.75ZM10.75 27H29.25V25.5H10.75V27Z" fill="#E30613"/>
</svg>
