<svg width="130" height="32" viewBox="0 0 130 32" fill="none" xmlns="http://www.w3.org/2000/svg">
<rect width="130" height="32" rx="6" fill="#E30613"/>
<path d="M16.025 20.5825L16.0175 22H9.2825V11.2H16.0175V12.6175H11.045V15.8725H15.02V17.245H11.045V20.5825H16.025ZM24.1951 22H22.6501C22.5251 22 22.4251 21.9675 22.3501 21.9025C22.2801 21.8375 22.2226 21.765 22.1776 21.685L20.4151 18.8575C20.3701 19.0275 20.3101 19.175 20.2351 19.3L18.6376 21.685C18.5826 21.765 18.5201 21.8375 18.4501 21.9025C18.3851 21.9675 18.2976 22 18.1876 22H16.7476L19.3951 18.055L16.8526 14.35H18.3976C18.5226 14.35 18.6126 14.37 18.6676 14.41C18.7276 14.445 18.7801 14.5 18.8251 14.575L20.5576 17.275C20.6026 17.11 20.6726 16.9525 20.7676 16.8025L22.2301 14.605C22.3301 14.435 22.4576 14.35 22.6126 14.35H24.0901L21.5476 17.9875L24.1951 22ZM26.8987 20.08C27.1237 20.37 27.3687 20.575 27.6337 20.695C27.9037 20.81 28.2012 20.8675 28.5262 20.8675C29.1562 20.8675 29.6462 20.6375 29.9962 20.1775C30.3512 19.7175 30.5287 19.0325 30.5287 18.1225C30.5287 17.6525 30.4887 17.2525 30.4087 16.9225C30.3287 16.5875 30.2137 16.315 30.0637 16.105C29.9137 15.895 29.7312 15.7425 29.5162 15.6475C29.3012 15.5525 29.0587 15.505 28.7887 15.505C28.3787 15.505 28.0237 15.595 27.7237 15.775C27.4287 15.95 27.1537 16.2025 26.8987 16.5325V20.08ZM26.8162 15.46C27.1362 15.085 27.4987 14.7825 27.9037 14.5525C28.3137 14.3225 28.7887 14.2075 29.3287 14.2075C29.7587 14.2075 30.1487 14.295 30.4987 14.47C30.8487 14.64 31.1487 14.89 31.3987 15.22C31.6487 15.55 31.8412 15.96 31.9762 16.45C32.1162 16.935 32.1862 17.4925 32.1862 18.1225C32.1862 18.6875 32.1087 19.215 31.9537 19.705C31.8037 20.19 31.5862 20.6125 31.3012 20.9725C31.0162 21.3275 30.6712 21.6075 30.2662 21.8125C29.8612 22.0125 29.4037 22.1125 28.8937 22.1125C28.4437 22.1125 28.0612 22.04 27.7462 21.895C27.4362 21.75 27.1537 21.55 26.8987 21.295V24.5425H25.2862V14.35H26.2612C26.4812 14.35 26.6212 14.4525 26.6812 14.6575L26.8162 15.46ZM35.3955 10.9V22H33.783V10.9H35.3955ZM40.6933 14.23C41.2583 14.23 41.7683 14.3225 42.2233 14.5075C42.6833 14.6925 43.0733 14.955 43.3933 15.295C43.7183 15.635 43.9683 16.0475 44.1433 16.5325C44.3183 17.0175 44.4058 17.5625 44.4058 18.1675C44.4058 18.7725 44.3183 19.3175 44.1433 19.8025C43.9683 20.2875 43.7183 20.7025 43.3933 21.0475C43.0733 21.3875 42.6833 21.65 42.2233 21.835C41.7683 22.02 41.2583 22.1125 40.6933 22.1125C40.1233 22.1125 39.6083 22.02 39.1483 21.835C38.6933 21.65 38.3033 21.3875 37.9783 21.0475C37.6533 20.7025 37.4033 20.2875 37.2283 19.8025C37.0533 19.3175 36.9658 18.7725 36.9658 18.1675C36.9658 17.5625 37.0533 17.0175 37.2283 16.5325C37.4033 16.0475 37.6533 15.635 37.9783 15.295C38.3033 14.955 38.6933 14.6925 39.1483 14.5075C39.6083 14.3225 40.1233 14.23 40.6933 14.23ZM40.6933 20.8525C41.3833 20.8525 41.8958 20.6225 42.2308 20.1625C42.5708 19.6975 42.7408 19.035 42.7408 18.175C42.7408 17.315 42.5708 16.6525 42.2308 16.1875C41.8958 15.7175 41.3833 15.4825 40.6933 15.4825C39.9933 15.4825 39.4733 15.7175 39.1333 16.1875C38.7933 16.6525 38.6233 17.315 38.6233 18.175C38.6233 19.035 38.7933 19.6975 39.1333 20.1625C39.4733 20.6225 39.9933 20.8525 40.6933 20.8525ZM47.4777 15.7675C47.7177 15.2825 48.0077 14.9025 48.3477 14.6275C48.6877 14.3475 49.0952 14.2075 49.5702 14.2075C49.7352 14.2075 49.8902 14.2275 50.0352 14.2675C50.1802 14.3025 50.3102 14.3575 50.4252 14.4325L50.3127 15.6475C50.2927 15.7325 50.2602 15.7925 50.2152 15.8275C50.1752 15.8575 50.1202 15.8725 50.0502 15.8725C49.9752 15.8725 49.8677 15.86 49.7277 15.835C49.5877 15.805 49.4402 15.79 49.2852 15.79C49.0602 15.79 48.8602 15.8225 48.6852 15.8875C48.5152 15.9525 48.3602 16.0475 48.2202 16.1725C48.0852 16.2975 47.9652 16.45 47.8602 16.63C47.7552 16.81 47.6577 17.015 47.5677 17.245V22H45.9552V14.35H46.8927C47.0627 14.35 47.1802 14.3825 47.2452 14.4475C47.3102 14.5075 47.3552 14.615 47.3802 14.77L47.4777 15.7675ZM56.2461 17.3125C56.2461 17.0425 56.2061 16.7925 56.1261 16.5625C56.0511 16.3275 55.9386 16.125 55.7886 15.955C55.6386 15.78 55.4511 15.645 55.2261 15.55C55.0061 15.45 54.7511 15.4 54.4611 15.4C53.8761 15.4 53.4161 15.5675 53.0811 15.9025C52.7461 16.2375 52.5336 16.7075 52.4436 17.3125H56.2461ZM52.3986 18.3025C52.4186 18.7375 52.4861 19.115 52.6011 19.435C52.7161 19.75 52.8686 20.0125 53.0586 20.2225C53.2536 20.4325 53.4836 20.59 53.7486 20.695C54.0186 20.795 54.3186 20.845 54.6486 20.845C54.9636 20.845 55.2361 20.81 55.4661 20.74C55.6961 20.665 55.8961 20.585 56.0661 20.5C56.2361 20.41 56.3811 20.33 56.5011 20.26C56.6211 20.185 56.7311 20.1475 56.8311 20.1475C56.9611 20.1475 57.0611 20.1975 57.1311 20.2975L57.5886 20.89C57.3986 21.115 57.1836 21.305 56.9436 21.46C56.7036 21.615 56.4486 21.7425 56.1786 21.8425C55.9086 21.9375 55.6311 22.005 55.3461 22.045C55.0611 22.09 54.7836 22.1125 54.5136 22.1125C53.9836 22.1125 53.4911 22.025 53.0361 21.85C52.5861 21.67 52.1936 21.4075 51.8586 21.0625C51.5286 20.7175 51.2686 20.29 51.0786 19.78C50.8936 19.27 50.8011 18.6825 50.8011 18.0175C50.8011 17.4875 50.8836 16.9925 51.0486 16.5325C51.2186 16.0725 51.4586 15.6725 51.7686 15.3325C52.0836 14.9925 52.4636 14.725 52.9086 14.53C53.3586 14.33 53.8661 14.23 54.4311 14.23C54.9011 14.23 55.3361 14.3075 55.7361 14.4625C56.1361 14.6125 56.4811 14.835 56.7711 15.13C57.0611 15.425 57.2861 15.7875 57.4461 16.2175C57.6111 16.6425 57.6936 17.1275 57.6936 17.6725C57.6936 17.9225 57.6661 18.09 57.6111 18.175C57.5561 18.26 57.4561 18.3025 57.3111 18.3025H52.3986ZM74.7227 11.2V22H73.1777V14.5975C73.1777 14.4775 73.1802 14.3475 73.1852 14.2075C73.1952 14.0625 73.2077 13.9175 73.2227 13.7725L69.7502 20.185C69.6152 20.45 69.4077 20.5825 69.1277 20.5825H68.8802C68.5952 20.5825 68.3877 20.45 68.2577 20.185L64.7327 13.7575C64.7477 13.9025 64.7577 14.0475 64.7627 14.1925C64.7727 14.3375 64.7777 14.4725 64.7777 14.5975V22H63.2327V11.2H64.5452C64.7002 11.2 64.8202 11.215 64.9052 11.245C64.9902 11.27 65.0677 11.3525 65.1377 11.4925L68.6027 17.77C68.6777 17.915 68.7477 18.065 68.8127 18.22C68.8827 18.37 68.9452 18.525 69.0002 18.685C69.0602 18.525 69.1227 18.3675 69.1877 18.2125C69.2577 18.0525 69.3302 17.9 69.4052 17.755L72.8177 11.4925C72.8877 11.3525 72.9652 11.27 73.0502 11.245C73.1352 11.215 73.2552 11.2 73.4102 11.2H74.7227ZM80.0537 14.23C80.6187 14.23 81.1287 14.3225 81.5837 14.5075C82.0437 14.6925 82.4337 14.955 82.7537 15.295C83.0787 15.635 83.3287 16.0475 83.5037 16.5325C83.6787 17.0175 83.7662 17.5625 83.7662 18.1675C83.7662 18.7725 83.6787 19.3175 83.5037 19.8025C83.3287 20.2875 83.0787 20.7025 82.7537 21.0475C82.4337 21.3875 82.0437 21.65 81.5837 21.835C81.1287 22.02 80.6187 22.1125 80.0537 22.1125C79.4837 22.1125 78.9687 22.02 78.5087 21.835C78.0537 21.65 77.6637 21.3875 77.3387 21.0475C77.0137 20.7025 76.7637 20.2875 76.5887 19.8025C76.4137 19.3175 76.3262 18.7725 76.3262 18.1675C76.3262 17.5625 76.4137 17.0175 76.5887 16.5325C76.7637 16.0475 77.0137 15.635 77.3387 15.295C77.6637 14.955 78.0537 14.6925 78.5087 14.5075C78.9687 14.3225 79.4837 14.23 80.0537 14.23ZM80.0537 20.8525C80.7437 20.8525 81.2562 20.6225 81.5912 20.1625C81.9312 19.6975 82.1012 19.035 82.1012 18.175C82.1012 17.315 81.9312 16.6525 81.5912 16.1875C81.2562 15.7175 80.7437 15.4825 80.0537 15.4825C79.3537 15.4825 78.8337 15.7175 78.4937 16.1875C78.1537 16.6525 77.9837 17.315 77.9837 18.175C77.9837 19.035 78.1537 19.6975 78.4937 20.1625C78.8337 20.6225 79.3537 20.8525 80.0537 20.8525ZM86.838 15.7675C87.078 15.2825 87.368 14.9025 87.708 14.6275C88.048 14.3475 88.4555 14.2075 88.9305 14.2075C89.0955 14.2075 89.2505 14.2275 89.3955 14.2675C89.5405 14.3025 89.6705 14.3575 89.7855 14.4325L89.673 15.6475C89.653 15.7325 89.6205 15.7925 89.5755 15.8275C89.5355 15.8575 89.4805 15.8725 89.4105 15.8725C89.3355 15.8725 89.228 15.86 89.088 15.835C88.948 15.805 88.8005 15.79 88.6455 15.79C88.4205 15.79 88.2205 15.8225 88.0455 15.8875C87.8755 15.9525 87.7205 16.0475 87.5805 16.1725C87.4455 16.2975 87.3255 16.45 87.2205 16.63C87.1155 16.81 87.018 17.015 86.928 17.245V22H85.3155V14.35H86.253C86.423 14.35 86.5405 14.3825 86.6055 14.4475C86.6705 14.5075 86.7155 14.615 86.7405 14.77L86.838 15.7675ZM95.6064 17.3125C95.6064 17.0425 95.5664 16.7925 95.4864 16.5625C95.4114 16.3275 95.2989 16.125 95.1489 15.955C94.9989 15.78 94.8114 15.645 94.5864 15.55C94.3664 15.45 94.1114 15.4 93.8214 15.4C93.2364 15.4 92.7764 15.5675 92.4414 15.9025C92.1064 16.2375 91.8939 16.7075 91.8039 17.3125H95.6064ZM91.7589 18.3025C91.7789 18.7375 91.8464 19.115 91.9614 19.435C92.0764 19.75 92.2289 20.0125 92.4189 20.2225C92.6139 20.4325 92.8439 20.59 93.1089 20.695C93.3789 20.795 93.6789 20.845 94.0089 20.845C94.3239 20.845 94.5964 20.81 94.8264 20.74C95.0564 20.665 95.2564 20.585 95.4264 20.5C95.5964 20.41 95.7414 20.33 95.8614 20.26C95.9814 20.185 96.0914 20.1475 96.1914 20.1475C96.3214 20.1475 96.4214 20.1975 96.4914 20.2975L96.9489 20.89C96.7589 21.115 96.5439 21.305 96.3039 21.46C96.0639 21.615 95.8089 21.7425 95.5389 21.8425C95.2689 21.9375 94.9914 22.005 94.7064 22.045C94.4214 22.09 94.1439 22.1125 93.8739 22.1125C93.3439 22.1125 92.8514 22.025 92.3964 21.85C91.9464 21.67 91.5539 21.4075 91.2189 21.0625C90.8889 20.7175 90.6289 20.29 90.4389 19.78C90.2539 19.27 90.1614 18.6825 90.1614 18.0175C90.1614 17.4875 90.2439 16.9925 90.4089 16.5325C90.5789 16.0725 90.8189 15.6725 91.1289 15.3325C91.4439 14.9925 91.8239 14.725 92.2689 14.53C92.7189 14.33 93.2264 14.23 93.7914 14.23C94.2614 14.23 94.6964 14.3075 95.0964 14.4625C95.4964 14.6125 95.8414 14.835 96.1314 15.13C96.4214 15.425 96.6464 15.7875 96.8064 16.2175C96.9714 16.6425 97.0539 17.1275 97.0539 17.6725C97.0539 17.9225 97.0264 18.09 96.9714 18.175C96.9164 18.26 96.8164 18.3025 96.6714 18.3025H91.7589Z" fill="white"/>
<path d="M118 16L113.05 21M118 16L106 16M118 16L113.05 11" stroke="white" stroke-width="1.5" stroke-linecap="round" stroke-linejoin="round"/>
</svg>
