<svg width="343" height="125" viewBox="0 0 343 125" fill="none" xmlns="http://www.w3.org/2000/svg">
<g clip-path="url(#clip0_1_652)">
<rect width="343" height="125" fill="white"/>
<path d="M363 76.3202H-8V93.3202H363V76.3202Z" fill="white" stroke="#BAC2CF" stroke-width="1.59" stroke-miterlimit="10"/>
<path d="M22.0604 90.0402C24.7831 90.0402 26.9904 87.8332 26.9904 85.1102C26.9904 82.3882 24.7831 80.1802 22.0604 80.1802C19.3376 80.1802 17.1304 82.3882 17.1304 85.1102C17.1304 87.8332 19.3376 90.0402 22.0604 90.0402Z" fill="white" stroke="#BAC2CF" stroke-width="1.59" stroke-miterlimit="10"/>
<path d="M69.6702 90.0402C72.3929 90.0402 74.6002 87.8332 74.6002 85.1102C74.6002 82.3882 72.3929 80.1802 69.6702 80.1802C66.9474 80.1802 64.7402 82.3882 64.7402 85.1102C64.7402 87.8332 66.9474 90.0402 69.6702 90.0402Z" fill="white" stroke="#BAC2CF" stroke-width="1.59" stroke-miterlimit="10"/>
<path d="M117.28 90.0402C120.003 90.0402 122.21 87.8332 122.21 85.1102C122.21 82.3882 120.003 80.1802 117.28 80.1802C114.557 80.1802 112.35 82.3882 112.35 85.1102C112.35 87.8332 114.557 90.0402 117.28 90.0402Z" fill="white" stroke="#BAC2CF" stroke-width="1.59" stroke-miterlimit="10"/>
<path d="M164.89 90.0402C167.613 90.0402 169.82 87.8332 169.82 85.1102C169.82 82.3882 167.613 80.1802 164.89 80.1802C162.167 80.1802 159.96 82.3882 159.96 85.1102C159.96 87.8332 162.167 90.0402 164.89 90.0402Z" fill="white" stroke="#BAC2CF" stroke-width="1.59" stroke-miterlimit="10"/>
<path d="M212.5 90.0402C215.223 90.0402 217.43 87.8332 217.43 85.1102C217.43 82.3882 215.223 80.1802 212.5 80.1802C209.777 80.1802 207.57 82.3882 207.57 85.1102C207.57 87.8332 209.777 90.0402 212.5 90.0402Z" fill="white" stroke="#BAC2CF" stroke-width="1.59" stroke-miterlimit="10"/>
<path d="M260.11 90.0402C262.833 90.0402 265.04 87.8332 265.04 85.1102C265.04 82.3882 262.833 80.1802 260.11 80.1802C257.387 80.1802 255.18 82.3882 255.18 85.1102C255.18 87.8332 257.387 90.0402 260.11 90.0402Z" fill="white" stroke="#BAC2CF" stroke-width="1.59" stroke-miterlimit="10"/>
<path d="M307.72 90.0402C310.443 90.0402 312.65 87.8332 312.65 85.1102C312.65 82.3882 310.443 80.1802 307.72 80.1802C304.997 80.1802 302.79 82.3882 302.79 85.1102C302.79 87.8332 304.997 90.0402 307.72 90.0402Z" fill="white" stroke="#BAC2CF" stroke-width="1.59" stroke-miterlimit="10"/>
<path d="M274.72 76.4002H332.2C334.652 76.4002 336.64 74.4122 336.64 71.9602V36.4603C336.64 34.0081 334.652 32.0203 332.2 32.0203H274.72C272.268 32.0203 270.28 34.0081 270.28 36.4603V71.9602C270.28 74.4122 272.268 76.4002 274.72 76.4002Z" fill="#EFEFEF"/>
<path d="M274.72 76.4002H332.2C334.652 76.4002 336.64 74.4122 336.64 71.9602V36.4603C336.64 34.0081 334.652 32.0203 332.2 32.0203H274.72C272.268 32.0203 270.28 34.0081 270.28 36.4603V71.9602C270.28 74.4122 272.268 76.4002 274.72 76.4002Z" stroke="#BAC2CF" stroke-width="1.59" stroke-miterlimit="10"/>
<path d="M267.82 76.4002H325.3C327.752 76.4002 329.74 74.4122 329.74 71.9602V36.4603C329.74 34.0081 327.752 32.0203 325.3 32.0203H267.82C265.368 32.0203 263.38 34.0081 263.38 36.4603V71.9602C263.38 74.4122 265.368 76.4002 267.82 76.4002Z" fill="white"/>
<path d="M267.82 76.4002H325.3C327.752 76.4002 329.74 74.4122 329.74 71.9602V36.4603C329.74 34.0081 327.752 32.0203 325.3 32.0203H267.82C265.368 32.0203 263.38 34.0081 263.38 36.4603V71.9602C263.38 74.4122 265.368 76.4002 267.82 76.4002Z" stroke="#BAC2CF" stroke-width="1.59" stroke-miterlimit="10"/>
<path d="M304.61 38.4901H288.52C288.106 38.4901 287.71 38.3258 287.417 38.0332C287.124 37.7407 286.96 37.3439 286.96 36.9301V32.0001H306.16V36.9301C306.16 37.3421 305.997 37.7374 305.707 38.0297C305.416 38.3219 305.022 38.4875 304.61 38.4901Z" fill="white" stroke="#BAC2CF" stroke-width="1.59" stroke-miterlimit="10"/>
<path d="M288.52 69.7702H304.61C305.024 69.7702 305.421 69.9352 305.713 70.2272C306.006 70.5202 306.17 70.9162 306.17 71.3302V76.2602H286.97V71.3202C286.973 70.9102 287.137 70.5172 287.427 70.2272C287.717 69.9372 288.11 69.7732 288.52 69.7702Z" fill="white" stroke="#BAC2CF" stroke-width="1.59" stroke-miterlimit="10"/>
<path d="M291.39 51.1298H297.61C298.822 51.1298 299.985 51.6112 300.842 52.4683C301.699 53.3253 302.18 54.4877 302.18 55.6998C302.18 56.9127 301.699 58.0762 300.842 58.9352C299.985 59.7932 298.823 60.2772 297.61 60.2802H291.39" stroke="#BAC2CF" stroke-width="1.59" stroke-miterlimit="10"/>
<path d="M293.91 54.1198L290.91 51.1298L293.91 48.1298" stroke="#BAC2CF" stroke-width="1.59" stroke-miterlimit="10"/>
<path d="M189.56 76.4002H247.04C249.492 76.4002 251.48 74.4122 251.48 71.9602V36.4603C251.48 34.0081 249.492 32.0203 247.04 32.0203H189.56C187.108 32.0203 185.12 34.0081 185.12 36.4603V71.9602C185.12 74.4122 187.108 76.4002 189.56 76.4002Z" fill="#EFEFEF"/>
<path d="M189.56 76.4002H247.04C249.492 76.4002 251.48 74.4122 251.48 71.9602V36.4603C251.48 34.0081 249.492 32.0203 247.04 32.0203H189.56C187.108 32.0203 185.12 34.0081 185.12 36.4603V71.9602C185.12 74.4122 187.108 76.4002 189.56 76.4002Z" stroke="#BAC2CF" stroke-width="1.59" stroke-miterlimit="10"/>
<path d="M182.65 76.4002H240.13C242.582 76.4002 244.57 74.4122 244.57 71.9602V36.4603C244.57 34.0081 242.582 32.0203 240.13 32.0203H182.65C180.198 32.0203 178.21 34.0081 178.21 36.4603V71.9602C178.21 74.4122 180.198 76.4002 182.65 76.4002Z" fill="white"/>
<path d="M182.65 76.4002H240.13C242.582 76.4002 244.57 74.4122 244.57 71.9602V36.4603C244.57 34.0081 242.582 32.0203 240.13 32.0203H182.65C180.198 32.0203 178.21 34.0081 178.21 36.4603V71.9602C178.21 74.4122 180.198 76.4002 182.65 76.4002Z" stroke="#BAC2CF" stroke-width="1.59" stroke-miterlimit="10"/>
<path d="M219.39 38.49H203.39C202.976 38.49 202.579 38.3257 202.287 38.0331C201.994 37.7406 201.83 37.3438 201.83 36.93V32H221.03V36.93C221.03 37.1418 220.987 37.3514 220.904 37.5461C220.821 37.7408 220.699 37.9165 220.545 38.0624C220.392 38.2084 220.21 38.3215 220.012 38.3951C219.813 38.4686 219.601 38.5009 219.39 38.49Z" fill="white" stroke="#BAC2CF" stroke-width="1.59" stroke-miterlimit="10"/>
<path d="M203.3 69.7702H219.39C219.598 69.7632 219.806 69.7982 220 69.8732C220.194 69.9482 220.372 70.0612 220.522 70.2052C220.672 70.3502 220.792 70.5232 220.874 70.7142C220.956 70.9062 220.999 71.1122 221 71.3202V76.2502H201.8V71.3202C201.802 70.9182 201.96 70.5332 202.239 70.2442C202.518 69.9552 202.898 69.7852 203.3 69.7702Z" fill="white" stroke="#BAC2CF" stroke-width="1.59" stroke-miterlimit="10"/>
<path d="M206.25 51.1298H212.47C213.682 51.1298 214.845 51.6112 215.702 52.4683C216.559 53.3253 217.04 54.4877 217.04 55.6998C217.04 56.9127 216.559 58.0762 215.702 58.9352C214.845 59.7932 213.683 60.2772 212.47 60.2802H206.25" stroke="#BAC2CF" stroke-width="1.59" stroke-miterlimit="10"/>
<path d="M208.74 54.1198L205.74 51.1298L208.74 48.1298" stroke="#BAC2CF" stroke-width="1.59" stroke-miterlimit="10"/>
<path d="M104.39 76.4002H161.87C164.322 76.4002 166.31 74.4122 166.31 71.9602V36.4603C166.31 34.0081 164.322 32.0203 161.87 32.0203H104.39C101.938 32.0203 99.9502 34.0081 99.9502 36.4603V71.9602C99.9502 74.4122 101.938 76.4002 104.39 76.4002Z" fill="#EFEFEF"/>
<path d="M104.39 76.4002H161.87C164.322 76.4002 166.31 74.4122 166.31 71.9602V36.4603C166.31 34.0081 164.322 32.0203 161.87 32.0203H104.39C101.938 32.0203 99.9502 34.0081 99.9502 36.4603V71.9602C99.9502 74.4122 101.938 76.4002 104.39 76.4002Z" stroke="#BAC2CF" stroke-width="1.59" stroke-miterlimit="10"/>
<path d="M97.48 76.4002H154.96C157.412 76.4002 159.4 74.4122 159.4 71.9602V36.4603C159.4 34.0081 157.412 32.0203 154.96 32.0203H97.48C95.0278 32.0203 93.04 34.0081 93.04 36.4603V71.9602C93.04 74.4122 95.0278 76.4002 97.48 76.4002Z" fill="white"/>
<path d="M97.48 76.4002H154.96C157.412 76.4002 159.4 74.4122 159.4 71.9602V36.4603C159.4 34.0081 157.412 32.0203 154.96 32.0203H97.48C95.0278 32.0203 93.04 34.0081 93.04 36.4603V71.9602C93.04 74.4122 95.0278 76.4002 97.48 76.4002Z" stroke="#BAC2CF" stroke-width="1.59" stroke-miterlimit="10"/>
<path d="M134.27 38.4901H118.18C117.766 38.4901 117.37 38.3258 117.077 38.0332C116.784 37.7407 116.62 37.3439 116.62 36.9301V32.0001H135.82V36.9301C135.82 37.3421 135.657 37.7374 135.367 38.0297C135.076 38.3219 134.682 38.4875 134.27 38.4901Z" fill="white" stroke="#BAC2CF" stroke-width="1.59" stroke-miterlimit="10"/>
<path d="M118.18 69.7702H134.3C134.714 69.7702 135.111 69.9352 135.403 70.2272C135.696 70.5202 135.86 70.9162 135.86 71.3302V76.2602H116.66V71.3202C116.663 70.9152 116.823 70.5272 117.106 70.2372C117.39 69.9482 117.775 69.7812 118.18 69.7702Z" fill="white" stroke="#BAC2CF" stroke-width="1.59" stroke-miterlimit="10"/>
<path d="M121.08 51.1298H127.3C128.512 51.1298 129.674 51.6112 130.532 52.4683C131.389 53.3253 131.87 54.4877 131.87 55.6998C131.87 56.9127 131.389 58.0762 130.532 58.9352C129.675 59.7932 128.513 60.2772 127.3 60.2802H121.08" stroke="#BAC2CF" stroke-width="1.59" stroke-miterlimit="10"/>
<path d="M123.57 54.1198L120.57 51.1298L123.57 48.1298" stroke="#BAC2CF" stroke-width="1.59" stroke-miterlimit="10"/>
<path d="M19.2203 76.4002H76.7003C79.1524 76.4002 81.1403 74.4122 81.1403 71.9602V36.4603C81.1403 34.0081 79.1524 32.0203 76.7003 32.0203H19.2203C16.7682 32.0203 14.7803 34.0081 14.7803 36.4603V71.9602C14.7803 74.4122 16.7682 76.4002 19.2203 76.4002Z" fill="#EFEFEF"/>
<path d="M19.2203 76.4002H76.7003C79.1524 76.4002 81.1403 74.4122 81.1403 71.9602V36.4603C81.1403 34.0081 79.1524 32.0203 76.7003 32.0203H19.2203C16.7682 32.0203 14.7803 34.0081 14.7803 36.4603V71.9602C14.7803 74.4122 16.7682 76.4002 19.2203 76.4002Z" stroke="#BAC2CF" stroke-width="1.59" stroke-miterlimit="10"/>
<path d="M12.3101 76.4002H69.7901C72.2422 76.4002 74.2301 74.4122 74.2301 71.9602V36.4603C74.2301 34.0081 72.2422 32.0203 69.7901 32.0203H12.3101C9.85798 32.0203 7.87012 34.0081 7.87012 36.4603V71.9602C7.87012 74.4122 9.85798 76.4002 12.3101 76.4002Z" fill="white"/>
<path d="M12.3101 76.4002H69.7901C72.2422 76.4002 74.2301 74.4122 74.2301 71.9602V36.4603C74.2301 34.0081 72.2422 32.0203 69.7901 32.0203H12.3101C9.85798 32.0203 7.87012 34.0081 7.87012 36.4603V71.9602C7.87012 74.4122 9.85798 76.4002 12.3101 76.4002Z" stroke="#BAC2CF" stroke-width="1.59" stroke-miterlimit="10"/>
<path d="M49.1002 38.4901H33.0102C32.5964 38.4901 32.1997 38.3258 31.9071 38.0332C31.6145 37.7407 31.4502 37.3439 31.4502 36.9301V32.0001H50.6502V36.9301C50.6502 37.3421 50.4872 37.7374 50.1968 38.0297C49.9064 38.3219 49.5122 38.4875 49.1002 38.4901Z" fill="white" stroke="#BAC2CF" stroke-width="1.59" stroke-miterlimit="10"/>
<path d="M33.0102 69.7702H49.1002C49.5122 69.7702 49.9075 69.9332 50.1998 70.2242C50.4921 70.5142 50.6576 70.9082 50.6602 71.3202V76.2502H31.4502V71.3202C31.4529 70.9082 31.6184 70.5142 31.9107 70.2242C32.2029 69.9332 32.5982 69.7702 33.0102 69.7702Z" fill="white" stroke="#BAC2CF" stroke-width="1.59" stroke-miterlimit="10"/>
<path d="M35.9102 51.1298H42.1302C43.3422 51.1298 44.5046 51.6112 45.3617 52.4683C46.2187 53.3253 46.7002 54.4877 46.7002 55.6998C46.7002 56.9127 46.219 58.0762 45.3623 58.9352C44.5055 59.7932 43.3431 60.2772 42.1302 60.2802H35.9102" stroke="#BAC2CF" stroke-width="1.59" stroke-miterlimit="10"/>
<path d="M38.4004 54.1198L35.4004 51.1298L38.4004 48.1298" stroke="#BAC2CF" stroke-width="1.59" stroke-miterlimit="10"/>
</g>
<defs>
<clipPath id="clip0_1_652">
<rect width="343" height="125" fill="white"/>
</clipPath>
</defs>
</svg>
