<svg width="20" height="20" viewBox="0 0 20 20" fill="none" xmlns="http://www.w3.org/2000/svg">
<path d="M16.25 9.21875C16.0589 7.84392 15.4211 6.57005 14.4349 5.59336C13.4486 4.61667 12.1686 3.99134 10.7919 3.81371C9.4153 3.63608 8.01845 3.916 6.81656 4.61035C5.61467 5.30469 4.67441 6.37495 4.14062 7.65625M3.75 3.75V7.65625H7.65625M3.75 10.7812C3.94106 12.1561 4.57885 13.43 5.56513 14.4066C6.5514 15.3833 7.83144 16.0087 9.20807 16.1863C10.5847 16.3639 11.9815 16.084 13.1834 15.3897C14.3853 14.6953 15.3256 13.6251 15.8594 12.3438M15.8594 12.3438H16.25V16.25M15.8594 12.3438H12.3438" stroke="#667085" stroke-width="1.5" stroke-linecap="round" stroke-linejoin="round"/>
</svg>
