<svg width="20" height="20" viewBox="0 0 20 20" fill="none" xmlns="http://www.w3.org/2000/svg">
<path d="M10.001 20.0009C4.48098 19.9949 0.00697656 15.5209 0.000976562 10.0009V9.80088C0.110977 4.30588 4.63598 -0.0711243 10.131 0.000875677C15.628 0.0748757 20.035 4.56988 19.999 10.0659C19.963 15.5629 15.498 20.0009 10.001 20.0009ZM6.11666 10.2938C5.7267 9.90538 5.09586 9.90599 4.70666 10.2952C4.31692 10.6849 4.31692 11.3168 4.70666 11.7066L7.29387 14.2938C7.68439 14.6843 8.31756 14.6843 8.70808 14.2938L15.2964 7.70549C15.6859 7.31594 15.6866 6.68431 15.2985 6.29338C14.9084 5.9005 14.2729 5.89898 13.8814 6.29049L8.70672 11.4651C8.31673 11.8551 7.68462 11.8557 7.29387 11.4665L6.11666 10.2938Z" fill="#28A138"/>
</svg>
