<svg width="343" height="125" viewBox="0 0 343 125" fill="none" xmlns="http://www.w3.org/2000/svg">
<path d="M343 0H0V125H343V0Z" fill="white"/>
<path d="M130.39 116.27V36.8799" stroke="#BAC2CF" stroke-width="1.59" stroke-miterlimit="10"/>
<path d="M130.39 61.42C145.142 61.42 157.1 49.4615 157.1 34.71C157.1 19.9585 145.142 8 130.39 8C115.638 8 103.68 19.9585 103.68 34.71C103.68 49.4615 115.638 61.42 130.39 61.42Z" fill="white" stroke="#BAC2CF" stroke-width="1.59" stroke-miterlimit="10"/>
<path d="M120.17 24.4903L140.61 44.9303" stroke="#BAC2CF" stroke-width="2.07" stroke-miterlimit="10"/>
<path d="M120.17 44.9303L140.61 24.4903" stroke="#BAC2CF" stroke-width="2.07" stroke-miterlimit="10"/>
<path d="M206.83 67.8599H143.79C141.437 67.8599 139.53 69.7672 139.53 72.1199V111.46C139.53 113.812 141.437 115.72 143.79 115.72H206.83C209.183 115.72 211.09 113.812 211.09 111.46V72.1199C211.09 69.7672 209.183 67.8599 206.83 67.8599Z" fill="#EFEFEF"/>
<path d="M206.83 67.8599H143.79C141.437 67.8599 139.53 69.7672 139.53 72.1199V111.46C139.53 113.812 141.437 115.72 143.79 115.72H206.83C209.183 115.72 211.09 113.812 211.09 111.46V72.1199C211.09 69.7672 209.183 67.8599 206.83 67.8599Z" stroke="#BAC2CF" stroke-width="1.59" stroke-miterlimit="10"/>
<path d="M214.28 67.8599H151.24C148.887 67.8599 146.98 69.7672 146.98 72.1199V111.46C146.98 113.812 148.887 115.72 151.24 115.72H214.28C216.633 115.72 218.54 113.812 218.54 111.46V72.1199C218.54 69.7672 216.633 67.8599 214.28 67.8599Z" fill="white"/>
<path d="M214.28 67.8599H151.24C148.887 67.8599 146.98 69.7672 146.98 72.1199V111.46C146.98 113.812 148.887 115.72 151.24 115.72H214.28C216.633 115.72 218.54 113.812 218.54 111.46V72.1199C218.54 69.7672 216.633 67.8599 214.28 67.8599Z" stroke="#BAC2CF" stroke-width="1.59" stroke-miterlimit="10"/>
<path d="M172.4 67.8599H193.11V73.3599C193.11 73.5564 193.071 73.751 192.996 73.9324C192.92 74.1138 192.809 74.2785 192.67 74.417C192.531 74.5555 192.365 74.6651 192.183 74.7394C192.001 74.8136 191.807 74.8512 191.61 74.8499H173.9C173.704 74.8499 173.511 74.8113 173.33 74.7365C173.149 74.6616 172.985 74.5518 172.846 74.4135C172.708 74.2751 172.598 74.1109 172.523 73.9301C172.449 73.7493 172.41 73.5556 172.41 73.3599V67.8599H172.4Z" fill="white" stroke="#BAC2CF" stroke-width="1.59" stroke-miterlimit="10"/>
<path d="M193.12 115.57H172.41V110.07C172.41 109.674 172.567 109.295 172.846 109.016C173.126 108.737 173.505 108.58 173.9 108.58H191.63C192.025 108.58 192.404 108.737 192.684 109.016C192.963 109.295 193.12 109.674 193.12 110.07V115.57Z" fill="white" stroke="#BAC2CF" stroke-width="1.59" stroke-miterlimit="10"/>
<path d="M179.18 97.5402H186.93" stroke="#BAC2CF" stroke-width="1.59" stroke-miterlimit="10"/>
<path d="M186.34 87.3702H196.24" stroke="#BAC2CF" stroke-width="2" stroke-miterlimit="10"/>
<path d="M169.28 87.3702H179.18" stroke="#BAC2CF" stroke-width="2" stroke-miterlimit="10"/>
<path d="M75 115.8H267.22" stroke="#BAC2CF" stroke-width="1.59" stroke-miterlimit="10"/>
</svg>
