<svg width="22" height="19" viewBox="0 0 22 19" fill="none" xmlns="http://www.w3.org/2000/svg">
<path d="M4.35427 11.0597C4.22594 12.3501 5.40843 13.4584 6.91176 13.4584H16.6743C17.9943 13.4584 19.1493 12.5243 19.2501 11.3922L19.7451 5.4547C19.8551 4.14054 18.7001 3.07178 17.1693 3.07178H5.33511" stroke="#667085" stroke-width="1.5" stroke-miterlimit="10" stroke-linecap="round" stroke-linejoin="round"/>
<path d="M1.8335 1.5835H3.4285C4.4185 1.5835 5.19766 2.31975 5.11516 3.16683L4.65683 7.9564" stroke="#667085" stroke-width="1.5" stroke-miterlimit="10" stroke-linecap="round" stroke-linejoin="round"/>
<path d="M14.8958 17.4167C15.5287 17.4167 16.0417 16.9736 16.0417 16.4271C16.0417 15.8806 15.5287 15.4375 14.8958 15.4375C14.263 15.4375 13.75 15.8806 13.75 16.4271C13.75 16.9736 14.263 17.4167 14.8958 17.4167Z" stroke="#667085" stroke-width="1.5" stroke-miterlimit="10" stroke-linecap="round" stroke-linejoin="round"/>
<path d="M7.56234 17.4167C8.19516 17.4167 8.70817 16.9736 8.70817 16.4271C8.70817 15.8806 8.19516 15.4375 7.56234 15.4375C6.92951 15.4375 6.4165 15.8806 6.4165 16.4271C6.4165 16.9736 6.92951 17.4167 7.56234 17.4167Z" stroke="#667085" stroke-width="1.5" stroke-miterlimit="10" stroke-linecap="round" stroke-linejoin="round"/>
<path d="M8.25 6.3335H19.25" stroke="#667085" stroke-width="1.5" stroke-miterlimit="10" stroke-linecap="round" stroke-linejoin="round"/>
</svg>
