<svg width="19" height="23" viewBox="0 0 19 23" fill="none" xmlns="http://www.w3.org/2000/svg">
<path d="M12.7341 3.68393C13.4463 2.82435 13.9498 1.64549 13.9498 0.466631C13.9498 0.294714 13.9375 0.135077 13.9007 0C12.7464 0.0491191 11.3588 0.773625 10.5238 1.75601C9.87293 2.49279 9.25894 3.68393 9.25894 4.86279C9.25894 5.04698 9.29578 5.2189 9.30806 5.2803C9.38174 5.29258 9.50454 5.30486 9.61506 5.30486C10.6588 5.30486 11.9605 4.61719 12.7341 3.68393ZM13.5446 5.56273C11.8131 5.56273 10.401 6.61879 9.50454 6.61879C8.53444 6.61879 7.2819 5.62413 5.75921 5.62413C2.89802 5.62413 0 7.99413 0 12.4517C0 15.2392 1.06834 18.1863 2.39455 20.0774C3.53657 21.6738 4.53123 23 5.96797 23C7.39242 23 8.01869 22.0545 9.78697 22.0545C11.5798 22.0545 11.9728 22.9754 13.5446 22.9754C15.1041 22.9754 16.1479 21.551 17.118 20.1388C18.2232 18.5179 18.6775 16.9461 18.6898 16.8724C18.6038 16.8478 15.6199 15.6321 15.6199 12.2184C15.6199 9.27122 17.9653 7.94501 18.1004 7.84677C16.5531 5.62413 14.1954 5.56273 13.5446 5.56273Z" fill="white"/>
</svg>
