<svg width="118" height="149" viewBox="0 0 118 149" fill="none" xmlns="http://www.w3.org/2000/svg">
<path d="M111.14 27.9894L62.1284 0.844374C60.1731 -0.281458 57.6965 -0.281458 55.7412 0.844374L6.72935 27.9894C4.77409 29.1153 3.47058 31.1167 3.47058 33.3684V73.1478C3.47058 75.3995 4.64374 77.4009 6.72935 78.5268L55.7412 105.672C56.784 106.172 57.8268 106.547 59 106.547C60.1732 106.547 61.216 106.297 62.2588 105.672L111.271 78.5268C113.226 77.4009 114.529 75.3995 114.529 73.1478V33.3684C114.399 31.1167 113.096 29.1153 111.14 27.9894ZM103.059 63.2655L84.9398 53.2581L103.059 43.2507V63.2655ZM59 11.6023L98.2355 33.3684L59 55.1345L19.6341 33.3684L59 11.6023ZM14.8111 43.1256L32.9299 53.133L14.8111 63.1404V43.1256ZM59 94.7888L19.6341 73.0227L44.14 59.3876L55.6109 65.7674C56.6537 66.2677 57.6965 66.643 58.8696 66.643C60.0428 66.643 61.0856 66.3928 62.1284 65.7674L73.5993 59.3876L98.1052 73.0227L59 94.7888Z" fill="#E30613"/>
<path d="M38.5007 126.024C31.2861 126.024 26.2914 130.725 26.2914 137.479C26.2914 144.233 31.2861 148.934 38.4313 148.934C45.6459 148.934 50.6407 144.233 50.6407 137.479C50.6407 130.725 45.6459 126.024 38.5007 126.024ZM38.5007 143.703C34.7547 143.703 32.396 141.253 32.396 137.479C32.396 133.705 34.8241 131.255 38.5007 131.255C42.108 131.255 44.6054 133.771 44.6054 137.479C44.536 141.187 42.108 143.703 38.5007 143.703Z" fill="#E30613"/>
<path d="M64.0988 135.095C61.2546 134.698 58.7572 134.367 58.7572 132.513C58.7572 131.586 59.4509 130.394 62.642 130.394C65.2087 130.394 67.0818 131.453 67.6367 133.307L73.1171 132.115C71.9378 128.143 68.3304 125.958 62.9889 125.958C57.0229 125.958 52.9994 128.606 52.9994 132.579C52.9994 138.141 58.1329 138.803 62.2951 139.399C65.2087 139.796 67.7755 140.127 67.7755 142.114C67.7755 143.173 66.943 144.431 62.9889 144.431C60.0059 144.431 57.9941 143.372 57.3698 141.452L51.8895 142.511C53.1382 146.616 56.8842 148.801 62.8501 148.801C69.4404 148.801 73.6027 146.153 73.6027 141.915C73.672 136.419 68.3998 135.691 64.0988 135.095Z" fill="#E30613"/>
<path d="M85.1184 143.968C83.3147 143.968 82.2741 142.776 82.2741 140.723V131.453H91.5699V126.62H82.2741V119.866H76.2388V140.789C76.2388 146.02 79.2912 149 84.5634 149C89.1419 149 92.1249 147.014 93.1655 143.306L88.3094 141.849C87.7545 143.173 86.6446 143.968 85.1184 143.968Z" fill="#E30613"/>
<path d="M112.103 129.401L111.895 129.136C110.369 127.083 107.872 126.024 104.542 126.024C98.4374 126.024 94.067 130.857 94.067 137.479C94.067 144.166 98.4374 149 104.403 149C107.733 149 110.23 147.874 111.826 145.689L112.034 145.424V145.491L113.213 148.404H118V126.686H113.213L112.103 129.401ZM105.999 143.703C102.461 143.703 100.102 141.253 100.102 137.413C100.102 133.638 102.392 131.189 105.999 131.189C109.606 131.189 111.965 133.638 111.965 137.413C111.965 141.187 109.537 143.703 105.999 143.703Z" fill="#E30613"/>
<path d="M13.5967 126.024C10.4057 126.024 7.97768 127.083 6.38215 129.136L6.03529 129.599V119.932H0V148.404H4.78661L6.03529 145.358L6.24341 145.623C7.90832 147.874 10.4057 149 13.6661 149C19.7708 149 24.0024 144.299 24.0024 137.545C23.9331 130.725 19.7014 126.024 13.5967 126.024ZM12.0706 143.703C9.29575 143.703 6.03529 142.643 6.03529 137.413C6.03529 133.572 8.39392 131.122 12.14 131.122C15.6085 131.122 17.8978 133.638 17.8978 137.413C17.8284 141.187 15.5392 143.703 12.0706 143.703Z" fill="#E30613"/>
</svg>
