<svg width="343" height="125" viewBox="0 0 343 125" fill="none" xmlns="http://www.w3.org/2000/svg">
<path d="M343 0H0V125H343V0Z" fill="white"/>
<path d="M208.49 31H125.47C122.372 31 119.86 33.5117 119.86 36.61V88.4198C119.86 91.5188 122.372 94.0298 125.47 94.0298H208.49C211.588 94.0298 214.1 91.5188 214.1 88.4198V36.61C214.1 33.5117 211.588 31 208.49 31Z" fill="#EFEFEF"/>
<path d="M208.49 31H125.47C122.372 31 119.86 33.5117 119.86 36.61V88.4198C119.86 91.5188 122.372 94.0298 125.47 94.0298H208.49C211.588 94.0298 214.1 91.5188 214.1 88.4198V36.61C214.1 33.5117 211.588 31 208.49 31Z" stroke="#BAC2CF" stroke-width="1.59" stroke-miterlimit="10"/>
<path d="M218.29 31H135.27C132.172 31 129.66 33.5117 129.66 36.61V88.4198C129.66 91.5188 132.172 94.0298 135.27 94.0298H218.29C221.388 94.0298 223.9 91.5188 223.9 88.4198V36.61C223.9 33.5117 221.388 31 218.29 31Z" fill="white"/>
<path d="M218.29 31H135.27C132.172 31 129.66 33.5117 129.66 36.61V88.4198C129.66 91.5188 132.172 94.0298 135.27 94.0298H218.29C221.388 94.0298 223.9 91.5188 223.9 88.4198V36.61C223.9 33.5117 221.388 31 218.29 31Z" stroke="#BAC2CF" stroke-width="1.59" stroke-miterlimit="10"/>
<path d="M163.15 31.0498H190.38V38.2898C190.38 38.8202 190.169 39.3289 189.794 39.704C189.419 40.0791 188.91 40.2898 188.38 40.2898H165.11C164.58 40.2898 164.071 40.0791 163.696 39.704C163.321 39.3289 163.11 38.8202 163.11 38.2898V31.0498H163.15Z" fill="white" stroke="#BAC2CF" stroke-width="1.59" stroke-miterlimit="10"/>
<path d="M190.41 93.8298H163.18V86.5898C163.18 86.0598 163.391 85.5508 163.766 85.1758C164.141 84.8008 164.65 84.5898 165.18 84.5898H188.45C188.98 84.5898 189.489 84.8008 189.864 85.1758C190.239 85.5508 190.45 86.0598 190.45 86.5898V93.8298H190.41Z" fill="white" stroke="#BAC2CF" stroke-width="1.59" stroke-miterlimit="10"/>
<path d="M169.46 58.0498H178.32C179.176 58.0498 180.023 58.2185 180.814 58.5463C181.604 58.8741 182.322 59.3545 182.927 59.9601C183.531 60.5656 184.011 61.2848 184.337 62.0758C184.664 62.8668 184.831 63.7138 184.83 64.5698C184.831 65.4258 184.664 66.2728 184.337 67.0638C184.011 67.8548 183.531 68.5738 182.927 69.1798C182.322 69.7848 181.604 70.2658 180.814 70.5938C180.023 70.9208 179.176 71.0898 178.32 71.0898H169.46" stroke="#BAC2CF" stroke-width="2" stroke-miterlimit="10"/>
<path d="M173 62.3298L168.73 58.06L173 53.79" stroke="#BAC2CF" stroke-width="2" stroke-miterlimit="10"/>
<path d="M105 94.1398H238.76" stroke="#BAC2CF" stroke-width="1.59" stroke-miterlimit="10"/>
</svg>
