<svg width="17" height="18" viewBox="0 0 17 18" fill="none" xmlns="http://www.w3.org/2000/svg">
<path d="M7.7915 1.5H6.37484C2.83317 1.5 1.4165 3 1.4165 6.75V11.25C1.4165 15 2.83317 16.5 6.37484 16.5H10.6248C14.1665 16.5 15.5832 15 15.5832 11.25V9.75" stroke="#667085" stroke-width="1.5" stroke-linecap="round" stroke-linejoin="round"/>
<path d="M11.3618 2.26495L5.78016 8.17495C5.56766 8.39995 5.35516 8.84245 5.31266 9.16495L5.00808 11.4224C4.89474 12.2399 5.44016 12.8099 6.21224 12.6974L8.34432 12.3749C8.64182 12.3299 9.05974 12.1049 9.27933 11.8799L14.861 5.96995C15.8243 4.94995 16.2777 3.76495 14.861 2.26495C13.4443 0.764945 12.3252 1.24495 11.3618 2.26495Z" stroke="#667085" stroke-width="1.5" stroke-miterlimit="10" stroke-linecap="round" stroke-linejoin="round"/>
<path d="M10.561 3.1123C11.0356 4.9048 12.3602 6.3073 14.0602 6.8173" stroke="#667085" stroke-width="1.5" stroke-miterlimit="10" stroke-linecap="round" stroke-linejoin="round"/>
</svg>
