<svg width="19" height="20" viewBox="0 0 19 20" fill="none" xmlns="http://www.w3.org/2000/svg">
<path d="M9.5049 19.4951C14.6983 19.4951 19 15.1934 19 9.99998C19 4.80659 14.6885 0.504883 9.4951 0.504883C4.3017 0.504883 0 4.80659 0 9.99998C0 15.1934 4.3115 19.4951 9.5049 19.4951ZM6.27127 14.0469C5.82053 14.0469 5.46777 13.6844 5.46777 13.2238C5.46777 13.018 5.54616 12.8123 5.70294 12.6653L8.35843 10.0098L5.70294 7.35429C5.54616 7.20731 5.46777 7.01133 5.46777 6.79575C5.46777 6.34501 5.82053 6.00205 6.27127 6.00205C6.49665 6.00205 6.68283 6.07064 6.82981 6.22742L9.4951 8.88291L12.1702 6.21762C12.3368 6.05104 12.5229 5.98245 12.7385 5.98245C13.1795 5.98245 13.542 6.33521 13.542 6.77616C13.542 7.00153 13.4636 7.17791 13.3069 7.35429L10.6416 10.0098L13.2971 12.6555C13.444 12.8123 13.5322 13.0082 13.5322 13.2238C13.5322 13.6844 13.1697 14.0469 12.7189 14.0469C12.4936 14.0469 12.2976 13.9489 12.1408 13.8019L9.4951 11.1465L6.85921 13.8019C6.70242 13.9587 6.49665 14.0469 6.27127 14.0469Z" fill="#878892"/>
</svg>
