<svg width="20" height="20" viewBox="0 0 20 20" fill="none" xmlns="http://www.w3.org/2000/svg">
<path d="M10.075 18.6667C14.6774 18.6667 18.4084 14.9357 18.4084 10.3333C18.4084 5.73096 14.6774 2 10.075 2C5.47266 2 1.7417 5.73096 1.7417 10.3333C1.7417 14.9357 5.47266 18.6667 10.075 18.6667Z" fill="#F9FAFB" stroke="#667085" stroke-width="1.5" stroke-linecap="round" stroke-linejoin="round"/>
<path d="M9.08325 9.5083H10.3583V14.5166" fill="#F9FAFB"/>
<path d="M9.08325 9.5083H10.3583V14.5166" stroke="#667085" stroke-width="1.5" stroke-linecap="round" stroke-linejoin="round"/>
<path d="M10.7166 6.34169C10.7166 6.84337 10.3099 7.25002 9.80829 7.25002C9.30661 7.25002 8.8999 6.84332 8.8999 6.34169C8.8999 5.84005 9.30661 5.43335 9.80829 5.43335C10.3099 5.43335 10.7166 5.84 10.7166 6.34169Z" fill="black" stroke="#667085"/>
<path d="M8.9751 14.8167H11.7417" stroke="#667085" stroke-width="1.5" stroke-linecap="round" stroke-linejoin="round"/>
</svg>
