<svg width="31" height="29" viewBox="0 0 31 29" fill="none" xmlns="http://www.w3.org/2000/svg">
<path d="M29.7539 23.9664C30 23.9664 30.1867 24.1519 30.1867 24.3992L30.1843 28.0769C30.1843 28.323 30 28.5097 29.7514 28.5097H1.24971C1.00239 28.5097 0.816895 28.3242 0.816895 28.0769V24.398C0.816895 24.1506 1.00239 23.9651 1.24971 23.9651H4.28068V11.7856C4.28068 11.5383 4.46617 11.3528 4.7135 11.3528H8.38998C8.63731 11.3528 8.8228 11.5383 8.8228 11.7856V23.9664H13.2128V11.7856C13.2128 11.5383 13.3983 11.3528 13.6456 11.3528H17.3258C17.5719 11.3528 17.7586 11.5383 17.7586 11.7856V23.9664H22.1783V11.7856C22.1783 11.5383 22.3626 11.3528 22.6112 11.3528H26.2901C26.5362 11.3528 26.7229 11.5383 26.7229 11.7856V23.9664H29.7527H29.7539ZM15.8716 0.0673684L29.9072 5.01387C30.0618 5.0757 30.1843 5.23028 30.2164 5.41577V9.21963C30.2164 9.46695 30.0309 9.65244 29.7836 9.65244H1.28063C1.03454 9.65244 0.84781 9.46695 0.84781 9.21963V5.41824C0.84781 5.23275 0.940557 5.07693 1.12605 5.01634L15.1617 0.0698416C15.3896 -0.0232805 15.6449 -0.0232805 15.8728 0.0698416L15.8716 0.0673684Z" fill="#667085"/>
</svg>
