<svg width="375" height="374" viewBox="0 0 375 374" fill="none" xmlns="http://www.w3.org/2000/svg">
<path d="M259.262 170.65C260.394 169.337 256.502 164.084 250.57 158.916C244.638 153.749 238.912 150.625 237.78 151.938C236.648 153.251 240.539 158.505 246.471 163.672C252.403 168.839 258.13 171.964 259.262 170.65Z" fill="white" stroke="#485466" stroke-width="1.05" stroke-miterlimit="10"/>
<path d="M259.297 170.614C260.429 169.301 256.538 164.048 250.606 158.88C244.674 153.713 238.947 150.588 237.815 151.902C236.683 153.215 240.574 158.468 246.506 163.636C252.438 168.803 258.165 171.927 259.297 170.614Z" fill="white" stroke="#485466" stroke-width="1.05" stroke-miterlimit="10"/>
<path d="M259.343 170.568C260.475 169.255 256.583 164.002 250.651 158.834C244.719 153.667 238.992 150.543 237.86 151.856C236.728 153.169 240.62 158.423 246.552 163.59C252.484 168.757 258.21 171.882 259.343 170.568Z" fill="white" stroke="#485466" stroke-width="1.05" stroke-miterlimit="10"/>
<path d="M259.387 170.518C260.519 169.205 256.627 163.952 250.695 158.784C244.763 153.617 239.037 150.493 237.905 151.806C236.773 153.119 240.664 158.373 246.596 163.54C252.528 168.707 258.255 171.832 259.387 170.518Z" fill="white" stroke="#485466" stroke-width="1.05" stroke-miterlimit="10"/>
<path d="M259.432 170.482C260.564 169.169 256.673 163.916 250.741 158.748C244.808 153.581 239.082 150.456 237.95 151.77C236.818 153.083 240.709 158.337 246.641 163.504C252.573 168.671 258.3 171.796 259.432 170.482Z" fill="white" stroke="#485466" stroke-width="1.05" stroke-miterlimit="10"/>
<path d="M259.476 170.432C260.608 169.119 256.717 163.866 250.785 158.698C244.853 153.531 239.126 150.407 237.994 151.72C236.862 153.033 240.753 158.286 246.686 163.454C252.618 168.621 258.344 171.746 259.476 170.432Z" fill="white" stroke="#485466" stroke-width="1.05" stroke-miterlimit="10"/>
<path d="M259.521 170.396C260.654 169.083 256.762 163.83 250.83 158.662C244.898 153.495 239.171 150.37 238.039 151.684C236.907 152.997 240.799 158.25 246.731 163.418C252.663 168.585 258.389 171.709 259.521 170.396Z" fill="white" stroke="#485466" stroke-width="1.05" stroke-miterlimit="10"/>
<path d="M259.566 170.337C260.698 169.023 256.806 163.77 250.874 158.602C244.942 153.435 239.216 150.311 238.084 151.624C236.952 152.937 240.843 158.191 246.775 163.358C252.707 168.525 258.434 171.65 259.566 170.337Z" fill="white" stroke="#485466" stroke-width="1.05" stroke-miterlimit="10"/>
<path d="M259.611 170.3C260.743 168.987 256.852 163.734 250.92 158.566C244.987 153.399 239.261 150.275 238.129 151.588C236.997 152.901 240.888 158.155 246.82 163.322C252.752 168.489 258.479 171.614 259.611 170.3Z" fill="white" stroke="#485466" stroke-width="1.05" stroke-miterlimit="10"/>
<path d="M259.647 170.264C260.779 168.951 256.887 163.698 250.955 158.53C245.023 153.363 239.296 150.238 238.164 151.552C237.032 152.865 240.924 158.119 246.856 163.286C252.788 168.453 258.514 171.578 259.647 170.264Z" fill="white" stroke="#485466" stroke-width="1.05" stroke-miterlimit="10"/>
<path d="M259.691 170.214C260.823 168.901 256.931 163.648 250.999 158.48C245.067 153.313 239.341 150.189 238.209 151.502C237.077 152.815 240.968 158.069 246.9 163.236C252.832 168.403 258.559 171.528 259.691 170.214Z" fill="white" stroke="#485466" stroke-width="1.05" stroke-miterlimit="10"/>
<path d="M259.736 170.178C260.868 168.865 256.977 163.612 251.045 158.444C245.112 153.277 239.386 150.153 238.254 151.466C237.122 152.779 241.013 158.032 246.945 163.2C252.877 168.367 258.604 171.492 259.736 170.178Z" fill="white" stroke="#485466" stroke-width="1.05" stroke-miterlimit="10"/>
<path d="M259.78 170.128C260.912 168.815 257.021 163.562 251.089 158.394C245.157 153.227 239.43 150.102 238.298 151.416C237.166 152.729 241.057 157.983 246.989 163.15C252.921 168.317 258.648 171.442 259.78 170.128Z" fill="white" stroke="#485466" stroke-width="1.05" stroke-miterlimit="10"/>
<path d="M259.825 170.082C260.957 168.769 257.066 163.516 251.134 158.348C245.202 153.181 239.475 150.057 238.343 151.37C237.211 152.683 241.103 157.937 247.035 163.104C252.967 168.271 258.693 171.396 259.825 170.082Z" fill="white" stroke="#485466" stroke-width="1.05" stroke-miterlimit="10"/>
<path d="M259.869 170.032C261.001 168.719 257.11 163.466 251.178 158.298C245.246 153.131 239.519 150.007 238.387 151.32C237.255 152.633 241.147 157.887 247.079 163.054C253.011 168.221 258.737 171.346 259.869 170.032Z" fill="white" stroke="#485466" stroke-width="1.05" stroke-miterlimit="10"/>
<path d="M259.915 169.996C261.047 168.683 257.156 163.43 251.223 158.262C245.291 153.095 239.565 149.971 238.433 151.284C237.301 152.597 241.192 157.851 247.124 163.018C253.056 168.185 258.783 171.31 259.915 169.996Z" fill="white" stroke="#485466" stroke-width="1.05" stroke-miterlimit="10"/>
<path d="M259.96 169.96C261.092 168.647 257.201 163.393 251.269 158.226C245.337 153.059 239.61 149.934 238.478 151.248C237.346 152.561 241.237 157.814 247.169 162.982C253.101 168.149 258.828 171.274 259.96 169.96Z" fill="white" stroke="#485466" stroke-width="1.05" stroke-miterlimit="10"/>
<path d="M259.994 169.91C261.126 168.597 257.235 163.344 251.303 158.176C245.371 153.009 239.644 149.884 238.512 151.198C237.38 152.511 241.272 157.765 247.204 162.932C253.136 168.099 258.862 171.224 259.994 169.91Z" fill="white" stroke="#485466" stroke-width="1.05" stroke-miterlimit="10"/>
<path d="M260.04 169.864C261.172 168.551 257.281 163.298 251.348 158.13C245.416 152.963 239.69 149.839 238.558 151.152C237.426 152.465 241.317 157.719 247.249 162.886C253.181 168.053 258.908 171.178 260.04 169.864Z" fill="white" stroke="#485466" stroke-width="1.05" stroke-miterlimit="10"/>
<path d="M260.084 169.814C261.216 168.501 257.325 163.248 251.393 158.08C245.461 152.913 239.734 149.789 238.602 151.102C237.47 152.415 241.361 157.669 247.293 162.836C253.225 168.003 258.952 171.128 260.084 169.814Z" fill="white" stroke="#485466" stroke-width="1.05" stroke-miterlimit="10"/>
<path d="M260.129 169.778C261.261 168.465 257.37 163.212 251.438 158.044C245.506 152.877 239.779 149.753 238.647 151.066C237.515 152.379 241.406 157.633 247.338 162.8C253.271 167.967 258.997 171.092 260.129 169.778Z" fill="white" stroke="#485466" stroke-width="1.05" stroke-miterlimit="10"/>
<path d="M260.173 169.728C261.305 168.415 257.414 163.162 251.482 157.994C245.55 152.827 239.823 149.703 238.691 151.016C237.559 152.329 241.451 157.583 247.383 162.75C253.315 167.917 259.041 171.042 260.173 169.728Z" fill="white" stroke="#485466" stroke-width="1.05" stroke-miterlimit="10"/>
<path d="M260.219 169.692C261.351 168.379 257.46 163.126 251.527 157.958C245.595 152.791 239.869 149.667 238.737 150.98C237.605 152.293 241.496 157.547 247.428 162.714C253.36 167.881 259.087 171.006 260.219 169.692Z" fill="white" stroke="#485466" stroke-width="1.05" stroke-miterlimit="10"/>
<path d="M260.264 169.656C261.396 168.343 257.505 163.09 251.573 157.922C245.64 152.755 239.914 149.63 238.782 150.944C237.65 152.257 241.541 157.51 247.473 162.678C253.405 167.845 259.132 170.969 260.264 169.656Z" fill="white" stroke="#485466" stroke-width="1.05" stroke-miterlimit="10"/>
<path d="M260.308 169.596C261.44 168.283 257.549 163.03 251.617 157.862C245.685 152.695 239.958 149.571 238.826 150.884C237.694 152.197 241.585 157.451 247.517 162.618C253.449 167.785 259.176 170.91 260.308 169.596Z" fill="white" stroke="#485466" stroke-width="1.05" stroke-miterlimit="10"/>
<path d="M260.343 169.56C261.475 168.247 257.584 162.994 251.652 157.826C245.72 152.659 239.993 149.535 238.861 150.848C237.729 152.161 241.621 157.415 247.553 162.582C253.485 167.749 259.211 170.874 260.343 169.56Z" fill="white" stroke="#485466" stroke-width="1.05" stroke-miterlimit="10"/>
<path d="M260.388 169.51C261.52 168.197 257.628 162.944 251.696 157.776C245.764 152.609 240.038 149.484 238.906 150.798C237.774 152.111 241.665 157.364 247.597 162.532C253.529 167.699 259.256 170.823 260.388 169.51Z" fill="white" stroke="#485466" stroke-width="1.05" stroke-miterlimit="10"/>
<path d="M260.433 169.474C261.565 168.161 257.674 162.908 251.742 157.74C245.81 152.573 240.083 149.449 238.951 150.762C237.819 152.075 241.71 157.328 247.642 162.496C253.574 167.663 259.301 170.788 260.433 169.474Z" fill="white" stroke="#485466" stroke-width="1.05" stroke-miterlimit="10"/>
<path d="M260.477 169.424C261.609 168.111 257.718 162.858 251.786 157.69C245.854 152.523 240.127 149.399 238.995 150.712C237.863 152.025 241.754 157.279 247.687 162.446C253.619 167.613 259.345 170.738 260.477 169.424Z" fill="white" stroke="#485466" stroke-width="1.05" stroke-miterlimit="10"/>
<path d="M260.523 169.378C261.655 168.065 257.763 162.812 251.831 157.644C245.899 152.477 240.172 149.352 239.04 150.666C237.908 151.979 241.8 157.233 247.732 162.4C253.664 167.567 259.39 170.692 260.523 169.378Z" fill="white" stroke="#485466" stroke-width="1.05" stroke-miterlimit="10"/>
<path d="M260.56 169.336C261.692 168.023 257.801 162.769 251.869 157.602C245.937 152.434 240.21 149.31 239.078 150.623C237.946 151.937 241.837 157.19 247.77 162.357C253.702 167.525 259.428 170.649 260.56 169.336Z" fill="white" stroke="#485466" stroke-width="1.05" stroke-miterlimit="10"/>
<path d="M260.612 169.292C261.744 167.979 257.853 162.726 251.921 157.558C245.989 152.391 240.262 149.267 239.13 150.58C237.998 151.893 241.889 157.147 247.821 162.314C253.753 167.481 259.48 170.606 260.612 169.292Z" fill="white" stroke="#485466" stroke-width="1.05" stroke-miterlimit="10"/>
<path d="M260.657 169.256C261.789 167.943 257.898 162.69 251.966 157.522C246.034 152.355 240.307 149.23 239.175 150.544C238.043 151.857 241.934 157.11 247.867 162.278C253.799 167.445 259.525 170.569 260.657 169.256Z" fill="white" stroke="#485466" stroke-width="1.05" stroke-miterlimit="10"/>
<path d="M260.701 169.206C261.833 167.893 257.942 162.639 252.01 157.472C246.078 152.305 240.351 149.18 239.219 150.494C238.087 151.807 241.979 157.06 247.911 162.228C253.843 167.395 259.569 170.52 260.701 169.206Z" fill="white" stroke="#485466" stroke-width="1.05" stroke-miterlimit="10"/>
<path d="M260.737 169.17C261.869 167.857 257.978 162.604 252.045 157.436C246.113 152.269 240.387 149.144 239.255 150.458C238.123 151.771 242.014 157.025 247.946 162.192C253.878 167.359 259.605 170.484 260.737 169.17Z" fill="white" stroke="#485466" stroke-width="1.05" stroke-miterlimit="10"/>
<path d="M260.781 169.11C261.913 167.797 258.022 162.544 252.09 157.376C246.158 152.209 240.431 149.085 239.299 150.398C238.167 151.711 242.058 156.965 247.991 162.132C253.923 167.299 259.649 170.424 260.781 169.11Z" fill="white" stroke="#485466" stroke-width="1.05" stroke-miterlimit="10"/>
<path d="M260.826 169.074C261.958 167.761 258.067 162.508 252.135 157.34C246.203 152.173 240.476 149.048 239.344 150.362C238.212 151.675 242.104 156.928 248.036 162.096C253.968 167.263 259.694 170.388 260.826 169.074Z" fill="white" stroke="#485466" stroke-width="1.05" stroke-miterlimit="10"/>
<path d="M260.864 169.032C261.996 167.719 258.105 162.465 252.173 157.298C246.241 152.13 240.514 149.006 239.382 150.319C238.25 151.632 242.141 156.886 248.074 162.053C254.006 167.221 259.732 170.345 260.864 169.032Z" fill="white" stroke="#485466" stroke-width="1.05" stroke-miterlimit="10"/>
<path d="M260.916 168.988C262.048 167.675 258.157 162.422 252.224 157.254C246.292 152.087 240.566 148.963 239.434 150.276C238.302 151.589 242.193 156.843 248.125 162.01C254.057 167.177 259.784 170.302 260.916 168.988Z" fill="white" stroke="#485466" stroke-width="1.05" stroke-miterlimit="10"/>
<path d="M260.961 168.952C262.093 167.639 258.202 162.385 252.27 157.218C246.338 152.051 240.611 148.926 239.479 150.24C238.347 151.553 242.238 156.806 248.17 161.974C254.103 167.141 259.829 170.265 260.961 168.952Z" fill="white" stroke="#485466" stroke-width="1.05" stroke-miterlimit="10"/>
<path d="M256.141 163.274C257.265 161.953 253.339 156.725 247.374 151.596C241.408 146.467 235.661 143.38 234.538 144.701C233.414 146.021 237.339 151.25 243.305 156.378C249.271 161.507 255.017 164.595 256.141 163.274Z" fill="white" stroke="#485466" stroke-width="1.05" stroke-miterlimit="10"/>
<path d="M261.05 168.856C262.183 167.543 258.291 162.29 252.359 157.122C246.427 151.955 240.7 148.831 239.568 150.144C238.436 151.457 242.328 156.711 248.26 161.878C254.192 167.045 259.918 170.17 261.05 168.856Z" fill="white" stroke="#485466" stroke-width="1.05" stroke-miterlimit="10"/>
<path d="M81.8799 306.96H290.974L278.258 290.852H94.5964L81.8799 306.96Z" fill="white" stroke="#485466" stroke-width="1.05" stroke-linejoin="round"/>
<path d="M81.8799 303.793H290.974L278.258 287.696H94.5964L81.8799 303.793Z" fill="white" stroke="#485466" stroke-width="1.05" stroke-linejoin="round"/>
<path d="M81.8799 300.637H290.974L278.258 284.539H94.5964L81.8799 300.637Z" fill="white" stroke="#485466" stroke-width="1.05" stroke-linejoin="round"/>
<path d="M81.8799 297.481H290.974L278.258 281.383H94.5964L81.8799 297.481Z" fill="white" stroke="#485466" stroke-width="1.05" stroke-linejoin="round"/>
<path d="M81.8799 294.325H290.974L278.258 278.227H94.5964L81.8799 294.325Z" fill="white" stroke="#485466" stroke-width="1.05" stroke-linejoin="round"/>
<path d="M81.8799 291.168H290.974L278.258 275.071H94.5964L81.8799 291.168Z" fill="white" stroke="#485466" stroke-width="1.05" stroke-linejoin="round"/>
<path d="M81.8799 288.012H290.974L278.258 271.904H94.5964L81.8799 288.012Z" fill="white" stroke="#485466" stroke-width="1.05" stroke-linejoin="round"/>
<path d="M81.8799 284.856H290.974L278.258 268.748H94.5964L81.8799 284.856Z" fill="white" stroke="#485466" stroke-width="1.05" stroke-linejoin="round"/>
<path d="M81.8799 281.7H290.974L278.258 265.592H94.5964L81.8799 281.7Z" fill="white" stroke="#485466" stroke-width="1.05" stroke-linejoin="round"/>
<path d="M81.8799 278.543H290.974L278.258 262.436H94.5964L81.8799 278.543Z" fill="white" stroke="#485466" stroke-width="1.05" stroke-linejoin="round"/>
<path d="M81.8799 275.387H290.974L278.258 259.279H94.5964L81.8799 275.387Z" fill="white" stroke="#485466" stroke-width="1.05" stroke-linejoin="round"/>
<path d="M81.8799 272.231H290.974L278.258 256.123H94.5964L81.8799 272.231Z" fill="white" stroke="#485466" stroke-width="1.05" stroke-linejoin="round"/>
<path d="M81.8799 269.075H290.974L278.258 252.967H94.5964L81.8799 269.075Z" fill="white" stroke="#485466" stroke-width="1.05" stroke-linejoin="round"/>
<path d="M81.8799 265.908H290.974L278.258 249.811H94.5964L81.8799 265.908Z" fill="white" stroke="#485466" stroke-width="1.05" stroke-linejoin="round"/>
<path d="M81.8799 262.752H290.974L278.258 246.654H94.5964L81.8799 262.752Z" fill="white" stroke="#485466" stroke-width="1.05" stroke-linejoin="round"/>
<path d="M81.8799 259.596H290.974L278.258 243.498H94.5964L81.8799 259.596Z" fill="white" stroke="#485466" stroke-width="1.05" stroke-linejoin="round"/>
<path d="M81.8799 256.44H290.974L278.258 240.342H94.5964L81.8799 256.44Z" fill="white" stroke="#485466" stroke-width="1.05" stroke-linejoin="round"/>
<path d="M81.8799 253.284H290.974L278.258 237.186H94.5964L81.8799 253.284Z" fill="white" stroke="#485466" stroke-width="1.05" stroke-linejoin="round"/>
<path d="M81.8799 250.127H290.974L278.258 234.02H94.5964L81.8799 250.127Z" fill="white" stroke="#485466" stroke-width="1.05" stroke-linejoin="round"/>
<path d="M81.8799 246.971H290.974L278.258 230.863H94.5964L81.8799 246.971Z" fill="white" stroke="#485466" stroke-width="1.05" stroke-linejoin="round"/>
<path d="M81.8799 244.112H290.974L278.258 228.014H94.5964L81.8799 244.112Z" fill="white" stroke="#485466" stroke-width="1.05" stroke-linejoin="round"/>
<path d="M100.876 241.549H273.504C272.106 240.015 272.313 238.798 273.927 238.798L268.356 232.862C266.537 232.711 264.835 231.902 263.563 230.586H110.807C109.537 231.905 107.833 232.713 106.014 232.862L100.443 238.798C102.057 238.798 102.264 240.015 100.876 241.549Z" fill="white" stroke="#485466" stroke-width="1.05" stroke-linejoin="round"/>
<path d="M226.476 244.112H146.378V306.95H226.476V244.112Z" fill="#E30613" stroke="#1D2126" stroke-miterlimit="10"/>
<path d="M152.5 228.014H220.354L226.476 244.082H146.378L152.5 228.014Z" fill="#E30613" stroke="#1D2126" stroke-miterlimit="10"/>
<path d="M194.094 278.425C193.338 277.381 192.319 276.558 191.142 276.04C189.647 275.41 188.107 274.894 186.535 274.497L186.309 274.437V262.129L186.673 262.188C188.083 262.366 189.393 263.014 190.394 264.029C191.206 264.842 191.77 265.872 192.018 266.997H194.636C194.354 265.269 193.501 263.686 192.215 262.505C190.64 261.138 188.661 260.331 186.585 260.209H186.309V256.509H185.039V260.18H184.744C182.43 260.163 180.19 260.997 178.445 262.525C177.693 263.223 177.098 264.076 176.701 265.025C176.304 265.973 176.113 266.997 176.142 268.026C176.07 269.521 176.473 271.001 177.293 272.251C178.038 273.26 179.027 274.061 180.167 274.576C181.672 275.22 183.226 275.742 184.813 276.139L185.039 276.208V288.942L184.685 288.893C183.089 288.746 181.601 288.018 180.502 286.845C179.62 285.88 179.05 284.669 178.868 283.372H176.211C176.365 285.276 177.243 287.047 178.661 288.319C180.359 289.808 182.504 290.682 184.754 290.802H185.039V294.325H186.339V290.832H186.634C188.299 290.805 189.931 290.355 191.378 289.526C192.587 288.811 193.585 287.787 194.272 286.558C194.907 285.403 195.246 284.107 195.256 282.788C195.344 281.246 194.937 279.716 194.094 278.425ZM185.059 274.051L184.656 273.933C183.064 273.512 181.569 272.782 180.256 271.786C179.718 271.345 179.301 270.772 179.045 270.123C178.759 269.397 178.622 268.619 178.642 267.838C178.6 267.059 178.73 266.281 179.023 265.56C179.316 264.838 179.764 264.19 180.335 263.663C181.573 262.633 183.127 262.063 184.734 262.05H185.059V274.051ZM191.211 287.072C190.652 287.641 189.982 288.086 189.242 288.378C188.419 288.706 187.548 288.893 186.663 288.932H186.329V276.545L186.732 276.663C188.34 277.103 189.848 277.852 191.171 278.87C191.728 279.372 192.163 279.994 192.444 280.69C192.726 281.386 192.846 282.137 192.795 282.887C192.818 283.655 192.689 284.42 192.417 285.138C192.145 285.856 191.735 286.513 191.211 287.072Z" fill="white" stroke="white" stroke-width="3" stroke-miterlimit="10"/>
<path d="M119.862 233.99L144.282 230.121V237.186H120.335L119.862 233.99Z" fill="white" stroke="#1D2126" stroke-width="0.75" stroke-miterlimit="10"/>
<path d="M130.089 237.186L129.941 235.801L137.677 234.346" stroke="#1D2126" stroke-width="0.75" stroke-miterlimit="10"/>
<path d="M127.096 234.93L120.098 235.583" stroke="#1D2126" stroke-width="0.75" stroke-miterlimit="10"/>
<path d="M170 182.906L167.5 191.752L164.911 197.312L147.136 235.444L143.691 233.832L137.47 230.893L163.327 175.416L164.961 171.914L166.388 168.847L169.016 170.083L170 182.906Z" fill="white" stroke="#1D2126" stroke-width="1.05" stroke-miterlimit="10"/>
<path d="M170 182.916L167.5 191.752L164.911 197.312L163.327 175.416L166.388 168.847L169.016 170.074L170 182.916Z" fill="#20252D"/>
<path d="M247.352 187.181C247.835 184.024 248.337 180.68 248.868 177.524C251.073 177.019 253.15 179.503 251.358 182.016L252.077 183.124L260.423 181.274C260.553 181.24 260.688 181.233 260.82 181.254C260.952 181.274 261.078 181.322 261.191 181.393C261.305 181.464 261.402 181.558 261.478 181.669C261.555 181.779 261.607 181.904 261.634 182.036C262.195 184.44 263.474 189.951 263.474 189.951C263.487 190.011 263.489 190.072 263.478 190.133C263.467 190.193 263.445 190.25 263.412 190.302C263.379 190.353 263.336 190.398 263.286 190.433C263.236 190.468 263.18 190.492 263.12 190.505L262.077 190.733C262.017 190.744 261.959 190.768 261.909 190.803C261.858 190.837 261.815 190.882 261.782 190.933C261.748 190.985 261.726 191.043 261.716 191.104C261.706 191.165 261.708 191.227 261.722 191.287C261.85 191.801 261.959 192.276 262.077 192.771C262.107 192.89 262.088 193.017 262.025 193.122C261.963 193.228 261.861 193.304 261.742 193.335C258.415 194.116 252.677 195.432 249.587 196.164L245.787 197.045C245.148 193.879 244.528 191.109 243.898 187.982L247.352 187.181Z" fill="white"/>
<path d="M262.48 178.731L272.126 176.554L272.827 179.696L263.182 181.873C263.093 181.893 263.001 181.895 262.912 181.879C262.822 181.864 262.737 181.83 262.66 181.781C262.583 181.733 262.517 181.669 262.464 181.594C262.412 181.52 262.375 181.435 262.355 181.346L261.954 179.552C261.917 179.373 261.951 179.187 262.05 179.033C262.148 178.88 262.303 178.771 262.48 178.731Z" fill="white"/>
<path d="M262.48 178.731L272.126 176.554L272.827 179.696L263.182 181.873C263.093 181.893 263.001 181.895 262.912 181.879C262.822 181.864 262.737 181.83 262.66 181.781C262.583 181.733 262.517 181.669 262.464 181.594C262.412 181.52 262.375 181.435 262.355 181.346L261.954 179.552C261.917 179.373 261.951 179.187 262.05 179.033C262.148 178.88 262.303 178.771 262.48 178.731Z" stroke="#1D2126" stroke-width="0.753293" stroke-miterlimit="10"/>
<path d="M259.188 188.107L268.499 186.028L269.19 189.158L259.879 191.236C259.737 191.268 259.587 191.242 259.464 191.163C259.34 191.084 259.253 190.959 259.222 190.815L258.769 188.768C258.738 188.624 258.764 188.474 258.842 188.35C258.921 188.226 259.045 188.139 259.188 188.107Z" fill="white"/>
<path d="M259.188 188.107L268.499 186.028L269.19 189.158L259.879 191.236C259.737 191.268 259.587 191.242 259.464 191.163C259.34 191.084 259.253 190.959 259.222 190.815L258.769 188.768C258.738 188.624 258.764 188.474 258.842 188.35C258.921 188.226 259.045 188.139 259.188 188.107V188.107Z" stroke="#1D2126" stroke-width="0.75" stroke-miterlimit="10"/>
<path d="M268.743 189.282L259.711 191.298L260.337 194.128L269.369 192.112L268.743 189.282Z" fill="white"/>
<path d="M268.743 189.282L259.711 191.298L260.337 194.128L269.369 192.112L268.743 189.282Z" stroke="#1D2126" stroke-width="0.75" stroke-miterlimit="10"/>
<path d="M257.518 185.201L267.213 183.037L267.979 186.504L258.265 188.673C258.115 188.706 257.957 188.678 257.827 188.595C257.697 188.512 257.606 188.38 257.572 188.229L257.058 185.901C257.041 185.825 257.04 185.746 257.054 185.669C257.068 185.592 257.097 185.518 257.14 185.453C257.183 185.387 257.239 185.331 257.304 185.288C257.369 185.245 257.442 185.215 257.518 185.201Z" fill="white"/>
<path d="M257.518 185.201L267.213 183.037L267.979 186.504L258.265 188.673C258.115 188.706 257.957 188.678 257.827 188.595C257.697 188.512 257.606 188.38 257.572 188.229L257.058 185.901C257.041 185.825 257.04 185.746 257.054 185.669C257.068 185.592 257.097 185.518 257.14 185.453C257.183 185.387 257.239 185.331 257.304 185.288C257.369 185.245 257.442 185.215 257.518 185.201V185.201Z" stroke="#1D2126" stroke-width="0.75" stroke-miterlimit="10"/>
<path d="M252.106 183.203C252.106 183.203 255.63 187.527 252.106 190.663" stroke="#1D2126" stroke-width="0.75" stroke-miterlimit="10"/>
<path d="M247.352 187.181C247.835 184.024 248.337 180.68 248.868 177.524C251.073 177.019 253.15 179.503 251.358 182.016L252.077 183.124L260.423 181.274C260.553 181.24 260.688 181.233 260.82 181.254C260.952 181.274 261.078 181.322 261.191 181.393C261.305 181.464 261.402 181.558 261.478 181.669C261.555 181.779 261.607 181.904 261.634 182.036C262.195 184.44 263.474 189.951 263.474 189.951C263.487 190.011 263.489 190.072 263.478 190.133C263.467 190.193 263.445 190.25 263.412 190.302C263.379 190.353 263.336 190.398 263.286 190.433C263.236 190.468 263.18 190.492 263.12 190.505L262.077 190.733C262.017 190.744 261.959 190.768 261.909 190.803C261.858 190.837 261.815 190.882 261.782 190.933C261.748 190.985 261.726 191.043 261.716 191.104C261.706 191.165 261.708 191.227 261.722 191.287C261.85 191.801 261.959 192.276 262.077 192.771C262.107 192.89 262.088 193.017 262.025 193.122C261.963 193.228 261.861 193.304 261.742 193.335C258.415 194.116 252.677 195.432 249.587 196.164L245.787 197.045C245.148 193.879 244.528 191.109 243.898 187.982L247.352 187.181Z" stroke="#1D2126" stroke-width="0.75" stroke-miterlimit="10"/>
<path d="M247.165 197.807L246.614 197.965L231.024 202.427C229.558 202.84 228.012 202.875 226.53 202.529C225.047 202.184 223.675 201.468 222.539 200.449L210.295 189.704L202.244 182.59L200.837 181.343L202.146 180.542L203.002 179.938L203.583 170.944C203.632 170.717 204.921 170.44 205.089 170.588C212.47 177.514 220.837 184.44 228.927 191.366L245.069 187.932L247.165 197.807Z" fill="white"/>
<path d="M247.165 197.807L246.614 197.965L231.024 202.427C229.558 202.84 228.012 202.875 226.53 202.529C225.047 202.184 223.675 201.468 222.539 200.449L210.295 189.704L202.244 182.59L200.837 181.343L202.146 180.542L203.002 179.938L203.583 170.944C203.632 170.717 204.921 170.44 205.089 170.588C212.47 177.514 220.837 184.44 228.927 191.366L245.069 187.932L247.165 197.807Z" stroke="#1D2126" stroke-width="1.05" stroke-miterlimit="10"/>
<path d="M214.705 193.127L210.295 189.684L200.876 182.303L200.827 181.402L200.837 181.323L200.847 181.264L202.156 180.453L202.234 179.829L203.652 170.311L209.528 174.585L210.03 175.011L214.705 193.127Z" fill="#20252D"/>
<path d="M197.136 222.928L232.845 242.341L237.825 290.862L233.15 289.318L220.945 251.315L171.545 220.138L197.136 222.928Z" fill="white"/>
<path d="M197.136 222.928L232.845 242.341L237.825 290.862L233.15 289.318L220.945 251.315L171.545 220.138L197.136 222.928Z" stroke="#1D2126" stroke-miterlimit="10"/>
<path d="M223.661 290.862L219.892 289.615L219.006 289.328L206.801 251.324L180.325 236.938C175.023 235.21 170.441 231.766 167.293 227.143C166.387 225.761 165.631 224.285 165.039 222.74C164.793 222.107 164.587 221.503 164.419 220.939C164.391 220.85 164.387 220.754 164.406 220.662C164.425 220.57 164.467 220.484 164.528 220.413C164.589 220.342 164.667 220.287 164.755 220.255C164.842 220.222 164.937 220.213 165.029 220.227L173.789 221.553L182.982 222.948L184.35 223.69L203.533 234.109L218.71 242.35L219.537 250.424L223.218 286.261L223.592 289.971L223.651 290.496L223.661 290.862Z" fill="white"/>
<path d="M223.661 290.862L219.892 289.615L219.006 289.328L206.801 251.325L180.325 236.938C175.024 235.211 170.441 231.766 167.293 227.143C166.387 225.761 165.631 224.285 165.039 222.74C164.833 222.226 164.665 221.751 164.518 221.256C164.477 221.131 164.469 220.998 164.494 220.869C164.52 220.741 164.578 220.621 164.663 220.521C164.748 220.422 164.858 220.346 164.98 220.301C165.103 220.257 165.235 220.245 165.364 220.267L173.789 221.543L182.982 222.938L187.51 225.906L203.534 234.059L218.711 242.301L219.537 250.375L223.219 286.211L223.593 289.922L223.652 290.446L223.661 290.862Z" stroke="#1D2126" stroke-miterlimit="10"/>
<path d="M177.982 163.979L166.644 168.708L164.026 222.671C176.104 226.159 188.823 226.782 201.181 224.491L208.396 176.01C208.396 176.01 207.185 170.657 202.589 168.965C197.992 167.273 185.915 163.148 185.915 163.148L177.982 163.979Z" fill="white"/>
<path d="M201.181 224.501C198.103 225.758 194.808 226.39 191.486 226.362C183.445 226.302 168.996 224.175 164.026 222.681C164.892 204.693 165.765 186.706 166.644 168.718L183.494 162.851L184.085 164.117H188.474C188.474 164.117 198.002 167.363 202.589 169.064C207.175 170.766 208.396 176.119 208.396 176.119L201.181 224.501Z" stroke="#1D2126" stroke-miterlimit="10"/>
<path d="M192.018 163.068L197.244 167.105L200.728 178.909L189.902 174.061L192.018 163.068Z" fill="white" stroke="#1D2126" stroke-width="1.05" stroke-miterlimit="10"/>
<path d="M189.311 174.338L180.689 178.681L180.64 163.989L183.888 162.969" fill="white"/>
<path d="M189.311 174.338L180.689 178.681L180.64 163.989L183.888 162.969" stroke="#1D2126" stroke-width="1.05" stroke-miterlimit="10"/>
<path d="M193.179 158.824L192.667 169.292C192.611 170.359 192.27 171.391 191.679 172.279C191.088 173.167 190.27 173.878 189.311 174.338L183.77 165.216L184.449 151.364L193.179 158.824Z" fill="white"/>
<path d="M184.055 153.095C184.055 153.095 185.758 163.979 195.866 164.968C205.974 165.958 197.608 155.361 197.608 155.361L193.563 150.622L188.986 151.354L184.055 153.095Z" fill="#20252D"/>
<path d="M193.179 158.824L192.667 169.292C192.611 170.359 192.27 171.391 191.679 172.279C191.088 173.167 190.27 173.878 189.311 174.338L183.77 165.216L184.449 151.364L193.179 158.824Z" stroke="#1D2126" stroke-miterlimit="10"/>
<path d="M182.5 124.966L183.386 148.435C183.563 153.056 186.073 155.361 190.039 157.696C192.093 158.906 194.39 159.64 196.762 159.843C205.62 160.605 207.805 160.387 207.805 160.387L208.533 145.229L215.876 138.224C215.876 138.224 217.411 136.819 215.994 135.77C214.577 134.722 204.911 126.064 204.911 126.064L182.5 124.966Z" fill="white"/>
<path d="M182.5 124.966L183.386 148.435C183.563 153.056 186.073 155.361 190.039 157.696C192.093 158.906 194.39 159.64 196.762 159.843C205.62 160.605 207.805 160.387 207.805 160.387L208.533 145.229L215.876 138.224C215.876 138.224 217.411 136.819 215.994 135.77C214.577 134.722 204.065 125.5 204.065 125.5" stroke="#1D2126" stroke-miterlimit="10"/>
<path d="M176.545 124.402C176.083 124.6 171.476 126.608 171.319 129.972C171.319 130.754 171.466 132.08 174.419 135.177C176.974 137.839 179.914 140.097 183.14 141.875L182.726 124.689L176.545 124.402Z" fill="#20252D"/>
<path d="M183.071 143.201C183.071 143.201 181.358 138.798 178.642 138.838C175.925 138.877 170.039 144.141 178.917 148.732L183.494 151.334L183.071 143.201Z" fill="white"/>
<path d="M183.071 143.201C183.071 143.201 181.358 138.798 178.642 138.838C175.925 138.877 170.039 144.141 178.917 148.732L183.494 151.334L183.071 143.201Z" stroke="#1D2126" stroke-miterlimit="10"/>
<path d="M177.362 142.211C177.362 142.211 182.047 141.222 182.087 146.515L177.362 142.211Z" fill="white"/>
<path d="M177.362 142.211C177.362 142.211 182.047 141.222 182.087 146.515" stroke="#1D2126" stroke-miterlimit="10"/>
<path d="M179.262 145.635C179.262 145.635 179.803 143.379 180.994 143.211L179.262 145.635Z" fill="white"/>
<path d="M179.262 145.635C179.262 145.635 179.803 143.379 180.994 143.211" stroke="#1D2126" stroke-miterlimit="10"/>
<path d="M205 121.701L204.813 125.53L197.785 125.184L176.614 124.194L176.811 120.355C176.952 117.448 178.041 114.667 179.911 112.444C181.78 110.221 184.327 108.679 187.155 108.057C188.293 107.807 189.457 107.708 190.62 107.76L192.47 107.859C195.956 108.031 199.231 109.584 201.579 112.178C203.928 114.773 205.158 118.197 205 121.701Z" fill="white"/>
<path d="M201.476 121.701L201.289 125.184L176.614 124.194L176.84 120.355C177.185 114.241 182.283 109.303 188.898 108.057C196.368 109.185 201.87 114.973 201.476 121.701Z" fill="#E30613"/>
<path d="M190.62 107.72L192.471 107.809C195.958 107.981 199.234 109.536 201.583 112.132C203.932 114.729 205.161 118.156 205 121.661L204.813 125.49L176.624 124.115L176.811 120.276C176.992 116.772 178.547 113.484 181.135 111.13C183.723 108.777 187.134 107.551 190.62 107.72Z" stroke="#1D2126" stroke-miterlimit="10"/>
<path d="M199.813 125.292L227.943 126.668" stroke="#1D2126" stroke-miterlimit="10"/>
<path d="M202.293 148.069C202.259 148.453 202.147 148.825 201.963 149.163C201.779 149.501 201.527 149.797 201.224 150.033C200.921 150.269 200.573 150.44 200.201 150.534C199.83 150.628 199.443 150.645 199.065 150.582C198.524 150.483 198.024 150.23 197.622 149.853C197.221 149.476 196.936 148.99 196.801 148.455L202.293 148.069Z" fill="white"/>
<path d="M202.293 148.069C202.259 148.453 202.147 148.825 201.963 149.163C201.779 149.501 201.527 149.797 201.224 150.033C200.921 150.269 200.573 150.44 200.201 150.534C199.83 150.628 199.443 150.645 199.065 150.582C198.524 150.483 198.024 150.23 197.622 149.853C197.221 149.476 196.936 148.99 196.801 148.455L202.293 148.069Z" stroke="#1D2126" stroke-miterlimit="10"/>
<path d="M192.687 134.296C193.024 133.591 193.502 132.963 194.091 132.453C194.681 131.942 195.369 131.559 196.112 131.328C196.975 131.026 197.919 131.058 198.76 131.417C199.705 132.053 200.452 132.945 200.915 133.989L192.687 134.296Z" fill="white"/>
<path d="M192.687 134.296C193.024 133.591 193.502 132.963 194.091 132.453C194.681 131.942 195.369 131.559 196.112 131.328C196.975 131.026 197.919 131.058 198.76 131.417C199.705 132.053 200.452 132.945 200.915 133.989" stroke="#1D2126" stroke-miterlimit="10"/>
<path d="M235.61 303.536L216.644 294.631L219.006 289.298L219.37 288.467L220.089 288.804L223.622 290.456L223.967 290.624C233.12 297.55 235.778 300.726 236.221 302.22C236.624 303.487 235.61 303.536 235.61 303.536Z" fill="#20252D"/>
<path d="M230.512 293.038L248.642 303.536C248.642 303.536 253.681 303.645 238.159 289.684L233.76 287.141L230.512 293.038Z" fill="#20252D"/>
<path d="M2.65747 307.068H372.057" stroke="#1D2126" stroke-miterlimit="10"/>
<path d="M189.262 205.129L182.234 200.3L187.028 198.015L189.075 199.43C189.257 199.545 189.462 199.62 189.675 199.647C189.889 199.672 190.105 199.63 190.295 199.528L192.539 198.46L196.91 201.478L189.262 205.129ZM181.801 194.413L185.039 196.629L181.496 198.311L181.801 194.413ZM190.551 188.942L197.549 193.77L189.872 197.411L182.845 192.593L190.551 188.942ZM197.992 199.657L194.754 197.441L198.297 195.759L197.992 199.657ZM200.049 192.909L191.299 186.903C191.127 186.779 190.924 186.704 190.712 186.687C190.501 186.669 190.289 186.71 190.098 186.805L180.522 191.346C180.332 191.439 180.169 191.578 180.047 191.751C179.925 191.924 179.848 192.125 179.823 192.335L179.213 200.073C179.192 200.287 179.23 200.503 179.324 200.697C179.418 200.891 179.563 201.055 179.744 201.171L188.484 207.187C188.666 207.302 188.871 207.377 189.085 207.404C189.298 207.423 189.513 207.382 189.705 207.286L199.291 202.734C199.482 202.645 199.647 202.506 199.768 202.332C199.889 202.159 199.962 201.956 199.98 201.745L200.6 194.008C200.604 193.793 200.555 193.582 200.459 193.39C200.363 193.199 200.223 193.034 200.049 192.909Z" fill="#E30613"/>
<path d="M275.591 67.1146H276.083C276.234 65.2836 277.065 63.5767 278.411 62.3337C279.757 61.0907 281.519 60.4026 283.346 60.4064C284.134 60.4026 284.916 60.533 285.659 60.7922C286.817 58.8847 288.515 57.3674 290.535 56.4342C292.555 55.5011 294.806 55.1944 297 55.5533C299.194 55.9122 301.232 56.9205 302.853 58.4494C304.475 59.9782 305.606 61.9582 306.102 64.1365C306.741 63.9431 307.404 63.8464 308.071 63.8495C309.209 63.8531 310.33 64.1355 311.335 64.6722C312.341 65.2089 313.201 65.9838 313.842 66.9299C314.483 67.876 314.884 68.9648 315.012 70.102C315.14 71.2392 314.991 72.3907 314.577 73.4568H267.717C268.119 71.6585 269.117 70.051 270.548 68.8985C271.979 67.746 273.757 67.1169 275.591 67.1146Z" fill="white" stroke="#485466" stroke-miterlimit="10"/>
<path d="M61.2992 101.438H61.7913C61.8812 100.331 62.2208 99.2588 62.7844 98.3035C63.3479 97.3481 64.1205 96.5344 65.0436 95.924C65.9667 95.3136 67.016 94.9227 68.1118 94.7809C69.2077 94.639 70.3212 94.75 71.368 95.1054C72.5247 93.2 74.22 91.6844 76.2374 90.752C78.2549 89.8196 80.503 89.5128 82.6947 89.8706C84.8865 90.2284 86.9224 91.2347 88.5426 92.761C90.1629 94.2873 91.2939 96.2643 91.7913 98.4397C92.4303 98.2507 93.0936 98.1573 93.7598 98.1627C94.9 98.1608 96.0232 98.4397 97.0314 98.9752C98.0395 99.5106 98.9018 100.286 99.5428 101.234C100.184 102.182 100.584 103.274 100.708 104.413C100.832 105.552 100.677 106.705 100.256 107.77H53.4153C53.8196 105.972 54.8203 104.365 56.253 103.215C57.6857 102.064 59.4653 101.437 61.2992 101.438Z" fill="white" stroke="#485466" stroke-miterlimit="10"/>
</svg>
