<svg width="44" height="59" viewBox="0 0 44 59" fill="none" xmlns="http://www.w3.org/2000/svg">
<circle cx="22" cy="21" r="21" fill="#E4E7EC"/>
<path fill-rule="evenodd" clip-rule="evenodd" d="M22.5079 10.9999H21.4615V12.0775H22.5079V13.0922V13.1236V14.1383V14.1698V15.1845H21.4931V14.1697V14.1383V13.0921H20.4155V13.0922H19.3695V14.1383V14.1698V15.1845V15.2158V16.2305V16.2621V17.2768V17.3081V18.3228V18.3544V19.4004H20.4471V18.3544V18.3228V17.3081V17.308H21.4615V17.3081V18.3228V18.3544V19.4004H22.5079V20.4151H21.4931V20.415H20.4155V21.4926H21.4615V21.4927H22.5391H23.553V22.5075H22.5079V23.5535H21.4615V24.5997L20.4471 24.5997L20.4155 24.5997L19.3695 24.5997V25.6773H20.4155V26.692V26.692H19.3695V27.7381V27.7696V28.7842V28.8157V29.8304V29.8618V30.9079H20.4471V29.8618V29.8304V28.8157V28.7842V27.7696L21.4615 27.7696V28.7842V28.8157V29.8618L22.5079 29.8618L22.5391 29.8618H23.553V30.8765H22.5079V31.9226H21.4615V33.0001H22.5391V31.9541H23.553V33.0001H24.6306V31.9541L25.6464 31.9541H26.692V33.0002H27.7696V31.9226H26.724V30.9079V30.9079H27.7696V29.8303H26.724V28.7842L25.6779 28.7842V27.7381H24.6003V28.7842L23.5855 28.7842V27.7381H22.5079V27.7381H21.4931V26.7234H22.5391V26.7234H23.5855V25.6773H24.6003V26.7234H25.6779V25.6458H24.6306V24.6311V24.5997V23.5852H25.6779V23.5851H26.692V24.5997V24.6312V25.6772H27.7388V26.692H26.692V27.7696H27.7388V28.8157H28.7845V29.8618H29.8621V28.8157H30.9081V27.7696H31.9547L32.9999 27.7696V26.692L31.9547 26.692V25.6772H32.9999V24.6312V24.5997V23.585V23.5536V22.5075H31.9547V21.4926H32.9999V20.415H31.9223V21.4614H30.8772V22.5075H29.8305V22.5076H28.7845V23.5852H29.8621V23.585H30.9081V22.5389H31.9223V23.5536V23.585V24.5997V24.6312V25.6458H30.8772V26.692H29.8305V27.7381V27.7696V28.7842H28.8164V27.7696V27.7381V26.7234V26.692V25.6773H29.8621V24.5997H28.7845V25.6458H27.7696V24.6312V24.5997V23.5536H26.724V22.5389V22.5389H27.7696V21.4613H26.724V20.4467H27.7388H27.7696H28.7845V21.4927H29.8621V20.4467H30.9081V19.3691L29.8621 19.3691H28.7845L27.7696 19.3691H27.7388H26.724H26.692H25.6464V20.4151H24.6306H24.6003L23.5855 20.4151V19.3691H22.5391V18.3544V18.3228V17.3081L23.553 17.3081V18.3544H24.6306V17.2768H23.5855V16.2621H24.6306V15.1845H23.5855V14.1698L24.6306 14.1698V13.1237V13.0922V12.0461H23.5855V12.046V10.9999H22.5391H22.5079ZM25.6464 30.8765V29.8618L24.6306 29.8618V30.8765H25.6464ZM23.553 25.6458V24.6311V24.5997V23.5852V23.5851H22.5391V24.5997V24.6311V25.6458H23.553ZM25.6464 22.5075V21.4927H24.6306V22.5076H25.6464V22.5075ZM23.553 16.2305V15.2158H22.5391V16.2305L23.553 16.2305ZM11.0005 19.3691H12.0781V20.4467H11.0005V19.3691ZM14.1389 19.3691L13.0928 19.3691V20.4151V20.4467V21.4614V21.4927V22.5389H14.1704L15.1846 22.5389V23.5535V23.5535H14.1704V23.5535H13.0928V24.6311H14.1389V24.6311H15.2165V24.6311H16.2622V23.5851V23.5851H17.2778V24.6311H18.3554V23.5535H17.3082V22.5389H18.3554V22.5388H19.3695V23.5852H20.4471V22.5076H19.3999V21.4613H18.3223V21.4614H17.3082V20.4467H18.3554V19.3691H17.3082H17.2778H16.2306H15.2165H14.1389ZM16.2306 22.5075V22.5075H15.2165V21.4614L14.1704 21.4614V20.4467H15.1846H16.2306V21.4926H17.2778V22.5075H16.2306ZM11.0005 21.4614H12.0781V22.5075V22.5389V23.5535V23.5851V24.6311H11.0005V23.5851V23.5535V22.5389V22.5075V21.4614ZM28.7845 30.8765H29.8621V31.9226H30.8772V31.9226H31.9547V33.0001H30.9081V33.0002H29.8305V31.9541H28.7845V30.8765ZM20.4471 31.9226H19.3695V33.0001H20.4471V31.9226ZM11.0005 10.9999V18.3234H18.3239V10.9999H11.0005ZM17.2777 17.2772H12.0467V12.0461H17.2777V17.2772ZM25.6454 18.3234V10.9999H32.9689V18.3234H25.6454ZM26.6916 17.2772H31.9226V12.0461H26.6916V17.2772ZM11.0005 25.6458V32.9692H18.3239V25.6458H11.0005ZM17.2777 31.923H12.0467V26.692H17.2777V31.923ZM13.0928 13.0922H16.2315V16.2308H13.0928V13.0922ZM30.8765 13.0922H27.7379V16.2308H30.8765V13.0922ZM13.0928 27.7381H16.2315V30.8767H13.0928V27.7381Z" fill="#667085"/>
<path d="M6.28234 56.2604L5.06234 54.9404C4.76234 55.027 4.43234 55.0704 4.07234 55.0704C3.42568 55.0704 2.82901 54.9204 2.28234 54.6204C1.74234 54.3137 1.31234 53.8904 0.992344 53.3504C0.67901 52.8037 0.522344 52.1904 0.522344 51.5104C0.522344 50.8304 0.67901 50.2204 0.992344 49.6804C1.31234 49.1404 1.74234 48.7204 2.28234 48.4204C2.82901 48.1137 3.42568 47.9604 4.07234 47.9604C4.72568 47.9604 5.32234 48.1137 5.86234 48.4204C6.40901 48.7204 6.83901 49.1404 7.15234 49.6804C7.46568 50.2204 7.62234 50.8304 7.62234 51.5104C7.62234 52.1504 7.48234 52.7304 7.20234 53.2504C6.92901 53.7637 6.54901 54.177 6.06234 54.4904L7.73234 56.2604H6.28234ZM1.69234 51.5104C1.69234 52.0237 1.79234 52.477 1.99234 52.8704C2.19901 53.257 2.48234 53.557 2.84234 53.7704C3.20234 53.977 3.61234 54.0804 4.07234 54.0804C4.53234 54.0804 4.94234 53.977 5.30234 53.7704C5.66234 53.557 5.94234 53.257 6.14234 52.8704C6.34901 52.477 6.45234 52.0237 6.45234 51.5104C6.45234 50.997 6.34901 50.547 6.14234 50.1604C5.94234 49.7737 5.66234 49.477 5.30234 49.2704C4.94234 49.0637 4.53234 48.9604 4.07234 48.9604C3.61234 48.9604 3.20234 49.0637 2.84234 49.2704C2.48234 49.477 2.19901 49.7737 1.99234 50.1604C1.79234 50.547 1.69234 50.997 1.69234 51.5104ZM12.3834 55.0004L10.7834 52.2204H9.91344V55.0004H8.77344V48.0504H11.1734C11.7068 48.0504 12.1568 48.1437 12.5234 48.3304C12.8968 48.517 13.1734 48.767 13.3534 49.0804C13.5401 49.3937 13.6334 49.7437 13.6334 50.1304C13.6334 50.5837 13.5001 50.997 13.2334 51.3704C12.9734 51.737 12.5701 51.987 12.0234 52.1204L13.7434 55.0004H12.3834ZM9.91344 51.3104H11.1734C11.6001 51.3104 11.9201 51.2037 12.1334 50.9904C12.3534 50.777 12.4634 50.4904 12.4634 50.1304C12.4634 49.7704 12.3568 49.4904 12.1434 49.2904C11.9301 49.0837 11.6068 48.9804 11.1734 48.9804H9.91344V51.3104ZM17.3095 51.5104C17.3095 50.8304 17.4661 50.2204 17.7795 49.6804C18.0995 49.1404 18.5295 48.7204 19.0695 48.4204C19.6161 48.1137 20.2128 47.9604 20.8595 47.9604C21.5995 47.9604 22.2561 48.1437 22.8295 48.5104C23.4095 48.8704 23.8295 49.3837 24.0895 50.0504H22.7195C22.5395 49.6837 22.2895 49.4104 21.9695 49.2304C21.6495 49.0504 21.2795 48.9604 20.8595 48.9604C20.3995 48.9604 19.9895 49.0637 19.6295 49.2704C19.2695 49.477 18.9861 49.7737 18.7795 50.1604C18.5795 50.547 18.4795 50.997 18.4795 51.5104C18.4795 52.0237 18.5795 52.4737 18.7795 52.8604C18.9861 53.247 19.2695 53.547 19.6295 53.7604C19.9895 53.967 20.3995 54.0704 20.8595 54.0704C21.2795 54.0704 21.6495 53.9804 21.9695 53.8004C22.2895 53.6204 22.5395 53.347 22.7195 52.9804H24.0895C23.8295 53.647 23.4095 54.1604 22.8295 54.5204C22.2561 54.8804 21.5995 55.0604 20.8595 55.0604C20.2061 55.0604 19.6095 54.9104 19.0695 54.6104C18.5295 54.3037 18.0995 53.8804 17.7795 53.3404C17.4661 52.8004 17.3095 52.1904 17.3095 51.5104ZM27.8138 55.0904C27.2938 55.0904 26.8238 54.9737 26.4038 54.7404C25.9838 54.5004 25.6538 54.167 25.4138 53.7404C25.1738 53.307 25.0538 52.807 25.0538 52.2404C25.0538 51.6804 25.1772 51.1837 25.4238 50.7504C25.6705 50.317 26.0072 49.9837 26.4338 49.7504C26.8605 49.517 27.3372 49.4004 27.8638 49.4004C28.3905 49.4004 28.8672 49.517 29.2938 49.7504C29.7205 49.9837 30.0572 50.317 30.3038 50.7504C30.5505 51.1837 30.6738 51.6804 30.6738 52.2404C30.6738 52.8004 30.5472 53.297 30.2938 53.7304C30.0405 54.1637 29.6938 54.5004 29.2538 54.7404C28.8205 54.9737 28.3405 55.0904 27.8138 55.0904ZM27.8138 54.1004C28.1072 54.1004 28.3805 54.0304 28.6338 53.8904C28.8938 53.7504 29.1038 53.5404 29.2638 53.2604C29.4238 52.9804 29.5038 52.6404 29.5038 52.2404C29.5038 51.8404 29.4272 51.5037 29.2738 51.2304C29.1205 50.9504 28.9172 50.7404 28.6638 50.6004C28.4105 50.4604 28.1372 50.3904 27.8438 50.3904C27.5505 50.3904 27.2772 50.4604 27.0238 50.6004C26.7772 50.7404 26.5805 50.9504 26.4338 51.2304C26.2872 51.5037 26.2138 51.8404 26.2138 52.2404C26.2138 52.8337 26.3638 53.2937 26.6638 53.6204C26.9705 53.9404 27.3538 54.1004 27.8138 54.1004ZM31.4208 52.2204C31.4208 51.667 31.5341 51.177 31.7608 50.7504C31.9941 50.3237 32.3074 49.9937 32.7008 49.7604C33.1008 49.5204 33.5441 49.4004 34.0308 49.4004C34.3908 49.4004 34.7441 49.4804 35.0908 49.6404C35.4441 49.7937 35.7241 50.0004 35.9308 50.2604V47.6004H37.0808V55.0004H35.9308V54.1704C35.7441 54.437 35.4841 54.657 35.1508 54.8304C34.8241 55.0037 34.4474 55.0904 34.0208 55.0904C33.5408 55.0904 33.1008 54.9704 32.7008 54.7304C32.3074 54.4837 31.9941 54.1437 31.7608 53.7104C31.5341 53.2704 31.4208 52.7737 31.4208 52.2204ZM35.9308 52.2404C35.9308 51.8604 35.8508 51.5304 35.6908 51.2504C35.5374 50.9704 35.3341 50.757 35.0808 50.6104C34.8274 50.4637 34.5541 50.3904 34.2608 50.3904C33.9674 50.3904 33.6941 50.4637 33.4408 50.6104C33.1874 50.7504 32.9808 50.9604 32.8208 51.2404C32.6674 51.5137 32.5908 51.8404 32.5908 52.2204C32.5908 52.6004 32.6674 52.9337 32.8208 53.2204C32.9808 53.507 33.1874 53.727 33.4408 53.8804C33.7008 54.027 33.9741 54.1004 34.2608 54.1004C34.5541 54.1004 34.8274 54.027 35.0808 53.8804C35.3341 53.7337 35.5374 53.5204 35.6908 53.2404C35.8508 52.9537 35.9308 52.6204 35.9308 52.2404ZM43.6281 52.1104C43.6281 52.317 43.6148 52.5037 43.5881 52.6704H39.3781C39.4115 53.1104 39.5748 53.4637 39.8681 53.7304C40.1615 53.997 40.5215 54.1304 40.9481 54.1304C41.5615 54.1304 41.9948 53.8737 42.2481 53.3604H43.4781C43.3115 53.867 43.0081 54.2837 42.5681 54.6104C42.1348 54.9304 41.5948 55.0904 40.9481 55.0904C40.4215 55.0904 39.9481 54.9737 39.5281 54.7404C39.1148 54.5004 38.7881 54.167 38.5481 53.7404C38.3148 53.307 38.1981 52.807 38.1981 52.2404C38.1981 51.6737 38.3115 51.177 38.5381 50.7504C38.7715 50.317 39.0948 49.9837 39.5081 49.7504C39.9281 49.517 40.4081 49.4004 40.9481 49.4004C41.4681 49.4004 41.9315 49.5137 42.3381 49.7404C42.7448 49.967 43.0615 50.287 43.2881 50.7004C43.5148 51.107 43.6281 51.577 43.6281 52.1104ZM42.4381 51.7504C42.4315 51.3304 42.2815 50.9937 41.9881 50.7404C41.6948 50.487 41.3315 50.3604 40.8981 50.3604C40.5048 50.3604 40.1681 50.487 39.8881 50.7404C39.6081 50.987 39.4415 51.3237 39.3881 51.7504H42.4381Z" fill="#667085"/>
</svg>
