<svg width="343" height="125" viewBox="0 0 343 125" fill="none" xmlns="http://www.w3.org/2000/svg">
<rect width="343" height="125" fill="white"/>
<path d="M36.3701 102.192H306.83" stroke="#BAC2CF" stroke-width="1.59" stroke-miterlimit="10"/>
<path d="M161.39 86.0123H213.84C215.574 86.0123 216.98 84.6063 216.98 82.8723V49.8723C216.98 48.1381 215.574 46.7323 213.84 46.7323H161.39C159.656 46.7323 158.25 48.1381 158.25 49.8723V82.8723C158.25 84.6063 159.656 86.0123 161.39 86.0123Z" fill="#EFEFEF"/>
<path d="M161.39 86.0123H213.84C215.574 86.0123 216.98 84.6063 216.98 82.8723V49.8723C216.98 48.1381 215.574 46.7323 213.84 46.7323H161.39C159.656 46.7323 158.25 48.1381 158.25 49.8723V82.8723C158.25 84.6063 159.656 86.0123 161.39 86.0123Z" stroke="#BAC2CF" stroke-width="1.59" stroke-miterlimit="10"/>
<path d="M155.28 86.0123H207.73C209.464 86.0123 210.87 84.6063 210.87 82.8723V49.8723C210.87 48.1381 209.464 46.7323 207.73 46.7323H155.28C153.546 46.7323 152.14 48.1381 152.14 49.8723V82.8723C152.14 84.6063 153.546 86.0123 155.28 86.0123Z" fill="white"/>
<path d="M155.28 86.0123H207.73C209.464 86.0123 210.87 84.6063 210.87 82.8723V49.8723C210.87 48.1381 209.464 46.7323 207.73 46.7323H155.28C153.546 46.7323 152.14 48.1381 152.14 49.8723V82.8723C152.14 84.6063 153.546 86.0123 155.28 86.0123Z" stroke="#BAC2CF" stroke-width="1.59" stroke-miterlimit="10"/>
<path d="M188.91 52.4625H174.11C173.818 52.4625 173.538 52.3466 173.332 52.1403C173.126 51.934 173.01 51.6542 173.01 51.3625V46.7325H190.01V51.3925C190.002 51.679 189.883 51.9511 189.677 52.151C189.472 52.3508 189.197 52.4626 188.91 52.4625Z" fill="white" stroke="#BAC2CF" stroke-width="1.59" stroke-miterlimit="10"/>
<path d="M174.1 80.1523H188.9C189.192 80.1523 189.472 80.2683 189.678 80.4743C189.884 80.6813 190 80.9603 190 81.2523V85.8823H173V81.2523C173 80.9603 173.116 80.6813 173.322 80.4743C173.529 80.2683 173.808 80.1523 174.1 80.1523Z" fill="white" stroke="#BAC2CF" stroke-width="1.59" stroke-miterlimit="10"/>
<path d="M176.95 63.6426H182.46C183.527 63.6558 184.546 64.0897 185.295 64.8499C186.044 65.6102 186.463 66.6353 186.46 67.7023C186.46 68.7633 186.039 69.7813 185.288 70.5313C184.538 71.2813 183.521 71.7023 182.46 71.7023H176.95" stroke="#BAC2CF" stroke-width="1.59" stroke-miterlimit="10"/>
<path d="M179.15 66.3023L176.5 63.6422L179.15 60.9922" stroke="#BAC2CF" stroke-width="1.59" stroke-miterlimit="10"/>
<path d="M147.52 64.3223H134.89C134.135 64.3217 133.396 64.5345 132.757 64.9361C132.119 65.3378 131.606 65.9123 131.28 66.5923L126.61 76.3823C126.359 76.9173 126.229 77.5013 126.23 78.0923V90.4923H147.52V64.3223Z" fill="white" stroke="#BAC2CF" stroke-width="1.59" stroke-miterlimit="10"/>
<path d="M147.53 55.2222L147.51 90.4923L204.89 90.5423" stroke="#BAC2CF" stroke-width="1.59" stroke-miterlimit="10"/>
<path d="M147.58 99.8422C151.772 99.8422 155.17 96.4442 155.17 92.2522C155.17 88.0612 151.772 84.6622 147.58 84.6622C143.388 84.6622 139.99 88.0612 139.99 92.2522C139.99 96.4442 143.388 99.8422 147.58 99.8422Z" fill="white" stroke="#BAC2CF" stroke-width="1.59" stroke-miterlimit="10"/>
<path d="M147.58 94.6023C148.878 94.6023 149.93 93.5503 149.93 92.2523C149.93 90.9543 148.878 89.9023 147.58 89.9023C146.282 89.9023 145.23 90.9543 145.23 92.2523C145.23 93.5503 146.282 94.6023 147.58 94.6023Z" fill="white" stroke="#BAC2CF" stroke-width="1.59" stroke-miterlimit="10"/>
<path d="M182.23 99.8823C186.422 99.8823 189.82 96.4843 189.82 92.2923C189.82 88.1013 186.422 84.7023 182.23 84.7023C178.038 84.7023 174.64 88.1013 174.64 92.2923C174.64 96.4843 178.038 99.8823 182.23 99.8823Z" fill="white" stroke="#BAC2CF" stroke-width="1.59" stroke-miterlimit="10"/>
<path d="M182.23 94.6423C183.528 94.6423 184.58 93.5903 184.58 92.2923C184.58 90.9943 183.528 89.9423 182.23 89.9423C180.932 89.9423 179.88 90.9943 179.88 92.2923C179.88 93.5903 180.932 94.6423 182.23 94.6423Z" fill="white" stroke="#BAC2CF" stroke-width="1.59" stroke-miterlimit="10"/>
<path d="M53.6501 33.7125C53.6501 33.8325 53.6501 33.9425 53.6501 34.0625C53.6072 34.3685 53.6304 34.6803 53.7183 34.9766C53.8062 35.2729 53.9566 35.5469 54.1595 35.7801C54.3623 36.0133 54.6129 36.2003 54.8942 36.3283C55.1755 36.4564 55.481 36.5226 55.7901 36.5225H85.7901C86.257 36.5136 86.7084 36.3538 87.0768 36.0668C87.4451 35.7799 87.7106 35.3813 87.8333 34.9307C87.9561 34.4802 87.9296 34.002 87.7577 33.5679C87.5859 33.1337 87.2779 32.7669 86.8801 32.5225C85.8972 31.9619 84.7912 31.6527 83.6601 31.6225C83.4984 30.2453 82.8368 28.9754 81.8009 28.0538C80.7649 27.1321 79.4267 26.6228 78.0401 26.6225C77.1578 26.6181 76.2872 26.8238 75.5001 27.2224C74.7705 25.7666 73.5953 24.5816 72.1456 23.8398C70.696 23.098 69.0474 22.8382 67.4398 23.0981C65.8323 23.3581 64.3496 24.1242 63.2076 25.285C62.0655 26.4459 61.3237 27.9409 61.0901 29.5525C60.1615 29.2479 59.1718 29.1792 58.2101 29.3524C57.1026 29.5433 56.0771 30.06 55.2649 30.8367C54.4526 31.6134 53.8904 32.6146 53.6501 33.7125Z" fill="white" stroke="#BAC2CF" stroke-width="1.59" stroke-miterlimit="10"/>
<path d="M246.46 70.2522L246.4 70.5923C246.359 70.8993 246.383 71.2113 246.472 71.5073C246.562 71.8043 246.713 72.0773 246.917 72.3103C247.12 72.5433 247.371 72.7303 247.653 72.8583C247.935 72.9863 248.241 73.0523 248.55 73.0523H278.55C279.017 73.0443 279.468 72.8843 279.837 72.5973C280.205 72.3103 280.47 71.9112 280.593 71.4612C280.716 71.0102 280.689 70.5323 280.518 70.0983C280.346 69.6643 280.038 69.2973 279.64 69.0523C278.653 68.4923 277.545 68.1792 276.41 68.1422C276.311 67.2362 275.995 66.3663 275.488 65.6091C274.98 64.8514 274.297 64.2277 273.496 63.7914C272.695 63.3551 271.801 63.1193 270.889 63.1038C269.977 63.0883 269.075 63.2938 268.26 63.7026C267.53 62.2466 266.354 61.0618 264.903 60.3205C263.453 59.5792 261.804 59.3203 260.196 59.5814C258.588 59.8425 257.105 60.61 255.964 61.7721C254.823 62.9342 254.082 64.4304 253.85 66.0423C253.09 65.7836 252.283 65.6896 251.483 65.7672C250.683 65.8442 249.909 66.0923 249.213 66.4923C248.516 66.8923 247.913 67.4373 247.444 68.0883C246.974 68.7403 246.649 69.4853 246.49 70.2723L246.46 70.2522Z" fill="white" stroke="#BAC2CF" stroke-width="1.59" stroke-miterlimit="10"/>
</svg>
