<svg width="24" height="24" viewBox="0 0 24 24" fill="none" xmlns="http://www.w3.org/2000/svg">
<path d="M12.26 21.65C17.7829 21.65 22.26 17.1729 22.26 11.65C22.26 6.12718 17.7829 1.65002 12.26 1.65002C6.73716 1.65002 2.26001 6.12718 2.26001 11.65C2.26001 17.1729 6.73716 21.65 12.26 21.65Z" stroke="#667085" stroke-width="1.5" stroke-linecap="round" stroke-linejoin="round"/>
<path d="M12.26 16.65C15.0214 16.65 17.26 14.4114 17.26 11.65C17.26 8.8886 15.0214 6.65002 12.26 6.65002C9.49859 6.65002 7.26001 8.8886 7.26001 11.65C7.26001 14.4114 9.49859 16.65 12.26 16.65Z" stroke="#667085" stroke-width="1.5" stroke-linecap="round" stroke-linejoin="round"/>
<path d="M20.5001 5.97998L17.0801 9.39998" stroke="#667085" stroke-width="1.5" stroke-linecap="round" stroke-linejoin="round"/>
<path d="M14.52 6.82997L17.93 3.40997" stroke="#667085" stroke-width="1.5" stroke-linecap="round" stroke-linejoin="round"/>
<path d="M10.0101 16.47L6.59009 19.88" stroke="#667085" stroke-width="1.5" stroke-linecap="round" stroke-linejoin="round"/>
<path d="M4.03003 17.32L7.45001 13.9" stroke="#667085" stroke-width="1.5" stroke-linecap="round" stroke-linejoin="round"/>
<path d="M17.9301 19.88L14.3701 16.32" stroke="#667085" stroke-width="1.5" stroke-linecap="round" stroke-linejoin="round"/>
<path d="M16.9299 13.76L20.4999 17.32" stroke="#667085" stroke-width="1.5" stroke-linecap="round" stroke-linejoin="round"/>
<path d="M7.4801 9.42001L4.37012 6.32001" stroke="#667085" stroke-width="1.5" stroke-linecap="round" stroke-linejoin="round"/>
<path d="M6.92993 3.75L10.0399 6.86" stroke="#667085" stroke-width="1.5" stroke-linecap="round" stroke-linejoin="round"/>
</svg>
