<svg width="25" height="24" viewBox="0 0 25 24" fill="none" xmlns="http://www.w3.org/2000/svg">
<path d="M7.6999 18.5001C7.86583 18.5001 7.9999 18.6343 7.9999 18.8001C7.9999 18.9659 7.86584 19.1001 7.6999 19.1001H6.0999C4.61125 19.1001 3.3999 17.8888 3.3999 16.4001V14.8001C3.3999 14.6343 3.53397 14.5001 3.6999 14.5001C3.86583 14.5001 3.9999 14.6343 3.9999 14.8001V16.4001C3.9999 17.5586 4.94136 18.5001 6.0999 18.5001H7.6999ZM21.5999 14.8001V16.4001C21.5999 17.8888 20.3886 19.1001 18.8999 19.1001H17.2999C17.134 19.1001 16.9999 18.9659 16.9999 18.8001C16.9999 18.6343 17.134 18.5001 17.2999 18.5001H18.8999C20.0584 18.5001 20.9999 17.5586 20.9999 16.4001V14.8001C20.9999 14.6343 21.134 14.5001 21.2999 14.5001C21.4658 14.5001 21.5999 14.6343 21.5999 14.8001ZM21.5999 6.8001V8.4001C21.5999 8.56588 21.4658 8.7001 21.2999 8.7001C21.134 8.7001 20.9999 8.56588 20.9999 8.4001V6.8001C20.9999 5.64155 20.0584 4.7001 18.8999 4.7001H17.2999C17.134 4.7001 16.9999 4.56588 16.9999 4.4001C16.9999 4.23431 17.134 4.1001 17.2999 4.1001H18.8999C20.3886 4.1001 21.5999 5.31144 21.5999 6.8001ZM3.9999 6.8001V8.4001C3.9999 8.56588 3.86583 8.7001 3.6999 8.7001C3.53397 8.7001 3.3999 8.56588 3.3999 8.4001V6.8001C3.3999 5.31144 4.61124 4.1001 6.0999 4.1001H7.6999C7.86583 4.1001 7.9999 4.23431 7.9999 4.4001C7.9999 4.56588 7.86583 4.7001 7.6999 4.7001H6.0999C4.94136 4.7001 3.9999 5.64155 3.9999 6.8001Z" stroke="white"/>
</svg>
