<svg width="40" height="40" viewBox="0 0 40 40" fill="none" xmlns="http://www.w3.org/2000/svg">
<g filter="url(#filter0_d_16059_61352)">
<rect x="2" y="1" width="36" height="36" rx="4" fill="#0098A5"/>
<path d="M20.75 12.125C20.75 11.7108 20.4142 11.375 20 11.375C19.5858 11.375 19.25 11.7108 19.25 12.125H20.75ZM19.25 25.875C19.25 26.2892 19.5858 26.625 20 26.625C20.4142 26.625 20.75 26.2892 20.75 25.875H19.25ZM13.125 18.25C12.7108 18.25 12.375 18.5858 12.375 19C12.375 19.4142 12.7108 19.75 13.125 19.75V18.25ZM26.875 19.75C27.2892 19.75 27.625 19.4142 27.625 19C27.625 18.5858 27.2892 18.25 26.875 18.25V19.75ZM19.25 12.125V19H20.75V12.125H19.25ZM19.25 19V25.875H20.75V19H19.25ZM13.125 19.75H20V18.25H13.125V19.75ZM20 19.75L26.875 19.75V18.25L20 18.25V19.75Z" fill="white"/>
<rect x="2.5" y="1.5" width="35" height="35" rx="3.5" stroke="#0098A5"/>
</g>
<defs>
<filter id="filter0_d_16059_61352" x="0" y="0" width="40" height="40" filterUnits="userSpaceOnUse" color-interpolation-filters="sRGB">
<feFlood flood-opacity="0" result="BackgroundImageFix"/>
<feColorMatrix in="SourceAlpha" type="matrix" values="0 0 0 0 0 0 0 0 0 0 0 0 0 0 0 0 0 0 127 0" result="hardAlpha"/>
<feOffset dy="1"/>
<feGaussianBlur stdDeviation="1"/>
<feColorMatrix type="matrix" values="0 0 0 0 0.113725 0 0 0 0 0.160784 0 0 0 0 0.223529 0 0 0 0.1 0"/>
<feBlend mode="normal" in2="BackgroundImageFix" result="effect1_dropShadow_16059_61352"/>
<feBlend mode="normal" in="SourceGraphic" in2="effect1_dropShadow_16059_61352" result="shape"/>
</filter>
</defs>
</svg>
