<svg width="20" height="20" viewBox="0 0 20 20" fill="none" xmlns="http://www.w3.org/2000/svg">
<path fill-rule="evenodd" clip-rule="evenodd" d="M16.7505 2.5H17.5005V3.25V10.0002V10.3108L17.2809 10.5305L10.9269 16.8858L10.9268 16.886C10.7317 17.081 10.5001 17.2357 10.2452 17.3412C9.9903 17.4467 9.71713 17.5009 9.44128 17.5008C9.16543 17.5007 8.8923 17.4463 8.63749 17.3406C8.38268 17.2349 8.15119 17.0801 7.95624 16.8849L7.93416 16.8628L3.11539 12.0441C2.92029 11.849 2.76553 11.6175 2.65994 11.3626C2.55435 11.1078 2.5 10.8347 2.5 10.5588C2.5 10.2829 2.55435 10.0098 2.65994 9.75495C2.76551 9.50014 2.92025 9.26862 3.11531 9.07362L3.11539 9.07354L9.46996 2.71964L9.68963 2.5H10.0003H16.7505ZM16.0005 9.68961V4H10.3109L4.17591 10.1343L4.17583 10.1344C4.12009 10.1901 4.07587 10.2563 4.0457 10.3291C4.01553 10.4019 4 10.48 4 10.5588C4 10.6376 4.01553 10.7157 4.0457 10.7885C4.07587 10.8613 4.12009 10.9275 4.17583 10.9832L4.17594 10.9833L8.99482 15.8022L9.0172 15.8245L9.01749 15.8248C9.0732 15.8806 9.13934 15.9249 9.21215 15.955C9.28495 15.9852 9.36299 16.0008 9.44181 16.0008C9.52063 16.0009 9.59869 15.9854 9.67151 15.9552C9.74428 15.9251 9.81041 15.8809 9.86612 15.8253L9.86621 15.8252L9.86625 15.8251L16.0005 9.68961ZM11.3503 7.30012C11.3503 8.04572 11.9548 8.65016 12.7004 8.65016C13.446 8.65016 14.0504 8.04572 14.0504 7.30012C14.0504 6.55451 13.446 5.95007 12.7004 5.95007C11.9548 5.95007 11.3503 6.55451 11.3503 7.30012Z" fill="#D0D5DD"/>
</svg>
