<svg width="375" height="374" viewBox="0 0 375 374" fill="none" xmlns="http://www.w3.org/2000/svg">
<path d="M188.455 201.367C223.891 201.367 252.618 172.489 252.618 136.866C252.618 101.244 223.891 72.3662 188.455 72.3662C153.018 72.3662 124.291 101.244 124.291 136.866C124.291 172.489 153.018 201.367 188.455 201.367Z" stroke="#485466" stroke-width="1.05" stroke-miterlimit="10"/>
<path d="M184.655 163.917V186.04C184.659 188.291 184.056 190.501 182.911 192.435C181.765 194.368 180.12 195.954 178.15 197.023L165.541 178.363V156.17L184.655 163.917Z" fill="white"/>
<path d="M160.433 126.121C160.433 126.121 156.093 117.009 149.754 119.888C143.415 122.767 139.4 137.856 152.707 141.052L162.057 144.02L160.433 126.121Z" stroke="#1D2126" stroke-miterlimit="10"/>
<path d="M160.433 126.121C160.433 126.121 156.093 117.009 149.754 119.888C143.415 122.767 139.4 137.856 152.707 141.052L162.057 144.02L160.433 126.121Z" stroke="#1D2126" stroke-miterlimit="10"/>
<path d="M158.277 85.4858C147.155 86.4753 139.203 90.9969 138.228 96.6168C137.559 100.505 140.384 104.047 144.36 108.905C149.713 115.366 156.278 120.705 163.681 124.617L158.277 85.4858Z" fill="#20252D"/>
<path d="M158.277 85.4858C147.155 86.4753 139.203 90.9969 138.228 96.6168C137.559 100.505 140.384 104.047 144.36 108.905C149.713 115.366 156.278 120.705 163.681 124.617L158.277 85.4858Z" stroke="#1D2126" stroke-width="1.05" stroke-miterlimit="10"/>
<path d="M207.913 87.999C207.913 87.999 216.772 97.1808 216.772 110.657C216.772 115.307 216.23 137.648 215.994 141.586C215.079 156.971 202.972 168.943 188.356 168.943C173.593 168.943 161.388 156.684 160.699 141.111L158.317 87.6132L207.913 87.999Z" fill="white"/>
<path d="M209.272 79.4702V87.5636H149.606V79.4702C149.608 72.6782 152.064 66.118 156.518 61.0108C160.972 55.9036 167.12 52.5972 173.819 51.7071C175.041 51.5312 176.275 51.4452 177.51 51.4499H181.447C188.832 51.4578 195.913 54.414 201.131 59.6685C206.349 64.9231 209.277 72.0457 209.272 79.4702Z" fill="white"/>
<path d="M204.793 79.4703V87.5637H145.167V79.4703C145.164 72.6911 147.607 66.1408 152.043 61.0351C156.48 55.9294 162.608 52.6151 169.291 51.7072C170.531 51.5396 171.781 51.4635 173.031 51.4797H176.968C184.348 51.4901 191.423 54.4431 196.639 59.6907C201.855 64.9383 204.788 72.0517 204.793 79.4703Z" fill="#E30613"/>
<path d="M209.272 79.4702V87.5636H149.606V79.4702C149.608 72.6782 152.064 66.118 156.518 61.0108C160.972 55.9036 167.12 52.5972 173.819 51.7071C175.041 51.5312 176.275 51.4452 177.51 51.4499H181.447C188.832 51.4578 195.913 54.414 201.131 59.6685C206.349 64.9231 209.277 72.0457 209.272 79.4702Z" stroke="#1D2126" stroke-miterlimit="10"/>
<path d="M207.52 87.6033C207.52 87.6033 216.732 97.1808 216.732 110.657C216.732 115.307 216.191 137.648 215.955 141.586C215.039 156.971 202.933 168.943 188.317 168.943C173.553 168.943 161.348 156.684 160.659 141.111L158.278 87.6132L207.52 87.6033Z" stroke="#1D2126" stroke-width="1.05" stroke-miterlimit="10"/>
<path d="M150.079 87.5637H258.632" stroke="#1D2126" stroke-miterlimit="10"/>
<path d="M193.396 97.1808L203.927 129.297L191.014 135.155L193.396 97.1808Z" fill="white"/>
<path d="M195.069 102.296L203.927 129.297L191.014 135.155" stroke="#1D2126" stroke-miterlimit="10"/>
<path d="M178.475 119.977H178.228C177.367 119.977 176.541 119.633 175.932 119.021C175.323 118.408 174.98 117.578 174.98 116.712V113.447C174.98 112.581 175.323 111.75 175.932 111.138C176.541 110.526 177.367 110.182 178.228 110.182H178.475C179.336 110.182 180.162 110.526 180.771 111.138C181.38 111.75 181.723 112.581 181.723 113.447V116.712C181.723 117.141 181.639 117.565 181.475 117.961C181.312 118.358 181.073 118.717 180.771 119.021C180.47 119.324 180.112 119.564 179.717 119.728C179.323 119.893 178.901 119.977 178.475 119.977Z" fill="#20252D"/>
<path d="M202.913 119.977H202.667C201.806 119.977 200.98 119.633 200.371 119.021C199.761 118.408 199.419 117.578 199.419 116.712V113.447C199.419 112.581 199.761 111.75 200.371 111.138C200.98 110.526 201.806 110.182 202.667 110.182H202.913C203.775 110.182 204.601 110.526 205.21 111.138C205.819 111.75 206.161 112.581 206.161 113.447V116.712C206.161 117.141 206.077 117.565 205.914 117.961C205.751 118.358 205.512 118.717 205.21 119.021C204.908 119.324 204.55 119.564 204.156 119.728C203.762 119.893 203.34 119.977 202.913 119.977Z" fill="#20252D"/>
<path d="M169.764 102.296C169.764 102.296 173.632 95.3701 183.455 99.7829L169.764 102.296Z" fill="white"/>
<path d="M169.764 102.296C169.764 102.296 173.632 95.3701 183.455 99.7829" stroke="#1D2126" stroke-miterlimit="10"/>
<path d="M193.652 98.5264C193.652 98.5264 198.789 92.4514 207.559 98.7441L193.652 98.5264Z" fill="white"/>
<path d="M193.652 98.5264C193.652 98.5264 198.789 92.4514 207.559 98.7441" stroke="#1D2126" stroke-miterlimit="10"/>
<path d="M180.118 140.616C181.322 142.802 183.108 144.607 185.276 145.83C191.102 149.056 197.205 146.385 197.982 146.028L180.118 140.616Z" fill="white"/>
<path d="M180.118 140.616C181.322 142.802 183.108 144.607 185.276 145.83C191.102 149.056 197.205 146.385 197.982 146.028" stroke="#1D2126" stroke-miterlimit="10"/>
<path d="M182.736 116.563C182.749 113.964 181.843 111.445 180.18 109.455C178.517 107.464 176.205 106.132 173.657 105.695C171.108 105.258 168.487 105.744 166.262 107.068C164.037 108.391 162.352 110.466 161.506 112.922L151.781 138.331L182.776 143.584V116.573L182.736 116.563Z" fill="white" stroke="#1D2126" stroke-miterlimit="10"/>
<path d="M216.535 112.913C215.69 110.456 214.004 108.382 211.779 107.058C209.554 105.734 206.933 105.248 204.385 105.685C201.836 106.122 199.524 107.454 197.861 109.445C196.199 111.435 195.293 113.954 195.305 116.554V143.565L226.299 138.311L216.535 112.913Z" fill="white" stroke="#1D2126" stroke-miterlimit="10"/>
<path d="M216.388 163.442C216.388 168.943 210.069 173.396 202.274 173.396H176.181C168.386 173.396 162.067 168.943 162.067 163.442C162.067 157.951 168.386 153.548 176.181 153.548H202.293C210.089 153.548 216.407 158 216.407 163.442H216.388Z" fill="white" stroke="#1D2126" stroke-miterlimit="10"/>
<path d="M182.884 146.404C182.882 141.934 181.308 137.609 178.44 134.192C175.572 130.776 171.594 128.489 167.211 127.736C162.828 126.983 158.321 127.812 154.487 130.077C150.653 132.342 147.739 135.896 146.26 140.112L129.528 183.884L182.884 192.966V146.464V146.404Z" fill="white" stroke="#1D2126" stroke-miterlimit="10"/>
<path d="M182.884 192.966C182.884 198.424 181.274 203.759 178.258 208.297C175.241 212.835 170.954 216.372 165.938 218.461C160.922 220.549 155.403 221.096 150.078 220.031C144.753 218.966 139.862 216.338 136.023 212.479C132.184 208.62 129.569 203.703 128.51 198.35C127.451 192.997 127.994 187.449 130.072 182.406C132.15 177.364 135.668 173.054 140.182 170.022C144.697 166.99 150.004 165.371 155.433 165.371C162.714 165.371 169.696 168.279 174.844 173.454C179.992 178.629 182.884 185.648 182.884 192.966Z" fill="#E30613" stroke="#1D2126" stroke-miterlimit="10"/>
<path d="M177.628 193.431C177.634 198.618 175.845 203.646 172.567 207.652C169.289 211.658 164.726 214.392 159.662 215.386C154.597 216.38 149.347 215.571 144.811 213.099C140.275 210.627 136.735 206.645 134.801 201.836C132.866 197.027 132.656 191.692 134.207 186.744C135.757 181.797 138.972 177.547 143.3 174.722C147.628 171.897 152.798 170.674 157.925 171.262C163.052 171.851 167.815 174.214 171.398 177.947C175.39 182.103 177.623 187.654 177.628 193.431Z" fill="white" stroke="#1D2126" stroke-miterlimit="10"/>
<path d="M231.939 140.102C230.46 135.886 227.546 132.332 223.712 130.067C219.878 127.802 215.371 126.973 210.988 127.726C206.605 128.48 202.627 130.766 199.759 134.183C196.891 137.599 195.317 141.924 195.315 146.394V192.897L249.252 185.645L231.939 140.102Z" fill="white" stroke="#1D2126" stroke-miterlimit="10"/>
<path d="M195.295 192.966C195.295 198.424 196.905 203.759 199.921 208.297C202.938 212.835 207.225 216.372 212.241 218.461C217.257 220.549 222.776 221.096 228.101 220.031C233.426 218.966 238.318 216.338 242.157 212.479C245.996 208.62 248.61 203.703 249.669 198.35C250.729 192.997 250.185 187.449 248.107 182.406C246.03 177.364 242.511 173.054 237.997 170.022C233.483 166.99 228.175 165.371 222.746 165.371C215.466 165.371 208.483 168.279 203.335 173.454C198.187 178.629 195.295 185.648 195.295 192.966Z" fill="#E30613" stroke="#1D2126" stroke-miterlimit="10"/>
<path d="M244.951 193.431C244.951 197.593 243.793 201.671 241.609 205.206C239.425 208.742 236.301 211.593 232.591 213.438C228.88 215.283 224.73 216.048 220.61 215.648C216.489 215.247 212.562 213.697 209.272 211.172C207.545 209.818 206.017 208.226 204.734 206.442C202.63 203.529 201.261 200.146 200.747 196.583C200.232 193.02 200.587 189.385 201.781 185.991C202.986 182.573 204.999 179.502 207.649 177.042C210.298 174.582 213.504 172.808 216.988 171.872C218.853 171.369 220.776 171.116 222.707 171.12C227.958 171.12 233.039 172.992 237.047 176.404C237.618 176.898 238.159 177.393 238.681 177.947C239.673 178.99 240.565 180.122 241.348 181.331C243.686 184.93 244.937 189.133 244.951 193.431Z" fill="white" stroke="#1D2126" stroke-miterlimit="10"/>
<path d="M162.52 189.86V197.023C162.517 198.921 161.765 200.741 160.429 202.082C159.093 203.423 157.282 204.176 155.394 204.176H154.843C152.954 204.176 151.143 203.423 149.807 202.082C148.471 200.741 147.719 198.921 147.717 197.023V189.86C147.717 187.959 148.467 186.136 149.803 184.791C151.139 183.446 152.952 182.689 154.843 182.686H155.394C155.921 182.689 156.446 182.752 156.959 182.874C158.537 183.231 159.947 184.117 160.957 185.387C161.968 186.656 162.519 188.234 162.52 189.86Z" fill="#20252D"/>
<path d="M162.963 189.365L162.795 194.401C162.002 194.915 161.09 195.215 160.148 195.272H159.793C158.615 195.272 157.485 194.802 156.651 193.965C155.817 193.129 155.347 191.994 155.344 190.809V186.337C155.344 185.676 155.489 185.023 155.768 184.425C156.047 183.826 156.453 183.297 156.959 182.874C158.577 183.027 160.084 183.773 161.191 184.97C162.298 186.166 162.929 187.731 162.963 189.365Z" fill="white"/>
<path d="M231.181 189.86V197.023C231.181 198.92 230.431 200.74 229.097 202.081C227.762 203.423 225.952 204.176 224.065 204.176H223.524C222.588 204.178 221.661 203.994 220.796 203.635C219.931 203.276 219.144 202.75 218.482 202.085C217.819 201.421 217.293 200.632 216.934 199.764C216.575 198.895 216.389 197.964 216.388 197.023V189.86C216.388 187.957 217.14 186.133 218.478 184.787C219.816 183.442 221.631 182.686 223.524 182.686H224.065C224.589 182.688 225.111 182.752 225.62 182.874C227.2 183.228 228.612 184.113 229.623 185.383C230.634 186.654 231.184 188.233 231.181 189.86Z" fill="#20252D"/>
<path d="M231.634 189.365L231.319 194.53C230.565 195.003 229.697 195.259 228.809 195.272H228.455C227.276 195.272 226.146 194.802 225.312 193.965C224.478 193.129 224.008 191.994 224.006 190.809V186.337C224.006 185.676 224.15 185.023 224.429 184.425C224.708 183.826 225.115 183.297 225.62 182.874C229.331 182.31 231.634 185.951 231.634 189.365Z" fill="white"/>
<path d="M2.72632 307.284H372.116" stroke="#1D2126" stroke-miterlimit="10"/>
<path d="M119.449 252.351H49.3111C46.316 252.351 43.8879 254.792 43.8879 257.803V301.357C43.8879 304.368 46.316 306.809 49.3111 306.809H119.449C122.444 306.809 124.872 304.368 124.872 301.357V257.803C124.872 254.792 122.444 252.351 119.449 252.351Z" fill="#E30613" stroke="#1D2126" stroke-miterlimit="10"/>
<path d="M127.874 252.351H57.7362C54.741 252.351 52.313 254.792 52.313 257.803V301.357C52.313 304.368 54.741 306.809 57.7362 306.809H127.874C130.869 306.809 133.297 304.368 133.297 301.357V257.803C133.297 254.792 130.869 252.351 127.874 252.351Z" fill="#E30613" stroke="#1D2126" stroke-miterlimit="10"/>
<path d="M104.518 252.331H81.0828V258.377C81.0828 258.883 81.2829 259.369 81.6392 259.727C81.9954 260.085 82.4786 260.286 82.9824 260.286H102.667C102.917 260.288 103.165 260.239 103.396 260.144C103.627 260.048 103.837 259.908 104.014 259.73C104.19 259.552 104.33 259.341 104.425 259.109C104.52 258.877 104.568 258.628 104.567 258.377L104.518 252.331Z" fill="white" stroke="#1D2126" stroke-miterlimit="10"/>
<path d="M81.0826 306.631H104.518V300.595C104.519 300.344 104.471 300.094 104.376 299.861C104.281 299.629 104.141 299.417 103.965 299.239C103.788 299.06 103.578 298.919 103.347 298.822C103.116 298.725 102.868 298.676 102.618 298.676H82.933C82.4283 298.678 81.9452 298.882 81.5892 299.241C81.2332 299.601 81.0334 300.088 81.0334 300.595L81.0826 306.631Z" fill="white" stroke="#1D2126" stroke-miterlimit="10"/>
<path d="M86.4568 276.691C85.6781 276.691 84.9169 276.923 84.2695 277.358C83.6221 277.793 83.1174 278.411 82.8194 279.134C82.5215 279.857 82.4435 280.653 82.5954 281.421C82.7473 282.188 83.1223 282.894 83.6729 283.447C84.2235 284.001 84.925 284.377 85.6887 284.53C86.4524 284.683 87.244 284.605 87.9634 284.305C88.6828 284.005 89.2977 283.498 89.7303 282.847C90.1629 282.196 90.3938 281.431 90.3938 280.649C90.4146 280.123 90.327 279.599 90.1365 279.11C89.946 278.62 89.6567 278.175 89.2869 277.804C88.9171 277.432 88.4747 277.141 87.9877 276.95C87.5006 276.758 86.9794 276.67 86.4568 276.691ZM86.4568 282.786C86.0284 282.82 85.5998 282.723 85.227 282.508C84.8543 282.293 84.5547 281.97 84.3673 281.581C84.18 281.193 84.1136 280.756 84.1769 280.329C84.2403 279.902 84.4303 279.504 84.7223 279.187C85.0142 278.87 85.3945 278.649 85.8134 278.552C86.2322 278.456 86.6703 278.489 87.0703 278.647C87.4702 278.805 87.8135 279.08 88.0553 279.437C88.297 279.794 88.426 280.217 88.4253 280.649C88.4471 280.921 88.4123 281.196 88.3232 281.455C88.2341 281.713 88.0925 281.95 87.9075 282.151C87.7225 282.352 87.498 282.512 87.2483 282.621C86.9986 282.731 86.7291 282.787 86.4568 282.786Z" fill="white"/>
<path d="M94.8426 279.818C93.8583 279.679 93.0906 279.56 93.0906 278.937C93.0906 278.601 93.317 278.215 94.38 278.215C94.7245 278.171 95.0735 278.245 95.3714 278.425C95.6693 278.604 95.8989 278.878 96.0237 279.204L97.8249 278.798C97.4312 277.433 96.2501 276.681 94.4981 276.681C92.5296 276.681 91.2304 277.601 91.2304 278.976C91.2304 280.886 92.9135 281.133 94.2717 281.321C95.256 281.47 96.063 281.589 96.063 282.311C96.063 282.677 95.7973 283.112 94.508 283.112C93.5237 283.112 92.8741 282.746 92.6674 282.123L90.8662 282.489C91.2698 283.904 92.5099 284.656 94.4587 284.656C96.624 284.656 97.9627 283.746 97.9627 282.281C97.9627 280.302 96.2402 280.085 94.8426 279.877" fill="white"/>
<path d="M101.713 282.885C101.122 282.885 100.728 282.459 100.728 281.767V278.581H103.76V276.909H100.728V274.574H98.7598V281.777C98.7159 282.151 98.7555 282.53 98.8758 282.887C98.9961 283.243 99.1941 283.569 99.4552 283.839C99.7164 284.109 100.034 284.317 100.386 284.448C100.737 284.579 101.113 284.63 101.486 284.596C102.113 284.661 102.743 284.497 103.26 284.133C103.777 283.77 104.146 283.232 104.301 282.618L102.716 282.113C102.648 282.338 102.508 282.535 102.317 282.672C102.127 282.81 101.898 282.881 101.663 282.875" fill="white"/>
<path d="M110.541 277.858L110.472 277.759C110.191 277.394 109.822 277.104 109.401 276.918C108.98 276.731 108.52 276.653 108.061 276.691C106.092 276.691 104.636 278.353 104.636 280.649C104.636 282.944 106.053 284.606 108.012 284.606C108.48 284.635 108.947 284.547 109.373 284.35C109.799 284.153 110.17 283.854 110.453 283.478L110.522 283.379L110.915 284.369H112.47V276.889H110.915L110.541 277.858ZM108.573 282.805C108.138 282.845 107.702 282.752 107.321 282.539C106.94 282.325 106.632 282.001 106.438 281.608C106.243 281.215 106.171 280.773 106.231 280.339C106.291 279.904 106.48 279.498 106.774 279.174C107.067 278.849 107.451 278.621 107.876 278.52C108.3 278.419 108.745 278.449 109.153 278.606C109.56 278.763 109.91 279.04 110.158 279.401C110.406 279.762 110.539 280.19 110.541 280.629C110.569 280.905 110.538 281.183 110.452 281.447C110.365 281.71 110.225 281.953 110.039 282.158C109.854 282.363 109.627 282.527 109.374 282.638C109.122 282.75 108.849 282.807 108.573 282.805Z" fill="white"/>
<path d="M78.307 276.691C77.8555 276.666 77.4046 276.75 76.992 276.936C76.5793 277.122 76.2169 277.404 75.935 277.76L75.8267 277.908V274.574H73.8582V284.389H75.4133L75.8169 283.34L75.8857 283.439C76.1598 283.821 76.5255 284.127 76.9487 284.33C77.372 284.532 77.8391 284.624 78.307 284.596C80.2755 284.596 81.6928 282.974 81.6928 280.639C81.6928 278.304 80.305 276.681 78.307 276.681V276.691ZM77.7558 282.806C76.8601 282.806 75.7873 282.43 75.7873 280.649C75.8216 280.267 75.9656 279.903 76.2017 279.602C76.4378 279.301 76.7558 279.075 77.1172 278.952C77.4785 278.829 77.8676 278.815 78.2371 278.91C78.6065 279.005 78.9405 279.206 79.1984 279.489C79.4562 279.772 79.6269 280.123 79.6895 280.502C79.7522 280.88 79.7043 281.268 79.5515 281.62C79.3987 281.971 79.1476 282.27 78.8288 282.481C78.51 282.691 78.1373 282.804 77.7558 282.806Z" fill="white"/>
<path d="M218.425 252.351H148.287C145.292 252.351 142.864 254.792 142.864 257.803V301.357C142.864 304.368 145.292 306.809 148.287 306.809H218.425C221.42 306.809 223.848 304.368 223.848 301.357V257.803C223.848 254.792 221.42 252.351 218.425 252.351Z" fill="#E30613" stroke="#1D2126" stroke-miterlimit="10"/>
<path d="M226.85 252.351H156.712C153.717 252.351 151.289 254.792 151.289 257.803V301.357C151.289 304.368 153.717 306.809 156.712 306.809H226.85C229.845 306.809 232.274 304.368 232.274 301.357V257.803C232.274 254.792 229.845 252.351 226.85 252.351Z" fill="#E30613" stroke="#1D2126" stroke-miterlimit="10"/>
<path d="M203.504 252.331H180.118V258.377C180.117 258.628 180.165 258.877 180.26 259.109C180.355 259.341 180.495 259.552 180.672 259.73C180.848 259.908 181.058 260.048 181.289 260.144C181.52 260.239 181.768 260.288 182.018 260.286H201.703C201.953 260.288 202.2 260.239 202.431 260.144C202.662 260.048 202.872 259.908 203.049 259.73C203.226 259.552 203.365 259.341 203.46 259.109C203.555 258.877 203.604 258.628 203.602 258.377L203.504 252.331Z" fill="white" stroke="#1D2126" stroke-miterlimit="10"/>
<path d="M180.118 306.631H203.553V300.595C203.554 300.344 203.506 300.094 203.411 299.861C203.316 299.629 203.177 299.417 203 299.239C202.824 299.06 202.614 298.919 202.383 298.822C202.152 298.725 201.904 298.676 201.654 298.676H181.968C181.718 298.676 181.47 298.725 181.239 298.822C181.008 298.919 180.798 299.06 180.622 299.239C180.445 299.417 180.306 299.629 180.211 299.861C180.116 300.094 180.068 300.344 180.069 300.595L180.118 306.631Z" fill="white" stroke="#1D2126" stroke-miterlimit="10"/>
<path d="M185.433 276.691C184.657 276.701 183.9 276.941 183.26 277.382C182.619 277.823 182.122 278.444 181.831 279.168C181.541 279.892 181.47 280.686 181.627 281.451C181.785 282.215 182.163 282.915 182.716 283.464C183.268 284.013 183.97 284.385 184.732 284.533C185.495 284.682 186.284 284.601 187 284.3C187.717 283.999 188.329 283.492 188.759 282.842C189.19 282.192 189.419 281.429 189.419 280.649C189.441 280.119 189.352 279.591 189.158 279.097C188.965 278.604 188.671 278.157 188.296 277.785C187.921 277.412 187.472 277.122 186.979 276.934C186.486 276.746 185.96 276.663 185.433 276.691ZM185.433 282.786C185.005 282.82 184.576 282.723 184.203 282.508C183.831 282.293 183.531 281.97 183.344 281.581C183.156 281.193 183.09 280.756 183.153 280.329C183.217 279.902 183.407 279.503 183.699 279.187C183.991 278.87 184.371 278.649 184.79 278.552C185.209 278.456 185.647 278.489 186.047 278.647C186.447 278.805 186.79 279.08 187.032 279.437C187.273 279.794 187.402 280.217 187.402 280.649C187.424 280.921 187.389 281.196 187.3 281.455C187.21 281.713 187.069 281.95 186.884 282.151C186.699 282.352 186.474 282.512 186.225 282.621C185.975 282.731 185.706 282.787 185.433 282.786Z" fill="white"/>
<path d="M193.829 279.818C192.844 279.679 192.077 279.56 192.077 278.937C192.077 278.601 192.303 278.215 193.356 278.215C193.701 278.168 194.052 278.24 194.35 278.42C194.649 278.6 194.878 278.876 195 279.204L196.801 278.798C196.417 277.433 195.236 276.681 193.474 276.681C191.506 276.681 190.216 277.601 190.216 278.976C190.216 280.886 191.9 281.133 193.248 281.321C194.232 281.47 195.049 281.589 195.049 282.311C195.049 282.677 194.774 283.112 193.494 283.112C192.51 283.112 191.85 282.746 191.653 282.123L189.852 282.489C190.246 283.904 191.486 284.656 193.435 284.656C195.6 284.656 196.949 283.746 196.949 282.281C196.949 280.302 195.216 280.085 193.829 279.877" fill="white"/>
<path d="M200.699 282.885C200.108 282.885 199.715 282.459 199.715 281.767V278.581H202.756V276.909H199.803V274.574H197.835V281.777C197.791 282.151 197.83 282.53 197.951 282.887C198.071 283.243 198.269 283.569 198.53 283.839C198.791 284.109 199.109 284.317 199.461 284.448C199.812 284.579 200.188 284.63 200.561 284.596C201.189 284.665 201.821 284.503 202.338 284.139C202.856 283.775 203.225 283.234 203.376 282.618L201.791 282.113C201.726 282.338 201.588 282.535 201.399 282.673C201.211 282.811 200.981 282.882 200.748 282.875" fill="white"/>
<path d="M209.528 277.858L209.459 277.76C209.176 277.394 208.808 277.106 208.387 276.919C207.966 276.733 207.506 276.654 207.047 276.691C205.079 276.691 203.612 278.353 203.612 280.649C203.612 282.944 205.039 284.606 206.998 284.606C207.465 284.636 207.931 284.548 208.356 284.352C208.78 284.155 209.149 283.855 209.429 283.478L209.498 283.379L209.882 284.369H211.437V276.889H209.882L209.528 277.858ZM207.559 282.806C207.125 282.845 206.688 282.752 206.307 282.539C205.926 282.325 205.618 282.001 205.424 281.608C205.23 281.216 205.158 280.773 205.218 280.339C205.278 279.904 205.467 279.498 205.76 279.174C206.054 278.849 206.438 278.621 206.862 278.52C207.287 278.419 207.732 278.449 208.139 278.606C208.546 278.763 208.897 279.041 209.145 279.402C209.392 279.762 209.526 280.19 209.528 280.629C209.555 280.905 209.525 281.184 209.438 281.447C209.352 281.71 209.211 281.953 209.026 282.158C208.84 282.363 208.613 282.527 208.361 282.638C208.108 282.75 207.835 282.807 207.559 282.806Z" fill="white"/>
<path d="M177.293 276.691C176.842 276.666 176.391 276.75 175.978 276.936C175.566 277.122 175.203 277.404 174.921 277.76L174.803 277.908V274.574H172.835V284.389H174.39L174.803 283.34L174.872 283.439C175.145 283.822 175.51 284.13 175.934 284.332C176.357 284.535 176.825 284.626 177.293 284.596C179.262 284.596 180.669 282.974 180.669 280.639C180.669 278.304 179.282 276.681 177.293 276.681V276.691ZM176.782 282.796C175.876 282.796 174.813 282.42 174.813 280.639C174.847 280.257 174.991 279.893 175.227 279.592C175.464 279.291 175.782 279.065 176.143 278.942C176.504 278.819 176.893 278.805 177.263 278.9C177.632 278.995 177.966 279.197 178.224 279.479C178.482 279.762 178.653 280.113 178.715 280.492C178.778 280.87 178.73 281.258 178.577 281.61C178.424 281.961 178.173 282.26 177.855 282.471C177.536 282.681 177.163 282.794 176.782 282.796Z" fill="white"/>
<path d="M317.411 252.351H247.274C244.278 252.351 241.85 254.792 241.85 257.803V301.357C241.85 304.368 244.278 306.809 247.274 306.809H317.411C320.407 306.809 322.835 304.368 322.835 301.357V257.803C322.835 254.792 320.407 252.351 317.411 252.351Z" fill="#E30613" stroke="#1D2126" stroke-miterlimit="10"/>
<path d="M325.837 252.351H255.699C252.704 252.351 250.276 254.792 250.276 257.803V301.357C250.276 304.368 252.704 306.809 255.699 306.809H325.837C328.832 306.809 331.26 304.368 331.26 301.357V257.803C331.26 254.792 328.832 252.351 325.837 252.351Z" fill="#E30613" stroke="#1D2126" stroke-miterlimit="10"/>
<path d="M302.49 252.331H279.045V258.377C279.045 258.883 279.246 259.369 279.602 259.727C279.958 260.085 280.441 260.286 280.945 260.286H300.63C301.134 260.286 301.617 260.085 301.973 259.727C302.329 259.369 302.53 258.883 302.53 258.377L302.49 252.331Z" fill="white" stroke="#1D2126" stroke-miterlimit="10"/>
<path d="M279.045 306.631H302.49V300.595C302.49 300.088 302.29 299.601 301.934 299.241C301.578 298.882 301.095 298.678 300.591 298.676H280.906C280.401 298.678 279.918 298.882 279.562 299.241C279.206 299.601 279.006 300.088 279.006 300.595L279.045 306.631Z" fill="white" stroke="#1D2126" stroke-miterlimit="10"/>
<path d="M284.449 276.691C283.67 276.691 282.909 276.923 282.261 277.358C281.614 277.793 281.109 278.411 280.811 279.134C280.513 279.857 280.435 280.653 280.587 281.421C280.739 282.188 281.114 282.894 281.665 283.447C282.215 284.001 282.917 284.377 283.681 284.53C284.444 284.683 285.236 284.605 285.955 284.305C286.675 284.005 287.29 283.498 287.722 282.847C288.155 282.196 288.386 281.431 288.386 280.649C288.407 280.123 288.319 279.599 288.128 279.11C287.938 278.62 287.649 278.175 287.279 277.804C286.909 277.432 286.467 277.141 285.98 276.95C285.493 276.758 284.971 276.67 284.449 276.691ZM284.449 282.786C284.02 282.82 283.592 282.723 283.219 282.508C282.846 282.293 282.547 281.97 282.359 281.581C282.172 281.193 282.106 280.756 282.169 280.329C282.232 279.902 282.422 279.504 282.714 279.187C283.006 278.87 283.386 278.649 283.805 278.552C284.224 278.456 284.662 278.489 285.062 278.647C285.462 278.805 285.805 279.08 286.047 279.437C286.289 279.794 286.418 280.217 286.417 280.649C286.439 280.921 286.404 281.196 286.315 281.455C286.226 281.713 286.084 281.95 285.899 282.151C285.714 282.352 285.49 282.512 285.24 282.621C284.991 282.731 284.721 282.787 284.449 282.786Z" fill="white"/>
<path d="M292.805 279.818C291.821 279.679 291.063 279.56 291.063 278.937C291.063 278.601 291.28 278.215 292.343 278.215C292.687 278.171 293.036 278.245 293.334 278.425C293.632 278.604 293.862 278.878 293.986 279.204L295.788 278.798C295.394 277.433 294.213 276.681 292.461 276.681C290.492 276.681 289.193 277.601 289.193 278.976C289.193 280.886 290.876 281.133 292.234 281.321C293.219 281.47 294.026 281.589 294.026 282.311C294.026 282.677 293.76 283.112 292.471 283.112C291.486 283.112 290.837 282.746 290.63 282.123L288.829 282.489C289.232 283.904 290.473 284.656 292.421 284.656C294.587 284.656 295.935 283.746 295.935 282.281C295.935 280.302 294.203 280.085 292.805 279.877" fill="white"/>
<path d="M299.675 282.885C299.085 282.885 298.691 282.459 298.691 281.767V278.581H301.722V276.909H298.691V274.574H296.722V281.777C296.679 282.151 296.718 282.53 296.838 282.887C296.959 283.243 297.157 283.569 297.418 283.839C297.679 284.109 297.997 284.317 298.348 284.448C298.7 284.579 299.076 284.63 299.449 284.596C300.077 284.665 300.708 284.503 301.226 284.139C301.744 283.775 302.113 283.234 302.264 282.618L300.679 282.113C300.612 282.339 300.472 282.536 300.282 282.674C300.091 282.812 299.861 282.883 299.626 282.875" fill="white"/>
<path d="M308.504 277.858L308.435 277.759C308.153 277.394 307.785 277.104 307.364 276.918C306.943 276.731 306.482 276.653 306.024 276.691C304.055 276.691 302.598 278.353 302.598 280.649C302.598 282.944 304.016 284.606 305.974 284.606C306.442 284.635 306.91 284.547 307.336 284.35C307.761 284.153 308.132 283.854 308.415 283.478L308.484 283.379L308.868 284.369H310.423V276.889H308.868L308.504 277.858ZM306.535 282.805C306.101 282.845 305.665 282.752 305.284 282.539C304.903 282.325 304.595 282.001 304.4 281.608C304.206 281.215 304.134 280.773 304.194 280.339C304.254 279.904 304.443 279.498 304.736 279.174C305.03 278.849 305.414 278.621 305.838 278.52C306.263 278.419 306.708 278.449 307.115 278.606C307.522 278.763 307.873 279.04 308.121 279.401C308.369 279.762 308.502 280.19 308.504 280.629C308.532 280.905 308.501 281.183 308.415 281.447C308.328 281.71 308.187 281.953 308.002 282.158C307.816 282.363 307.59 282.527 307.337 282.638C307.084 282.75 306.811 282.807 306.535 282.805Z" fill="white"/>
<path d="M276.27 276.691C275.818 276.666 275.367 276.75 274.955 276.936C274.542 277.122 274.18 277.404 273.898 277.76L273.789 277.908V274.574H271.821V284.389H273.376L273.779 283.34L273.848 283.439C274.122 283.821 274.488 284.127 274.911 284.33C275.335 284.532 275.802 284.624 276.27 284.596C278.238 284.596 279.655 282.974 279.655 280.639C279.655 278.304 278.268 276.681 276.27 276.681V276.691ZM275.768 282.796C274.862 282.796 273.799 282.42 273.799 280.639C273.833 280.257 273.977 279.893 274.214 279.592C274.45 279.291 274.768 279.065 275.129 278.942C275.49 278.819 275.879 278.805 276.249 278.9C276.618 278.995 276.952 279.197 277.21 279.479C277.468 279.762 277.639 280.113 277.701 280.492C277.764 280.87 277.716 281.258 277.563 281.61C277.411 281.961 277.159 282.26 276.841 282.471C276.522 282.681 276.149 282.794 275.768 282.796Z" fill="white"/>
<path d="M252.431 164.907L239.311 156.655L229.409 153.865C228.642 153.865 227.972 153.865 227.441 153.865C224.646 153.677 223.78 153.033 223.327 152.509C223.106 152.254 222.924 151.967 222.785 151.658C227.933 150.085 229.183 149.749 229.193 149.778C227.46 150.352 225.695 150.821 223.907 151.183C222.333 151.52 221.752 151.579 221.102 151.332C219.488 150.708 218.917 148.67 218.75 147.948L220.246 147.255C219.776 147.347 219.292 147.332 218.829 147.211C218.366 147.09 217.936 146.866 217.57 146.555C217.205 146.245 216.913 145.856 216.717 145.417C216.521 144.978 216.425 144.501 216.437 144.02L219.104 142.645L216.634 139.508L229.262 134.432C230.076 134.004 230.979 133.775 231.897 133.764C232.816 133.754 233.724 133.963 234.547 134.373L263.169 147.73C263.23 147.759 263.283 147.8 263.327 147.852C263.37 147.903 263.402 147.963 263.42 148.027C263.439 148.092 263.444 148.159 263.434 148.226C263.425 148.292 263.402 148.356 263.366 148.413C259.705 153.894 256.06 159.392 252.431 164.907Z" fill="white" stroke="#1D2126" stroke-miterlimit="10"/>
<path d="M217.106 143.684L229.036 138.905C229.82 138.494 230.686 138.265 231.571 138.236C232.455 138.207 233.334 138.378 234.144 138.736L238.996 140.913" fill="white"/>
<path d="M217.106 143.684L229.036 138.905C229.82 138.494 230.686 138.265 231.571 138.236C232.455 138.207 233.334 138.378 234.144 138.736L238.996 140.913" stroke="#1D2126" stroke-miterlimit="10"/>
<path d="M218.72 147.918L229.547 143.792C230.337 143.38 231.21 143.152 232.099 143.127C232.989 143.101 233.873 143.278 234.685 143.644L241.142 146.563" fill="white"/>
<path d="M218.72 147.918L229.547 143.792C230.337 143.38 231.21 143.152 232.099 143.127C232.989 143.101 233.873 143.278 234.685 143.644L241.142 146.563" stroke="#1D2126" stroke-miterlimit="10"/>
<path d="M223.268 151.579L229.675 149.669C231.299 148.799 233.701 148.304 235.364 149.086L241.526 151.945" fill="white"/>
<path d="M223.268 151.579L229.675 149.669C231.299 148.799 233.701 148.304 235.364 149.086L241.526 151.945" stroke="#1D2126" stroke-miterlimit="10"/>
<path d="M125.925 171.753L139.045 163.502L148.947 160.711C149.603 160.747 150.26 160.747 150.915 160.711C153.721 160.523 154.587 159.89 155.039 159.366C155.263 159.108 155.445 158.818 155.581 158.505C150.433 156.932 149.183 156.595 149.173 156.635C150.906 157.204 152.671 157.67 154.459 158.03C156.034 158.376 156.614 158.436 157.254 158.178C158.878 157.555 159.449 155.517 159.616 154.795L158.12 154.102C158.584 154.186 159.061 154.168 159.518 154.05C159.975 153.933 160.401 153.717 160.768 153.419C161.132 153.104 161.424 152.714 161.624 152.275C161.824 151.836 161.929 151.359 161.929 150.877L159.282 149.432L161.752 146.286L149.124 141.21C148.307 140.786 147.403 140.56 146.483 140.55C145.564 140.54 144.655 140.745 143.829 141.151L115.217 154.508C115.155 154.535 115.1 154.576 115.056 154.627C115.012 154.678 114.979 154.738 114.96 154.803C114.942 154.868 114.937 154.936 114.948 155.003C114.958 155.07 114.982 155.134 115.02 155.19L125.925 171.753Z" fill="white" stroke="#1D2126" stroke-miterlimit="10"/>
<path d="M161.25 150.54L149.321 145.751C148.534 145.341 147.666 145.113 146.78 145.086C145.894 145.058 145.013 145.232 144.203 145.593L139.351 147.77" fill="white"/>
<path d="M161.25 150.54L149.321 145.751C148.534 145.341 147.666 145.113 146.78 145.086C145.894 145.058 145.013 145.232 144.203 145.593L139.351 147.77" stroke="#1D2126" stroke-miterlimit="10"/>
<path d="M159.636 154.765L148.809 150.649C148.02 150.235 147.148 150.006 146.258 149.978C145.369 149.951 144.484 150.126 143.671 150.491L137.264 153.459" fill="white"/>
<path d="M159.636 154.765L148.809 150.649C148.02 150.235 147.148 150.006 146.258 149.978C145.369 149.951 144.484 150.126 143.671 150.491L137.264 153.459" stroke="#1D2126" stroke-miterlimit="10"/>
<path d="M155.079 158.426L148.681 156.516C147.057 155.646 144.656 155.161 142.992 155.933L136.811 158.792" fill="white"/>
<path d="M155.079 158.426L148.681 156.516C147.057 155.646 144.656 155.161 142.992 155.933L136.811 158.792" stroke="#1D2126" stroke-miterlimit="10"/>
<path d="M245.079 167.152C250.021 157.832 252.597 147.428 252.579 136.866" stroke="#485466" stroke-width="1.05" stroke-miterlimit="10"/>
<path d="M124.282 136.866C124.276 148.351 127.335 159.626 133.14 169.517" stroke="#485466" stroke-width="1.05" stroke-miterlimit="10"/>
<path d="M275.66 50.5592H276.152C276.302 48.7298 277.132 47.0244 278.476 45.7816C279.82 44.5388 281.58 43.8496 283.406 43.8509C284.196 43.8462 284.981 43.9767 285.728 44.2368C286.887 42.3325 288.583 40.8181 290.601 39.8865C292.619 38.955 294.867 38.6485 297.059 39.0062C299.251 39.3639 301.287 40.3695 302.908 41.8948C304.529 43.4202 305.662 45.3963 306.161 47.5711C306.8 47.3778 307.463 47.281 308.13 47.2842C309.268 47.2878 310.389 47.5701 311.395 48.1069C312.4 48.6436 313.26 49.4185 313.901 50.3646C314.542 51.3107 314.944 52.3994 315.072 53.5367C315.2 54.6739 315.05 55.8254 314.636 56.8915H267.776C268.18 55.0933 269.181 53.4869 270.613 52.3361C272.046 51.1854 273.826 50.5587 275.66 50.5592Z" fill="white" stroke="#485466" stroke-miterlimit="10"/>
<path d="M61.3878 84.8821H61.8799C61.9698 83.7751 62.3094 82.7033 62.873 81.7479C63.4365 80.7926 64.2092 79.9788 65.1322 79.3685C66.0553 78.7581 67.1046 78.3672 68.2005 78.2253C69.2963 78.0835 70.4099 78.1944 71.4567 78.5498C72.6133 76.6445 74.3086 75.1289 76.3261 74.1965C78.3435 73.2641 80.5916 72.9572 82.7834 73.315C84.9751 73.6729 87.0111 74.6792 88.6313 76.2054C90.2515 77.7317 91.3825 79.7088 91.8799 81.8842C92.519 81.6951 93.1823 81.6018 93.8484 81.6071C94.9886 81.6052 96.1119 81.8842 97.12 82.4196C98.1282 82.9551 98.9905 83.7307 99.6314 84.6786C100.272 85.6266 100.673 86.718 100.797 87.8573C100.921 88.9967 100.766 90.1493 100.344 91.2144H53.5039C53.9082 89.4162 54.9089 87.8098 56.3417 86.659C57.7744 85.5083 59.5539 84.8816 61.3878 84.8821Z" fill="white" stroke="#485466" stroke-miterlimit="10"/>
</svg>
