<svg width="343" height="125" viewBox="0 0 343 125" fill="none" xmlns="http://www.w3.org/2000/svg">
<path d="M343 0H0V125H343V0Z" fill="white"/>
<path d="M208.49 36.77H125.47C122.372 36.77 119.86 39.2817 119.86 42.38V94.1898C119.86 97.2888 122.372 99.7998 125.47 99.7998H208.49C211.588 99.7998 214.1 97.2888 214.1 94.1898V42.38C214.1 39.2817 211.588 36.77 208.49 36.77Z" fill="#EFEFEF"/>
<path d="M208.49 36.77H125.47C122.372 36.77 119.86 39.2817 119.86 42.38V94.1898C119.86 97.2888 122.372 99.7998 125.47 99.7998H208.49C211.588 99.7998 214.1 97.2888 214.1 94.1898V42.38C214.1 39.2817 211.588 36.77 208.49 36.77Z" stroke="#BAC2CF" stroke-width="1.59" stroke-miterlimit="10"/>
<path d="M218.29 36.77H135.27C132.172 36.77 129.66 39.2817 129.66 42.38V94.1898C129.66 97.2888 132.172 99.7998 135.27 99.7998H218.29C221.388 99.7998 223.9 97.2888 223.9 94.1898V42.38C223.9 39.2817 221.388 36.77 218.29 36.77Z" fill="white"/>
<path d="M218.29 36.77H135.27C132.172 36.77 129.66 39.2817 129.66 42.38V94.1898C129.66 97.2888 132.172 99.7998 135.27 99.7998H218.29C221.388 99.7998 223.9 97.2888 223.9 94.1898V42.38C223.9 39.2817 221.388 36.77 218.29 36.77Z" stroke="#BAC2CF" stroke-width="1.59" stroke-miterlimit="10"/>
<path d="M163.15 36.8198H190.38V44.0598C190.38 44.5902 190.169 45.0989 189.794 45.474C189.419 45.8491 188.91 46.0598 188.38 46.0598H165.11C164.58 46.0598 164.071 45.8491 163.696 45.474C163.321 45.0989 163.11 44.5902 163.11 44.0598V36.8198H163.15Z" fill="white" stroke="#BAC2CF" stroke-width="1.59" stroke-miterlimit="10"/>
<path d="M190.41 99.5999H163.18V92.3599C163.18 91.8299 163.391 91.3209 163.766 90.9459C164.141 90.5709 164.65 90.3599 165.18 90.3599H188.52C189.05 90.3599 189.559 90.5709 189.934 90.9459C190.309 91.3209 190.52 91.8299 190.52 92.3599V99.5999H190.41Z" fill="white" stroke="#BAC2CF" stroke-width="1.59" stroke-miterlimit="10"/>
<path d="M105 99.9098H238.76" stroke="#BAC2CF" stroke-width="1.59" stroke-miterlimit="10"/>
<path d="M221.53 57.34C230.46 57.34 237.7 50.1004 237.7 41.17C237.7 32.2395 230.46 25 221.53 25C212.6 25 205.36 32.2395 205.36 41.17C205.36 50.1004 212.6 57.34 221.53 57.34Z" fill="white" stroke="#BAC2CF" stroke-width="1.59" stroke-miterlimit="10"/>
<path d="M214.95 41.67L219.53 46.13L230.13 36.21" stroke="#BAC2CF" stroke-width="2" stroke-miterlimit="10"/>
</svg>
