<svg width="6" height="9" viewBox="0 0 6 9" fill="none" xmlns="http://www.w3.org/2000/svg">
<path d="M0.863 1.2455C0.995 1.13183 1.13617 1.0255 1.2865 0.926499C1.4405 0.8275 1.6055 0.741333 1.7815 0.668C1.96117 0.594666 2.15367 0.537833 2.359 0.4975C2.568 0.453499 2.79167 0.431499 3.03 0.431499C3.36 0.431499 3.65883 0.477333 3.9265 0.569C4.19417 0.657 4.42333 0.785333 4.614 0.953999C4.80467 1.119 4.95133 1.31883 5.054 1.5535C5.16033 1.78817 5.2135 2.05033 5.2135 2.34C5.2135 2.61867 5.17317 2.86067 5.0925 3.066C5.0155 3.26767 4.9165 3.44367 4.7955 3.594C4.67817 3.74433 4.548 3.8745 4.405 3.9845C4.262 4.0945 4.12633 4.19717 3.998 4.2925C3.86967 4.38783 3.75783 4.48317 3.6625 4.5785C3.57083 4.67017 3.514 4.77283 3.492 4.8865L3.3545 5.673H2.315L2.2105 4.782C2.18483 4.606 2.20683 4.45383 2.2765 4.3255C2.34617 4.1935 2.43967 4.07433 2.557 3.968C2.67433 3.858 2.8045 3.7535 2.9475 3.6545C3.09417 3.55183 3.22983 3.44367 3.3545 3.33C3.48283 3.21267 3.58917 3.0825 3.6735 2.9395C3.7615 2.79283 3.8055 2.6205 3.8055 2.4225C3.8055 2.1805 3.72117 1.988 3.5525 1.845C3.3875 1.702 3.1675 1.6305 2.8925 1.6305C2.69083 1.6305 2.52033 1.6525 2.381 1.6965C2.24533 1.7405 2.128 1.79 2.029 1.845C1.93 1.89633 1.84567 1.944 1.776 1.988C1.70633 2.032 1.64033 2.054 1.578 2.054C1.43867 2.054 1.33417 1.9935 1.2645 1.8725L0.863 1.2455ZM1.8915 7.7025C1.8915 7.5815 1.9135 7.46783 1.9575 7.3615C2.00517 7.2515 2.06933 7.158 2.15 7.081C2.23067 7.00033 2.32417 6.938 2.4305 6.894C2.5405 6.84633 2.65967 6.8225 2.788 6.8225C2.91267 6.8225 3.03 6.84633 3.14 6.894C3.25 6.938 3.34533 7.00033 3.426 7.081C3.50667 7.158 3.569 7.2515 3.613 7.3615C3.66067 7.46783 3.6845 7.5815 3.6845 7.7025C3.6845 7.82717 3.66067 7.94267 3.613 8.049C3.569 8.15533 3.50667 8.24883 3.426 8.3295C3.34533 8.4065 3.25 8.467 3.14 8.511C3.03 8.555 2.91267 8.577 2.788 8.577C2.65967 8.577 2.5405 8.555 2.4305 8.511C2.32417 8.467 2.23067 8.4065 2.15 8.3295C2.06933 8.24883 2.00517 8.15533 1.9575 8.049C1.9135 7.94267 1.8915 7.82717 1.8915 7.7025Z" fill="#21A9B6"/>
</svg>
