<svg width="343" height="125" viewBox="0 0 343 125" fill="none" xmlns="http://www.w3.org/2000/svg">
<path d="M343 0H0V125H343V0Z" fill="white"/>
<path d="M36.3701 102.24H306.83" stroke="#BAC2CF" stroke-width="1.59" stroke-miterlimit="10"/>
<path d="M181.81 47.0801H129.36C127.626 47.0801 126.22 48.4859 126.22 50.2201V83.2201C126.22 84.9541 127.626 86.3601 129.36 86.3601H181.81C183.544 86.3601 184.95 84.9541 184.95 83.2201V50.2201C184.95 48.4859 183.544 47.0801 181.81 47.0801Z" fill="#EFEFEF"/>
<path d="M181.81 47.0801H129.36C127.626 47.0801 126.22 48.4859 126.22 50.2201V83.2201C126.22 84.9541 127.626 86.3601 129.36 86.3601H181.81C183.544 86.3601 184.95 84.9541 184.95 83.2201V50.2201C184.95 48.4859 183.544 47.0801 181.81 47.0801Z" stroke="#BAC2CF" stroke-width="1.59" stroke-miterlimit="10"/>
<path d="M187.92 47.0801H135.47C133.736 47.0801 132.33 48.4859 132.33 50.2201V83.2201C132.33 84.9541 133.736 86.3601 135.47 86.3601H187.92C189.654 86.3601 191.06 84.9541 191.06 83.2201V50.2201C191.06 48.4859 189.654 47.0801 187.92 47.0801Z" fill="white"/>
<path d="M187.92 47.0801H135.47C133.736 47.0801 132.33 48.4859 132.33 50.2201V83.2201C132.33 84.9541 133.736 86.3601 135.47 86.3601H187.92C189.654 86.3601 191.06 84.9541 191.06 83.2201V50.2201C191.06 48.4859 189.654 47.0801 187.92 47.0801Z" stroke="#BAC2CF" stroke-width="1.59" stroke-miterlimit="10"/>
<path d="M153.2 47.0801H170.2V51.7101C170.205 51.8579 170.181 52.0052 170.128 52.1433C170.075 52.2814 169.995 52.4075 169.892 52.5139C169.79 52.6203 169.667 52.7049 169.53 52.7627C169.394 52.8205 169.248 52.8502 169.1 52.8501H154.3C154.008 52.8501 153.728 52.7342 153.522 52.5279C153.316 52.3216 153.2 52.0418 153.2 51.7501V47.0801Z" fill="white" stroke="#BAC2CF" stroke-width="1.59" stroke-miterlimit="10"/>
<path d="M170.19 86.2401H153.19V81.6101C153.19 81.3181 153.306 81.0381 153.512 80.8321C153.718 80.6261 153.998 80.5101 154.29 80.5101H169.09C169.382 80.5101 169.662 80.6261 169.868 80.8321C170.074 81.0381 170.19 81.3181 170.19 81.6101V86.2401Z" fill="white" stroke="#BAC2CF" stroke-width="1.59" stroke-miterlimit="10"/>
<path d="M155.86 63.7798C155.749 63.8427 155.657 63.9344 155.593 64.0453C155.53 64.1562 155.498 64.2821 155.5 64.4098V69.0401C155.497 69.1661 155.53 69.2911 155.593 69.4001C155.657 69.5091 155.749 69.5991 155.86 69.6601L161.34 72.8301C161.45 72.8901 161.574 72.9211 161.7 72.9201C161.837 72.9311 161.975 72.9071 162.1 72.8501L167.57 69.6801C167.681 69.6191 167.773 69.5291 167.837 69.4201C167.9 69.3111 167.933 69.1861 167.93 69.0601V64.4098C167.932 64.2821 167.9 64.1562 167.837 64.0453C167.773 63.9344 167.681 63.8427 167.57 63.7798L162.1 60.6198C161.989 60.5557 161.863 60.522 161.735 60.522C161.607 60.522 161.481 60.5557 161.37 60.6198L155.9 63.7798H155.86ZM156.8 65.5498L158.8 66.7201L156.8 67.8901V65.5498ZM166.1 64.4098L161.71 66.9501L157.31 64.4098L161.7 61.8498L166.1 64.4098ZM166.64 67.8901L164.64 66.7201L166.64 65.5498V67.8901ZM157.31 69.0401L160.1 67.4501L161.39 68.2001C161.5 68.2601 161.624 68.2911 161.75 68.2901C161.875 68.2881 161.999 68.2571 162.11 68.2001L163.39 67.4501L166.14 69.0401L161.75 71.5801L157.31 69.0401Z" fill="#BAC2CF"/>
<path d="M195.68 64.6699H208.31C209.065 64.6693 209.804 64.8821 210.443 65.2837C211.081 65.6854 211.594 66.2591 211.92 66.9401L216.59 76.7201C216.841 77.2591 216.97 77.8461 216.97 78.4401V90.8501H195.68V64.6699Z" fill="white" stroke="#BAC2CF" stroke-width="1.59" stroke-miterlimit="10"/>
<path d="M195.67 55.5698L195.69 90.8501L138.31 90.9001" stroke="#BAC2CF" stroke-width="1.59" stroke-miterlimit="10"/>
<path d="M195.62 100.19C199.812 100.19 203.21 96.7921 203.21 92.6001C203.21 88.4081 199.812 85.0101 195.62 85.0101C191.428 85.0101 188.03 88.4081 188.03 92.6001C188.03 96.7921 191.428 100.19 195.62 100.19Z" fill="white" stroke="#BAC2CF" stroke-width="1.59" stroke-miterlimit="10"/>
<path d="M195.62 94.9501C196.918 94.9501 197.97 93.8981 197.97 92.6001C197.97 91.3021 196.918 90.2501 195.62 90.2501C194.322 90.2501 193.27 91.3021 193.27 92.6001C193.27 93.8981 194.322 94.9501 195.62 94.9501Z" fill="white" stroke="#BAC2CF" stroke-width="1.59" stroke-miterlimit="10"/>
<path d="M160.97 100.23C165.162 100.23 168.56 96.8321 168.56 92.6401C168.56 88.4481 165.162 85.0501 160.97 85.0501C156.778 85.0501 153.38 88.4481 153.38 92.6401C153.38 96.8321 156.778 100.23 160.97 100.23Z" fill="white" stroke="#BAC2CF" stroke-width="1.59" stroke-miterlimit="10"/>
<path d="M160.97 94.9901C162.268 94.9901 163.32 93.9381 163.32 92.6401C163.32 91.3421 162.268 90.2901 160.97 90.2901C159.672 90.2901 158.62 91.3421 158.62 92.6401C158.62 93.9381 159.672 94.9901 160.97 94.9901Z" fill="white" stroke="#BAC2CF" stroke-width="1.59" stroke-miterlimit="10"/>
<path d="M280.61 33.7599C280.61 33.8799 280.61 33.9899 280.67 34.1099C280.711 34.4157 280.687 34.7268 280.598 35.0224C280.51 35.318 280.359 35.5914 280.157 35.8242C279.954 36.057 279.704 36.2439 279.424 36.3725C279.143 36.5011 278.839 36.5684 278.53 36.5699H248.53C248.063 36.5611 247.612 36.4013 247.243 36.1143C246.875 35.8273 246.609 35.4287 246.487 34.9782C246.364 34.5277 246.39 34.0495 246.562 33.6153C246.734 33.1812 247.042 32.8144 247.44 32.5699C248.427 32.0104 249.536 31.7014 250.67 31.6699C250.77 30.763 251.088 29.8938 251.597 29.1362C252.105 28.3787 252.789 27.7553 253.591 27.3192C254.392 26.8831 255.287 26.6473 256.199 26.6317C257.112 26.6162 258.014 26.8214 258.83 27.2299C259.557 25.7723 260.731 24.5851 262.18 23.8418C263.63 23.0985 265.279 22.8379 266.887 23.0981C268.495 23.3583 269.978 24.1256 271.119 25.2881C272.26 26.4506 273 27.9473 273.23 29.5599C274.159 29.2554 275.148 29.1866 276.11 29.3599C277.214 29.5606 278.232 30.0868 279.034 30.8709C279.836 31.6551 280.385 32.6612 280.61 33.7599Z" fill="white" stroke="#BAC2CF" stroke-width="1.59" stroke-miterlimit="10"/>
<path d="M87.8101 70.3001C87.8101 70.4101 87.8101 70.5301 87.8601 70.6401C87.9013 70.9451 87.8769 71.2561 87.7884 71.5521C87.6998 71.8481 87.5493 72.1211 87.3468 72.3541C87.1442 72.5871 86.8944 72.7741 86.6139 72.9021C86.3334 73.0311 86.0287 73.0981 85.7201 73.1001H55.7201C55.2532 73.0911 54.8018 72.9311 54.4334 72.6441C54.065 72.3571 53.7996 71.9581 53.6768 71.5081C53.5541 71.0571 53.5806 70.5791 53.7524 70.1451C53.9243 69.7111 54.2322 69.3441 54.6301 69.1001C55.617 68.5391 56.7256 68.2271 57.8601 68.1901C57.9602 67.2831 58.2781 66.4131 58.7866 65.656C59.2951 64.8984 59.9793 64.2751 60.7807 63.839C61.5822 63.4029 62.4772 63.167 63.3895 63.1515C64.3017 63.1359 65.2042 63.3412 66.0201 63.7497C66.7478 62.2918 67.9226 61.1048 69.3729 60.362C70.8231 59.6192 72.4728 59.3596 74.0811 59.6209C75.6894 59.8823 77.1721 60.6509 78.3125 61.8147C79.4529 62.9785 80.1914 64.4764 80.4201 66.0901C81.3502 65.7757 82.3456 65.7068 83.3101 65.8901C84.4138 66.0931 85.4317 66.6221 86.2333 67.4081C87.035 68.1931 87.584 69.2001 87.8101 70.3001Z" fill="white" stroke="#BAC2CF" stroke-width="1.59" stroke-miterlimit="10"/>
<path d="M36.3701 102.24H306.83" stroke="#BAC2CF" stroke-width="1.59" stroke-miterlimit="10"/>
</svg>
