<svg width="24" height="24" viewBox="0 0 24 24" fill="none" xmlns="http://www.w3.org/2000/svg">
<path d="M9.77002 5.77978C9.77002 6.88435 10.6654 7.77979 11.77 7.77979C12.8746 7.77979 13.77 6.88435 13.77 5.77979C13.77 4.67522 12.8746 3.77979 11.77 3.77979C10.6655 3.77979 9.77002 4.67522 9.77002 5.77978Z" fill="#98A2B3"/>
<path d="M9.77002 12.2598C9.77002 13.3643 10.6654 14.2598 11.77 14.2598C12.8746 14.2598 13.77 13.3643 13.77 12.2598C13.77 11.1552 12.8746 10.2598 11.77 10.2598C10.6655 10.2598 9.77002 11.1552 9.77002 12.2598Z" fill="#98A2B3"/>
<path d="M9.77002 18.75C9.77002 19.8546 10.6654 20.75 11.77 20.75C12.8746 20.75 13.77 19.8546 13.77 18.75C13.77 17.6454 12.8746 16.75 11.77 16.75C10.6655 16.75 9.77002 17.6454 9.77002 18.75Z" fill="#98A2B3"/>
</svg>
