<svg width="110" height="110" viewBox="0 0 110 110" fill="none" xmlns="http://www.w3.org/2000/svg">
<circle cx="55" cy="55" r="55" fill="#ECFDF3"/>
<path d="M55 89.6739C74.1498 89.6739 89.6739 74.1499 89.6739 55C89.6739 35.8501 74.1498 20.3261 55 20.3261C35.8501 20.3261 20.326 35.8501 20.326 55C20.326 74.1499 35.8501 89.6739 55 89.6739Z" fill="#12B76A"/>
<path d="M51.6998 67.8566C50.9114 67.8579 50.144 67.6118 49.5133 67.1555L49.4742 67.1272L41.2389 61.0492C40.8574 60.7671 40.5374 60.4152 40.2969 60.0137C40.0564 59.6123 39.9002 59.169 39.8373 58.7093C39.7744 58.2497 39.8059 57.7825 39.9301 57.3346C40.0543 56.8866 40.2687 56.4667 40.5611 56.0987C40.8535 55.7307 41.2182 55.4219 41.6343 55.1898C42.0504 54.9578 42.5098 54.8072 42.9863 54.7464C43.4627 54.6857 43.9469 54.7161 44.4112 54.8359C44.8755 54.9558 45.3108 55.1626 45.6922 55.4448L51.0263 59.3913L63.6313 43.5255C63.9236 43.1576 64.2881 42.8489 64.7041 42.617C65.12 42.3851 65.5792 42.2345 66.0555 42.1738C66.5317 42.1131 67.0157 42.1435 67.4798 42.2633C67.9439 42.383 68.379 42.5898 68.7603 42.8718L68.7613 42.8726L68.6831 42.9774L68.7634 42.8726C69.5326 43.4429 70.0358 44.2844 70.1627 45.2123C70.2896 46.1402 70.0297 47.0788 69.4401 47.822L54.6139 66.4755C54.2709 66.9053 53.8299 67.253 53.3251 67.4918C52.8203 67.7306 52.2652 67.854 51.703 67.8525L51.6998 67.8566Z" fill="white"/>
</svg>
