<svg width="12" height="14" viewBox="0 0 12 14" fill="none" xmlns="http://www.w3.org/2000/svg">
<path d="M6.00007 0C9.18236 0 11.7619 2.57951 11.7619 5.76179C11.7619 8.19652 10.0511 10.8499 6.67376 13.7503C6.48597 13.9116 6.24654 14.0002 5.99897 14C5.7514 13.9998 5.51212 13.9108 5.32461 13.7491L5.10123 13.5553C1.87345 10.7305 0.238281 8.14215 0.238281 5.76179C0.238281 2.57951 2.81779 0 6.00007 0ZM6.00007 3.54572C5.41233 3.54572 4.84867 3.7792 4.43307 4.19479C4.01748 4.61039 3.784 5.17405 3.784 5.76179C3.784 6.34953 4.01748 6.9132 4.43307 7.32879C4.84867 7.74439 5.41233 7.97787 6.00007 7.97787C6.58781 7.97787 7.15148 7.74439 7.56707 7.32879C7.98267 6.9132 8.21615 6.34953 8.21615 5.76179C8.21615 5.17405 7.98267 4.61039 7.56707 4.19479C7.15148 3.7792 6.58781 3.54572 6.00007 3.54572Z" fill="#6F7076"/>
</svg>
