<svg width="66" height="59" viewBox="0 0 66 59" fill="none" xmlns="http://www.w3.org/2000/svg">
<circle cx="39" cy="21" r="21" fill="#E4E7EC"/>
<path opacity="0.4" d="M29.77 19C29.34 19 29 18.66 29 18.23V15.92C29 13.21 31.21 11 33.92 11H36.23C36.66 11 37 11.34 37 11.77C37 12.2 36.66 12.54 36.23 12.54H33.92C32.05 12.54 30.54 14.06 30.54 15.92V18.23C30.54 18.66 30.19 19 29.77 19Z" fill="#667085"/>
<path opacity="0.4" d="M48.23 19C47.81 19 47.46 18.66 47.46 18.23V15.92C47.46 14.05 45.94 12.54 44.08 12.54H41.77C41.34 12.54 41 12.19 41 11.77C41 11.35 41.34 11 41.77 11H44.08C46.79 11 49 13.21 49 15.92V18.23C49 18.66 48.66 19 48.23 19Z" fill="#667085"/>
<path d="M44.0799 31H42.6899C42.2699 31 41.9199 30.66 41.9199 30.23C41.9199 29.81 42.2599 29.46 42.6899 29.46H44.0799C45.9499 29.46 47.4599 27.94 47.4599 26.08V24.7C47.4599 24.28 47.7999 23.93 48.2299 23.93C48.6499 23.93 48.9999 24.27 48.9999 24.7V26.08C48.9999 28.79 46.7899 31 44.0799 31Z" fill="#667085"/>
<path d="M36.23 31H33.92C31.21 31 29 28.79 29 26.08V23.77C29 23.34 29.34 23 29.77 23C30.2 23 30.54 23.34 30.54 23.77V26.08C30.54 27.95 32.06 29.46 33.92 29.46H36.23C36.65 29.46 37 29.8 37 30.23C37 30.66 36.66 31 36.23 31Z" fill="#667085"/>
<path d="M45.46 20.23H44.1H33.9H32.54C32.11 20.23 31.77 20.58 31.77 21C31.77 21.42 32.11 21.77 32.54 21.77H33.9H44.1H45.46C45.89 21.77 46.23 21.42 46.23 21C46.23 20.58 45.89 20.23 45.46 20.23Z" fill="#667085"/>
<path d="M33.8999 22.94V23.27C33.8999 24.93 35.2399 26.27 36.8999 26.27H41.0999C42.7599 26.27 44.0999 24.93 44.0999 23.27V22.94C44.0999 22.82 44.0099 22.73 43.8899 22.73H34.1099C33.9899 22.73 33.8999 22.82 33.8999 22.94Z" fill="#667085"/>
<path opacity="0.4" d="M33.8999 19.06V18.73C33.8999 17.07 35.2399 15.73 36.8999 15.73H41.0999C42.7599 15.73 44.0999 17.07 44.0999 18.73V19.06C44.0999 19.18 44.0099 19.27 43.8899 19.27H34.1099C33.9899 19.27 33.8999 19.18 33.8999 19.06Z" fill="#667085"/>
<path d="M14.472 54.0804H16.822V55.0004H13.332V48.0504H14.472V54.0804ZM20.1654 55.0904C19.6454 55.0904 19.1754 54.9737 18.7554 54.7404C18.3354 54.5004 18.0054 54.167 17.7654 53.7404C17.5254 53.307 17.4054 52.807 17.4054 52.2404C17.4054 51.6804 17.5287 51.1837 17.7754 50.7504C18.0221 50.317 18.3587 49.9837 18.7854 49.7504C19.2121 49.517 19.6887 49.4004 20.2154 49.4004C20.7421 49.4004 21.2187 49.517 21.6454 49.7504C22.0721 49.9837 22.4087 50.317 22.6554 50.7504C22.9021 51.1837 23.0254 51.6804 23.0254 52.2404C23.0254 52.8004 22.8987 53.297 22.6454 53.7304C22.3921 54.1637 22.0454 54.5004 21.6054 54.7404C21.1721 54.9737 20.6921 55.0904 20.1654 55.0904ZM20.1654 54.1004C20.4587 54.1004 20.7321 54.0304 20.9854 53.8904C21.2454 53.7504 21.4554 53.5404 21.6154 53.2604C21.7754 52.9804 21.8554 52.6404 21.8554 52.2404C21.8554 51.8404 21.7787 51.5037 21.6254 51.2304C21.4721 50.9504 21.2687 50.7404 21.0154 50.6004C20.7621 50.4604 20.4887 50.3904 20.1954 50.3904C19.9021 50.3904 19.6287 50.4604 19.3754 50.6004C19.1287 50.7404 18.9321 50.9504 18.7854 51.2304C18.6387 51.5037 18.5654 51.8404 18.5654 52.2404C18.5654 52.8337 18.7154 53.2937 19.0154 53.6204C19.3221 53.9404 19.7054 54.1004 20.1654 54.1004ZM23.7723 52.2404C23.7723 51.6737 23.8857 51.177 24.1123 50.7504C24.3457 50.317 24.6657 49.9837 25.0723 49.7504C25.479 49.517 25.9457 49.4004 26.4723 49.4004C27.139 49.4004 27.689 49.5604 28.1223 49.8804C28.5623 50.1937 28.859 50.6437 29.0123 51.2304H27.7823C27.6823 50.957 27.5223 50.7437 27.3023 50.5904C27.0823 50.437 26.8057 50.3604 26.4723 50.3604C26.0057 50.3604 25.6323 50.527 25.3523 50.8604C25.079 51.187 24.9423 51.647 24.9423 52.2404C24.9423 52.8337 25.079 53.297 25.3523 53.6304C25.6323 53.9637 26.0057 54.1304 26.4723 54.1304C27.1323 54.1304 27.569 53.8404 27.7823 53.2604H29.0123C28.8523 53.8204 28.5523 54.267 28.1123 54.6004C27.6723 54.927 27.1257 55.0904 26.4723 55.0904C25.9457 55.0904 25.479 54.9737 25.0723 54.7404C24.6657 54.5004 24.3457 54.167 24.1123 53.7404C23.8857 53.307 23.7723 52.807 23.7723 52.2404ZM32.3284 52.2504L34.8684 55.0004H33.3284L31.2884 52.6304V55.0004H30.1484V47.6004H31.2884V51.9004L33.2884 49.4904H34.8684L32.3284 52.2504ZM41.4532 55.0704C40.8065 55.0704 40.2099 54.9204 39.6632 54.6204C39.1232 54.3137 38.6932 53.8904 38.3732 53.3504C38.0599 52.8037 37.9032 52.1904 37.9032 51.5104C37.9032 50.8304 38.0599 50.2204 38.3732 49.6804C38.6932 49.1404 39.1232 48.7204 39.6632 48.4204C40.2099 48.1137 40.8065 47.9604 41.4532 47.9604C42.1065 47.9604 42.7032 48.1137 43.2432 48.4204C43.7899 48.7204 44.2199 49.1404 44.5332 49.6804C44.8465 50.2204 45.0032 50.8304 45.0032 51.5104C45.0032 52.1904 44.8465 52.8037 44.5332 53.3504C44.2199 53.8904 43.7899 54.3137 43.2432 54.6204C42.7032 54.9204 42.1065 55.0704 41.4532 55.0704ZM41.4532 54.0804C41.9132 54.0804 42.3232 53.977 42.6832 53.7704C43.0432 53.557 43.3232 53.257 43.5232 52.8704C43.7299 52.477 43.8332 52.0237 43.8332 51.5104C43.8332 50.997 43.7299 50.547 43.5232 50.1604C43.3232 49.7737 43.0432 49.477 42.6832 49.2704C42.3232 49.0637 41.9132 48.9604 41.4532 48.9604C40.9932 48.9604 40.5832 49.0637 40.2232 49.2704C39.8632 49.477 39.5799 49.7737 39.3732 50.1604C39.1732 50.547 39.0732 50.997 39.0732 51.5104C39.0732 52.0237 39.1732 52.477 39.3732 52.8704C39.5799 53.257 39.8632 53.557 40.2232 53.7704C40.5832 53.977 40.9932 54.0804 41.4532 54.0804ZM47.265 50.2904C47.4317 50.0104 47.6517 49.7937 47.925 49.6404C48.205 49.4804 48.535 49.4004 48.915 49.4004V50.5804H48.625C48.1783 50.5804 47.8383 50.6937 47.605 50.9204C47.3783 51.147 47.265 51.5404 47.265 52.1004V55.0004H46.125V49.4904H47.265V50.2904ZM49.5829 52.2204C49.5829 51.667 49.6962 51.177 49.9229 50.7504C50.1562 50.3237 50.4696 49.9937 50.8629 49.7604C51.2629 49.5204 51.7062 49.4004 52.1929 49.4004C52.5529 49.4004 52.9062 49.4804 53.2529 49.6404C53.6062 49.7937 53.8862 50.0004 54.0929 50.2604V47.6004H55.2429V55.0004H54.0929V54.1704C53.9062 54.437 53.6462 54.657 53.3129 54.8304C52.9862 55.0037 52.6096 55.0904 52.1829 55.0904C51.7029 55.0904 51.2629 54.9704 50.8629 54.7304C50.4696 54.4837 50.1562 54.1437 49.9229 53.7104C49.6962 53.2704 49.5829 52.7737 49.5829 52.2204ZM54.0929 52.2404C54.0929 51.8604 54.0129 51.5304 53.8529 51.2504C53.6996 50.9704 53.4962 50.757 53.2429 50.6104C52.9896 50.4637 52.7162 50.3904 52.4229 50.3904C52.1296 50.3904 51.8562 50.4637 51.6029 50.6104C51.3496 50.7504 51.1429 50.9604 50.9829 51.2404C50.8296 51.5137 50.7529 51.8404 50.7529 52.2204C50.7529 52.6004 50.8296 52.9337 50.9829 53.2204C51.1429 53.507 51.3496 53.727 51.6029 53.8804C51.8629 54.027 52.1362 54.1004 52.4229 54.1004C52.7162 54.1004 52.9896 54.027 53.2429 53.8804C53.4962 53.7337 53.6996 53.5204 53.8529 53.2404C54.0129 52.9537 54.0929 52.6204 54.0929 52.2404ZM61.7902 52.1104C61.7902 52.317 61.7769 52.5037 61.7502 52.6704H57.5402C57.5736 53.1104 57.7369 53.4637 58.0302 53.7304C58.3236 53.997 58.6836 54.1304 59.1102 54.1304C59.7236 54.1304 60.1569 53.8737 60.4102 53.3604H61.6402C61.4736 53.867 61.1702 54.2837 60.7302 54.6104C60.2969 54.9304 59.7569 55.0904 59.1102 55.0904C58.5836 55.0904 58.1102 54.9737 57.6902 54.7404C57.2769 54.5004 56.9502 54.167 56.7102 53.7404C56.4769 53.307 56.3602 52.807 56.3602 52.2404C56.3602 51.6737 56.4736 51.177 56.7002 50.7504C56.9336 50.317 57.2569 49.9837 57.6702 49.7504C58.0902 49.517 58.5702 49.4004 59.1102 49.4004C59.6302 49.4004 60.0936 49.5137 60.5002 49.7404C60.9069 49.967 61.2236 50.287 61.4502 50.7004C61.6769 51.107 61.7902 51.577 61.7902 52.1104ZM60.6002 51.7504C60.5936 51.3304 60.4436 50.9937 60.1502 50.7404C59.8569 50.487 59.4936 50.3604 59.0602 50.3604C58.6669 50.3604 58.3302 50.487 58.0502 50.7404C57.7702 50.987 57.6036 51.3237 57.5502 51.7504H60.6002ZM64.0521 50.2904C64.2188 50.0104 64.4388 49.7937 64.7121 49.6404C64.9921 49.4804 65.3221 49.4004 65.7021 49.4004V50.5804H65.4121C64.9654 50.5804 64.6254 50.6937 64.3921 50.9204C64.1654 51.147 64.0521 51.5404 64.0521 52.1004V55.0004H62.9121V49.4904H64.0521V50.2904Z" fill="#667085"/>
</svg>
