<svg width="70" height="71" viewBox="0 0 70 71" fill="none" xmlns="http://www.w3.org/2000/svg">
<rect y="0.5" width="70" height="70" rx="35" fill="#ECFAFC"/>
<path d="M53.125 17.375H22.3125C20.8704 17.375 19.4875 17.9479 18.4678 18.9676C17.4481 19.9874 16.875 21.3704 16.875 22.8125M53.125 17.375V53.625H22.3125C20.8704 53.625 19.4875 53.0522 18.4678 52.0324C17.4481 51.0127 16.875 49.6296 16.875 48.1875V22.8125M53.125 17.375V28.25H22.3125C20.8704 28.25 19.4875 27.6772 18.4678 26.6574C17.4481 25.6377 16.875 24.2546 16.875 22.8125M51.2764 44.5624H44.0264C43.065 44.5624 42.143 44.1806 41.4631 43.5007C40.7833 42.8209 40.4014 41.8988 40.4014 40.9374C40.4014 39.976 40.7833 39.054 41.4631 38.3742C42.143 37.6944 43.065 37.3124 44.0264 37.3124H51.2764M27.2321 22.8125H53.125" stroke="#0098A5" stroke-width="2" stroke-linecap="round" stroke-linejoin="round"/>
</svg>
