<svg width="17" height="16" viewBox="0 0 17 16" fill="none" xmlns="http://www.w3.org/2000/svg">
<path d="M15.207 0.707022C14.8165 0.316531 14.1834 0.316494 13.7928 0.70694L9.20564 5.29306C8.8151 5.68351 8.182 5.68347 7.79151 5.29298L3.20564 0.707107C2.81512 0.316582 2.18195 0.316583 1.79143 0.707107L1.20564 1.29289C0.815117 1.68342 0.815118 2.31658 1.20564 2.70711L5.79143 7.29289C6.18195 7.68342 6.18195 8.31658 5.79143 8.70711L1.20564 13.2929C0.815118 13.6834 0.815118 14.3166 1.20564 14.7071L1.79143 15.2929C2.18195 15.6834 2.81512 15.6834 3.20564 15.2929L7.79151 10.707C8.182 10.3165 8.8151 10.3165 9.20564 10.7069L13.7928 15.2931C14.1834 15.6835 14.8165 15.6835 15.207 15.293L15.7928 14.7071C16.1834 14.3166 16.1834 13.6834 15.7928 13.2929L11.2071 8.70711C10.8165 8.31658 10.8165 7.68342 11.2071 7.29289L15.7928 2.70711C16.1834 2.31658 16.1834 1.68342 15.7928 1.29289L15.207 0.707022Z" fill="#185D5C"/>
</svg>
