<svg width="111" height="110" viewBox="0 0 111 110" fill="none" xmlns="http://www.w3.org/2000/svg">
<circle cx="55.5" cy="55" r="55" fill="#ECFDF3"/>
<path d="M55.5001 89.6739C74.65 89.6739 90.174 74.1498 90.174 55C90.174 35.8501 74.65 20.326 55.5001 20.326C36.3502 20.326 20.8262 35.8501 20.8262 55C20.8262 74.1498 36.3502 89.6739 55.5001 89.6739Z" fill="#12B76A"/>
<path d="M52.1999 67.8567C51.4116 67.8579 50.6442 67.6119 50.0134 67.1556L49.9743 67.1273L41.739 61.0492C41.3576 60.7671 41.0375 60.4153 40.797 60.0138C40.5565 59.6123 40.4004 59.1691 40.3374 58.7094C40.2745 58.2497 40.306 57.7825 40.4302 57.3346C40.5544 56.8867 40.7688 56.4667 41.0612 56.0987C41.3536 55.7307 41.7183 55.4219 42.1344 55.1899C42.5505 54.9579 43.0099 54.8072 43.4864 54.7465C43.9628 54.6858 44.447 54.7162 44.9113 54.836C45.3756 54.9558 45.8109 55.1627 46.1923 55.4448L51.5265 59.3914L64.1314 43.5255C64.4237 43.1577 64.7883 42.849 65.2042 42.617C65.6201 42.3851 66.0793 42.2345 66.5556 42.1738C67.0319 42.1131 67.5159 42.1435 67.9799 42.2633C68.444 42.3831 68.8791 42.5899 69.2604 42.8719L69.2614 42.8726L69.1832 42.9775L69.2636 42.8726C70.0327 43.443 70.536 44.2844 70.6628 45.2123C70.7897 46.1403 70.5298 47.0788 69.9402 47.8221L55.114 66.4755C54.771 66.9053 54.33 67.2531 53.8252 67.4919C53.3204 67.7307 52.7653 67.8541 52.2031 67.8525L52.1999 67.8567Z" fill="white"/>
</svg>
