<svg width="86" height="86" viewBox="0 0 86 86" fill="none" xmlns="http://www.w3.org/2000/svg">
<path d="M23.6026 17.0667C20.6693 20.2667 20.6693 20.5334 25.3359 27.3334C31.3359 36.1334 30.9359 37.2001 20.4026 37.6001L11.3359 38.0001V42.6667V47.3334L20.4026 47.7334C30.9359 48.1334 31.7359 49.7334 25.3359 58.1334C20.5359 64.5334 20.4026 66.0001 24.9359 68.9334C28.9359 71.6001 27.7359 72.5334 37.8693 58.2667L42.4026 51.7334L48.8026 61.2001C52.4026 66.4001 56.0026 70.6667 56.6693 70.6667C57.4693 70.6667 59.4693 69.4667 61.3359 68.1334L64.5359 65.6001L59.4693 58.0001C56.4026 53.6001 54.8026 50.0001 55.4693 49.3334C56.1359 48.6667 60.5359 48.0001 65.3359 47.7334L74.0026 47.3334V42.6667V38.0001L65.3359 37.6001C60.5359 37.3334 56.1359 36.6667 55.4693 36.0001C54.8026 35.3334 56.4026 31.7334 59.4693 27.3334L64.5359 19.7334L61.3359 17.2001C59.4693 15.8667 57.4693 14.6667 56.6693 14.6667C56.0026 14.6667 52.6693 18.6667 49.4693 23.3334C46.2693 28.1334 43.0693 32.0001 42.5359 32.0001C42.0026 32.0001 38.6693 28.1334 35.3359 23.3334C31.8693 18.5334 28.4026 14.6667 27.4693 14.6667C26.5359 14.6667 24.8026 15.7334 23.6026 17.0667Z" fill="black"/>
</svg>
