<svg width="26" height="28" viewBox="0 0 26 28" fill="none" xmlns="http://www.w3.org/2000/svg">
<path d="M6.99995 12.6V7.8C6.99995 6.2087 7.63209 4.68258 8.75731 3.55736C9.88253 2.43214 11.4087 1.8 13 1.8C14.5913 1.8 16.1174 2.43214 17.2426 3.55736C18.3678 4.68258 19 6.2087 19 7.8V12.6M4.59995 12.6H21.4C22.7254 12.6 23.8 13.6745 23.8 15V23.4C23.8 24.7255 22.7254 25.8 21.4 25.8H4.59995C3.27447 25.8 2.19995 24.7255 2.19995 23.4V15C2.19995 13.6745 3.27447 12.6 4.59995 12.6Z" stroke="#667085" stroke-width="3" stroke-linecap="round" stroke-linejoin="round"/>
</svg>
