<svg width="15" height="16" viewBox="0 0 15 16" fill="none" xmlns="http://www.w3.org/2000/svg">
<path d="M7.49996 0.916748C3.59704 0.916748 0.416626 4.09716 0.416626 8.00008C0.416626 11.903 3.59704 15.0834 7.49996 15.0834C11.4029 15.0834 14.5833 11.903 14.5833 8.00008C14.5833 4.09716 11.4029 0.916748 7.49996 0.916748ZM10.3333 8.53133H8.03121V10.8334C8.03121 11.1238 7.79038 11.3647 7.49996 11.3647C7.20954 11.3647 6.96871 11.1238 6.96871 10.8334V8.53133H4.66663C4.37621 8.53133 4.13538 8.2905 4.13538 8.00008C4.13538 7.70967 4.37621 7.46883 4.66663 7.46883H6.96871V5.16675C6.96871 4.87633 7.20954 4.6355 7.49996 4.6355C7.79038 4.6355 8.03121 4.87633 8.03121 5.16675V7.46883H10.3333C10.6237 7.46883 10.8645 7.70967 10.8645 8.00008C10.8645 8.2905 10.6237 8.53133 10.3333 8.53133Z" fill="white"/>
</svg>
