<svg width="375" height="168" viewBox="0 0 375 168" fill="none" xmlns="http://www.w3.org/2000/svg">
<path d="M255.066 2.85386C255.094 3.01337 255.163 3.16528 255.269 3.29798C255.375 3.43069 255.515 3.54067 255.678 3.61953C256.119 3.18846 256.67 2.85239 257.288 2.63808C257.004 2.41495 256.821 2.1113 256.773 1.78192C256.126 2.03553 255.545 2.40023 255.066 2.85386Z" fill="url(#paint0_linear_15023_37318)"/>
<path d="M84.8164 108.259C84.9074 108.139 84.9598 108.001 84.9682 107.857C84.9767 107.714 84.941 107.572 84.8647 107.445C84.57 107.342 84.2443 107.328 83.9388 107.403C83.8333 107.741 83.6215 108.047 83.3269 108.287C83.8161 108.191 84.3229 108.181 84.8164 108.259Z" fill="url(#paint1_linear_15023_37318)"/>
<path d="M31.9822 45.5992C32.008 46.1102 32.1332 46.6137 32.3525 47.0888C32.6901 46.9699 32.9847 46.7753 33.206 46.5249C33.0104 46.2525 32.9228 45.9324 32.9564 45.6131C32.8029 45.673 32.6359 45.7028 32.4675 45.7004C32.2991 45.698 32.1334 45.6634 31.9822 45.5992Z" fill="url(#paint2_linear_15023_37318)"/>
<path d="M316.145 28.5735C315.241 28.5389 314.355 28.3496 313.536 28.0166C313.314 28.3817 313.234 28.7995 313.311 29.2069C314.142 29.5549 315.03 29.7896 315.944 29.9029C315.726 29.3043 315.742 28.9493 316.145 28.5735Z" fill="url(#paint3_linear_15023_37318)"/>
<path d="M33.4639 24.8495C33.6088 24.9677 33.7156 25.1166 33.7735 25.2814C33.8314 25.4462 33.8384 25.6213 33.794 25.7892C34.3285 25.6261 34.8111 25.3567 35.203 25.0026C35.2268 24.8512 35.2043 24.697 35.138 24.5554C35.0716 24.4138 34.9636 24.2896 34.8246 24.1952C34.4596 24.529 33.9845 24.7575 33.4639 24.8495Z" fill="url(#paint4_linear_15023_37318)"/>
<path d="M262.771 46.3161C262.622 46.9644 262.724 47.637 263.061 48.2303C263.744 47.8687 264.542 47.7053 265.34 47.7639C265.507 47.157 265.529 46.5269 265.404 45.9124C264.565 46.1939 263.671 46.3311 262.771 46.3161Z" fill="url(#paint5_linear_15023_37318)"/>
<path d="M16.4025 94.5326C16.1524 94.6542 15.961 94.8493 15.863 95.0824C16.66 95.45 17.3745 95.938 17.9725 96.5233C18.108 96.3198 18.3175 96.1608 18.5684 96.0709C17.9805 95.4313 17.2423 94.907 16.4025 94.5326Z" fill="url(#paint6_linear_15023_37318)"/>
<path d="M19.3817 54.5019C19.5847 54.2454 19.7209 53.9538 19.7807 53.6473C19.8405 53.3408 19.8224 53.0268 19.7279 52.7269C18.574 52.4574 17.4607 52.0719 16.4106 51.5784C16.3727 51.9132 16.237 52.2342 16.0161 52.5111C17.2476 53.0243 18.3822 53.6955 19.3817 54.5019Z" fill="url(#paint7_linear_15023_37318)"/>
<path d="M1.12866 63.3767C0.99354 63.8808 0.963547 64.4018 1.04009 64.915C1.40397 64.8771 1.74907 64.7544 2.03848 64.56C1.9281 64.2496 1.94229 63.916 2.07874 63.6134C1.90999 63.6369 1.7373 63.6279 1.57305 63.587C1.4088 63.5461 1.25705 63.4743 1.12866 63.3767Z" fill="url(#paint8_linear_15023_37318)"/>
<path d="M67.3447 65.6876C67.707 66.1343 67.9567 66.6418 68.0774 67.1772C69.018 66.4641 70.0662 65.8646 71.1934 65.3953C71.238 64.8556 71.0518 64.3205 70.67 63.8918C69.4819 64.3723 68.3653 64.9753 67.3447 65.6876Z" fill="url(#paint9_linear_15023_37318)"/>
<path d="M11.7328 126.746C11.2016 126.89 10.7384 127.178 10.4124 127.568C10.4769 127.904 10.4769 128.248 10.4124 128.584C10.7264 128.389 10.9921 128.41 11.4993 128.584C11.4646 127.965 11.5434 127.344 11.7328 126.746Z" fill="url(#paint10_linear_15023_37318)"/>
<path d="M328.214 97.7205C328.055 97.8034 327.873 97.8472 327.687 97.8472C327.501 97.8472 327.319 97.8034 327.159 97.7205C327.205 98.1694 327.37 98.603 327.643 98.9874C327.794 99.0443 327.96 99.0659 328.124 99.05C328.287 99.0341 328.444 98.9813 328.577 98.8969C328.329 98.5425 328.203 98.1344 328.214 97.7205Z" fill="url(#paint11_linear_15023_37318)"/>
<path d="M13.2061 146.041C13.1665 146.205 13.0759 146.357 12.9439 146.48C12.8119 146.602 12.6436 146.691 12.4573 146.737C12.8715 147.035 13.359 147.247 13.8824 147.357C14.0413 147.302 14.1808 147.212 14.2868 147.096C14.3928 146.98 14.4616 146.842 14.4863 146.696C13.994 146.592 13.5485 146.364 13.2061 146.041Z" fill="url(#paint12_linear_15023_37318)"/>
<path d="M327.86 67.1424C327.955 67.1667 328.044 67.2077 328.12 67.2627C328.196 67.3178 328.258 67.3858 328.303 67.4626C328.68 67.1371 329.004 66.7696 329.269 66.3698C329.137 66.1964 328.953 66.0569 328.738 65.9661C328.57 66.4183 328.268 66.8242 327.86 67.1424Z" fill="url(#paint13_linear_15023_37318)"/>
<path d="M23.8262 162.601C23.5524 162.253 23.4478 161.8 23.6571 160.791C23.1164 160.787 22.5885 160.933 22.1515 161.209C22.0849 161.868 22.2123 162.531 22.5218 163.137C22.8782 162.841 23.3358 162.653 23.8262 162.601Z" fill="url(#paint14_linear_15023_37318)"/>
<path d="M339.076 25.8866C339.245 26.4385 339.618 26.9274 340.138 27.2788C340.519 26.7673 341.085 26.3803 341.749 26.179C341.617 25.6485 341.362 25.1465 341 24.7033C340.454 25.2023 339.8 25.6043 339.076 25.8866Z" fill="url(#paint15_linear_15023_37318)"/>
<path d="M65.7986 30.6547C66.461 30.4703 67.0297 30.0942 67.4089 29.5897C66.777 29.3088 66.2662 28.8598 65.9516 28.309C65.3581 28.4828 64.8106 28.7573 64.3413 29.1164C64.933 29.5468 65.4272 30.0684 65.7986 30.6547Z" fill="url(#paint16_linear_15023_37318)"/>
<path d="M76.0885 47.7292C75.779 47.4427 75.3569 47.2664 74.9049 47.235C74.5699 48.42 73.9888 49.5426 73.1899 50.5482C73.5985 50.6475 73.9578 50.8603 74.2125 51.1538C75.1133 50.1411 75.753 48.9734 76.0885 47.7292Z" fill="url(#paint17_linear_15023_37318)"/>
<path d="M77.6908 93.4676C77.9887 93.3493 78.1175 93.1544 78.3188 92.8272C77.4024 92.3967 76.5839 91.826 75.9034 91.1427C75.7445 91.3799 75.4977 91.5639 75.2029 91.6648C75.8736 92.4125 76.722 93.0273 77.6908 93.4676Z" fill="url(#paint18_linear_15023_37318)"/>
<path d="M198.359 54.481C198.467 54.3362 198.537 54.1725 198.564 54.0016C198.59 53.8307 198.572 53.6569 198.512 53.4926C197.868 53.3572 197.244 53.1587 196.652 52.9009C196.639 53.0871 196.569 53.2671 196.451 53.423C197.144 53.6924 197.787 54.0489 198.359 54.481Z" fill="url(#paint19_linear_15023_37318)"/>
<path d="M261.628 29.3879C261.971 29.4864 262.334 29.5188 262.693 29.4827C263.052 29.4467 263.398 29.343 263.705 29.1791C263.682 28.1408 263.798 27.1037 264.051 26.0885C263.667 26.1524 263.27 26.1284 262.9 26.0189C262.676 27.1911 262.247 28.327 261.628 29.3879Z" fill="url(#paint20_linear_15023_37318)"/>
<path d="M227.32 44.8683C227.417 45.0468 227.568 45.1996 227.756 45.311C227.944 45.4224 228.164 45.4882 228.391 45.5017C228.747 45.2764 229.003 44.952 229.116 44.5829C228.731 44.2347 228.467 43.8009 228.351 43.33C228.132 43.8982 227.782 44.4218 227.32 44.8683Z" fill="url(#paint21_linear_15023_37318)"/>
<path d="M366.25 11.1231C366.486 11.3428 366.786 11.5047 367.118 11.5926C367.45 11.6806 367.803 11.6915 368.142 11.6243C368.535 11.1561 368.736 10.5877 368.713 10.0094C367.973 9.65894 367.363 9.13237 366.958 8.492C366.931 9.40153 366.69 10.2967 366.25 11.1231Z" fill="url(#paint22_linear_15023_37318)"/>
<path d="M26.153 110.827C25.5653 111.006 25.0197 111.275 24.5427 111.621C24.7869 111.868 25.1042 112.053 25.4606 112.157C25.7064 111.906 26.0397 111.73 26.4107 111.656C26.2995 111.543 26.2187 111.41 26.1742 111.267C26.1296 111.123 26.1224 110.973 26.153 110.827Z" fill="url(#paint23_linear_15023_37318)"/>
<path d="M10.3075 39.3346C9.98157 39.1583 9.70625 38.9203 9.50236 38.6385C9.15788 39.2218 8.72461 39.7626 8.21411 40.2465C8.32351 40.5596 8.56875 40.8239 8.89849 40.9843C9.44298 40.4852 9.91605 39.9314 10.3075 39.3346Z" fill="url(#paint24_linear_15023_37318)"/>
<path d="M42.1433 146.41C42.6376 146.559 43.0901 146.797 43.4718 147.106C43.7169 146.229 44.1017 145.386 44.6151 144.601C44.3517 144.208 43.9258 143.917 43.4235 143.786C42.878 144.614 42.4483 145.495 42.1433 146.41Z" fill="url(#paint25_linear_15023_37318)"/>
<path d="M71.491 40.6363C70.9539 40.5285 70.3912 40.5674 69.8807 40.7476C69.7349 41.0702 69.5311 41.3709 69.2769 41.6386C69.6714 41.6386 69.8888 41.7569 70.2108 42.1537C70.5375 41.5901 70.9701 41.0773 71.491 40.6363Z" fill="url(#paint26_linear_15023_37318)"/>
<path d="M75.702 5.76341C75.9471 5.42867 76.2674 5.13989 76.644 4.91421C76.5132 4.73522 76.318 4.59829 76.0885 4.52441C75.7001 4.75296 75.3529 5.02971 75.0579 5.34577C75.4604 5.43626 75.6134 5.51283 75.702 5.76341Z" fill="url(#paint27_linear_15023_37318)"/>
<path d="M350.952 57.6411C350.591 57.8019 350.197 57.899 349.792 57.9265C349.794 58.1126 349.871 58.2922 350.01 58.4346C350.426 58.4152 350.836 58.3401 351.225 58.2119C350.976 57.9892 350.895 57.8499 350.952 57.6411Z" fill="url(#paint28_linear_15023_37318)"/>
<path d="M126.99 38.2209C126.843 37.9034 126.797 37.5573 126.858 37.2192C126.919 36.881 127.084 36.5634 127.337 36.2998C126.245 36.2057 125.143 36.3296 124.116 36.6617C123.92 36.9134 123.803 37.2048 123.776 37.5074C123.749 37.8099 123.814 38.1134 123.963 38.388C124.931 38.0751 125.984 38.017 126.99 38.2209Z" fill="url(#paint29_linear_15023_37318)"/>
<path d="M29.5024 11.1231C29.703 11.3335 29.8343 11.5868 29.8825 11.8563C29.9306 12.1258 29.8939 12.4015 29.7762 12.6544C30.6577 12.5074 31.4858 12.1805 32.1917 11.7008C32.2704 11.4684 32.2777 11.2222 32.2127 10.9866C32.1478 10.751 32.0129 10.5341 31.8213 10.3574C31.1527 10.8049 30.3459 11.0713 29.5024 11.1231Z" fill="url(#paint30_linear_15023_37318)"/>
<path d="M347.94 133.791C348.528 134.117 349.207 134.303 349.905 134.327C350.159 134.027 350.285 133.66 350.259 133.289C349.568 133.273 348.897 133.085 348.327 132.747C348.37 132.935 348.357 133.129 348.289 133.312C348.222 133.494 348.102 133.659 347.94 133.791Z" fill="url(#paint31_linear_15023_37318)"/>
<path d="M275.09 94.6648C275.422 94.4007 275.855 94.2519 276.306 94.2472C275.963 93.71 275.519 93.2255 274.994 92.8133C274.629 93.0011 274.314 93.2523 274.068 93.5511C274.499 93.8526 274.849 94.2329 275.09 94.6648Z" fill="url(#paint32_linear_15023_37318)"/>
<path d="M365.549 31.6431C366.189 31.1149 367.032 30.8099 367.916 30.7869C367.225 29.7402 366.338 28.7994 365.291 28.0027C364.579 28.3769 363.969 28.8804 363.504 29.4783C364.365 30.0576 365.065 30.7976 365.549 31.6431Z" fill="url(#paint33_linear_15023_37318)"/>
<path d="M171.193 23.4783C171.036 23.3447 170.914 23.1837 170.835 23.0061C170.756 22.8284 170.721 22.6382 170.734 22.4481C169.598 22.7322 168.513 23.154 167.514 23.701C167.557 24.16 167.743 24.6003 168.053 24.9748C168.933 24.2504 170.015 23.7349 171.193 23.4783Z" fill="url(#paint34_linear_15023_37318)"/>
<path d="M289.341 27.3136C289.444 27.1476 289.587 27.003 289.761 26.89C289.935 26.7769 290.135 26.6982 290.348 26.6593C289.73 25.7944 288.971 25.0114 288.093 24.3344C287.6 24.4903 287.168 24.7629 286.845 25.121C287.883 25.6532 288.743 26.4086 289.341 27.3136Z" fill="url(#paint35_linear_15023_37318)"/>
<path d="M281.491 0.236659C281.546 0.172896 281.614 0.119139 281.693 0.0785112C281.772 0.0378837 281.859 0.0111988 281.95 0" fill="url(#paint36_linear_15023_37318)"/>
<path d="M140.018 14.4851C139.277 14.687 138.407 14.6313 136.741 13.9074C136.502 14.6158 136.531 15.3715 136.821 16.0652C137.945 16.4531 139.165 16.5826 140.364 16.4411C140.007 15.8385 139.886 15.1523 140.018 14.4851Z" fill="url(#paint37_linear_15023_37318)"/>
<path d="M311.169 93.2657C311.314 93.7599 311.225 94.3029 310.525 95.3539C311.13 95.5465 311.791 95.5636 312.409 95.4026C312.793 94.6824 312.959 93.8896 312.892 93.0987C312.354 93.3158 311.749 93.3744 311.169 93.2657Z" fill="url(#paint38_linear_15023_37318)"/>
<path d="M341.048 114.057C340.546 114.589 340.263 115.25 340.243 115.937C341.073 115.894 341.896 116.082 342.594 116.473C343.094 115.988 343.472 115.419 343.705 114.802C342.772 114.705 341.87 114.452 341.048 114.057Z" fill="url(#paint39_linear_15023_37318)"/>
<path d="M354.849 17.0049C355.263 16.9286 355.632 16.726 355.887 16.4341C354.965 15.6276 354.218 14.6846 353.681 13.6498C353.387 13.8811 353.014 14.0229 352.618 14.0536C353.115 15.1612 353.875 16.1665 354.849 17.0049Z" fill="url(#paint40_linear_15023_37318)"/>
<path d="M87.1755 25.7057C87.248 25.9632 87.4493 26.1164 87.8197 26.2834C88.114 25.8674 88.52 25.5188 89.0032 25.2672C88.7191 25.1047 88.5153 24.8565 88.4316 24.5711C87.9267 24.8702 87.499 25.2565 87.1755 25.7057Z" fill="url(#paint41_linear_15023_37318)"/>
<path d="M51.6199 121.254C51.6354 121.849 51.5036 122.44 51.2334 122.988C52.5692 122.831 53.9233 122.831 55.2592 122.988C55.681 122.526 55.8879 121.945 55.8389 121.359C54.4421 121.181 53.0261 121.146 51.6199 121.254Z" fill="url(#paint42_linear_15023_37318)"/>
<path d="M327.473 44.5899C327.914 44.6232 328.341 44.7422 328.721 44.9379C328.72 44.179 328.834 43.4231 329.06 42.6897C328.753 42.4191 328.338 42.2598 327.9 42.2442C327.648 43.0081 327.504 43.7959 327.473 44.5899Z" fill="url(#paint43_linear_15023_37318)"/>
<path d="M39.7761 155.71C40.1142 156.014 40.5581 156.214 41.0402 156.28C41.3172 156.102 41.624 155.961 41.95 155.863C41.6521 155.731 41.5716 155.536 41.5394 155.125C40.9919 155.401 40.3965 155.598 39.7761 155.71Z" fill="url(#paint44_linear_15023_37318)"/>
<path d="M30.525 71.4789C29.9311 70.9091 29.4765 70.2414 29.1885 69.516C28.7339 69.6337 28.3375 69.8785 28.0613 70.2121C28.3391 70.9583 28.7492 71.6628 29.2771 72.3003C29.6474 71.7295 29.9373 71.4928 30.525 71.4789Z" fill="url(#paint45_linear_15023_37318)"/>
<path d="M204.8 3.41766C205.67 3.74736 206.458 4.22018 207.119 4.80979C207.497 4.52215 207.757 4.13624 207.86 3.71C207.198 3.09449 206.433 2.56885 205.589 2.15082C205.525 2.83992 205.364 3.18099 204.8 3.41766Z" fill="url(#paint46_linear_15023_37318)"/>
<path d="M265.581 122.473C265.588 122.652 265.539 122.83 265.44 122.987C265.341 123.145 265.195 123.277 265.018 123.371C265.541 123.584 266.114 123.691 266.693 123.684C266.842 123.589 266.961 123.462 267.036 123.316C267.111 123.169 267.139 123.008 267.119 122.848C266.575 122.858 266.04 122.727 265.581 122.473Z" fill="url(#paint47_linear_15023_37318)"/>
<path d="M2.44116 83.1032C2.61811 83.5582 2.93216 83.9643 3.35099 84.2795C3.67573 84.1972 3.9592 84.0232 4.15614 83.7853C3.73167 83.4842 3.42285 83.0789 3.27047 82.6229C3.1883 82.7555 3.0697 82.8687 2.9251 82.9524C2.78049 83.0362 2.61432 83.0879 2.44116 83.1032Z" fill="url(#paint48_linear_15023_37318)"/>
<path d="M342.433 165.921C342.08 166.232 341.607 166.42 341.105 166.45C341.519 167.03 342.045 167.546 342.659 167.974C343.052 167.752 343.385 167.457 343.633 167.111C343.135 166.797 342.726 166.39 342.433 165.921Z" fill="url(#paint49_linear_15023_37318)"/>
<path d="M10.5651 15.1394C10.5567 15.4946 10.396 15.8344 10.1143 16.093C10.7383 16.2382 11.3859 16.2923 12.0305 16.2531C12.1161 15.9278 12.1161 15.59 12.0305 15.2647C11.5373 15.3143 11.0376 15.2715 10.5651 15.1394Z" fill="url(#paint50_linear_15023_37318)"/>
<path d="M297.586 109.192C296.843 109.37 296.056 109.353 295.324 109.143C295.329 109.272 295.303 109.401 295.248 109.52C295.192 109.64 295.109 109.749 295.002 109.839C295.796 110.121 296.666 110.207 297.514 110.09C297.634 109.802 297.659 109.491 297.586 109.192Z" fill="url(#paint51_linear_15023_37318)"/>
<path d="M365.903 61.9915C365.823 62.3047 365.597 62.5901 364.849 63.0217C365.129 63.2759 365.495 63.4466 365.895 63.5089C366.347 63.199 366.699 62.794 366.918 62.3326C366.546 62.3172 366.19 62.1974 365.903 61.9915Z" fill="url(#paint52_linear_15023_37318)"/>
<path d="M19.3252 31.9563C19.8324 31.7614 20.4444 31.7545 21.7407 32.1582C21.8584 31.6355 21.7794 31.0939 21.5152 30.6129C20.6706 30.4218 19.7833 30.4218 18.9387 30.6129C19.2253 31.0153 19.3603 31.4847 19.3252 31.9563Z" fill="url(#paint53_linear_15023_37318)"/>
<path d="M116.282 112.797C116.155 112.9 116.057 113.028 115.997 113.169C115.937 113.31 115.916 113.462 115.936 113.612C116.545 113.67 117.129 113.851 117.642 114.141C117.686 113.827 117.861 113.537 118.134 113.326C117.565 113.042 116.935 112.862 116.282 112.797Z" fill="url(#paint54_linear_15023_37318)"/>
<path d="M363.568 45.6758C363.874 45.1453 364.07 44.573 364.148 43.9843C363.73 43.9452 363.306 44.0054 362.924 44.1584C362.945 44.5267 362.827 44.8909 362.586 45.1955C362.781 45.2068 362.971 45.2559 363.141 45.339C363.311 45.4222 363.457 45.5372 363.568 45.6758Z" fill="url(#paint55_linear_15023_37318)"/>
<path d="M266.837 10.0372C268.018 10.553 269.293 10.8897 270.605 11.0326C270.703 10.3347 270.578 9.62692 270.243 8.98618C269.418 9.01703 268.604 8.81417 267.924 8.40845C267.894 8.73264 267.781 9.04698 267.593 9.3287C267.405 9.61041 267.147 9.85244 266.837 10.0372Z" fill="url(#paint56_linear_15023_37318)"/>
<path d="M141.644 41.743C142.136 42.2269 142.501 42.7967 142.715 43.4135C143.713 42.4789 144.853 41.6663 146.105 40.9982C146.089 40.3632 145.802 39.7557 145.299 39.2928C143.973 39.9818 142.746 40.8043 141.644 41.743Z" fill="url(#paint57_linear_15023_37318)"/>
<path d="M113.89 15.9538C113.285 15.55 112.545 15.3254 111.781 15.3134C111.395 15.6436 110.952 15.9206 110.469 16.1348C110.968 16.2879 111.145 16.5663 111.274 17.2137C112.061 16.6741 112.945 16.2487 113.89 15.9538Z" fill="url(#paint58_linear_15023_37318)"/>
<path d="M229.575 28.7753C229.004 28.2792 228.265 27.9526 227.465 27.8426C227.006 28.142 226.495 28.3769 225.952 28.5387C226.451 28.7684 226.588 29.0816 226.644 29.7707C227.552 29.3039 228.542 28.9678 229.575 28.7753Z" fill="url(#paint59_linear_15023_37318)"/>
<path d="M165.968 2.91652C166.073 2.5668 166.257 2.23818 166.507 1.94899C166.337 1.83038 166.129 1.7599 165.911 1.74713C165.644 2.03748 165.43 2.36141 165.275 2.7077C165.638 2.65202 165.807 2.72162 165.968 2.91652Z" fill="url(#paint60_linear_15023_37318)"/>
<path d="M45.9275 54.2582C46.1005 54.3833 46.232 54.5459 46.3084 54.7294C46.3848 54.9129 46.4034 55.1106 46.3623 55.3023C46.9441 55.088 47.4617 54.7619 47.876 54.3487C47.894 54.1763 47.8596 54.0027 47.7763 53.8453C47.693 53.6878 47.5636 53.5518 47.4009 53.4508C47.0102 53.8372 46.4985 54.1177 45.9275 54.2582Z" fill="url(#paint61_linear_15023_37318)"/>
<path d="M54.3735 51.1886C54.3039 50.8138 54.1174 50.4624 53.834 50.1724C53.5652 50.1992 53.3151 50.3048 53.1255 50.4717C53.408 50.7552 53.5897 51.1033 53.6488 51.474C53.7306 51.3762 53.8405 51.2985 53.9675 51.2484C54.0945 51.1984 54.2344 51.1778 54.3735 51.1886Z" fill="url(#paint62_linear_15023_37318)"/>
<path d="M307.932 117.503C307.673 116.818 307.713 116.075 308.045 115.414C306.737 115.505 305.456 115.783 304.253 116.236C304.335 116.91 304.585 117.56 304.986 118.143C305.9 117.742 306.907 117.523 307.932 117.503Z" fill="url(#paint63_linear_15023_37318)"/>
<path d="M352.779 79.3305C352.375 79.1926 352.045 78.9296 351.853 78.5927C351.455 79.0696 351.153 79.6015 350.96 80.1658C351.294 80.3669 351.677 80.5001 352.079 80.5556C352.205 80.1075 352.444 79.6891 352.779 79.3305Z" fill="url(#paint64_linear_15023_37318)"/>
<path d="M357.425 100.644C357.227 100.76 357.002 100.837 356.765 100.87C356.529 100.904 356.287 100.893 356.056 100.839C356.139 101.957 356.411 103.059 356.862 104.11C357.438 104.173 358.024 104.096 358.552 103.888C357.859 102.909 357.471 101.791 357.425 100.644Z" fill="url(#paint65_linear_15023_37318)"/>
<path d="M47.2802 64.7062C47.1703 64.8365 47.0293 64.945 46.8668 65.0243C46.7043 65.1035 46.524 65.1517 46.3381 65.1656C46.7508 65.9571 47.2932 66.6932 47.9484 67.3512C48.3886 67.2679 48.7929 67.0799 49.1159 66.8083C48.3006 66.2595 47.6674 65.5344 47.2802 64.7062Z" fill="url(#paint66_linear_15023_37318)"/>
<path d="M297.828 81.711C297.319 81.7174 296.819 81.5913 296.395 81.3491C296.373 81.4302 296.333 81.5066 296.276 81.5737C296.22 81.6407 296.147 81.697 296.064 81.7389C296.513 82.034 297.049 82.2148 297.61 82.2609C297.74 82.0986 297.816 81.9082 297.828 81.711Z" fill="url(#paint67_linear_15023_37318)"/>
<path d="M351.403 151.791C350.952 151.464 350.646 150.97 350.485 149.703C349.844 149.853 349.279 150.18 348.875 150.635C349.048 151.424 349.456 152.161 350.058 152.772C350.373 152.329 350.844 151.985 351.403 151.791Z" fill="url(#paint68_linear_15023_37318)"/>
<path d="M58.834 15.9956C58.7602 16.3254 58.811 16.6671 58.979 16.9701C59.3252 16.7844 59.7331 16.7035 60.1384 16.7403C60.2289 16.4308 60.2427 16.1082 60.1786 15.7937C59.7496 15.935 59.2931 16.0035 58.834 15.9956Z" fill="url(#paint69_linear_15023_37318)"/>
<path d="M337.828 153.475C338.358 153.452 338.861 153.264 339.245 152.946C338.275 151.776 337.563 150.462 337.143 149.069C336.725 149.309 336.227 149.421 335.726 149.389C336.077 150.867 336.794 152.261 337.828 153.475Z" fill="url(#paint70_linear_15023_37318)"/>
<path d="M318.544 130.728C318.345 130.584 318.113 130.48 317.862 130.422C317.612 130.365 317.35 130.355 317.095 130.394C316.798 131.091 316.409 131.757 315.936 132.378C316.211 132.417 316.468 132.524 316.676 132.684C317.181 131.954 317.811 131.294 318.544 130.728Z" fill="url(#paint71_linear_15023_37318)"/>
<defs>
<linearGradient id="paint0_linear_15023_37318" x1="264.2" y1="0.364803" x2="263.384" y2="-0.892839" gradientUnits="userSpaceOnUse">
<stop stop-color="#FF5C5C"/>
<stop offset="0.3" stop-color="#F44444"/>
<stop offset="0.93" stop-color="#D60707"/>
<stop offset="1" stop-color="#D30000"/>
</linearGradient>
<linearGradient id="paint1_linear_15023_37318" x1="2296.81" y1="728.589" x2="2296.86" y2="727.033" gradientUnits="userSpaceOnUse">
<stop stop-color="#FF5C5C"/>
<stop offset="0.3" stop-color="#F44444"/>
<stop offset="0.93" stop-color="#D60707"/>
<stop offset="1" stop-color="#D30000"/>
</linearGradient>
<linearGradient id="paint2_linear_15023_37318" x1="377.242" y1="1098.18" x2="379.049" y2="1097.45" gradientUnits="userSpaceOnUse">
<stop stop-color="#FF5C5C"/>
<stop offset="0.3" stop-color="#F44444"/>
<stop offset="0.93" stop-color="#D60707"/>
<stop offset="1" stop-color="#D30000"/>
</linearGradient>
<linearGradient id="paint3_linear_15023_37318" x1="7065.15" y1="624.019" x2="7064.38" y2="629.885" gradientUnits="userSpaceOnUse">
<stop stop-color="#FF5C5C"/>
<stop offset="0.3" stop-color="#F44444"/>
<stop offset="0.93" stop-color="#D60707"/>
<stop offset="1" stop-color="#D30000"/>
</linearGradient>
<linearGradient id="paint4_linear_15023_37318" x1="-60.2222" y1="1377.81" x2="-59.001" y2="1380.5" gradientUnits="userSpaceOnUse">
<stop stop-color="#FF5C5C"/>
<stop offset="0.3" stop-color="#F44444"/>
<stop offset="0.93" stop-color="#D60707"/>
<stop offset="1" stop-color="#D30000"/>
</linearGradient>
<linearGradient id="paint5_linear_15023_37318" x1="-158.807" y1="-624.177" x2="-157.752" y2="-616.762" gradientUnits="userSpaceOnUse">
<stop stop-color="#FF5C5C"/>
<stop offset="0.3" stop-color="#F44444"/>
<stop offset="0.93" stop-color="#D60707"/>
<stop offset="1" stop-color="#D30000"/>
</linearGradient>
<linearGradient id="paint6_linear_15023_37318" x1="2673.78" y1="241.964" x2="2671.34" y2="244.728" gradientUnits="userSpaceOnUse">
<stop stop-color="#FF5C5C"/>
<stop offset="0.3" stop-color="#F44444"/>
<stop offset="0.93" stop-color="#D60707"/>
<stop offset="1" stop-color="#D30000"/>
</linearGradient>
<linearGradient id="paint7_linear_15023_37318" x1="7598.59" y1="11281.1" x2="7595.96" y2="11289.1" gradientUnits="userSpaceOnUse">
<stop stop-color="#FF5C5C"/>
<stop offset="0.3" stop-color="#F44444"/>
<stop offset="0.93" stop-color="#D60707"/>
<stop offset="1" stop-color="#D30000"/>
</linearGradient>
<linearGradient id="paint8_linear_15023_37318" x1="189.816" y1="977.381" x2="191.549" y2="977.218" gradientUnits="userSpaceOnUse">
<stop stop-color="#4D8EFF"/>
<stop offset="0.43" stop-color="#3F76FF"/>
<stop offset="1" stop-color="#2850FF"/>
</linearGradient>
<linearGradient id="paint9_linear_15023_37318" x1="-3293.94" y1="2473.04" x2="-3299.83" y2="2461.75" gradientUnits="userSpaceOnUse">
<stop stop-color="#4D8EFF"/>
<stop offset="0.43" stop-color="#3F76FF"/>
<stop offset="1" stop-color="#2850FF"/>
</linearGradient>
<linearGradient id="paint10_linear_15023_37318" x1="4038.51" y1="1635.59" x2="4035.17" y2="1636.63" gradientUnits="userSpaceOnUse">
<stop stop-color="#4D8EFF"/>
<stop offset="0.43" stop-color="#3F76FF"/>
<stop offset="1" stop-color="#2850FF"/>
</linearGradient>
<linearGradient id="paint11_linear_15023_37318" x1="2013.15" y1="420.537" x2="2010.64" y2="421.19" gradientUnits="userSpaceOnUse">
<stop stop-color="#4D8EFF"/>
<stop offset="0.43" stop-color="#3F76FF"/>
<stop offset="1" stop-color="#2850FF"/>
</linearGradient>
<linearGradient id="paint12_linear_15023_37318" x1="1067.22" y1="631.116" x2="1066.14" y2="633.231" gradientUnits="userSpaceOnUse">
<stop stop-color="#4D8EFF"/>
<stop offset="0.43" stop-color="#3F76FF"/>
<stop offset="1" stop-color="#2850FF"/>
</linearGradient>
<linearGradient id="paint13_linear_15023_37318" x1="973.209" y1="1266.26" x2="974.742" y2="1267.39" gradientUnits="userSpaceOnUse">
<stop stop-color="#4D8EFF"/>
<stop offset="0.43" stop-color="#3F76FF"/>
<stop offset="1" stop-color="#2850FF"/>
</linearGradient>
<linearGradient id="paint14_linear_15023_37318" x1="3939.26" y1="5277.67" x2="3934.35" y2="5278.88" gradientUnits="userSpaceOnUse">
<stop stop-color="#4D8EFF"/>
<stop offset="0.43" stop-color="#3F76FF"/>
<stop offset="1" stop-color="#2850FF"/>
</linearGradient>
<linearGradient id="paint15_linear_15023_37318" x1="-1103.02" y1="1612.81" x2="-1099" y2="1619.13" gradientUnits="userSpaceOnUse">
<stop stop-color="#4D8EFF"/>
<stop offset="0.43" stop-color="#3F76FF"/>
<stop offset="1" stop-color="#2850FF"/>
</linearGradient>
<linearGradient id="paint16_linear_15023_37318" x1="2763.47" y1="8854.26" x2="2768.72" y2="8849.2" gradientUnits="userSpaceOnUse">
<stop stop-color="#4D8EFF"/>
<stop offset="0.43" stop-color="#3F76FF"/>
<stop offset="1" stop-color="#2850FF"/>
</linearGradient>
<linearGradient id="paint17_linear_15023_37318" x1="15787.7" y1="5271.09" x2="15778.1" y2="5264.33" gradientUnits="userSpaceOnUse">
<stop stop-color="#4D8EFF"/>
<stop offset="0.43" stop-color="#3F76FF"/>
<stop offset="1" stop-color="#2850FF"/>
</linearGradient>
<linearGradient id="paint18_linear_15023_37318" x1="4415.23" y1="7961.28" x2="4418.57" y2="7957.52" gradientUnits="userSpaceOnUse">
<stop stop-color="#4D8EFF"/>
<stop offset="0.43" stop-color="#3F76FF"/>
<stop offset="1" stop-color="#2850FF"/>
</linearGradient>
<linearGradient id="paint19_linear_15023_37318" x1="3539.44" y1="3392.4" x2="3538.7" y2="3394.85" gradientUnits="userSpaceOnUse">
<stop stop-color="#4D8EFF"/>
<stop offset="0.43" stop-color="#3F76FF"/>
<stop offset="1" stop-color="#2850FF"/>
</linearGradient>
<linearGradient id="paint20_linear_15023_37318" x1="16.2222" y1="4471.3" x2="5.20942" y2="4472.24" gradientUnits="userSpaceOnUse">
<stop stop-color="#4D8EFF"/>
<stop offset="0.43" stop-color="#3F76FF"/>
<stop offset="1" stop-color="#2850FF"/>
</linearGradient>
<linearGradient id="paint21_linear_15023_37318" x1="232.263" y1="48.3369" x2="233.678" y2="49.4197" gradientUnits="userSpaceOnUse">
<stop stop-color="#FC9512"/>
<stop offset="0.01" stop-color="#FC9612"/>
<stop offset="0.68" stop-color="#FED319"/>
<stop offset="1" stop-color="#FFEB1C"/>
</linearGradient>
<linearGradient id="paint22_linear_15023_37318" x1="-1145.62" y1="4622.05" x2="-1133.55" y2="4626.22" gradientUnits="userSpaceOnUse">
<stop stop-color="#FC9512"/>
<stop offset="0.01" stop-color="#FC9612"/>
<stop offset="0.68" stop-color="#FED319"/>
<stop offset="1" stop-color="#FFEB1C"/>
</linearGradient>
<linearGradient id="paint23_linear_15023_37318" x1="1386.35" y1="651.878" x2="1387.68" y2="654.289" gradientUnits="userSpaceOnUse">
<stop stop-color="#FC9512"/>
<stop offset="0.01" stop-color="#FC9612"/>
<stop offset="0.68" stop-color="#FED319"/>
<stop offset="1" stop-color="#FFEB1C"/>
</linearGradient>
<linearGradient id="paint24_linear_15023_37318" x1="5784.29" y1="3345.4" x2="5788.79" y2="3349.05" gradientUnits="userSpaceOnUse">
<stop stop-color="#FC9512"/>
<stop offset="0.01" stop-color="#FC9612"/>
<stop offset="0.68" stop-color="#FED319"/>
<stop offset="1" stop-color="#FFEB1C"/>
</linearGradient>
<linearGradient id="paint25_linear_15023_37318" x1="-196.709" y1="4292.24" x2="-207.365" y2="4287.75" gradientUnits="userSpaceOnUse">
<stop stop-color="#FC9512"/>
<stop offset="0.01" stop-color="#FC9612"/>
<stop offset="0.68" stop-color="#FED319"/>
<stop offset="1" stop-color="#FFEB1C"/>
</linearGradient>
<linearGradient id="paint26_linear_15023_37318" x1="4002.07" y1="1623.87" x2="3999.19" y2="1621.73" gradientUnits="userSpaceOnUse">
<stop stop-color="#FC9512"/>
<stop offset="0.01" stop-color="#FC9612"/>
<stop offset="0.68" stop-color="#FED319"/>
<stop offset="1" stop-color="#FFEB1C"/>
</linearGradient>
<linearGradient id="paint27_linear_15023_37318" x1="1170.24" y1="2210.62" x2="1168.94" y2="2209.32" gradientUnits="userSpaceOnUse">
<stop stop-color="#FC9512"/>
<stop offset="0.01" stop-color="#FC9612"/>
<stop offset="0.68" stop-color="#FED319"/>
<stop offset="1" stop-color="#FFEB1C"/>
</linearGradient>
<linearGradient id="paint28_linear_15023_37318" x1="594.086" y1="688.886" x2="594.579" y2="690.131" gradientUnits="userSpaceOnUse">
<stop stop-color="#FC9512"/>
<stop offset="0.01" stop-color="#FC9612"/>
<stop offset="0.68" stop-color="#FED319"/>
<stop offset="1" stop-color="#FFEB1C"/>
</linearGradient>
<linearGradient id="paint29_linear_15023_37318" x1="11555.2" y1="5140.66" x2="11554.8" y2="5133.01" gradientUnits="userSpaceOnUse">
<stop stop-color="#FC9512"/>
<stop offset="0.01" stop-color="#FC9612"/>
<stop offset="0.68" stop-color="#FED319"/>
<stop offset="1" stop-color="#FFEB1C"/>
</linearGradient>
<linearGradient id="paint30_linear_15023_37318" x1="-2198.17" y1="1626.73" x2="-2196.21" y2="1633.12" gradientUnits="userSpaceOnUse">
<stop stop-color="#FC9512"/>
<stop offset="0.01" stop-color="#FC9612"/>
<stop offset="0.68" stop-color="#FED319"/>
<stop offset="1" stop-color="#FFEB1C"/>
</linearGradient>
<linearGradient id="paint31_linear_15023_37318" x1="-113.541" y1="3905.25" x2="-112.683" y2="3901.7" gradientUnits="userSpaceOnUse">
<stop stop-color="#FC9512"/>
<stop offset="0.01" stop-color="#FC9612"/>
<stop offset="0.68" stop-color="#FED319"/>
<stop offset="1" stop-color="#FFEB1C"/>
</linearGradient>
<linearGradient id="paint32_linear_15023_37318" x1="1951.71" y1="4312.03" x2="1955.22" y2="4309.15" gradientUnits="userSpaceOnUse">
<stop stop-color="#FC9512"/>
<stop offset="0.01" stop-color="#FC9612"/>
<stop offset="0.68" stop-color="#FED319"/>
<stop offset="1" stop-color="#FFEB1C"/>
</linearGradient>
<linearGradient id="paint33_linear_15023_37318" x1="3153.49" y1="15443.6" x2="3166.79" y2="15432.3" gradientUnits="userSpaceOnUse">
<stop stop-color="#FC9512"/>
<stop offset="0.01" stop-color="#FC9612"/>
<stop offset="0.68" stop-color="#FED319"/>
<stop offset="1" stop-color="#FFEB1C"/>
</linearGradient>
<linearGradient id="paint34_linear_15023_37318" x1="11971.9" y1="5628.75" x2="11969.4" y2="5622.43" gradientUnits="userSpaceOnUse">
<stop stop-color="#FC9512"/>
<stop offset="0.01" stop-color="#FC9612"/>
<stop offset="0.68" stop-color="#FED319"/>
<stop offset="1" stop-color="#FFEB1C"/>
</linearGradient>
<linearGradient id="paint35_linear_15023_37318" x1="2807.25" y1="11322" x2="2813.02" y2="11316.1" gradientUnits="userSpaceOnUse">
<stop stop-color="#FC9512"/>
<stop offset="0.01" stop-color="#FC9612"/>
<stop offset="0.68" stop-color="#FED319"/>
<stop offset="1" stop-color="#FFEB1C"/>
</linearGradient>
<linearGradient id="paint36_linear_15023_37318" x1="269.034" y1="-214.657" x2="268.926" y2="-214.421" gradientUnits="userSpaceOnUse">
<stop stop-color="#FC9512"/>
<stop offset="0.01" stop-color="#FC9612"/>
<stop offset="0.68" stop-color="#FED319"/>
<stop offset="1" stop-color="#FFEB1C"/>
</linearGradient>
<linearGradient id="paint37_linear_15023_37318" x1="8217.57" y1="-856.641" x2="8215.55" y2="-841.315" gradientUnits="userSpaceOnUse">
<stop stop-color="#FC9512"/>
<stop offset="0.01" stop-color="#FC9612"/>
<stop offset="0.68" stop-color="#FED319"/>
<stop offset="1" stop-color="#FFEB1C"/>
</linearGradient>
<linearGradient id="paint38_linear_15023_37318" x1="1247.09" y1="436.257" x2="1255.45" y2="437.802" gradientUnits="userSpaceOnUse">
<stop stop-color="#FC9512"/>
<stop offset="0.01" stop-color="#FC9612"/>
<stop offset="0.68" stop-color="#FED319"/>
<stop offset="1" stop-color="#FFEB1C"/>
</linearGradient>
<linearGradient id="paint39_linear_15023_37318" x1="2756.09" y1="-1764.7" x2="2753.59" y2="-1756.82" gradientUnits="userSpaceOnUse">
<stop stop-color="#FC9512"/>
<stop offset="0.01" stop-color="#FC9612"/>
<stop offset="0.68" stop-color="#FED319"/>
<stop offset="1" stop-color="#FFEB1C"/>
</linearGradient>
<linearGradient id="paint40_linear_15023_37318" x1="1595.18" y1="9866.81" x2="1603.35" y2="9862.04" gradientUnits="userSpaceOnUse">
<stop stop-color="#FC9512"/>
<stop offset="0.01" stop-color="#FC9612"/>
<stop offset="0.68" stop-color="#FED319"/>
<stop offset="1" stop-color="#FFEB1C"/>
</linearGradient>
<linearGradient id="paint41_linear_15023_37318" x1="89.2146" y1="33.3641" x2="88.3379" y2="32.3786" gradientUnits="userSpaceOnUse">
<stop stop-color="#FF3EB9"/>
<stop offset="0.04" stop-color="#FF44BC"/>
<stop offset="0.7" stop-color="#FF98E3"/>
<stop offset="1" stop-color="#FFB9F2"/>
</linearGradient>
<linearGradient id="paint42_linear_15023_37318" x1="-1238.24" y1="-440.709" x2="-1237.47" y2="-447.991" gradientUnits="userSpaceOnUse">
<stop stop-color="#FF3EB9"/>
<stop offset="0.04" stop-color="#FF44BC"/>
<stop offset="0.7" stop-color="#FF98E3"/>
<stop offset="1" stop-color="#FFB9F2"/>
</linearGradient>
<linearGradient id="paint43_linear_15023_37318" x1="2401.82" y1="2142" x2="2393.85" y2="2141.57" gradientUnits="userSpaceOnUse">
<stop stop-color="#FF3EB9"/>
<stop offset="0.04" stop-color="#FF44BC"/>
<stop offset="0.7" stop-color="#FF98E3"/>
<stop offset="1" stop-color="#FFB9F2"/>
</linearGradient>
<linearGradient id="paint44_linear_15023_37318" x1="567.102" y1="689.615" x2="567.734" y2="691.676" gradientUnits="userSpaceOnUse">
<stop stop-color="#FF3EB9"/>
<stop offset="0.04" stop-color="#FF44BC"/>
<stop offset="0.7" stop-color="#FF98E3"/>
<stop offset="1" stop-color="#FFB9F2"/>
</linearGradient>
<linearGradient id="paint45_linear_15023_37318" x1="8100.63" y1="7537.27" x2="8095.62" y2="7540.3" gradientUnits="userSpaceOnUse">
<stop stop-color="#FF3EB9"/>
<stop offset="0.04" stop-color="#FF44BC"/>
<stop offset="0.7" stop-color="#FF98E3"/>
<stop offset="1" stop-color="#FFB9F2"/>
</linearGradient>
<linearGradient id="paint46_linear_15023_37318" x1="-3508.81" y1="3125.6" x2="-3505.2" y2="3119.44" gradientUnits="userSpaceOnUse">
<stop stop-color="#FF3EB9"/>
<stop offset="0.04" stop-color="#FF44BC"/>
<stop offset="0.7" stop-color="#FF98E3"/>
<stop offset="1" stop-color="#FFB9F2"/>
</linearGradient>
<linearGradient id="paint47_linear_15023_37318" x1="1613.44" y1="583.954" x2="1612.89" y2="586.214" gradientUnits="userSpaceOnUse">
<stop stop-color="#FF3EB9"/>
<stop offset="0.04" stop-color="#FF44BC"/>
<stop offset="0.7" stop-color="#FF98E3"/>
<stop offset="1" stop-color="#FFB9F2"/>
</linearGradient>
<linearGradient id="paint48_linear_15023_37318" x1="-76.9065" y1="1588.06" x2="-75.1279" y2="1586.6" gradientUnits="userSpaceOnUse">
<stop stop-color="#FF3EB9"/>
<stop offset="0.04" stop-color="#FF44BC"/>
<stop offset="0.7" stop-color="#FF98E3"/>
<stop offset="1" stop-color="#FFB9F2"/>
</linearGradient>
<linearGradient id="paint49_linear_15023_37318" x1="3764.25" y1="627.248" x2="3760.1" y2="630.999" gradientUnits="userSpaceOnUse">
<stop stop-color="#FF3EB9"/>
<stop offset="0.04" stop-color="#FF44BC"/>
<stop offset="0.7" stop-color="#FF98E3"/>
<stop offset="1" stop-color="#FFB9F2"/>
</linearGradient>
<linearGradient id="paint50_linear_15023_37318" x1="1027.64" y1="357.689" x2="1027.24" y2="359.994" gradientUnits="userSpaceOnUse">
<stop stop-color="#FF3EB9"/>
<stop offset="0.04" stop-color="#FF44BC"/>
<stop offset="0.7" stop-color="#FF98E3"/>
<stop offset="1" stop-color="#FFB9F2"/>
</linearGradient>
<linearGradient id="paint51_linear_15023_37318" x1="4260.25" y1="-669.914" x2="4259.7" y2="-672.308" gradientUnits="userSpaceOnUse">
<stop stop-color="#FF3EB9"/>
<stop offset="0.04" stop-color="#FF44BC"/>
<stop offset="0.7" stop-color="#FF98E3"/>
<stop offset="1" stop-color="#FFB9F2"/>
</linearGradient>
<linearGradient id="paint52_linear_15023_37318" x1="2081.86" y1="785.347" x2="2085.13" y2="788.284" gradientUnits="userSpaceOnUse">
<stop stop-color="#FF3EB9"/>
<stop offset="0.04" stop-color="#FF44BC"/>
<stop offset="0.7" stop-color="#FF98E3"/>
<stop offset="1" stop-color="#FFB9F2"/>
</linearGradient>
<linearGradient id="paint53_linear_15023_37318" x1="707.674" y1="6423.13" x2="708.161" y2="6414.79" gradientUnits="userSpaceOnUse">
<stop stop-color="#FF3EB9"/>
<stop offset="0.04" stop-color="#FF44BC"/>
<stop offset="0.7" stop-color="#FF98E3"/>
<stop offset="1" stop-color="#FFB9F2"/>
</linearGradient>
<linearGradient id="paint54_linear_15023_37318" x1="116.212" y1="114.474" x2="116.591" y2="113.18" gradientUnits="userSpaceOnUse">
<stop stop-color="#00EE98"/>
<stop offset="0.28" stop-color="#00D685"/>
<stop offset="0.87" stop-color="#009955"/>
<stop offset="1" stop-color="#008A49"/>
</linearGradient>
<linearGradient id="paint55_linear_15023_37318" x1="2510.63" y1="2905.29" x2="2507.81" y2="2904.71" gradientUnits="userSpaceOnUse">
<stop stop-color="#00EE98"/>
<stop offset="0.28" stop-color="#00D685"/>
<stop offset="0.87" stop-color="#009955"/>
<stop offset="1" stop-color="#008A49"/>
</linearGradient>
<linearGradient id="paint56_linear_15023_37318" x1="-1807.47" y1="10548.2" x2="-1804.89" y2="10536.8" gradientUnits="userSpaceOnUse">
<stop stop-color="#00EE98"/>
<stop offset="0.28" stop-color="#00D685"/>
<stop offset="0.87" stop-color="#009955"/>
<stop offset="1" stop-color="#008A49"/>
</linearGradient>
<linearGradient id="paint57_linear_15023_37318" x1="-5763.74" y1="3714.14" x2="-5774.29" y2="3698.36" gradientUnits="userSpaceOnUse">
<stop stop-color="#00EE98"/>
<stop offset="0.28" stop-color="#00D685"/>
<stop offset="0.87" stop-color="#009955"/>
<stop offset="1" stop-color="#008A49"/>
</linearGradient>
<linearGradient id="paint58_linear_15023_37318" x1="9282.22" y1="3045.34" x2="9279.82" y2="3040.27" gradientUnits="userSpaceOnUse">
<stop stop-color="#00EE98"/>
<stop offset="0.28" stop-color="#00D685"/>
<stop offset="0.87" stop-color="#009955"/>
<stop offset="1" stop-color="#008A49"/>
</linearGradient>
<linearGradient id="paint59_linear_15023_37318" x1="9883.5" y1="4279.11" x2="9881.71" y2="4273.42" gradientUnits="userSpaceOnUse">
<stop stop-color="#00EE98"/>
<stop offset="0.28" stop-color="#00D685"/>
<stop offset="0.87" stop-color="#009955"/>
<stop offset="1" stop-color="#008A49"/>
</linearGradient>
<linearGradient id="paint60_linear_15023_37318" x1="877.789" y1="1154.23" x2="876.612" y2="1153.54" gradientUnits="userSpaceOnUse">
<stop stop-color="#00EE98"/>
<stop offset="0.28" stop-color="#00D685"/>
<stop offset="0.87" stop-color="#009955"/>
<stop offset="1" stop-color="#008A49"/>
</linearGradient>
<linearGradient id="paint61_linear_15023_37318" x1="-257.751" y1="1835.44" x2="-255.993" y2="1838.92" gradientUnits="userSpaceOnUse">
<stop stop-color="#00EE98"/>
<stop offset="0.28" stop-color="#00D685"/>
<stop offset="0.87" stop-color="#009955"/>
<stop offset="1" stop-color="#008A49"/>
</linearGradient>
<linearGradient id="paint62_linear_15023_37318" x1="1675.34" y1="1531.23" x2="1674.17" y2="1531.91" gradientUnits="userSpaceOnUse">
<stop stop-color="#00EE98"/>
<stop offset="0.28" stop-color="#00D685"/>
<stop offset="0.87" stop-color="#009955"/>
<stop offset="1" stop-color="#008A49"/>
</linearGradient>
<linearGradient id="paint63_linear_15023_37318" x1="13024.5" y1="7808.92" x2="13022.8" y2="7797.69" gradientUnits="userSpaceOnUse">
<stop stop-color="#00EE98"/>
<stop offset="0.28" stop-color="#00D685"/>
<stop offset="0.87" stop-color="#009955"/>
<stop offset="1" stop-color="#008A49"/>
</linearGradient>
<linearGradient id="paint64_linear_15023_37318" x1="4838.17" y1="2499.62" x2="4834.06" y2="2497.24" gradientUnits="userSpaceOnUse">
<stop stop-color="#00EE98"/>
<stop offset="0.28" stop-color="#00D685"/>
<stop offset="0.87" stop-color="#009955"/>
<stop offset="1" stop-color="#008A49"/>
</linearGradient>
<linearGradient id="paint65_linear_15023_37318" x1="12855.9" y1="-1129.49" x2="12845.9" y2="-1125.05" gradientUnits="userSpaceOnUse">
<stop stop-color="#00EE98"/>
<stop offset="0.28" stop-color="#00D685"/>
<stop offset="0.87" stop-color="#009955"/>
<stop offset="1" stop-color="#008A49"/>
</linearGradient>
<linearGradient id="paint66_linear_15023_37318" x1="5427.86" y1="-1412.04" x2="5423" y2="-1407.96" gradientUnits="userSpaceOnUse">
<stop stop-color="#00EE98"/>
<stop offset="0.28" stop-color="#00D685"/>
<stop offset="0.87" stop-color="#009955"/>
<stop offset="1" stop-color="#008A49"/>
</linearGradient>
<linearGradient id="paint67_linear_15023_37318" x1="2420.81" y1="220.773" x2="2420.93" y2="219.352" gradientUnits="userSpaceOnUse">
<stop stop-color="#00EE98"/>
<stop offset="0.28" stop-color="#00D685"/>
<stop offset="0.87" stop-color="#009955"/>
<stop offset="1" stop-color="#008A49"/>
</linearGradient>
<linearGradient id="paint68_linear_15023_37318" x1="9125.91" y1="6682.62" x2="9118.31" y2="6687.27" gradientUnits="userSpaceOnUse">
<stop stop-color="#00EE98"/>
<stop offset="0.28" stop-color="#00D685"/>
<stop offset="0.87" stop-color="#009955"/>
<stop offset="1" stop-color="#008A49"/>
</linearGradient>
<linearGradient id="paint69_linear_15023_37318" x1="319.394" y1="417.165" x2="319.65" y2="419.097" gradientUnits="userSpaceOnUse">
<stop stop-color="#00EE98"/>
<stop offset="0.28" stop-color="#00D685"/>
<stop offset="0.87" stop-color="#009955"/>
<stop offset="1" stop-color="#008A49"/>
</linearGradient>
<linearGradient id="paint70_linear_15023_37318" x1="-1380.42" y1="12453.2" x2="-1365.46" y2="12447.6" gradientUnits="userSpaceOnUse">
<stop stop-color="#00EE98"/>
<stop offset="0.28" stop-color="#00D685"/>
<stop offset="0.87" stop-color="#009955"/>
<stop offset="1" stop-color="#008A49"/>
</linearGradient>
<linearGradient id="paint71_linear_15023_37318" x1="6957.46" y1="2671.39" x2="6962.2" y2="2673.83" gradientUnits="userSpaceOnUse">
<stop stop-color="#00EE98"/>
<stop offset="0.28" stop-color="#00D685"/>
<stop offset="0.87" stop-color="#009955"/>
<stop offset="1" stop-color="#008A49"/>
</linearGradient>
</defs>
</svg>
