<svg width="33" height="33" viewBox="0 0 33 33" fill="none" xmlns="http://www.w3.org/2000/svg">
<g filter="url(#filter0_b_15_240849)">
<rect x="0.5" y="0.5" width="32" height="32" rx="4" fill="white" fill-opacity="0.2"/>
<path d="M13.0033 12.077C13.2068 11.9065 13.4268 11.747 13.6633 11.5985C13.9053 11.45 14.1638 11.3207 14.4388 11.2107C14.7138 11.0952 15.008 11.0072 15.3215 10.9467C15.6405 10.8807 15.9843 10.8477 16.3528 10.8477C16.8698 10.8477 17.3345 10.9165 17.747 11.054C18.165 11.1915 18.5198 11.3895 18.8113 11.648C19.1028 11.901 19.3255 12.209 19.4795 12.572C19.639 12.9295 19.7188 13.3282 19.7188 13.7682C19.7188 14.1862 19.661 14.5492 19.5455 14.8572C19.43 15.1597 19.2843 15.4237 19.1083 15.6492C18.9323 15.8747 18.737 16.07 18.5225 16.235C18.3135 16.4 18.1128 16.554 17.9203 16.697C17.7333 16.8345 17.5683 16.972 17.4253 17.1095C17.2878 17.247 17.1998 17.401 17.1612 17.5715L16.9303 18.7265H15.1813L14.9998 17.3982C14.9558 17.1287 14.9833 16.895 15.0823 16.697C15.1813 16.4935 15.316 16.312 15.4865 16.1525C15.6625 15.9875 15.8578 15.8335 16.0723 15.6905C16.2868 15.542 16.4875 15.3852 16.6745 15.2202C16.8615 15.0497 17.0183 14.8627 17.1448 14.6592C17.2768 14.4502 17.3428 14.2027 17.3428 13.9167C17.3428 13.5867 17.2328 13.3255 17.0128 13.133C16.7983 12.935 16.5013 12.836 16.1218 12.836C15.8303 12.836 15.5855 12.8662 15.3875 12.9267C15.195 12.9872 15.0273 13.056 14.8843 13.133C14.7468 13.2045 14.6258 13.2705 14.5213 13.331C14.4168 13.3915 14.3123 13.4217 14.2078 13.4217C13.9713 13.4217 13.7953 13.32 13.6798 13.1165L13.0033 12.077ZM14.5213 21.7047C14.5213 21.5067 14.557 21.3225 14.6285 21.152C14.7055 20.9815 14.8073 20.833 14.9338 20.7065C15.0658 20.58 15.2198 20.481 15.3958 20.4095C15.5718 20.3325 15.7643 20.294 15.9733 20.294C16.1768 20.294 16.3665 20.3325 16.5425 20.4095C16.7185 20.481 16.8725 20.58 17.0045 20.7065C17.1365 20.833 17.2383 20.9815 17.3098 21.152C17.3868 21.3225 17.4253 21.5067 17.4253 21.7047C17.4253 21.9027 17.3868 22.0897 17.3098 22.2657C17.2383 22.4362 17.1365 22.5847 17.0045 22.7112C16.8725 22.8377 16.7185 22.9367 16.5425 23.0083C16.3665 23.0798 16.1768 23.1155 15.9733 23.1155C15.7643 23.1155 15.5718 23.0798 15.3958 23.0083C15.2198 22.9367 15.0658 22.8377 14.9338 22.7112C14.8073 22.5847 14.7055 22.4362 14.6285 22.2657C14.557 22.0897 14.5213 21.9027 14.5213 21.7047Z" fill="white"/>
</g>
<defs>
<filter id="filter0_b_15_240849" x="-11.5" y="-11.5" width="56" height="56" filterUnits="userSpaceOnUse" color-interpolation-filters="sRGB">
<feFlood flood-opacity="0" result="BackgroundImageFix"/>
<feGaussianBlur in="BackgroundImageFix" stdDeviation="6"/>
<feComposite in2="SourceAlpha" operator="in" result="effect1_backgroundBlur_15_240849"/>
<feBlend mode="normal" in="SourceGraphic" in2="effect1_backgroundBlur_15_240849" result="shape"/>
</filter>
</defs>
</svg>
