<svg width="153" height="101" viewBox="0 0 153 101" fill="none" xmlns="http://www.w3.org/2000/svg">
<g clip-path="url(#clip0_17824_127753)">
<path d="M74.3459 82.9622L53.0444 61.6607C52.4925 61.1091 52.0547 60.4541 51.7561 59.7333C51.4574 59.0124 51.3037 58.2398 51.3037 57.4595C51.3037 56.6792 51.4574 55.9066 51.7561 55.1857C52.0547 54.4649 52.4925 53.8099 53.0444 53.2583L81.0048 25.3008H110.706V55.0017L82.7483 82.9652C82.1965 83.5169 81.5414 83.9544 80.8204 84.2528C80.0994 84.5512 79.3268 84.7047 78.5465 84.7044C77.7662 84.7041 76.9936 84.5501 76.2729 84.2512C75.5521 83.9523 74.8973 83.5143 74.3459 82.9622Z" fill="#E4E7EC" stroke="#98A2B3" stroke-width="1.5" stroke-miterlimit="10" stroke-linecap="square"/>
<path d="M92.8777 49.062C89.597 49.062 86.9375 46.4025 86.9375 43.1218C86.9375 39.8412 89.597 37.1816 92.8777 37.1816C96.1584 37.1816 98.8179 39.8412 98.8179 43.1218C98.8179 46.4025 96.1584 49.062 92.8777 49.062Z" fill="#98A2B3" stroke="#98A2B3" stroke-width="2" stroke-miterlimit="10" stroke-linecap="square"/>
<path d="M65.3456 73.9622L44.0441 52.6607C43.4923 52.1091 43.0545 51.4541 42.7558 50.7333C42.4571 50.0124 42.3034 49.2398 42.3034 48.4595C42.3034 47.6792 42.4571 46.9066 42.7558 46.1857C43.0545 45.4649 43.4923 44.8099 44.0441 44.2583L72.0046 16.3008H101.706V46.0017L73.748 73.9652C73.1962 74.5169 72.5411 74.9544 71.8202 75.2528C71.0992 75.5512 70.3265 75.7047 69.5462 75.7044C68.7659 75.7041 67.9934 75.5501 67.2726 75.2512C66.5519 74.9523 65.8971 74.5143 65.3456 73.9622Z" fill="#F2F4F7" stroke="#98A2B3" stroke-width="1.5" stroke-miterlimit="10" stroke-linecap="square"/>
<path d="M83.8774 40.062C80.5968 40.062 77.9372 37.4025 77.9372 34.1218C77.9372 30.8412 80.5968 28.1816 83.8774 28.1816C87.1581 28.1816 89.8176 30.8412 89.8176 34.1218C89.8176 37.4025 87.1581 40.062 83.8774 40.062Z" fill="#D0D5DD" stroke="#98A2B3" stroke-width="1.5" stroke-miterlimit="10" stroke-linecap="square"/>
</g>
<defs>
<clipPath id="clip0_17824_127753">
<rect width="71" height="71" fill="white" transform="translate(41 15)"/>
</clipPath>
</defs>
</svg>
